M48
; DRILL file {KiCad (5.1.0-rc2-10-g13249b723)} date Sun 10 Mar 2019 08:32:56 PM CET
; FORMAT={-:-/ absolute / inch / decimal}
; #@! TF.CreationDate,2019-03-10T20:32:56+01:00
; #@! TF.GenerationSoftware,Kicad,Pcbnew,(5.1.0-rc2-10-g13249b723)
; #@! TF.FileFunction,Plated,1,2,PTH
FMAT,2
INCH
T1C0.0157
T2C0.0315
T3C0.0394
T4C0.0472
T5C0.1083
%
G90
G05
T1
X5.2382Y-3.6878
X5.2972Y-4.8689
X5.3366Y-4.672
X5.3563Y-3.6878
X5.376Y-4.3768
X5.4744Y-4.3768
X5.5138Y-4.8689
X5.5531Y-4.672
X5.5728Y-4.3768
X5.6516Y-4.3571
X5.7303Y-5.0657
X5.7303Y-5.1839
X5.7894Y-3.7665
X5.8091Y-4.7508
X5.8091Y-5.0264
X5.8484Y-5.1445
X5.8681Y-3.7075
X5.8681Y-4.3571
X5.8872Y-4.6327
X5.9862Y-3.7075
X5.9862Y-4.1209
X6.0059Y-3.9437
X6.0453Y-4.6524
X6.0453Y-5.5776
X6.0846Y-3.8059
X6.0846Y-4.0224
X6.0846Y-5.0067
X6.124Y-3.7469
X6.1437Y-5.0657
X6.2028Y-3.9831
X6.2618Y-3.6878
X6.2618Y-3.8453
X6.2815Y-4.8098
X6.3209Y-3.7862
X6.3209Y-4.3768
X6.3602Y-4.5146
X6.3799Y-3.7469
X6.3799Y-3.8256
X6.4193Y-3.9634
X6.4783Y-4.2587
X6.5768Y-5.0067
X6.6358Y-5.0657
X6.6949Y-3.9831
X6.6949Y-4.2783
X6.7343Y-5.5776
X6.7736Y-4.8098
X6.813Y-4.3768
X6.8524Y-4.5146
X6.9114Y-3.9634
X6.9705Y-4.2587
X6.9902Y-5.3217
T2
X6.6358Y-4.5933
X6.7358Y-4.6933
X6.8358Y-4.5933
X6.1437Y-4.5933
X6.2437Y-4.6933
X6.3437Y-4.5933
T3
X4.8Y-3.5
X4.8Y-3.6
X4.9Y-3.5
X4.9Y-3.6
X5.0Y-3.5
X5.0Y-3.6
X5.1Y-3.5
X5.1Y-3.6
X5.2Y-3.5
X5.2Y-3.6
X5.3Y-3.5
X5.3Y-3.6
X5.4Y-3.5
X5.4Y-3.6
X5.5Y-3.5
X5.5Y-3.6
X5.6Y-3.5
X5.6Y-3.6
X5.7Y-3.5
X5.7Y-3.6
X5.8Y-3.5
X5.8Y-3.6
X5.9Y-3.5
X5.9Y-3.6
X6.0Y-3.5
X6.0Y-3.6
X6.1Y-3.5
X6.1Y-3.6
X6.2Y-3.5
X6.2Y-3.6
X6.3Y-3.5
X6.3Y-3.6
X6.4Y-3.5
X6.4Y-3.6
X6.5Y-3.5
X6.5Y-3.6
X6.6Y-3.5
X6.6Y-3.6
X6.7Y-3.5
X6.7Y-3.6
T4
X4.9921Y-5.4988
X5.1299Y-5.4988
X5.2677Y-5.4988
X5.4055Y-5.4988
X5.5433Y-5.4988
X5.6811Y-5.4988
X5.8189Y-5.4988
X5.9567Y-5.4988
X6.0945Y-5.4988
X6.2323Y-5.4988
X6.3701Y-5.4988
X6.5079Y-5.4988
T5
X4.6083Y-3.55
X4.6083Y-5.4791
X6.8917Y-3.55
X6.8917Y-5.4791
T0
M30
