G04 #@! TF.GenerationSoftware,KiCad,Pcbnew,(5.1.0-rc2-10-g13249b723)*
G04 #@! TF.CreationDate,2019-03-10T20:32:50+01:00*
G04 #@! TF.ProjectId,authbox-relay-driver,61757468-626f-4782-9d72-656c61792d64,rev?*
G04 #@! TF.SameCoordinates,Original*
G04 #@! TF.FileFunction,Copper,L2,Bot*
G04 #@! TF.FilePolarity,Positive*
%FSLAX46Y46*%
G04 Gerber Fmt 4.6, Leading zero omitted, Abs format (unit mm)*
G04 Created by KiCad (PCBNEW (5.1.0-rc2-10-g13249b723)) date 2019-03-10 20:32:50*
%MOMM*%
%LPD*%
G04 APERTURE LIST*
%ADD10C,2.500000*%
%ADD11R,1.700000X1.700000*%
%ADD12O,1.700000X1.700000*%
%ADD13O,1.800000X3.600000*%
%ADD14R,1.800000X3.600000*%
%ADD15C,6.200000*%
%ADD16C,0.800000*%
%ADD17C,0.250000*%
%ADD18C,0.200000*%
G04 APERTURE END LIST*
D10*
X168550000Y-116670000D03*
X171090000Y-119210000D03*
X173630000Y-116670000D03*
X156050000Y-116670000D03*
X158590000Y-119210000D03*
X161130000Y-116670000D03*
D11*
X121920000Y-91440000D03*
D12*
X121920000Y-88900000D03*
X124460000Y-91440000D03*
X124460000Y-88900000D03*
X127000000Y-91440000D03*
X127000000Y-88900000D03*
X129540000Y-91440000D03*
X129540000Y-88900000D03*
X132080000Y-91440000D03*
X132080000Y-88900000D03*
X134620000Y-91440000D03*
X134620000Y-88900000D03*
X137160000Y-91440000D03*
X137160000Y-88900000D03*
X139700000Y-91440000D03*
X139700000Y-88900000D03*
X142240000Y-91440000D03*
X142240000Y-88900000D03*
X144780000Y-91440000D03*
X144780000Y-88900000D03*
X147320000Y-91440000D03*
X147320000Y-88900000D03*
X149860000Y-91440000D03*
X149860000Y-88900000D03*
X152400000Y-91440000D03*
X152400000Y-88900000D03*
X154940000Y-91440000D03*
X154940000Y-88900000D03*
X157480000Y-91440000D03*
X157480000Y-88900000D03*
X160020000Y-91440000D03*
X160020000Y-88900000D03*
X162560000Y-91440000D03*
X162560000Y-88900000D03*
X165100000Y-91440000D03*
X165100000Y-88900000D03*
X167640000Y-91440000D03*
X167640000Y-88900000D03*
X170180000Y-91440000D03*
X170180000Y-88900000D03*
D13*
X165300000Y-139670000D03*
X161800000Y-139670000D03*
X158300000Y-139670000D03*
X154800000Y-139670000D03*
X151300000Y-139670000D03*
X147800000Y-139670000D03*
X144300000Y-139670000D03*
X140800000Y-139670000D03*
X137300000Y-139670000D03*
X133800000Y-139670000D03*
X130300000Y-139670000D03*
D14*
X126800000Y-139670000D03*
D15*
X117050000Y-90170000D03*
X117050000Y-139170000D03*
X175050000Y-139170000D03*
X175050000Y-90170000D03*
D16*
X175550000Y-100670000D03*
X147550000Y-127670000D03*
X164550000Y-108170000D03*
X177050000Y-108170000D03*
X160550000Y-111170000D03*
X161550000Y-114670000D03*
X174050000Y-114670000D03*
X173050000Y-111170000D03*
X154550000Y-127170000D03*
X156050000Y-128670000D03*
X168550000Y-128670000D03*
X167050000Y-127170000D03*
X140050000Y-123670000D03*
X134550000Y-123670000D03*
X170050000Y-108670000D03*
X153550000Y-141670000D03*
X171050000Y-141670000D03*
X177550000Y-135170000D03*
X153550000Y-118170000D03*
X163050000Y-100670000D03*
X172050000Y-122170000D03*
X159550000Y-122170000D03*
X147550000Y-120670000D03*
X133050000Y-93670000D03*
X136050000Y-93670000D03*
X157550000Y-101170000D03*
X170050000Y-101170000D03*
X139050000Y-111170000D03*
X136550000Y-111170000D03*
X141550000Y-111170000D03*
X147050000Y-95670000D03*
X149050000Y-94170000D03*
X152050000Y-94170000D03*
X154550000Y-102170000D03*
X152550000Y-100170000D03*
X162050000Y-95170000D03*
X159050000Y-93670000D03*
X162050000Y-97170000D03*
X148550000Y-130670000D03*
X145550000Y-131670000D03*
X145550000Y-128670000D03*
X141050000Y-118670000D03*
X149050000Y-110670000D03*
X135550000Y-118670000D03*
X143550000Y-110670000D03*
X152050000Y-104670000D03*
X149534991Y-117670000D03*
X159050000Y-97670000D03*
X154550000Y-96670000D03*
X160550000Y-96170000D03*
X155550000Y-95170000D03*
D17*
X136310001Y-88050001D02*
X137160000Y-88900000D01*
X135984999Y-87724999D02*
X136310001Y-88050001D01*
X127000000Y-88900000D02*
X128175001Y-87724999D01*
X138335001Y-87724999D02*
X143604999Y-87724999D01*
X143930001Y-88050001D02*
X144780000Y-88900000D01*
X143604999Y-87724999D02*
X143930001Y-88050001D01*
X137160000Y-88900000D02*
X138335001Y-87724999D01*
X156630001Y-88050001D02*
X157480000Y-88900000D01*
X156304999Y-87724999D02*
X156630001Y-88050001D01*
X144780000Y-88900000D02*
X145955001Y-87724999D01*
X151050000Y-90090000D02*
X151050000Y-87724999D01*
X152400000Y-91440000D02*
X151050000Y-90090000D01*
X145955001Y-87724999D02*
X151050000Y-87724999D01*
X151050000Y-87724999D02*
X156304999Y-87724999D01*
X128175001Y-87724999D02*
X131050000Y-87724999D01*
X130904999Y-87870000D02*
X131050000Y-87724999D01*
X130904999Y-90264999D02*
X130904999Y-87870000D01*
X132080000Y-91440000D02*
X130904999Y-90264999D01*
X131050000Y-87724999D02*
X135984999Y-87724999D01*
X170180000Y-91440000D02*
X170180000Y-95300000D01*
X170180000Y-95300000D02*
X175550000Y-100670000D01*
X161710001Y-88050001D02*
X162560000Y-88900000D01*
X161384999Y-87724999D02*
X161710001Y-88050001D01*
X158655001Y-87724999D02*
X161384999Y-87724999D01*
X157480000Y-88900000D02*
X158655001Y-87724999D01*
X169330001Y-90590001D02*
X170180000Y-91440000D01*
X169004999Y-90264999D02*
X169330001Y-90590001D01*
X168204001Y-87724999D02*
X169004999Y-88525997D01*
X169004999Y-88525997D02*
X169004999Y-90264999D01*
X163735001Y-87724999D02*
X168204001Y-87724999D01*
X162560000Y-88900000D02*
X163735001Y-87724999D01*
X133050000Y-93670000D02*
X136050000Y-93670000D01*
X139050000Y-111170000D02*
X136550000Y-111170000D01*
X141550000Y-111170000D02*
X139050000Y-111170000D01*
X148550000Y-94170000D02*
X149050000Y-94170000D01*
X147050000Y-95670000D02*
X148550000Y-94170000D01*
X152050000Y-94170000D02*
X149050000Y-94170000D01*
X152550000Y-100170000D02*
X154550000Y-102170000D01*
X160550000Y-93670000D02*
X162050000Y-95170000D01*
X159050000Y-93670000D02*
X160550000Y-93670000D01*
X162050000Y-95170000D02*
X162050000Y-97170000D01*
X148550000Y-130670000D02*
X146550000Y-130670000D01*
X146550000Y-130670000D02*
X145550000Y-131670000D01*
X164623002Y-101170000D02*
X169484315Y-101170000D01*
X169484315Y-101170000D02*
X170050000Y-101170000D01*
X164223003Y-101569999D02*
X164623002Y-101170000D01*
X157949999Y-101569999D02*
X164223003Y-101569999D01*
X157550000Y-101170000D02*
X157949999Y-101569999D01*
X146550000Y-129670000D02*
X145550000Y-128670000D01*
X146550000Y-130670000D02*
X146550000Y-129670000D01*
X141050000Y-118670000D02*
X149050000Y-110670000D01*
X135550000Y-118670000D02*
X136186410Y-118670000D01*
X143550000Y-111306410D02*
X143550000Y-111235685D01*
X143550000Y-111235685D02*
X143550000Y-110670000D01*
X136186410Y-118670000D02*
X143550000Y-111306410D01*
X152050000Y-115154991D02*
X149934990Y-117270001D01*
X149934990Y-117270001D02*
X149534991Y-117670000D01*
X152050000Y-104670000D02*
X152050000Y-115154991D01*
X159050000Y-97670000D02*
X158050000Y-96670000D01*
X158050000Y-96670000D02*
X154550000Y-96670000D01*
X160550000Y-96170000D02*
X156550000Y-96170000D01*
X156550000Y-96170000D02*
X155550000Y-95170000D01*
D18*
G36*
X173415812Y-87112650D02*
G01*
X172850753Y-87490210D01*
X172370210Y-87970753D01*
X171992650Y-88535812D01*
X171732582Y-89163672D01*
X171600000Y-89830205D01*
X171600000Y-90509795D01*
X171732582Y-91176328D01*
X171992650Y-91804188D01*
X172370210Y-92369247D01*
X172850753Y-92849790D01*
X173415812Y-93227350D01*
X174043672Y-93487418D01*
X174710205Y-93620000D01*
X175389795Y-93620000D01*
X176056328Y-93487418D01*
X176684188Y-93227350D01*
X177249247Y-92849790D01*
X177729790Y-92369247D01*
X178107350Y-91804188D01*
X178175001Y-91640864D01*
X178175000Y-137699134D01*
X178107350Y-137535812D01*
X177729790Y-136970753D01*
X177249247Y-136490210D01*
X176684188Y-136112650D01*
X176056328Y-135852582D01*
X175389795Y-135720000D01*
X174710205Y-135720000D01*
X174043672Y-135852582D01*
X173415812Y-136112650D01*
X172850753Y-136490210D01*
X172370210Y-136970753D01*
X171992650Y-137535812D01*
X171732582Y-138163672D01*
X171600000Y-138830205D01*
X171600000Y-139509795D01*
X171732582Y-140176328D01*
X171992650Y-140804188D01*
X172370210Y-141369247D01*
X172850753Y-141849790D01*
X173415812Y-142227350D01*
X174043672Y-142487418D01*
X174710205Y-142620000D01*
X175389795Y-142620000D01*
X176056328Y-142487418D01*
X176684188Y-142227350D01*
X177249247Y-141849790D01*
X177729790Y-141369247D01*
X178107350Y-140804188D01*
X178175000Y-140640866D01*
X178175000Y-144651663D01*
X178123243Y-145179514D01*
X177975270Y-145669626D01*
X177734918Y-146121661D01*
X177411346Y-146518399D01*
X177016877Y-146844733D01*
X176566532Y-147088233D01*
X176077470Y-147239623D01*
X175550640Y-147294995D01*
X175549267Y-147295000D01*
X116568337Y-147295000D01*
X116040486Y-147243243D01*
X115550374Y-147095270D01*
X115098339Y-146854918D01*
X114701601Y-146531346D01*
X114375267Y-146136877D01*
X114131767Y-145686532D01*
X113980377Y-145197470D01*
X113925005Y-144670640D01*
X113925000Y-144669267D01*
X113925000Y-140640866D01*
X113992650Y-140804188D01*
X114370210Y-141369247D01*
X114850753Y-141849790D01*
X115415812Y-142227350D01*
X116043672Y-142487418D01*
X116710205Y-142620000D01*
X117389795Y-142620000D01*
X118056328Y-142487418D01*
X118684188Y-142227350D01*
X119249247Y-141849790D01*
X119729790Y-141369247D01*
X120107350Y-140804188D01*
X120367418Y-140176328D01*
X120500000Y-139509795D01*
X120500000Y-138830205D01*
X120367418Y-138163672D01*
X120245776Y-137870000D01*
X125548307Y-137870000D01*
X125548307Y-141470000D01*
X125555065Y-141538612D01*
X125575078Y-141604587D01*
X125607578Y-141665390D01*
X125651315Y-141718685D01*
X125704610Y-141762422D01*
X125765413Y-141794922D01*
X125831388Y-141814935D01*
X125900000Y-141821693D01*
X127700000Y-141821693D01*
X127768612Y-141814935D01*
X127834587Y-141794922D01*
X127895390Y-141762422D01*
X127948685Y-141718685D01*
X127992422Y-141665390D01*
X128024922Y-141604587D01*
X128044935Y-141538612D01*
X128051693Y-141470000D01*
X128051693Y-139695000D01*
X129050000Y-139695000D01*
X129050000Y-140595000D01*
X129078896Y-140838383D01*
X129154718Y-141071452D01*
X129274553Y-141285250D01*
X129433795Y-141471561D01*
X129626325Y-141623226D01*
X129844744Y-141734416D01*
X130079804Y-141800453D01*
X130275000Y-141732231D01*
X130275000Y-139695000D01*
X130325000Y-139695000D01*
X130325000Y-141732231D01*
X130520196Y-141800453D01*
X130755256Y-141734416D01*
X130973675Y-141623226D01*
X131166205Y-141471561D01*
X131325447Y-141285250D01*
X131445282Y-141071452D01*
X131521104Y-140838383D01*
X131550000Y-140595000D01*
X131550000Y-139695000D01*
X130325000Y-139695000D01*
X130275000Y-139695000D01*
X129050000Y-139695000D01*
X128051693Y-139695000D01*
X128051693Y-138745000D01*
X129050000Y-138745000D01*
X129050000Y-139645000D01*
X130275000Y-139645000D01*
X130275000Y-137607769D01*
X130325000Y-137607769D01*
X130325000Y-139645000D01*
X131550000Y-139645000D01*
X131550000Y-138745000D01*
X131545678Y-138708596D01*
X132550000Y-138708596D01*
X132550000Y-140631405D01*
X132568088Y-140815043D01*
X132639564Y-141050669D01*
X132755635Y-141267823D01*
X132911841Y-141458160D01*
X133102178Y-141614366D01*
X133319332Y-141730437D01*
X133554958Y-141801913D01*
X133800000Y-141826048D01*
X134045043Y-141801913D01*
X134280669Y-141730437D01*
X134497823Y-141614366D01*
X134688160Y-141458160D01*
X134844366Y-141267823D01*
X134960437Y-141050669D01*
X135031913Y-140815043D01*
X135050000Y-140631405D01*
X135050000Y-138708596D01*
X136050000Y-138708596D01*
X136050000Y-140631405D01*
X136068088Y-140815043D01*
X136139564Y-141050669D01*
X136255635Y-141267823D01*
X136411841Y-141458160D01*
X136602178Y-141614366D01*
X136819332Y-141730437D01*
X137054958Y-141801913D01*
X137300000Y-141826048D01*
X137545043Y-141801913D01*
X137780669Y-141730437D01*
X137997823Y-141614366D01*
X138188160Y-141458160D01*
X138344366Y-141267823D01*
X138460437Y-141050669D01*
X138531913Y-140815043D01*
X138550000Y-140631405D01*
X138550000Y-138708596D01*
X139550000Y-138708596D01*
X139550000Y-140631405D01*
X139568088Y-140815043D01*
X139639564Y-141050669D01*
X139755635Y-141267823D01*
X139911841Y-141458160D01*
X140102178Y-141614366D01*
X140319332Y-141730437D01*
X140554958Y-141801913D01*
X140800000Y-141826048D01*
X141045043Y-141801913D01*
X141280669Y-141730437D01*
X141497823Y-141614366D01*
X141688160Y-141458160D01*
X141844366Y-141267823D01*
X141960437Y-141050669D01*
X142031913Y-140815043D01*
X142050000Y-140631405D01*
X142050000Y-139695000D01*
X143050000Y-139695000D01*
X143050000Y-140595000D01*
X143078896Y-140838383D01*
X143154718Y-141071452D01*
X143274553Y-141285250D01*
X143433795Y-141471561D01*
X143626325Y-141623226D01*
X143844744Y-141734416D01*
X144079804Y-141800453D01*
X144275000Y-141732231D01*
X144275000Y-139695000D01*
X144325000Y-139695000D01*
X144325000Y-141732231D01*
X144520196Y-141800453D01*
X144755256Y-141734416D01*
X144973675Y-141623226D01*
X145166205Y-141471561D01*
X145325447Y-141285250D01*
X145445282Y-141071452D01*
X145521104Y-140838383D01*
X145550000Y-140595000D01*
X145550000Y-139695000D01*
X144325000Y-139695000D01*
X144275000Y-139695000D01*
X143050000Y-139695000D01*
X142050000Y-139695000D01*
X142050000Y-138745000D01*
X143050000Y-138745000D01*
X143050000Y-139645000D01*
X144275000Y-139645000D01*
X144275000Y-137607769D01*
X144325000Y-137607769D01*
X144325000Y-139645000D01*
X145550000Y-139645000D01*
X145550000Y-138745000D01*
X145545678Y-138708596D01*
X146550000Y-138708596D01*
X146550000Y-140631405D01*
X146568088Y-140815043D01*
X146639564Y-141050669D01*
X146755635Y-141267823D01*
X146911841Y-141458160D01*
X147102178Y-141614366D01*
X147319332Y-141730437D01*
X147554958Y-141801913D01*
X147800000Y-141826048D01*
X148045043Y-141801913D01*
X148280669Y-141730437D01*
X148497823Y-141614366D01*
X148688160Y-141458160D01*
X148844366Y-141267823D01*
X148960437Y-141050669D01*
X149031913Y-140815043D01*
X149050000Y-140631405D01*
X149050000Y-138708596D01*
X150050000Y-138708596D01*
X150050000Y-140631405D01*
X150068088Y-140815043D01*
X150139564Y-141050669D01*
X150255635Y-141267823D01*
X150411841Y-141458160D01*
X150602178Y-141614366D01*
X150819332Y-141730437D01*
X151054958Y-141801913D01*
X151300000Y-141826048D01*
X151545043Y-141801913D01*
X151780669Y-141730437D01*
X151997823Y-141614366D01*
X152188160Y-141458160D01*
X152344366Y-141267823D01*
X152460437Y-141050669D01*
X152531913Y-140815043D01*
X152550000Y-140631405D01*
X152550000Y-138708596D01*
X153550000Y-138708596D01*
X153550000Y-140631405D01*
X153568088Y-140815043D01*
X153639564Y-141050669D01*
X153755635Y-141267823D01*
X153911841Y-141458160D01*
X154102178Y-141614366D01*
X154319332Y-141730437D01*
X154554958Y-141801913D01*
X154800000Y-141826048D01*
X155045043Y-141801913D01*
X155280669Y-141730437D01*
X155497823Y-141614366D01*
X155688160Y-141458160D01*
X155844366Y-141267823D01*
X155960437Y-141050669D01*
X156031913Y-140815043D01*
X156050000Y-140631405D01*
X156050000Y-138708596D01*
X157050000Y-138708596D01*
X157050000Y-140631405D01*
X157068088Y-140815043D01*
X157139564Y-141050669D01*
X157255635Y-141267823D01*
X157411841Y-141458160D01*
X157602178Y-141614366D01*
X157819332Y-141730437D01*
X158054958Y-141801913D01*
X158300000Y-141826048D01*
X158545043Y-141801913D01*
X158780669Y-141730437D01*
X158997823Y-141614366D01*
X159188160Y-141458160D01*
X159344366Y-141267823D01*
X159460437Y-141050669D01*
X159531913Y-140815043D01*
X159550000Y-140631405D01*
X159550000Y-138708596D01*
X160550000Y-138708596D01*
X160550000Y-140631405D01*
X160568088Y-140815043D01*
X160639564Y-141050669D01*
X160755635Y-141267823D01*
X160911841Y-141458160D01*
X161102178Y-141614366D01*
X161319332Y-141730437D01*
X161554958Y-141801913D01*
X161800000Y-141826048D01*
X162045043Y-141801913D01*
X162280669Y-141730437D01*
X162497823Y-141614366D01*
X162688160Y-141458160D01*
X162844366Y-141267823D01*
X162960437Y-141050669D01*
X163031913Y-140815043D01*
X163050000Y-140631405D01*
X163050000Y-138708596D01*
X164050000Y-138708596D01*
X164050000Y-140631405D01*
X164068088Y-140815043D01*
X164139564Y-141050669D01*
X164255635Y-141267823D01*
X164411841Y-141458160D01*
X164602178Y-141614366D01*
X164819332Y-141730437D01*
X165054958Y-141801913D01*
X165300000Y-141826048D01*
X165545043Y-141801913D01*
X165780669Y-141730437D01*
X165997823Y-141614366D01*
X166188160Y-141458160D01*
X166344366Y-141267823D01*
X166460437Y-141050669D01*
X166531913Y-140815043D01*
X166550000Y-140631405D01*
X166550000Y-138708595D01*
X166531913Y-138524957D01*
X166460437Y-138289331D01*
X166344366Y-138072177D01*
X166188160Y-137881840D01*
X165997822Y-137725634D01*
X165780668Y-137609563D01*
X165545042Y-137538087D01*
X165300000Y-137513952D01*
X165054957Y-137538087D01*
X164819331Y-137609563D01*
X164602177Y-137725634D01*
X164411840Y-137881840D01*
X164255634Y-138072178D01*
X164139563Y-138289332D01*
X164068087Y-138524958D01*
X164050000Y-138708596D01*
X163050000Y-138708596D01*
X163050000Y-138708595D01*
X163031913Y-138524957D01*
X162960437Y-138289331D01*
X162844366Y-138072177D01*
X162688160Y-137881840D01*
X162497822Y-137725634D01*
X162280668Y-137609563D01*
X162045042Y-137538087D01*
X161800000Y-137513952D01*
X161554957Y-137538087D01*
X161319331Y-137609563D01*
X161102177Y-137725634D01*
X160911840Y-137881840D01*
X160755634Y-138072178D01*
X160639563Y-138289332D01*
X160568087Y-138524958D01*
X160550000Y-138708596D01*
X159550000Y-138708596D01*
X159550000Y-138708595D01*
X159531913Y-138524957D01*
X159460437Y-138289331D01*
X159344366Y-138072177D01*
X159188160Y-137881840D01*
X158997822Y-137725634D01*
X158780668Y-137609563D01*
X158545042Y-137538087D01*
X158300000Y-137513952D01*
X158054957Y-137538087D01*
X157819331Y-137609563D01*
X157602177Y-137725634D01*
X157411840Y-137881840D01*
X157255634Y-138072178D01*
X157139563Y-138289332D01*
X157068087Y-138524958D01*
X157050000Y-138708596D01*
X156050000Y-138708596D01*
X156050000Y-138708595D01*
X156031913Y-138524957D01*
X155960437Y-138289331D01*
X155844366Y-138072177D01*
X155688160Y-137881840D01*
X155497822Y-137725634D01*
X155280668Y-137609563D01*
X155045042Y-137538087D01*
X154800000Y-137513952D01*
X154554957Y-137538087D01*
X154319331Y-137609563D01*
X154102177Y-137725634D01*
X153911840Y-137881840D01*
X153755634Y-138072178D01*
X153639563Y-138289332D01*
X153568087Y-138524958D01*
X153550000Y-138708596D01*
X152550000Y-138708596D01*
X152550000Y-138708595D01*
X152531913Y-138524957D01*
X152460437Y-138289331D01*
X152344366Y-138072177D01*
X152188160Y-137881840D01*
X151997822Y-137725634D01*
X151780668Y-137609563D01*
X151545042Y-137538087D01*
X151300000Y-137513952D01*
X151054957Y-137538087D01*
X150819331Y-137609563D01*
X150602177Y-137725634D01*
X150411840Y-137881840D01*
X150255634Y-138072178D01*
X150139563Y-138289332D01*
X150068087Y-138524958D01*
X150050000Y-138708596D01*
X149050000Y-138708596D01*
X149050000Y-138708595D01*
X149031913Y-138524957D01*
X148960437Y-138289331D01*
X148844366Y-138072177D01*
X148688160Y-137881840D01*
X148497822Y-137725634D01*
X148280668Y-137609563D01*
X148045042Y-137538087D01*
X147800000Y-137513952D01*
X147554957Y-137538087D01*
X147319331Y-137609563D01*
X147102177Y-137725634D01*
X146911840Y-137881840D01*
X146755634Y-138072178D01*
X146639563Y-138289332D01*
X146568087Y-138524958D01*
X146550000Y-138708596D01*
X145545678Y-138708596D01*
X145521104Y-138501617D01*
X145445282Y-138268548D01*
X145325447Y-138054750D01*
X145166205Y-137868439D01*
X144973675Y-137716774D01*
X144755256Y-137605584D01*
X144520196Y-137539547D01*
X144325000Y-137607769D01*
X144275000Y-137607769D01*
X144079804Y-137539547D01*
X143844744Y-137605584D01*
X143626325Y-137716774D01*
X143433795Y-137868439D01*
X143274553Y-138054750D01*
X143154718Y-138268548D01*
X143078896Y-138501617D01*
X143050000Y-138745000D01*
X142050000Y-138745000D01*
X142050000Y-138708595D01*
X142031913Y-138524957D01*
X141960437Y-138289331D01*
X141844366Y-138072177D01*
X141688160Y-137881840D01*
X141497822Y-137725634D01*
X141280668Y-137609563D01*
X141045042Y-137538087D01*
X140800000Y-137513952D01*
X140554957Y-137538087D01*
X140319331Y-137609563D01*
X140102177Y-137725634D01*
X139911840Y-137881840D01*
X139755634Y-138072178D01*
X139639563Y-138289332D01*
X139568087Y-138524958D01*
X139550000Y-138708596D01*
X138550000Y-138708596D01*
X138550000Y-138708595D01*
X138531913Y-138524957D01*
X138460437Y-138289331D01*
X138344366Y-138072177D01*
X138188160Y-137881840D01*
X137997822Y-137725634D01*
X137780668Y-137609563D01*
X137545042Y-137538087D01*
X137300000Y-137513952D01*
X137054957Y-137538087D01*
X136819331Y-137609563D01*
X136602177Y-137725634D01*
X136411840Y-137881840D01*
X136255634Y-138072178D01*
X136139563Y-138289332D01*
X136068087Y-138524958D01*
X136050000Y-138708596D01*
X135050000Y-138708596D01*
X135050000Y-138708595D01*
X135031913Y-138524957D01*
X134960437Y-138289331D01*
X134844366Y-138072177D01*
X134688160Y-137881840D01*
X134497822Y-137725634D01*
X134280668Y-137609563D01*
X134045042Y-137538087D01*
X133800000Y-137513952D01*
X133554957Y-137538087D01*
X133319331Y-137609563D01*
X133102177Y-137725634D01*
X132911840Y-137881840D01*
X132755634Y-138072178D01*
X132639563Y-138289332D01*
X132568087Y-138524958D01*
X132550000Y-138708596D01*
X131545678Y-138708596D01*
X131521104Y-138501617D01*
X131445282Y-138268548D01*
X131325447Y-138054750D01*
X131166205Y-137868439D01*
X130973675Y-137716774D01*
X130755256Y-137605584D01*
X130520196Y-137539547D01*
X130325000Y-137607769D01*
X130275000Y-137607769D01*
X130079804Y-137539547D01*
X129844744Y-137605584D01*
X129626325Y-137716774D01*
X129433795Y-137868439D01*
X129274553Y-138054750D01*
X129154718Y-138268548D01*
X129078896Y-138501617D01*
X129050000Y-138745000D01*
X128051693Y-138745000D01*
X128051693Y-137870000D01*
X128044935Y-137801388D01*
X128024922Y-137735413D01*
X127992422Y-137674610D01*
X127948685Y-137621315D01*
X127895390Y-137577578D01*
X127834587Y-137545078D01*
X127768612Y-137525065D01*
X127700000Y-137518307D01*
X125900000Y-137518307D01*
X125831388Y-137525065D01*
X125765413Y-137545078D01*
X125704610Y-137577578D01*
X125651315Y-137621315D01*
X125607578Y-137674610D01*
X125575078Y-137735413D01*
X125555065Y-137801388D01*
X125548307Y-137870000D01*
X120245776Y-137870000D01*
X120107350Y-137535812D01*
X119729790Y-136970753D01*
X119249247Y-136490210D01*
X118684188Y-136112650D01*
X118056328Y-135852582D01*
X117389795Y-135720000D01*
X116710205Y-135720000D01*
X116043672Y-135852582D01*
X115415812Y-136112650D01*
X114850753Y-136490210D01*
X114370210Y-136970753D01*
X113992650Y-137535812D01*
X113925000Y-137699134D01*
X113925000Y-132681605D01*
X113976757Y-132153753D01*
X114124729Y-131663645D01*
X114365080Y-131211608D01*
X114688654Y-130814868D01*
X115092258Y-130480977D01*
X115243217Y-130386648D01*
X118343499Y-128596131D01*
X144800000Y-128596131D01*
X144800000Y-128743869D01*
X144828822Y-128888767D01*
X144885359Y-129025258D01*
X144967437Y-129148097D01*
X145071903Y-129252563D01*
X145194742Y-129334641D01*
X145331233Y-129391178D01*
X145476131Y-129420000D01*
X145623869Y-129420000D01*
X145627522Y-129419273D01*
X146075001Y-129866752D01*
X146075000Y-130473248D01*
X145627522Y-130920727D01*
X145623869Y-130920000D01*
X145476131Y-130920000D01*
X145331233Y-130948822D01*
X145194742Y-131005359D01*
X145071903Y-131087437D01*
X144967437Y-131191903D01*
X144885359Y-131314742D01*
X144828822Y-131451233D01*
X144800000Y-131596131D01*
X144800000Y-131743869D01*
X144828822Y-131888767D01*
X144885359Y-132025258D01*
X144967437Y-132148097D01*
X145071903Y-132252563D01*
X145194742Y-132334641D01*
X145331233Y-132391178D01*
X145476131Y-132420000D01*
X145623869Y-132420000D01*
X145768767Y-132391178D01*
X145905258Y-132334641D01*
X146028097Y-132252563D01*
X146132563Y-132148097D01*
X146214641Y-132025258D01*
X146271178Y-131888767D01*
X146300000Y-131743869D01*
X146300000Y-131596131D01*
X146299273Y-131592478D01*
X146746752Y-131145000D01*
X147965368Y-131145000D01*
X147967437Y-131148097D01*
X148071903Y-131252563D01*
X148194742Y-131334641D01*
X148331233Y-131391178D01*
X148476131Y-131420000D01*
X148623869Y-131420000D01*
X148768767Y-131391178D01*
X148905258Y-131334641D01*
X149028097Y-131252563D01*
X149132563Y-131148097D01*
X149214641Y-131025258D01*
X149271178Y-130888767D01*
X149300000Y-130743869D01*
X149300000Y-130596131D01*
X149271178Y-130451233D01*
X149214641Y-130314742D01*
X149132563Y-130191903D01*
X149028097Y-130087437D01*
X148905258Y-130005359D01*
X148768767Y-129948822D01*
X148623869Y-129920000D01*
X148476131Y-129920000D01*
X148331233Y-129948822D01*
X148194742Y-130005359D01*
X148071903Y-130087437D01*
X147967437Y-130191903D01*
X147965368Y-130195000D01*
X147025000Y-130195000D01*
X147025000Y-129693332D01*
X147027298Y-129670000D01*
X147018127Y-129576884D01*
X146990966Y-129487346D01*
X146946859Y-129404827D01*
X146902374Y-129350622D01*
X146887501Y-129332499D01*
X146869377Y-129317625D01*
X146299273Y-128747522D01*
X146300000Y-128743869D01*
X146300000Y-128596131D01*
X146271178Y-128451233D01*
X146214641Y-128314742D01*
X146132563Y-128191903D01*
X146028097Y-128087437D01*
X145905258Y-128005359D01*
X145768767Y-127948822D01*
X145623869Y-127920000D01*
X145476131Y-127920000D01*
X145331233Y-127948822D01*
X145194742Y-128005359D01*
X145071903Y-128087437D01*
X144967437Y-128191903D01*
X144885359Y-128314742D01*
X144828822Y-128451233D01*
X144800000Y-128596131D01*
X118343499Y-128596131D01*
X131003494Y-121284560D01*
X131008799Y-121280758D01*
X131087510Y-121231573D01*
X131105143Y-121217994D01*
X131123765Y-121205808D01*
X131127823Y-121202499D01*
X131353390Y-121015894D01*
X131377369Y-120991747D01*
X131401622Y-120967996D01*
X131404960Y-120963962D01*
X131589986Y-120737098D01*
X131608815Y-120708758D01*
X131627996Y-120680745D01*
X131630487Y-120676139D01*
X131767924Y-120417658D01*
X131780890Y-120386201D01*
X131794265Y-120354995D01*
X131795814Y-120349993D01*
X131880428Y-120069739D01*
X131887033Y-120036378D01*
X131894096Y-120003153D01*
X131894643Y-119997945D01*
X131922982Y-119708914D01*
X131925001Y-119688418D01*
X131925001Y-118596131D01*
X134800000Y-118596131D01*
X134800000Y-118743869D01*
X134828822Y-118888767D01*
X134885359Y-119025258D01*
X134967437Y-119148097D01*
X135071903Y-119252563D01*
X135194742Y-119334641D01*
X135331233Y-119391178D01*
X135476131Y-119420000D01*
X135623869Y-119420000D01*
X135768767Y-119391178D01*
X135905258Y-119334641D01*
X136028097Y-119252563D01*
X136132563Y-119148097D01*
X136134632Y-119145000D01*
X136163078Y-119145000D01*
X136186410Y-119147298D01*
X136209742Y-119145000D01*
X136279526Y-119138127D01*
X136369064Y-119110966D01*
X136451583Y-119066859D01*
X136523911Y-119007501D01*
X136538794Y-118989366D01*
X136932029Y-118596131D01*
X140300000Y-118596131D01*
X140300000Y-118743869D01*
X140328822Y-118888767D01*
X140385359Y-119025258D01*
X140467437Y-119148097D01*
X140571903Y-119252563D01*
X140694742Y-119334641D01*
X140831233Y-119391178D01*
X140976131Y-119420000D01*
X141123869Y-119420000D01*
X141268767Y-119391178D01*
X141405258Y-119334641D01*
X141528097Y-119252563D01*
X141632563Y-119148097D01*
X141696496Y-119052414D01*
X156990000Y-119052414D01*
X156990000Y-119367586D01*
X157051487Y-119676703D01*
X157172098Y-119967884D01*
X157347199Y-120229941D01*
X157570059Y-120452801D01*
X157832116Y-120627902D01*
X158123297Y-120748513D01*
X158432414Y-120810000D01*
X158747586Y-120810000D01*
X159056703Y-120748513D01*
X159347884Y-120627902D01*
X159609941Y-120452801D01*
X159832801Y-120229941D01*
X160007902Y-119967884D01*
X160128513Y-119676703D01*
X160190000Y-119367586D01*
X160190000Y-119052414D01*
X169490000Y-119052414D01*
X169490000Y-119367586D01*
X169551487Y-119676703D01*
X169672098Y-119967884D01*
X169847199Y-120229941D01*
X170070059Y-120452801D01*
X170332116Y-120627902D01*
X170623297Y-120748513D01*
X170932414Y-120810000D01*
X171247586Y-120810000D01*
X171556703Y-120748513D01*
X171847884Y-120627902D01*
X172109941Y-120452801D01*
X172332801Y-120229941D01*
X172507902Y-119967884D01*
X172628513Y-119676703D01*
X172690000Y-119367586D01*
X172690000Y-119052414D01*
X172628513Y-118743297D01*
X172507902Y-118452116D01*
X172332801Y-118190059D01*
X172109941Y-117967199D01*
X171847884Y-117792098D01*
X171556703Y-117671487D01*
X171247586Y-117610000D01*
X170932414Y-117610000D01*
X170623297Y-117671487D01*
X170332116Y-117792098D01*
X170070059Y-117967199D01*
X169847199Y-118190059D01*
X169672098Y-118452116D01*
X169551487Y-118743297D01*
X169490000Y-119052414D01*
X160190000Y-119052414D01*
X160128513Y-118743297D01*
X160007902Y-118452116D01*
X159832801Y-118190059D01*
X159609941Y-117967199D01*
X159347884Y-117792098D01*
X159056703Y-117671487D01*
X158747586Y-117610000D01*
X158432414Y-117610000D01*
X158123297Y-117671487D01*
X157832116Y-117792098D01*
X157570059Y-117967199D01*
X157347199Y-118190059D01*
X157172098Y-118452116D01*
X157051487Y-118743297D01*
X156990000Y-119052414D01*
X141696496Y-119052414D01*
X141714641Y-119025258D01*
X141771178Y-118888767D01*
X141800000Y-118743869D01*
X141800000Y-118596131D01*
X141799273Y-118592477D01*
X142795619Y-117596131D01*
X148784991Y-117596131D01*
X148784991Y-117743869D01*
X148813813Y-117888767D01*
X148870350Y-118025258D01*
X148952428Y-118148097D01*
X149056894Y-118252563D01*
X149179733Y-118334641D01*
X149316224Y-118391178D01*
X149461122Y-118420000D01*
X149608860Y-118420000D01*
X149753758Y-118391178D01*
X149890249Y-118334641D01*
X150013088Y-118252563D01*
X150117554Y-118148097D01*
X150199632Y-118025258D01*
X150256169Y-117888767D01*
X150281284Y-117762505D01*
X154992850Y-117762505D01*
X155125332Y-117985229D01*
X155399688Y-118140351D01*
X155699035Y-118238968D01*
X156011869Y-118277290D01*
X156326168Y-118253846D01*
X156629855Y-118169535D01*
X156911258Y-118027598D01*
X156974668Y-117985229D01*
X157107150Y-117762505D01*
X156050000Y-116705355D01*
X154992850Y-117762505D01*
X150281284Y-117762505D01*
X150284991Y-117743869D01*
X150284991Y-117596131D01*
X150284264Y-117592478D01*
X150287363Y-117589379D01*
X150287367Y-117589374D01*
X151244872Y-116631869D01*
X154442710Y-116631869D01*
X154466154Y-116946168D01*
X154550465Y-117249855D01*
X154692402Y-117531258D01*
X154734771Y-117594668D01*
X154957495Y-117727150D01*
X156014645Y-116670000D01*
X156085355Y-116670000D01*
X157142505Y-117727150D01*
X157365229Y-117594668D01*
X157520351Y-117320312D01*
X157618968Y-117020965D01*
X157657290Y-116708131D01*
X157642692Y-116512414D01*
X159530000Y-116512414D01*
X159530000Y-116827586D01*
X159591487Y-117136703D01*
X159712098Y-117427884D01*
X159887199Y-117689941D01*
X160110059Y-117912801D01*
X160372116Y-118087902D01*
X160663297Y-118208513D01*
X160972414Y-118270000D01*
X161287586Y-118270000D01*
X161596703Y-118208513D01*
X161887884Y-118087902D01*
X162149941Y-117912801D01*
X162300237Y-117762505D01*
X167492850Y-117762505D01*
X167625332Y-117985229D01*
X167899688Y-118140351D01*
X168199035Y-118238968D01*
X168511869Y-118277290D01*
X168826168Y-118253846D01*
X169129855Y-118169535D01*
X169411258Y-118027598D01*
X169474668Y-117985229D01*
X169607150Y-117762505D01*
X168550000Y-116705355D01*
X167492850Y-117762505D01*
X162300237Y-117762505D01*
X162372801Y-117689941D01*
X162547902Y-117427884D01*
X162668513Y-117136703D01*
X162730000Y-116827586D01*
X162730000Y-116631869D01*
X166942710Y-116631869D01*
X166966154Y-116946168D01*
X167050465Y-117249855D01*
X167192402Y-117531258D01*
X167234771Y-117594668D01*
X167457495Y-117727150D01*
X168514645Y-116670000D01*
X168585355Y-116670000D01*
X169642505Y-117727150D01*
X169865229Y-117594668D01*
X170020351Y-117320312D01*
X170118968Y-117020965D01*
X170157290Y-116708131D01*
X170142692Y-116512414D01*
X172030000Y-116512414D01*
X172030000Y-116827586D01*
X172091487Y-117136703D01*
X172212098Y-117427884D01*
X172387199Y-117689941D01*
X172610059Y-117912801D01*
X172872116Y-118087902D01*
X173163297Y-118208513D01*
X173472414Y-118270000D01*
X173787586Y-118270000D01*
X174096703Y-118208513D01*
X174387884Y-118087902D01*
X174649941Y-117912801D01*
X174872801Y-117689941D01*
X175047902Y-117427884D01*
X175168513Y-117136703D01*
X175230000Y-116827586D01*
X175230000Y-116512414D01*
X175168513Y-116203297D01*
X175047902Y-115912116D01*
X174872801Y-115650059D01*
X174649941Y-115427199D01*
X174387884Y-115252098D01*
X174096703Y-115131487D01*
X173787586Y-115070000D01*
X173472414Y-115070000D01*
X173163297Y-115131487D01*
X172872116Y-115252098D01*
X172610059Y-115427199D01*
X172387199Y-115650059D01*
X172212098Y-115912116D01*
X172091487Y-116203297D01*
X172030000Y-116512414D01*
X170142692Y-116512414D01*
X170133846Y-116393832D01*
X170049535Y-116090145D01*
X169907598Y-115808742D01*
X169865229Y-115745332D01*
X169642505Y-115612850D01*
X168585355Y-116670000D01*
X168514645Y-116670000D01*
X167457495Y-115612850D01*
X167234771Y-115745332D01*
X167079649Y-116019688D01*
X166981032Y-116319035D01*
X166942710Y-116631869D01*
X162730000Y-116631869D01*
X162730000Y-116512414D01*
X162668513Y-116203297D01*
X162547902Y-115912116D01*
X162372801Y-115650059D01*
X162300237Y-115577495D01*
X167492850Y-115577495D01*
X168550000Y-116634645D01*
X169607150Y-115577495D01*
X169474668Y-115354771D01*
X169200312Y-115199649D01*
X168900965Y-115101032D01*
X168588131Y-115062710D01*
X168273832Y-115086154D01*
X167970145Y-115170465D01*
X167688742Y-115312402D01*
X167625332Y-115354771D01*
X167492850Y-115577495D01*
X162300237Y-115577495D01*
X162149941Y-115427199D01*
X161887884Y-115252098D01*
X161596703Y-115131487D01*
X161287586Y-115070000D01*
X160972414Y-115070000D01*
X160663297Y-115131487D01*
X160372116Y-115252098D01*
X160110059Y-115427199D01*
X159887199Y-115650059D01*
X159712098Y-115912116D01*
X159591487Y-116203297D01*
X159530000Y-116512414D01*
X157642692Y-116512414D01*
X157633846Y-116393832D01*
X157549535Y-116090145D01*
X157407598Y-115808742D01*
X157365229Y-115745332D01*
X157142505Y-115612850D01*
X156085355Y-116670000D01*
X156014645Y-116670000D01*
X154957495Y-115612850D01*
X154734771Y-115745332D01*
X154579649Y-116019688D01*
X154481032Y-116319035D01*
X154442710Y-116631869D01*
X151244872Y-116631869D01*
X152299247Y-115577495D01*
X154992850Y-115577495D01*
X156050000Y-116634645D01*
X157107150Y-115577495D01*
X156974668Y-115354771D01*
X156700312Y-115199649D01*
X156400965Y-115101032D01*
X156088131Y-115062710D01*
X155773832Y-115086154D01*
X155470145Y-115170465D01*
X155188742Y-115312402D01*
X155125332Y-115354771D01*
X154992850Y-115577495D01*
X152299247Y-115577495D01*
X152369377Y-115507366D01*
X152387501Y-115492492D01*
X152446859Y-115420164D01*
X152481812Y-115354771D01*
X152490966Y-115337646D01*
X152518127Y-115248107D01*
X152527298Y-115154991D01*
X152525000Y-115131659D01*
X152525000Y-105254632D01*
X152528097Y-105252563D01*
X152632563Y-105148097D01*
X152714641Y-105025258D01*
X152771178Y-104888767D01*
X152800000Y-104743869D01*
X152800000Y-104596131D01*
X152771178Y-104451233D01*
X152714641Y-104314742D01*
X152632563Y-104191903D01*
X152528097Y-104087437D01*
X152405258Y-104005359D01*
X152268767Y-103948822D01*
X152123869Y-103920000D01*
X151976131Y-103920000D01*
X151831233Y-103948822D01*
X151694742Y-104005359D01*
X151571903Y-104087437D01*
X151467437Y-104191903D01*
X151385359Y-104314742D01*
X151328822Y-104451233D01*
X151300000Y-104596131D01*
X151300000Y-104743869D01*
X151328822Y-104888767D01*
X151385359Y-105025258D01*
X151467437Y-105148097D01*
X151571903Y-105252563D01*
X151575000Y-105254632D01*
X151575001Y-114958238D01*
X149615617Y-116917624D01*
X149615612Y-116917628D01*
X149612513Y-116920727D01*
X149608860Y-116920000D01*
X149461122Y-116920000D01*
X149316224Y-116948822D01*
X149179733Y-117005359D01*
X149056894Y-117087437D01*
X148952428Y-117191903D01*
X148870350Y-117314742D01*
X148813813Y-117451233D01*
X148784991Y-117596131D01*
X142795619Y-117596131D01*
X148972478Y-111419273D01*
X148976131Y-111420000D01*
X149123869Y-111420000D01*
X149268767Y-111391178D01*
X149405258Y-111334641D01*
X149528097Y-111252563D01*
X149632563Y-111148097D01*
X149714641Y-111025258D01*
X149771178Y-110888767D01*
X149800000Y-110743869D01*
X149800000Y-110596131D01*
X149771178Y-110451233D01*
X149714641Y-110314742D01*
X149632563Y-110191903D01*
X149528097Y-110087437D01*
X149405258Y-110005359D01*
X149268767Y-109948822D01*
X149123869Y-109920000D01*
X148976131Y-109920000D01*
X148831233Y-109948822D01*
X148694742Y-110005359D01*
X148571903Y-110087437D01*
X148467437Y-110191903D01*
X148385359Y-110314742D01*
X148328822Y-110451233D01*
X148300000Y-110596131D01*
X148300000Y-110743869D01*
X148300727Y-110747522D01*
X141127523Y-117920727D01*
X141123869Y-117920000D01*
X140976131Y-117920000D01*
X140831233Y-117948822D01*
X140694742Y-118005359D01*
X140571903Y-118087437D01*
X140467437Y-118191903D01*
X140385359Y-118314742D01*
X140328822Y-118451233D01*
X140300000Y-118596131D01*
X136932029Y-118596131D01*
X143869377Y-111658785D01*
X143887501Y-111643911D01*
X143946859Y-111571583D01*
X143984662Y-111500858D01*
X143990966Y-111489065D01*
X144018127Y-111399526D01*
X144027298Y-111306410D01*
X144025000Y-111283078D01*
X144025000Y-111254632D01*
X144028097Y-111252563D01*
X144132563Y-111148097D01*
X144214641Y-111025258D01*
X144271178Y-110888767D01*
X144300000Y-110743869D01*
X144300000Y-110596131D01*
X144271178Y-110451233D01*
X144214641Y-110314742D01*
X144132563Y-110191903D01*
X144028097Y-110087437D01*
X143905258Y-110005359D01*
X143768767Y-109948822D01*
X143623869Y-109920000D01*
X143476131Y-109920000D01*
X143331233Y-109948822D01*
X143194742Y-110005359D01*
X143071903Y-110087437D01*
X142967437Y-110191903D01*
X142885359Y-110314742D01*
X142828822Y-110451233D01*
X142800000Y-110596131D01*
X142800000Y-110743869D01*
X142828822Y-110888767D01*
X142885359Y-111025258D01*
X142967437Y-111148097D01*
X143001999Y-111182659D01*
X136062660Y-118122000D01*
X136028097Y-118087437D01*
X135905258Y-118005359D01*
X135768767Y-117948822D01*
X135623869Y-117920000D01*
X135476131Y-117920000D01*
X135331233Y-117948822D01*
X135194742Y-118005359D01*
X135071903Y-118087437D01*
X134967437Y-118191903D01*
X134885359Y-118314742D01*
X134828822Y-118451233D01*
X134800000Y-118596131D01*
X131925001Y-118596131D01*
X131925000Y-111096131D01*
X135800000Y-111096131D01*
X135800000Y-111243869D01*
X135828822Y-111388767D01*
X135885359Y-111525258D01*
X135967437Y-111648097D01*
X136071903Y-111752563D01*
X136194742Y-111834641D01*
X136331233Y-111891178D01*
X136476131Y-111920000D01*
X136623869Y-111920000D01*
X136768767Y-111891178D01*
X136905258Y-111834641D01*
X137028097Y-111752563D01*
X137132563Y-111648097D01*
X137134632Y-111645000D01*
X138465368Y-111645000D01*
X138467437Y-111648097D01*
X138571903Y-111752563D01*
X138694742Y-111834641D01*
X138831233Y-111891178D01*
X138976131Y-111920000D01*
X139123869Y-111920000D01*
X139268767Y-111891178D01*
X139405258Y-111834641D01*
X139528097Y-111752563D01*
X139632563Y-111648097D01*
X139634632Y-111645000D01*
X140965368Y-111645000D01*
X140967437Y-111648097D01*
X141071903Y-111752563D01*
X141194742Y-111834641D01*
X141331233Y-111891178D01*
X141476131Y-111920000D01*
X141623869Y-111920000D01*
X141768767Y-111891178D01*
X141905258Y-111834641D01*
X142028097Y-111752563D01*
X142132563Y-111648097D01*
X142214641Y-111525258D01*
X142271178Y-111388767D01*
X142300000Y-111243869D01*
X142300000Y-111096131D01*
X142271178Y-110951233D01*
X142214641Y-110814742D01*
X142132563Y-110691903D01*
X142028097Y-110587437D01*
X141905258Y-110505359D01*
X141768767Y-110448822D01*
X141623869Y-110420000D01*
X141476131Y-110420000D01*
X141331233Y-110448822D01*
X141194742Y-110505359D01*
X141071903Y-110587437D01*
X140967437Y-110691903D01*
X140965368Y-110695000D01*
X139634632Y-110695000D01*
X139632563Y-110691903D01*
X139528097Y-110587437D01*
X139405258Y-110505359D01*
X139268767Y-110448822D01*
X139123869Y-110420000D01*
X138976131Y-110420000D01*
X138831233Y-110448822D01*
X138694742Y-110505359D01*
X138571903Y-110587437D01*
X138467437Y-110691903D01*
X138465368Y-110695000D01*
X137134632Y-110695000D01*
X137132563Y-110691903D01*
X137028097Y-110587437D01*
X136905258Y-110505359D01*
X136768767Y-110448822D01*
X136623869Y-110420000D01*
X136476131Y-110420000D01*
X136331233Y-110448822D01*
X136194742Y-110505359D01*
X136071903Y-110587437D01*
X135967437Y-110691903D01*
X135885359Y-110814742D01*
X135828822Y-110951233D01*
X135800000Y-111096131D01*
X131925000Y-111096131D01*
X131924999Y-103651581D01*
X131923543Y-103636801D01*
X131904939Y-103403015D01*
X131899548Y-103372903D01*
X131895139Y-103342678D01*
X131893846Y-103337604D01*
X131819560Y-103054437D01*
X131807758Y-103022532D01*
X131796422Y-102990521D01*
X131794168Y-102985795D01*
X131666294Y-102722450D01*
X131648522Y-102693449D01*
X131631183Y-102664248D01*
X131628054Y-102660050D01*
X131628053Y-102660048D01*
X131628050Y-102660045D01*
X131452021Y-102427292D01*
X131440463Y-102411995D01*
X127047956Y-97651582D01*
X136675000Y-97651582D01*
X136675001Y-98688419D01*
X136675899Y-98697534D01*
X136696925Y-99127442D01*
X136698172Y-99136044D01*
X136698172Y-99144739D01*
X136703429Y-99180997D01*
X136867263Y-100019944D01*
X136872195Y-100036593D01*
X136875476Y-100053633D01*
X136887486Y-100088218D01*
X136887494Y-100088244D01*
X136887500Y-100088256D01*
X137207015Y-100881073D01*
X137215002Y-100896481D01*
X137221449Y-100912601D01*
X137239791Y-100944305D01*
X137239796Y-100944315D01*
X137239800Y-100944319D01*
X137703471Y-101662422D01*
X137714233Y-101676050D01*
X137723607Y-101690651D01*
X137747600Y-101718300D01*
X137747619Y-101718324D01*
X137747630Y-101718334D01*
X138338721Y-102335796D01*
X138351866Y-102347142D01*
X138363832Y-102359708D01*
X138392644Y-102382341D01*
X139089841Y-102876897D01*
X139104892Y-102885551D01*
X139119021Y-102895630D01*
X139151593Y-102912406D01*
X139929731Y-103266205D01*
X139946149Y-103271858D01*
X139961927Y-103279082D01*
X139997063Y-103289390D01*
X139997083Y-103289397D01*
X139997093Y-103289398D01*
X140828084Y-103489668D01*
X140845271Y-103492114D01*
X140862134Y-103496225D01*
X140898606Y-103499705D01*
X141752485Y-103539227D01*
X141769826Y-103538379D01*
X141787162Y-103539227D01*
X141823614Y-103535749D01*
X141823633Y-103535748D01*
X141823642Y-103535746D01*
X142669582Y-103413090D01*
X142686448Y-103408979D01*
X142703632Y-103406533D01*
X142738788Y-103396220D01*
X143546280Y-103115811D01*
X143562068Y-103108583D01*
X143578476Y-103102933D01*
X143611039Y-103086162D01*
X143611048Y-103086158D01*
X143611052Y-103086155D01*
X144350947Y-102658116D01*
X144365088Y-102648029D01*
X144380126Y-102639382D01*
X144408928Y-102616759D01*
X144408939Y-102616751D01*
X144408944Y-102616746D01*
X145054548Y-102056518D01*
X145066517Y-102043950D01*
X145079659Y-102032606D01*
X145103661Y-102004946D01*
X145103672Y-102004934D01*
X145103676Y-102004927D01*
X145631698Y-101332727D01*
X145641078Y-101318116D01*
X145651834Y-101304497D01*
X145670181Y-101272784D01*
X146061567Y-100512858D01*
X146068015Y-100496738D01*
X146076002Y-100481329D01*
X146088014Y-100446738D01*
X146088022Y-100446719D01*
X146088024Y-100446709D01*
X146190872Y-100096131D01*
X151800000Y-100096131D01*
X151800000Y-100243869D01*
X151828822Y-100388767D01*
X151885359Y-100525258D01*
X151967437Y-100648097D01*
X152071903Y-100752563D01*
X152194742Y-100834641D01*
X152331233Y-100891178D01*
X152476131Y-100920000D01*
X152623869Y-100920000D01*
X152627523Y-100919273D01*
X153800727Y-102092478D01*
X153800000Y-102096131D01*
X153800000Y-102243869D01*
X153828822Y-102388767D01*
X153885359Y-102525258D01*
X153967437Y-102648097D01*
X154071903Y-102752563D01*
X154194742Y-102834641D01*
X154331233Y-102891178D01*
X154476131Y-102920000D01*
X154623869Y-102920000D01*
X154768767Y-102891178D01*
X154905258Y-102834641D01*
X155028097Y-102752563D01*
X155132563Y-102648097D01*
X155214641Y-102525258D01*
X155271178Y-102388767D01*
X155300000Y-102243869D01*
X155300000Y-102096131D01*
X155271178Y-101951233D01*
X155214641Y-101814742D01*
X155132563Y-101691903D01*
X155028097Y-101587437D01*
X154905258Y-101505359D01*
X154768767Y-101448822D01*
X154623869Y-101420000D01*
X154476131Y-101420000D01*
X154472478Y-101420727D01*
X154147882Y-101096131D01*
X156800000Y-101096131D01*
X156800000Y-101243869D01*
X156828822Y-101388767D01*
X156885359Y-101525258D01*
X156967437Y-101648097D01*
X157071903Y-101752563D01*
X157194742Y-101834641D01*
X157331233Y-101891178D01*
X157476131Y-101920000D01*
X157623869Y-101920000D01*
X157626976Y-101919382D01*
X157684826Y-101966858D01*
X157767345Y-102010965D01*
X157829721Y-102029887D01*
X157856882Y-102038126D01*
X157949998Y-102047297D01*
X157973331Y-102044999D01*
X164199671Y-102044999D01*
X164223003Y-102047297D01*
X164246335Y-102044999D01*
X164288340Y-102040862D01*
X164316119Y-102038126D01*
X164405657Y-102010965D01*
X164488176Y-101966858D01*
X164560504Y-101907500D01*
X164575387Y-101889365D01*
X164819753Y-101645000D01*
X169465368Y-101645000D01*
X169467437Y-101648097D01*
X169571903Y-101752563D01*
X169694742Y-101834641D01*
X169831233Y-101891178D01*
X169976131Y-101920000D01*
X170123869Y-101920000D01*
X170268767Y-101891178D01*
X170405258Y-101834641D01*
X170528097Y-101752563D01*
X170632563Y-101648097D01*
X170714641Y-101525258D01*
X170771178Y-101388767D01*
X170800000Y-101243869D01*
X170800000Y-101096131D01*
X170771178Y-100951233D01*
X170714641Y-100814742D01*
X170632563Y-100691903D01*
X170528097Y-100587437D01*
X170405258Y-100505359D01*
X170268767Y-100448822D01*
X170123869Y-100420000D01*
X169976131Y-100420000D01*
X169831233Y-100448822D01*
X169694742Y-100505359D01*
X169571903Y-100587437D01*
X169467437Y-100691903D01*
X169465368Y-100695000D01*
X164646334Y-100695000D01*
X164623001Y-100692702D01*
X164529885Y-100701873D01*
X164502724Y-100710112D01*
X164440348Y-100729034D01*
X164357829Y-100773141D01*
X164285501Y-100832499D01*
X164270622Y-100850629D01*
X164026253Y-101094999D01*
X158299775Y-101094999D01*
X158271178Y-100951233D01*
X158214641Y-100814742D01*
X158132563Y-100691903D01*
X158028097Y-100587437D01*
X157905258Y-100505359D01*
X157768767Y-100448822D01*
X157623869Y-100420000D01*
X157476131Y-100420000D01*
X157331233Y-100448822D01*
X157194742Y-100505359D01*
X157071903Y-100587437D01*
X156967437Y-100691903D01*
X156885359Y-100814742D01*
X156828822Y-100951233D01*
X156800000Y-101096131D01*
X154147882Y-101096131D01*
X153299273Y-100247523D01*
X153300000Y-100243869D01*
X153300000Y-100096131D01*
X153271178Y-99951233D01*
X153214641Y-99814742D01*
X153132563Y-99691903D01*
X153028097Y-99587437D01*
X152905258Y-99505359D01*
X152768767Y-99448822D01*
X152623869Y-99420000D01*
X152476131Y-99420000D01*
X152331233Y-99448822D01*
X152194742Y-99505359D01*
X152071903Y-99587437D01*
X151967437Y-99691903D01*
X151885359Y-99814742D01*
X151828822Y-99951233D01*
X151800000Y-100096131D01*
X146190872Y-100096131D01*
X146328649Y-99626493D01*
X146331932Y-99609443D01*
X146336861Y-99592804D01*
X146342119Y-99556546D01*
X146423267Y-98706018D01*
X146425000Y-98688419D01*
X146425000Y-97651581D01*
X146424100Y-97642446D01*
X146403075Y-97212558D01*
X146401828Y-97203957D01*
X146401828Y-97195262D01*
X146396571Y-97159003D01*
X146286651Y-96596131D01*
X153800000Y-96596131D01*
X153800000Y-96743869D01*
X153828822Y-96888767D01*
X153885359Y-97025258D01*
X153967437Y-97148097D01*
X154071903Y-97252563D01*
X154194742Y-97334641D01*
X154331233Y-97391178D01*
X154476131Y-97420000D01*
X154623869Y-97420000D01*
X154768767Y-97391178D01*
X154905258Y-97334641D01*
X155028097Y-97252563D01*
X155132563Y-97148097D01*
X155134632Y-97145000D01*
X157853250Y-97145000D01*
X158300727Y-97592478D01*
X158300000Y-97596131D01*
X158300000Y-97743869D01*
X158328822Y-97888767D01*
X158385359Y-98025258D01*
X158467437Y-98148097D01*
X158571903Y-98252563D01*
X158694742Y-98334641D01*
X158831233Y-98391178D01*
X158976131Y-98420000D01*
X159123869Y-98420000D01*
X159268767Y-98391178D01*
X159405258Y-98334641D01*
X159528097Y-98252563D01*
X159632563Y-98148097D01*
X159714641Y-98025258D01*
X159771178Y-97888767D01*
X159800000Y-97743869D01*
X159800000Y-97596131D01*
X159771178Y-97451233D01*
X159714641Y-97314742D01*
X159632563Y-97191903D01*
X159528097Y-97087437D01*
X159405258Y-97005359D01*
X159268767Y-96948822D01*
X159123869Y-96920000D01*
X158976131Y-96920000D01*
X158972478Y-96920727D01*
X158696751Y-96645000D01*
X159965368Y-96645000D01*
X159967437Y-96648097D01*
X160071903Y-96752563D01*
X160194742Y-96834641D01*
X160331233Y-96891178D01*
X160476131Y-96920000D01*
X160623869Y-96920000D01*
X160768767Y-96891178D01*
X160905258Y-96834641D01*
X161028097Y-96752563D01*
X161132563Y-96648097D01*
X161214641Y-96525258D01*
X161271178Y-96388767D01*
X161300000Y-96243869D01*
X161300000Y-96096131D01*
X161271178Y-95951233D01*
X161214641Y-95814742D01*
X161132563Y-95691903D01*
X161028097Y-95587437D01*
X160905258Y-95505359D01*
X160768767Y-95448822D01*
X160623869Y-95420000D01*
X160476131Y-95420000D01*
X160331233Y-95448822D01*
X160194742Y-95505359D01*
X160071903Y-95587437D01*
X159967437Y-95691903D01*
X159965368Y-95695000D01*
X156746752Y-95695000D01*
X156299273Y-95247522D01*
X156300000Y-95243869D01*
X156300000Y-95096131D01*
X156271178Y-94951233D01*
X156214641Y-94814742D01*
X156132563Y-94691903D01*
X156028097Y-94587437D01*
X155905258Y-94505359D01*
X155768767Y-94448822D01*
X155623869Y-94420000D01*
X155476131Y-94420000D01*
X155331233Y-94448822D01*
X155194742Y-94505359D01*
X155071903Y-94587437D01*
X154967437Y-94691903D01*
X154885359Y-94814742D01*
X154828822Y-94951233D01*
X154800000Y-95096131D01*
X154800000Y-95243869D01*
X154828822Y-95388767D01*
X154885359Y-95525258D01*
X154967437Y-95648097D01*
X155071903Y-95752563D01*
X155194742Y-95834641D01*
X155331233Y-95891178D01*
X155476131Y-95920000D01*
X155623869Y-95920000D01*
X155627522Y-95919273D01*
X155903249Y-96195000D01*
X155134632Y-96195000D01*
X155132563Y-96191903D01*
X155028097Y-96087437D01*
X154905258Y-96005359D01*
X154768767Y-95948822D01*
X154623869Y-95920000D01*
X154476131Y-95920000D01*
X154331233Y-95948822D01*
X154194742Y-96005359D01*
X154071903Y-96087437D01*
X153967437Y-96191903D01*
X153885359Y-96314742D01*
X153828822Y-96451233D01*
X153800000Y-96596131D01*
X146286651Y-96596131D01*
X146232737Y-96320057D01*
X146227806Y-96303410D01*
X146224524Y-96286367D01*
X146212512Y-96251777D01*
X146212506Y-96251757D01*
X146212502Y-96251748D01*
X145948280Y-95596131D01*
X146300000Y-95596131D01*
X146300000Y-95743869D01*
X146328822Y-95888767D01*
X146385359Y-96025258D01*
X146467437Y-96148097D01*
X146571903Y-96252563D01*
X146694742Y-96334641D01*
X146831233Y-96391178D01*
X146976131Y-96420000D01*
X147123869Y-96420000D01*
X147268767Y-96391178D01*
X147405258Y-96334641D01*
X147528097Y-96252563D01*
X147632563Y-96148097D01*
X147714641Y-96025258D01*
X147771178Y-95888767D01*
X147800000Y-95743869D01*
X147800000Y-95596131D01*
X147799273Y-95592477D01*
X148612237Y-94779513D01*
X148694742Y-94834641D01*
X148831233Y-94891178D01*
X148976131Y-94920000D01*
X149123869Y-94920000D01*
X149268767Y-94891178D01*
X149405258Y-94834641D01*
X149528097Y-94752563D01*
X149632563Y-94648097D01*
X149634632Y-94645000D01*
X151465368Y-94645000D01*
X151467437Y-94648097D01*
X151571903Y-94752563D01*
X151694742Y-94834641D01*
X151831233Y-94891178D01*
X151976131Y-94920000D01*
X152123869Y-94920000D01*
X152268767Y-94891178D01*
X152405258Y-94834641D01*
X152528097Y-94752563D01*
X152632563Y-94648097D01*
X152714641Y-94525258D01*
X152771178Y-94388767D01*
X152800000Y-94243869D01*
X152800000Y-94096131D01*
X152771178Y-93951233D01*
X152714641Y-93814742D01*
X152632563Y-93691903D01*
X152536791Y-93596131D01*
X158300000Y-93596131D01*
X158300000Y-93743869D01*
X158328822Y-93888767D01*
X158385359Y-94025258D01*
X158467437Y-94148097D01*
X158571903Y-94252563D01*
X158694742Y-94334641D01*
X158831233Y-94391178D01*
X158976131Y-94420000D01*
X159123869Y-94420000D01*
X159268767Y-94391178D01*
X159405258Y-94334641D01*
X159528097Y-94252563D01*
X159632563Y-94148097D01*
X159634632Y-94145000D01*
X160353250Y-94145000D01*
X161300727Y-95092477D01*
X161300000Y-95096131D01*
X161300000Y-95243869D01*
X161328822Y-95388767D01*
X161385359Y-95525258D01*
X161467437Y-95648097D01*
X161571903Y-95752563D01*
X161575000Y-95754633D01*
X161575001Y-96585367D01*
X161571903Y-96587437D01*
X161467437Y-96691903D01*
X161385359Y-96814742D01*
X161328822Y-96951233D01*
X161300000Y-97096131D01*
X161300000Y-97243869D01*
X161328822Y-97388767D01*
X161385359Y-97525258D01*
X161467437Y-97648097D01*
X161571903Y-97752563D01*
X161694742Y-97834641D01*
X161831233Y-97891178D01*
X161976131Y-97920000D01*
X162123869Y-97920000D01*
X162268767Y-97891178D01*
X162405258Y-97834641D01*
X162528097Y-97752563D01*
X162632563Y-97648097D01*
X162714641Y-97525258D01*
X162771178Y-97388767D01*
X162800000Y-97243869D01*
X162800000Y-97096131D01*
X162771178Y-96951233D01*
X162714641Y-96814742D01*
X162632563Y-96691903D01*
X162528097Y-96587437D01*
X162525000Y-96585368D01*
X162525000Y-95754632D01*
X162528097Y-95752563D01*
X162632563Y-95648097D01*
X162714641Y-95525258D01*
X162771178Y-95388767D01*
X162800000Y-95243869D01*
X162800000Y-95096131D01*
X162771178Y-94951233D01*
X162714641Y-94814742D01*
X162632563Y-94691903D01*
X162528097Y-94587437D01*
X162405258Y-94505359D01*
X162268767Y-94448822D01*
X162123869Y-94420000D01*
X161976131Y-94420000D01*
X161972477Y-94420727D01*
X160902384Y-93350634D01*
X160887501Y-93332499D01*
X160815173Y-93273141D01*
X160732654Y-93229034D01*
X160643116Y-93201873D01*
X160573332Y-93195000D01*
X160550000Y-93192702D01*
X160526668Y-93195000D01*
X159634632Y-93195000D01*
X159632563Y-93191903D01*
X159528097Y-93087437D01*
X159405258Y-93005359D01*
X159268767Y-92948822D01*
X159123869Y-92920000D01*
X158976131Y-92920000D01*
X158831233Y-92948822D01*
X158694742Y-93005359D01*
X158571903Y-93087437D01*
X158467437Y-93191903D01*
X158385359Y-93314742D01*
X158328822Y-93451233D01*
X158300000Y-93596131D01*
X152536791Y-93596131D01*
X152528097Y-93587437D01*
X152405258Y-93505359D01*
X152268767Y-93448822D01*
X152123869Y-93420000D01*
X151976131Y-93420000D01*
X151831233Y-93448822D01*
X151694742Y-93505359D01*
X151571903Y-93587437D01*
X151467437Y-93691903D01*
X151465368Y-93695000D01*
X149634632Y-93695000D01*
X149632563Y-93691903D01*
X149528097Y-93587437D01*
X149405258Y-93505359D01*
X149268767Y-93448822D01*
X149123869Y-93420000D01*
X148976131Y-93420000D01*
X148831233Y-93448822D01*
X148694742Y-93505359D01*
X148571903Y-93587437D01*
X148467437Y-93691903D01*
X148461049Y-93701463D01*
X148456883Y-93701873D01*
X148432737Y-93709198D01*
X148367346Y-93729034D01*
X148284827Y-93773141D01*
X148212499Y-93832499D01*
X148197621Y-93850629D01*
X147127523Y-94920727D01*
X147123869Y-94920000D01*
X146976131Y-94920000D01*
X146831233Y-94948822D01*
X146694742Y-95005359D01*
X146571903Y-95087437D01*
X146467437Y-95191903D01*
X146385359Y-95314742D01*
X146328822Y-95451233D01*
X146300000Y-95596131D01*
X145948280Y-95596131D01*
X145892985Y-95458927D01*
X145884998Y-95443519D01*
X145878551Y-95427399D01*
X145860209Y-95395695D01*
X145860204Y-95395685D01*
X145860200Y-95395681D01*
X145396529Y-94677579D01*
X145385771Y-94663956D01*
X145376393Y-94649349D01*
X145352390Y-94621687D01*
X145352381Y-94621676D01*
X145352375Y-94621671D01*
X144761279Y-94004205D01*
X144748141Y-93992864D01*
X144736168Y-93980291D01*
X144707367Y-93957668D01*
X144707357Y-93957659D01*
X144707352Y-93957656D01*
X144010158Y-93463102D01*
X143995106Y-93454446D01*
X143980979Y-93444370D01*
X143948415Y-93427598D01*
X143948407Y-93427593D01*
X143948402Y-93427591D01*
X143170269Y-93073795D01*
X143153851Y-93068141D01*
X143138073Y-93060918D01*
X143102943Y-93050612D01*
X143102918Y-93050603D01*
X143102905Y-93050601D01*
X142271916Y-92850332D01*
X142254727Y-92847885D01*
X142237866Y-92843775D01*
X142201415Y-92840297D01*
X142201394Y-92840294D01*
X142201383Y-92840295D01*
X141347514Y-92800773D01*
X141330174Y-92801621D01*
X141312838Y-92800773D01*
X141276387Y-92804251D01*
X141276366Y-92804252D01*
X141276356Y-92804254D01*
X140430418Y-92926910D01*
X140413552Y-92931021D01*
X140396368Y-92933467D01*
X140361212Y-92943780D01*
X139553720Y-93224189D01*
X139537929Y-93231419D01*
X139521525Y-93237067D01*
X139488961Y-93253838D01*
X139488952Y-93253842D01*
X139488948Y-93253845D01*
X138749054Y-93681884D01*
X138734922Y-93691965D01*
X138719874Y-93700617D01*
X138691062Y-93723249D01*
X138045452Y-94283481D01*
X138033480Y-94296053D01*
X138020341Y-94307394D01*
X137996339Y-94335054D01*
X137996328Y-94335066D01*
X137996324Y-94335073D01*
X137468303Y-95007273D01*
X137458923Y-95021883D01*
X137448166Y-95035504D01*
X137429825Y-95067207D01*
X137429819Y-95067216D01*
X137429819Y-95067217D01*
X137038432Y-95827142D01*
X137031982Y-95843268D01*
X137023998Y-95858671D01*
X137011986Y-95893262D01*
X137011978Y-95893281D01*
X137011976Y-95893291D01*
X136771351Y-96713507D01*
X136768068Y-96730557D01*
X136763139Y-96747196D01*
X136757881Y-96783455D01*
X136676730Y-97634014D01*
X136675000Y-97651582D01*
X127047956Y-97651582D01*
X124017852Y-94367684D01*
X124014789Y-94364958D01*
X123933881Y-94281028D01*
X123918801Y-94268171D01*
X123904946Y-94254023D01*
X123900912Y-94250685D01*
X123447185Y-93880634D01*
X123418872Y-93861823D01*
X123390832Y-93842623D01*
X123386226Y-93840133D01*
X122927326Y-93596131D01*
X132300000Y-93596131D01*
X132300000Y-93743869D01*
X132328822Y-93888767D01*
X132385359Y-94025258D01*
X132467437Y-94148097D01*
X132571903Y-94252563D01*
X132694742Y-94334641D01*
X132831233Y-94391178D01*
X132976131Y-94420000D01*
X133123869Y-94420000D01*
X133268767Y-94391178D01*
X133405258Y-94334641D01*
X133528097Y-94252563D01*
X133632563Y-94148097D01*
X133634632Y-94145000D01*
X135465368Y-94145000D01*
X135467437Y-94148097D01*
X135571903Y-94252563D01*
X135694742Y-94334641D01*
X135831233Y-94391178D01*
X135976131Y-94420000D01*
X136123869Y-94420000D01*
X136268767Y-94391178D01*
X136405258Y-94334641D01*
X136528097Y-94252563D01*
X136632563Y-94148097D01*
X136714641Y-94025258D01*
X136771178Y-93888767D01*
X136800000Y-93743869D01*
X136800000Y-93596131D01*
X136771178Y-93451233D01*
X136714641Y-93314742D01*
X136632563Y-93191903D01*
X136528097Y-93087437D01*
X136405258Y-93005359D01*
X136268767Y-92948822D01*
X136123869Y-92920000D01*
X135976131Y-92920000D01*
X135831233Y-92948822D01*
X135694742Y-93005359D01*
X135571903Y-93087437D01*
X135467437Y-93191903D01*
X135465368Y-93195000D01*
X133634632Y-93195000D01*
X133632563Y-93191903D01*
X133528097Y-93087437D01*
X133405258Y-93005359D01*
X133268767Y-92948822D01*
X133123869Y-92920000D01*
X132976131Y-92920000D01*
X132831233Y-92948822D01*
X132694742Y-93005359D01*
X132571903Y-93087437D01*
X132467437Y-93191903D01*
X132385359Y-93314742D01*
X132328822Y-93451233D01*
X132300000Y-93596131D01*
X122927326Y-93596131D01*
X122869262Y-93565258D01*
X122837810Y-93552295D01*
X122806600Y-93538918D01*
X122801598Y-93537369D01*
X122241090Y-93368141D01*
X122207722Y-93361534D01*
X122174503Y-93354473D01*
X122169298Y-93353926D01*
X122169296Y-93353926D01*
X121587074Y-93296839D01*
X121568420Y-93295002D01*
X118520864Y-93295001D01*
X118684188Y-93227350D01*
X119249247Y-92849790D01*
X119729790Y-92369247D01*
X120107350Y-91804188D01*
X120367418Y-91176328D01*
X120484046Y-90590000D01*
X120718307Y-90590000D01*
X120718307Y-92290000D01*
X120725065Y-92358612D01*
X120745078Y-92424587D01*
X120777578Y-92485390D01*
X120821315Y-92538685D01*
X120874610Y-92582422D01*
X120935413Y-92614922D01*
X121001388Y-92634935D01*
X121070000Y-92641693D01*
X122770000Y-92641693D01*
X122838612Y-92634935D01*
X122904587Y-92614922D01*
X122965390Y-92582422D01*
X123018685Y-92538685D01*
X123062422Y-92485390D01*
X123094922Y-92424587D01*
X123114935Y-92358612D01*
X123121693Y-92290000D01*
X123121693Y-91440000D01*
X123254194Y-91440000D01*
X123277363Y-91675241D01*
X123345981Y-91901442D01*
X123457409Y-92109910D01*
X123607366Y-92292634D01*
X123790090Y-92442591D01*
X123998558Y-92554019D01*
X124224759Y-92622637D01*
X124401050Y-92640000D01*
X124518950Y-92640000D01*
X124695241Y-92622637D01*
X124921442Y-92554019D01*
X125129910Y-92442591D01*
X125312634Y-92292634D01*
X125462591Y-92109910D01*
X125574019Y-91901442D01*
X125642637Y-91675241D01*
X125665806Y-91440000D01*
X125794194Y-91440000D01*
X125817363Y-91675241D01*
X125885981Y-91901442D01*
X125997409Y-92109910D01*
X126147366Y-92292634D01*
X126330090Y-92442591D01*
X126538558Y-92554019D01*
X126764759Y-92622637D01*
X126941050Y-92640000D01*
X127058950Y-92640000D01*
X127235241Y-92622637D01*
X127461442Y-92554019D01*
X127669910Y-92442591D01*
X127852634Y-92292634D01*
X128002591Y-92109910D01*
X128114019Y-91901442D01*
X128182637Y-91675241D01*
X128205806Y-91440000D01*
X128334194Y-91440000D01*
X128357363Y-91675241D01*
X128425981Y-91901442D01*
X128537409Y-92109910D01*
X128687366Y-92292634D01*
X128870090Y-92442591D01*
X129078558Y-92554019D01*
X129304759Y-92622637D01*
X129481050Y-92640000D01*
X129598950Y-92640000D01*
X129775241Y-92622637D01*
X130001442Y-92554019D01*
X130209910Y-92442591D01*
X130392634Y-92292634D01*
X130542591Y-92109910D01*
X130654019Y-91901442D01*
X130722637Y-91675241D01*
X130745806Y-91440000D01*
X130743344Y-91414998D01*
X130880000Y-91414998D01*
X130880000Y-91465002D01*
X130967758Y-91465002D01*
X130898941Y-91652373D01*
X130963067Y-91878705D01*
X131070116Y-92088178D01*
X131215974Y-92272742D01*
X131395036Y-92425304D01*
X131600421Y-92540002D01*
X131824236Y-92612427D01*
X131867627Y-92621058D01*
X132055000Y-92552219D01*
X132055000Y-91465000D01*
X132035000Y-91465000D01*
X132035000Y-91415000D01*
X132055000Y-91415000D01*
X132055000Y-90327781D01*
X132105000Y-90327781D01*
X132105000Y-91415000D01*
X132125000Y-91415000D01*
X132125000Y-91465000D01*
X132105000Y-91465000D01*
X132105000Y-92552219D01*
X132292373Y-92621058D01*
X132335764Y-92612427D01*
X132559579Y-92540002D01*
X132764964Y-92425304D01*
X132944026Y-92272742D01*
X133089884Y-92088178D01*
X133196933Y-91878705D01*
X133261059Y-91652373D01*
X133192242Y-91465002D01*
X133280000Y-91465002D01*
X133280000Y-91440000D01*
X133414194Y-91440000D01*
X133437363Y-91675241D01*
X133505981Y-91901442D01*
X133617409Y-92109910D01*
X133767366Y-92292634D01*
X133950090Y-92442591D01*
X134158558Y-92554019D01*
X134384759Y-92622637D01*
X134561050Y-92640000D01*
X134678950Y-92640000D01*
X134855241Y-92622637D01*
X135081442Y-92554019D01*
X135289910Y-92442591D01*
X135472634Y-92292634D01*
X135622591Y-92109910D01*
X135734019Y-91901442D01*
X135802637Y-91675241D01*
X135825806Y-91440000D01*
X135954194Y-91440000D01*
X135977363Y-91675241D01*
X136045981Y-91901442D01*
X136157409Y-92109910D01*
X136307366Y-92292634D01*
X136490090Y-92442591D01*
X136698558Y-92554019D01*
X136924759Y-92622637D01*
X137101050Y-92640000D01*
X137218950Y-92640000D01*
X137395241Y-92622637D01*
X137621442Y-92554019D01*
X137829910Y-92442591D01*
X138012634Y-92292634D01*
X138162591Y-92109910D01*
X138274019Y-91901442D01*
X138342637Y-91675241D01*
X138365806Y-91440000D01*
X138494194Y-91440000D01*
X138517363Y-91675241D01*
X138585981Y-91901442D01*
X138697409Y-92109910D01*
X138847366Y-92292634D01*
X139030090Y-92442591D01*
X139238558Y-92554019D01*
X139464759Y-92622637D01*
X139641050Y-92640000D01*
X139758950Y-92640000D01*
X139935241Y-92622637D01*
X140161442Y-92554019D01*
X140369910Y-92442591D01*
X140552634Y-92292634D01*
X140702591Y-92109910D01*
X140814019Y-91901442D01*
X140882637Y-91675241D01*
X140905806Y-91440000D01*
X141034194Y-91440000D01*
X141057363Y-91675241D01*
X141125981Y-91901442D01*
X141237409Y-92109910D01*
X141387366Y-92292634D01*
X141570090Y-92442591D01*
X141778558Y-92554019D01*
X142004759Y-92622637D01*
X142181050Y-92640000D01*
X142298950Y-92640000D01*
X142475241Y-92622637D01*
X142701442Y-92554019D01*
X142909910Y-92442591D01*
X143092634Y-92292634D01*
X143242591Y-92109910D01*
X143354019Y-91901442D01*
X143422637Y-91675241D01*
X143445806Y-91440000D01*
X143574194Y-91440000D01*
X143597363Y-91675241D01*
X143665981Y-91901442D01*
X143777409Y-92109910D01*
X143927366Y-92292634D01*
X144110090Y-92442591D01*
X144318558Y-92554019D01*
X144544759Y-92622637D01*
X144721050Y-92640000D01*
X144838950Y-92640000D01*
X145015241Y-92622637D01*
X145241442Y-92554019D01*
X145449910Y-92442591D01*
X145632634Y-92292634D01*
X145782591Y-92109910D01*
X145894019Y-91901442D01*
X145962637Y-91675241D01*
X145985806Y-91440000D01*
X146114194Y-91440000D01*
X146137363Y-91675241D01*
X146205981Y-91901442D01*
X146317409Y-92109910D01*
X146467366Y-92292634D01*
X146650090Y-92442591D01*
X146858558Y-92554019D01*
X147084759Y-92622637D01*
X147261050Y-92640000D01*
X147378950Y-92640000D01*
X147555241Y-92622637D01*
X147781442Y-92554019D01*
X147989910Y-92442591D01*
X148172634Y-92292634D01*
X148322591Y-92109910D01*
X148434019Y-91901442D01*
X148502637Y-91675241D01*
X148525806Y-91440000D01*
X148654194Y-91440000D01*
X148677363Y-91675241D01*
X148745981Y-91901442D01*
X148857409Y-92109910D01*
X149007366Y-92292634D01*
X149190090Y-92442591D01*
X149398558Y-92554019D01*
X149624759Y-92622637D01*
X149801050Y-92640000D01*
X149918950Y-92640000D01*
X150095241Y-92622637D01*
X150321442Y-92554019D01*
X150529910Y-92442591D01*
X150712634Y-92292634D01*
X150862591Y-92109910D01*
X150974019Y-91901442D01*
X151042637Y-91675241D01*
X151065806Y-91440000D01*
X151063344Y-91414998D01*
X151200000Y-91414998D01*
X151200000Y-91465002D01*
X151287758Y-91465002D01*
X151218941Y-91652373D01*
X151283067Y-91878705D01*
X151390116Y-92088178D01*
X151535974Y-92272742D01*
X151715036Y-92425304D01*
X151920421Y-92540002D01*
X152144236Y-92612427D01*
X152187627Y-92621058D01*
X152375000Y-92552219D01*
X152375000Y-91465000D01*
X152355000Y-91465000D01*
X152355000Y-91415000D01*
X152375000Y-91415000D01*
X152375000Y-90327781D01*
X152425000Y-90327781D01*
X152425000Y-91415000D01*
X152445000Y-91415000D01*
X152445000Y-91465000D01*
X152425000Y-91465000D01*
X152425000Y-92552219D01*
X152612373Y-92621058D01*
X152655764Y-92612427D01*
X152879579Y-92540002D01*
X153084964Y-92425304D01*
X153264026Y-92272742D01*
X153409884Y-92088178D01*
X153516933Y-91878705D01*
X153581059Y-91652373D01*
X153512242Y-91465002D01*
X153600000Y-91465002D01*
X153600000Y-91440000D01*
X153734194Y-91440000D01*
X153757363Y-91675241D01*
X153825981Y-91901442D01*
X153937409Y-92109910D01*
X154087366Y-92292634D01*
X154270090Y-92442591D01*
X154478558Y-92554019D01*
X154704759Y-92622637D01*
X154881050Y-92640000D01*
X154998950Y-92640000D01*
X155175241Y-92622637D01*
X155401442Y-92554019D01*
X155609910Y-92442591D01*
X155792634Y-92292634D01*
X155942591Y-92109910D01*
X156054019Y-91901442D01*
X156122637Y-91675241D01*
X156145806Y-91440000D01*
X156274194Y-91440000D01*
X156297363Y-91675241D01*
X156365981Y-91901442D01*
X156477409Y-92109910D01*
X156627366Y-92292634D01*
X156810090Y-92442591D01*
X157018558Y-92554019D01*
X157244759Y-92622637D01*
X157421050Y-92640000D01*
X157538950Y-92640000D01*
X157715241Y-92622637D01*
X157941442Y-92554019D01*
X158149910Y-92442591D01*
X158332634Y-92292634D01*
X158482591Y-92109910D01*
X158594019Y-91901442D01*
X158662637Y-91675241D01*
X158685806Y-91440000D01*
X158814194Y-91440000D01*
X158837363Y-91675241D01*
X158905981Y-91901442D01*
X159017409Y-92109910D01*
X159167366Y-92292634D01*
X159350090Y-92442591D01*
X159558558Y-92554019D01*
X159784759Y-92622637D01*
X159961050Y-92640000D01*
X160078950Y-92640000D01*
X160255241Y-92622637D01*
X160481442Y-92554019D01*
X160689910Y-92442591D01*
X160872634Y-92292634D01*
X161022591Y-92109910D01*
X161134019Y-91901442D01*
X161202637Y-91675241D01*
X161225806Y-91440000D01*
X161354194Y-91440000D01*
X161377363Y-91675241D01*
X161445981Y-91901442D01*
X161557409Y-92109910D01*
X161707366Y-92292634D01*
X161890090Y-92442591D01*
X162098558Y-92554019D01*
X162324759Y-92622637D01*
X162501050Y-92640000D01*
X162618950Y-92640000D01*
X162795241Y-92622637D01*
X163021442Y-92554019D01*
X163229910Y-92442591D01*
X163412634Y-92292634D01*
X163562591Y-92109910D01*
X163674019Y-91901442D01*
X163742637Y-91675241D01*
X163765806Y-91440000D01*
X163894194Y-91440000D01*
X163917363Y-91675241D01*
X163985981Y-91901442D01*
X164097409Y-92109910D01*
X164247366Y-92292634D01*
X164430090Y-92442591D01*
X164638558Y-92554019D01*
X164864759Y-92622637D01*
X165041050Y-92640000D01*
X165158950Y-92640000D01*
X165335241Y-92622637D01*
X165561442Y-92554019D01*
X165769910Y-92442591D01*
X165952634Y-92292634D01*
X166102591Y-92109910D01*
X166214019Y-91901442D01*
X166282637Y-91675241D01*
X166305806Y-91440000D01*
X166434194Y-91440000D01*
X166457363Y-91675241D01*
X166525981Y-91901442D01*
X166637409Y-92109910D01*
X166787366Y-92292634D01*
X166970090Y-92442591D01*
X167178558Y-92554019D01*
X167404759Y-92622637D01*
X167581050Y-92640000D01*
X167698950Y-92640000D01*
X167875241Y-92622637D01*
X168101442Y-92554019D01*
X168309910Y-92442591D01*
X168492634Y-92292634D01*
X168642591Y-92109910D01*
X168754019Y-91901442D01*
X168822637Y-91675241D01*
X168824889Y-91652373D01*
X168998941Y-91652373D01*
X169063067Y-91878705D01*
X169170116Y-92088178D01*
X169315974Y-92272742D01*
X169495036Y-92425304D01*
X169700421Y-92540002D01*
X169924236Y-92612427D01*
X169967627Y-92621058D01*
X170155000Y-92552219D01*
X170155000Y-91465000D01*
X170205000Y-91465000D01*
X170205000Y-92552219D01*
X170392373Y-92621058D01*
X170435764Y-92612427D01*
X170659579Y-92540002D01*
X170864964Y-92425304D01*
X171044026Y-92272742D01*
X171189884Y-92088178D01*
X171296933Y-91878705D01*
X171361059Y-91652373D01*
X171292241Y-91465000D01*
X170205000Y-91465000D01*
X170155000Y-91465000D01*
X169067759Y-91465000D01*
X168998941Y-91652373D01*
X168824889Y-91652373D01*
X168845806Y-91440000D01*
X168824890Y-91227627D01*
X168998941Y-91227627D01*
X169067759Y-91415000D01*
X170155000Y-91415000D01*
X170155000Y-90327781D01*
X170205000Y-90327781D01*
X170205000Y-91415000D01*
X171292241Y-91415000D01*
X171361059Y-91227627D01*
X171296933Y-91001295D01*
X171189884Y-90791822D01*
X171044026Y-90607258D01*
X170864964Y-90454696D01*
X170659579Y-90339998D01*
X170435764Y-90267573D01*
X170392373Y-90258942D01*
X170205000Y-90327781D01*
X170155000Y-90327781D01*
X169967627Y-90258942D01*
X169924236Y-90267573D01*
X169700421Y-90339998D01*
X169495036Y-90454696D01*
X169315974Y-90607258D01*
X169170116Y-90791822D01*
X169063067Y-91001295D01*
X168998941Y-91227627D01*
X168824890Y-91227627D01*
X168822637Y-91204759D01*
X168754019Y-90978558D01*
X168642591Y-90770090D01*
X168492634Y-90587366D01*
X168309910Y-90437409D01*
X168101442Y-90325981D01*
X167875241Y-90257363D01*
X167698950Y-90240000D01*
X167581050Y-90240000D01*
X167404759Y-90257363D01*
X167178558Y-90325981D01*
X166970090Y-90437409D01*
X166787366Y-90587366D01*
X166637409Y-90770090D01*
X166525981Y-90978558D01*
X166457363Y-91204759D01*
X166434194Y-91440000D01*
X166305806Y-91440000D01*
X166282637Y-91204759D01*
X166214019Y-90978558D01*
X166102591Y-90770090D01*
X165952634Y-90587366D01*
X165769910Y-90437409D01*
X165561442Y-90325981D01*
X165335241Y-90257363D01*
X165158950Y-90240000D01*
X165041050Y-90240000D01*
X164864759Y-90257363D01*
X164638558Y-90325981D01*
X164430090Y-90437409D01*
X164247366Y-90587366D01*
X164097409Y-90770090D01*
X163985981Y-90978558D01*
X163917363Y-91204759D01*
X163894194Y-91440000D01*
X163765806Y-91440000D01*
X163742637Y-91204759D01*
X163674019Y-90978558D01*
X163562591Y-90770090D01*
X163412634Y-90587366D01*
X163229910Y-90437409D01*
X163021442Y-90325981D01*
X162795241Y-90257363D01*
X162618950Y-90240000D01*
X162501050Y-90240000D01*
X162324759Y-90257363D01*
X162098558Y-90325981D01*
X161890090Y-90437409D01*
X161707366Y-90587366D01*
X161557409Y-90770090D01*
X161445981Y-90978558D01*
X161377363Y-91204759D01*
X161354194Y-91440000D01*
X161225806Y-91440000D01*
X161202637Y-91204759D01*
X161134019Y-90978558D01*
X161022591Y-90770090D01*
X160872634Y-90587366D01*
X160689910Y-90437409D01*
X160481442Y-90325981D01*
X160255241Y-90257363D01*
X160078950Y-90240000D01*
X159961050Y-90240000D01*
X159784759Y-90257363D01*
X159558558Y-90325981D01*
X159350090Y-90437409D01*
X159167366Y-90587366D01*
X159017409Y-90770090D01*
X158905981Y-90978558D01*
X158837363Y-91204759D01*
X158814194Y-91440000D01*
X158685806Y-91440000D01*
X158662637Y-91204759D01*
X158594019Y-90978558D01*
X158482591Y-90770090D01*
X158332634Y-90587366D01*
X158149910Y-90437409D01*
X157941442Y-90325981D01*
X157715241Y-90257363D01*
X157538950Y-90240000D01*
X157421050Y-90240000D01*
X157244759Y-90257363D01*
X157018558Y-90325981D01*
X156810090Y-90437409D01*
X156627366Y-90587366D01*
X156477409Y-90770090D01*
X156365981Y-90978558D01*
X156297363Y-91204759D01*
X156274194Y-91440000D01*
X156145806Y-91440000D01*
X156122637Y-91204759D01*
X156054019Y-90978558D01*
X155942591Y-90770090D01*
X155792634Y-90587366D01*
X155609910Y-90437409D01*
X155401442Y-90325981D01*
X155175241Y-90257363D01*
X154998950Y-90240000D01*
X154881050Y-90240000D01*
X154704759Y-90257363D01*
X154478558Y-90325981D01*
X154270090Y-90437409D01*
X154087366Y-90587366D01*
X153937409Y-90770090D01*
X153825981Y-90978558D01*
X153757363Y-91204759D01*
X153734194Y-91440000D01*
X153600000Y-91440000D01*
X153600000Y-91414998D01*
X153512242Y-91414998D01*
X153581059Y-91227627D01*
X153516933Y-91001295D01*
X153409884Y-90791822D01*
X153264026Y-90607258D01*
X153084964Y-90454696D01*
X152879579Y-90339998D01*
X152655764Y-90267573D01*
X152612373Y-90258942D01*
X152425000Y-90327781D01*
X152375000Y-90327781D01*
X152187627Y-90258942D01*
X152144236Y-90267573D01*
X151920421Y-90339998D01*
X151715036Y-90454696D01*
X151535974Y-90607258D01*
X151390116Y-90791822D01*
X151283067Y-91001295D01*
X151218941Y-91227627D01*
X151287758Y-91414998D01*
X151200000Y-91414998D01*
X151063344Y-91414998D01*
X151042637Y-91204759D01*
X150974019Y-90978558D01*
X150862591Y-90770090D01*
X150712634Y-90587366D01*
X150529910Y-90437409D01*
X150321442Y-90325981D01*
X150095241Y-90257363D01*
X149918950Y-90240000D01*
X149801050Y-90240000D01*
X149624759Y-90257363D01*
X149398558Y-90325981D01*
X149190090Y-90437409D01*
X149007366Y-90587366D01*
X148857409Y-90770090D01*
X148745981Y-90978558D01*
X148677363Y-91204759D01*
X148654194Y-91440000D01*
X148525806Y-91440000D01*
X148502637Y-91204759D01*
X148434019Y-90978558D01*
X148322591Y-90770090D01*
X148172634Y-90587366D01*
X147989910Y-90437409D01*
X147781442Y-90325981D01*
X147555241Y-90257363D01*
X147378950Y-90240000D01*
X147261050Y-90240000D01*
X147084759Y-90257363D01*
X146858558Y-90325981D01*
X146650090Y-90437409D01*
X146467366Y-90587366D01*
X146317409Y-90770090D01*
X146205981Y-90978558D01*
X146137363Y-91204759D01*
X146114194Y-91440000D01*
X145985806Y-91440000D01*
X145962637Y-91204759D01*
X145894019Y-90978558D01*
X145782591Y-90770090D01*
X145632634Y-90587366D01*
X145449910Y-90437409D01*
X145241442Y-90325981D01*
X145015241Y-90257363D01*
X144838950Y-90240000D01*
X144721050Y-90240000D01*
X144544759Y-90257363D01*
X144318558Y-90325981D01*
X144110090Y-90437409D01*
X143927366Y-90587366D01*
X143777409Y-90770090D01*
X143665981Y-90978558D01*
X143597363Y-91204759D01*
X143574194Y-91440000D01*
X143445806Y-91440000D01*
X143422637Y-91204759D01*
X143354019Y-90978558D01*
X143242591Y-90770090D01*
X143092634Y-90587366D01*
X142909910Y-90437409D01*
X142701442Y-90325981D01*
X142475241Y-90257363D01*
X142298950Y-90240000D01*
X142181050Y-90240000D01*
X142004759Y-90257363D01*
X141778558Y-90325981D01*
X141570090Y-90437409D01*
X141387366Y-90587366D01*
X141237409Y-90770090D01*
X141125981Y-90978558D01*
X141057363Y-91204759D01*
X141034194Y-91440000D01*
X140905806Y-91440000D01*
X140882637Y-91204759D01*
X140814019Y-90978558D01*
X140702591Y-90770090D01*
X140552634Y-90587366D01*
X140369910Y-90437409D01*
X140161442Y-90325981D01*
X139935241Y-90257363D01*
X139758950Y-90240000D01*
X139641050Y-90240000D01*
X139464759Y-90257363D01*
X139238558Y-90325981D01*
X139030090Y-90437409D01*
X138847366Y-90587366D01*
X138697409Y-90770090D01*
X138585981Y-90978558D01*
X138517363Y-91204759D01*
X138494194Y-91440000D01*
X138365806Y-91440000D01*
X138342637Y-91204759D01*
X138274019Y-90978558D01*
X138162591Y-90770090D01*
X138012634Y-90587366D01*
X137829910Y-90437409D01*
X137621442Y-90325981D01*
X137395241Y-90257363D01*
X137218950Y-90240000D01*
X137101050Y-90240000D01*
X136924759Y-90257363D01*
X136698558Y-90325981D01*
X136490090Y-90437409D01*
X136307366Y-90587366D01*
X136157409Y-90770090D01*
X136045981Y-90978558D01*
X135977363Y-91204759D01*
X135954194Y-91440000D01*
X135825806Y-91440000D01*
X135802637Y-91204759D01*
X135734019Y-90978558D01*
X135622591Y-90770090D01*
X135472634Y-90587366D01*
X135289910Y-90437409D01*
X135081442Y-90325981D01*
X134855241Y-90257363D01*
X134678950Y-90240000D01*
X134561050Y-90240000D01*
X134384759Y-90257363D01*
X134158558Y-90325981D01*
X133950090Y-90437409D01*
X133767366Y-90587366D01*
X133617409Y-90770090D01*
X133505981Y-90978558D01*
X133437363Y-91204759D01*
X133414194Y-91440000D01*
X133280000Y-91440000D01*
X133280000Y-91414998D01*
X133192242Y-91414998D01*
X133261059Y-91227627D01*
X133196933Y-91001295D01*
X133089884Y-90791822D01*
X132944026Y-90607258D01*
X132764964Y-90454696D01*
X132559579Y-90339998D01*
X132335764Y-90267573D01*
X132292373Y-90258942D01*
X132105000Y-90327781D01*
X132055000Y-90327781D01*
X131867627Y-90258942D01*
X131824236Y-90267573D01*
X131600421Y-90339998D01*
X131395036Y-90454696D01*
X131215974Y-90607258D01*
X131070116Y-90791822D01*
X130963067Y-91001295D01*
X130898941Y-91227627D01*
X130967758Y-91414998D01*
X130880000Y-91414998D01*
X130743344Y-91414998D01*
X130722637Y-91204759D01*
X130654019Y-90978558D01*
X130542591Y-90770090D01*
X130392634Y-90587366D01*
X130209910Y-90437409D01*
X130001442Y-90325981D01*
X129775241Y-90257363D01*
X129598950Y-90240000D01*
X129481050Y-90240000D01*
X129304759Y-90257363D01*
X129078558Y-90325981D01*
X128870090Y-90437409D01*
X128687366Y-90587366D01*
X128537409Y-90770090D01*
X128425981Y-90978558D01*
X128357363Y-91204759D01*
X128334194Y-91440000D01*
X128205806Y-91440000D01*
X128182637Y-91204759D01*
X128114019Y-90978558D01*
X128002591Y-90770090D01*
X127852634Y-90587366D01*
X127669910Y-90437409D01*
X127461442Y-90325981D01*
X127235241Y-90257363D01*
X127058950Y-90240000D01*
X126941050Y-90240000D01*
X126764759Y-90257363D01*
X126538558Y-90325981D01*
X126330090Y-90437409D01*
X126147366Y-90587366D01*
X125997409Y-90770090D01*
X125885981Y-90978558D01*
X125817363Y-91204759D01*
X125794194Y-91440000D01*
X125665806Y-91440000D01*
X125642637Y-91204759D01*
X125574019Y-90978558D01*
X125462591Y-90770090D01*
X125312634Y-90587366D01*
X125129910Y-90437409D01*
X124921442Y-90325981D01*
X124695241Y-90257363D01*
X124518950Y-90240000D01*
X124401050Y-90240000D01*
X124224759Y-90257363D01*
X123998558Y-90325981D01*
X123790090Y-90437409D01*
X123607366Y-90587366D01*
X123457409Y-90770090D01*
X123345981Y-90978558D01*
X123277363Y-91204759D01*
X123254194Y-91440000D01*
X123121693Y-91440000D01*
X123121693Y-90590000D01*
X123114935Y-90521388D01*
X123094922Y-90455413D01*
X123062422Y-90394610D01*
X123018685Y-90341315D01*
X122965390Y-90297578D01*
X122904587Y-90265078D01*
X122838612Y-90245065D01*
X122770000Y-90238307D01*
X121070000Y-90238307D01*
X121001388Y-90245065D01*
X120935413Y-90265078D01*
X120874610Y-90297578D01*
X120821315Y-90341315D01*
X120777578Y-90394610D01*
X120745078Y-90455413D01*
X120725065Y-90521388D01*
X120718307Y-90590000D01*
X120484046Y-90590000D01*
X120500000Y-90509795D01*
X120500000Y-89830205D01*
X120367418Y-89163672D01*
X120258202Y-88900000D01*
X120714194Y-88900000D01*
X120737363Y-89135241D01*
X120805981Y-89361442D01*
X120917409Y-89569910D01*
X121067366Y-89752634D01*
X121250090Y-89902591D01*
X121458558Y-90014019D01*
X121684759Y-90082637D01*
X121861050Y-90100000D01*
X121978950Y-90100000D01*
X122155241Y-90082637D01*
X122381442Y-90014019D01*
X122589910Y-89902591D01*
X122772634Y-89752634D01*
X122922591Y-89569910D01*
X123034019Y-89361442D01*
X123102637Y-89135241D01*
X123125806Y-88900000D01*
X123254194Y-88900000D01*
X123277363Y-89135241D01*
X123345981Y-89361442D01*
X123457409Y-89569910D01*
X123607366Y-89752634D01*
X123790090Y-89902591D01*
X123998558Y-90014019D01*
X124224759Y-90082637D01*
X124401050Y-90100000D01*
X124518950Y-90100000D01*
X124695241Y-90082637D01*
X124921442Y-90014019D01*
X125129910Y-89902591D01*
X125312634Y-89752634D01*
X125462591Y-89569910D01*
X125574019Y-89361442D01*
X125642637Y-89135241D01*
X125665806Y-88900000D01*
X125663344Y-88874998D01*
X125800000Y-88874998D01*
X125800000Y-88925002D01*
X125887758Y-88925002D01*
X125818941Y-89112373D01*
X125883067Y-89338705D01*
X125990116Y-89548178D01*
X126135974Y-89732742D01*
X126315036Y-89885304D01*
X126520421Y-90000002D01*
X126744236Y-90072427D01*
X126787627Y-90081058D01*
X126975000Y-90012219D01*
X126975000Y-88925000D01*
X126955000Y-88925000D01*
X126955000Y-88875000D01*
X126975000Y-88875000D01*
X126975000Y-87787781D01*
X127025000Y-87787781D01*
X127025000Y-88875000D01*
X127045000Y-88875000D01*
X127045000Y-88925000D01*
X127025000Y-88925000D01*
X127025000Y-90012219D01*
X127212373Y-90081058D01*
X127255764Y-90072427D01*
X127479579Y-90000002D01*
X127684964Y-89885304D01*
X127864026Y-89732742D01*
X128009884Y-89548178D01*
X128116933Y-89338705D01*
X128181059Y-89112373D01*
X128112242Y-88925002D01*
X128200000Y-88925002D01*
X128200000Y-88900000D01*
X128334194Y-88900000D01*
X128357363Y-89135241D01*
X128425981Y-89361442D01*
X128537409Y-89569910D01*
X128687366Y-89752634D01*
X128870090Y-89902591D01*
X129078558Y-90014019D01*
X129304759Y-90082637D01*
X129481050Y-90100000D01*
X129598950Y-90100000D01*
X129775241Y-90082637D01*
X130001442Y-90014019D01*
X130209910Y-89902591D01*
X130392634Y-89752634D01*
X130542591Y-89569910D01*
X130654019Y-89361442D01*
X130722637Y-89135241D01*
X130745806Y-88900000D01*
X130874194Y-88900000D01*
X130897363Y-89135241D01*
X130965981Y-89361442D01*
X131077409Y-89569910D01*
X131227366Y-89752634D01*
X131410090Y-89902591D01*
X131618558Y-90014019D01*
X131844759Y-90082637D01*
X132021050Y-90100000D01*
X132138950Y-90100000D01*
X132315241Y-90082637D01*
X132541442Y-90014019D01*
X132749910Y-89902591D01*
X132932634Y-89752634D01*
X133082591Y-89569910D01*
X133194019Y-89361442D01*
X133262637Y-89135241D01*
X133285806Y-88900000D01*
X133414194Y-88900000D01*
X133437363Y-89135241D01*
X133505981Y-89361442D01*
X133617409Y-89569910D01*
X133767366Y-89752634D01*
X133950090Y-89902591D01*
X134158558Y-90014019D01*
X134384759Y-90082637D01*
X134561050Y-90100000D01*
X134678950Y-90100000D01*
X134855241Y-90082637D01*
X135081442Y-90014019D01*
X135289910Y-89902591D01*
X135472634Y-89752634D01*
X135622591Y-89569910D01*
X135734019Y-89361442D01*
X135802637Y-89135241D01*
X135825806Y-88900000D01*
X135823344Y-88874998D01*
X135960000Y-88874998D01*
X135960000Y-88925002D01*
X136047758Y-88925002D01*
X135978941Y-89112373D01*
X136043067Y-89338705D01*
X136150116Y-89548178D01*
X136295974Y-89732742D01*
X136475036Y-89885304D01*
X136680421Y-90000002D01*
X136904236Y-90072427D01*
X136947627Y-90081058D01*
X137135000Y-90012219D01*
X137135000Y-88925000D01*
X137115000Y-88925000D01*
X137115000Y-88875000D01*
X137135000Y-88875000D01*
X137135000Y-87787781D01*
X137185000Y-87787781D01*
X137185000Y-88875000D01*
X137205000Y-88875000D01*
X137205000Y-88925000D01*
X137185000Y-88925000D01*
X137185000Y-90012219D01*
X137372373Y-90081058D01*
X137415764Y-90072427D01*
X137639579Y-90000002D01*
X137844964Y-89885304D01*
X138024026Y-89732742D01*
X138169884Y-89548178D01*
X138276933Y-89338705D01*
X138341059Y-89112373D01*
X138272242Y-88925002D01*
X138360000Y-88925002D01*
X138360000Y-88900000D01*
X138494194Y-88900000D01*
X138517363Y-89135241D01*
X138585981Y-89361442D01*
X138697409Y-89569910D01*
X138847366Y-89752634D01*
X139030090Y-89902591D01*
X139238558Y-90014019D01*
X139464759Y-90082637D01*
X139641050Y-90100000D01*
X139758950Y-90100000D01*
X139935241Y-90082637D01*
X140161442Y-90014019D01*
X140369910Y-89902591D01*
X140552634Y-89752634D01*
X140702591Y-89569910D01*
X140814019Y-89361442D01*
X140882637Y-89135241D01*
X140905806Y-88900000D01*
X141034194Y-88900000D01*
X141057363Y-89135241D01*
X141125981Y-89361442D01*
X141237409Y-89569910D01*
X141387366Y-89752634D01*
X141570090Y-89902591D01*
X141778558Y-90014019D01*
X142004759Y-90082637D01*
X142181050Y-90100000D01*
X142298950Y-90100000D01*
X142475241Y-90082637D01*
X142701442Y-90014019D01*
X142909910Y-89902591D01*
X143092634Y-89752634D01*
X143242591Y-89569910D01*
X143354019Y-89361442D01*
X143422637Y-89135241D01*
X143445806Y-88900000D01*
X143443344Y-88874998D01*
X143580000Y-88874998D01*
X143580000Y-88925002D01*
X143667758Y-88925002D01*
X143598941Y-89112373D01*
X143663067Y-89338705D01*
X143770116Y-89548178D01*
X143915974Y-89732742D01*
X144095036Y-89885304D01*
X144300421Y-90000002D01*
X144524236Y-90072427D01*
X144567627Y-90081058D01*
X144755000Y-90012219D01*
X144755000Y-88925000D01*
X144735000Y-88925000D01*
X144735000Y-88875000D01*
X144755000Y-88875000D01*
X144755000Y-87787781D01*
X144805000Y-87787781D01*
X144805000Y-88875000D01*
X144825000Y-88875000D01*
X144825000Y-88925000D01*
X144805000Y-88925000D01*
X144805000Y-90012219D01*
X144992373Y-90081058D01*
X145035764Y-90072427D01*
X145259579Y-90000002D01*
X145464964Y-89885304D01*
X145644026Y-89732742D01*
X145789884Y-89548178D01*
X145896933Y-89338705D01*
X145961059Y-89112373D01*
X145892242Y-88925002D01*
X145980000Y-88925002D01*
X145980000Y-88900000D01*
X146114194Y-88900000D01*
X146137363Y-89135241D01*
X146205981Y-89361442D01*
X146317409Y-89569910D01*
X146467366Y-89752634D01*
X146650090Y-89902591D01*
X146858558Y-90014019D01*
X147084759Y-90082637D01*
X147261050Y-90100000D01*
X147378950Y-90100000D01*
X147555241Y-90082637D01*
X147781442Y-90014019D01*
X147989910Y-89902591D01*
X148172634Y-89752634D01*
X148322591Y-89569910D01*
X148434019Y-89361442D01*
X148502637Y-89135241D01*
X148525806Y-88900000D01*
X148654194Y-88900000D01*
X148677363Y-89135241D01*
X148745981Y-89361442D01*
X148857409Y-89569910D01*
X149007366Y-89752634D01*
X149190090Y-89902591D01*
X149398558Y-90014019D01*
X149624759Y-90082637D01*
X149801050Y-90100000D01*
X149918950Y-90100000D01*
X150095241Y-90082637D01*
X150321442Y-90014019D01*
X150529910Y-89902591D01*
X150712634Y-89752634D01*
X150862591Y-89569910D01*
X150974019Y-89361442D01*
X151042637Y-89135241D01*
X151065806Y-88900000D01*
X151194194Y-88900000D01*
X151217363Y-89135241D01*
X151285981Y-89361442D01*
X151397409Y-89569910D01*
X151547366Y-89752634D01*
X151730090Y-89902591D01*
X151938558Y-90014019D01*
X152164759Y-90082637D01*
X152341050Y-90100000D01*
X152458950Y-90100000D01*
X152635241Y-90082637D01*
X152861442Y-90014019D01*
X153069910Y-89902591D01*
X153252634Y-89752634D01*
X153402591Y-89569910D01*
X153514019Y-89361442D01*
X153582637Y-89135241D01*
X153605806Y-88900000D01*
X153734194Y-88900000D01*
X153757363Y-89135241D01*
X153825981Y-89361442D01*
X153937409Y-89569910D01*
X154087366Y-89752634D01*
X154270090Y-89902591D01*
X154478558Y-90014019D01*
X154704759Y-90082637D01*
X154881050Y-90100000D01*
X154998950Y-90100000D01*
X155175241Y-90082637D01*
X155401442Y-90014019D01*
X155609910Y-89902591D01*
X155792634Y-89752634D01*
X155942591Y-89569910D01*
X156054019Y-89361442D01*
X156122637Y-89135241D01*
X156145806Y-88900000D01*
X156143344Y-88874998D01*
X156280000Y-88874998D01*
X156280000Y-88925002D01*
X156367758Y-88925002D01*
X156298941Y-89112373D01*
X156363067Y-89338705D01*
X156470116Y-89548178D01*
X156615974Y-89732742D01*
X156795036Y-89885304D01*
X157000421Y-90000002D01*
X157224236Y-90072427D01*
X157267627Y-90081058D01*
X157455000Y-90012219D01*
X157455000Y-88925000D01*
X157435000Y-88925000D01*
X157435000Y-88875000D01*
X157455000Y-88875000D01*
X157455000Y-87787781D01*
X157505000Y-87787781D01*
X157505000Y-88875000D01*
X157525000Y-88875000D01*
X157525000Y-88925000D01*
X157505000Y-88925000D01*
X157505000Y-90012219D01*
X157692373Y-90081058D01*
X157735764Y-90072427D01*
X157959579Y-90000002D01*
X158164964Y-89885304D01*
X158344026Y-89732742D01*
X158489884Y-89548178D01*
X158596933Y-89338705D01*
X158661059Y-89112373D01*
X158592242Y-88925002D01*
X158680000Y-88925002D01*
X158680000Y-88900000D01*
X158814194Y-88900000D01*
X158837363Y-89135241D01*
X158905981Y-89361442D01*
X159017409Y-89569910D01*
X159167366Y-89752634D01*
X159350090Y-89902591D01*
X159558558Y-90014019D01*
X159784759Y-90082637D01*
X159961050Y-90100000D01*
X160078950Y-90100000D01*
X160255241Y-90082637D01*
X160481442Y-90014019D01*
X160689910Y-89902591D01*
X160872634Y-89752634D01*
X161022591Y-89569910D01*
X161134019Y-89361442D01*
X161202637Y-89135241D01*
X161225806Y-88900000D01*
X161223344Y-88874998D01*
X161360000Y-88874998D01*
X161360000Y-88925002D01*
X161447758Y-88925002D01*
X161378941Y-89112373D01*
X161443067Y-89338705D01*
X161550116Y-89548178D01*
X161695974Y-89732742D01*
X161875036Y-89885304D01*
X162080421Y-90000002D01*
X162304236Y-90072427D01*
X162347627Y-90081058D01*
X162535000Y-90012219D01*
X162535000Y-88925000D01*
X162515000Y-88925000D01*
X162515000Y-88875000D01*
X162535000Y-88875000D01*
X162535000Y-87787781D01*
X162585000Y-87787781D01*
X162585000Y-88875000D01*
X162605000Y-88875000D01*
X162605000Y-88925000D01*
X162585000Y-88925000D01*
X162585000Y-90012219D01*
X162772373Y-90081058D01*
X162815764Y-90072427D01*
X163039579Y-90000002D01*
X163244964Y-89885304D01*
X163424026Y-89732742D01*
X163569884Y-89548178D01*
X163676933Y-89338705D01*
X163741059Y-89112373D01*
X163672242Y-88925002D01*
X163760000Y-88925002D01*
X163760000Y-88900000D01*
X163894194Y-88900000D01*
X163917363Y-89135241D01*
X163985981Y-89361442D01*
X164097409Y-89569910D01*
X164247366Y-89752634D01*
X164430090Y-89902591D01*
X164638558Y-90014019D01*
X164864759Y-90082637D01*
X165041050Y-90100000D01*
X165158950Y-90100000D01*
X165335241Y-90082637D01*
X165561442Y-90014019D01*
X165769910Y-89902591D01*
X165952634Y-89752634D01*
X166102591Y-89569910D01*
X166214019Y-89361442D01*
X166282637Y-89135241D01*
X166305806Y-88900000D01*
X166434194Y-88900000D01*
X166457363Y-89135241D01*
X166525981Y-89361442D01*
X166637409Y-89569910D01*
X166787366Y-89752634D01*
X166970090Y-89902591D01*
X167178558Y-90014019D01*
X167404759Y-90082637D01*
X167581050Y-90100000D01*
X167698950Y-90100000D01*
X167875241Y-90082637D01*
X168101442Y-90014019D01*
X168309910Y-89902591D01*
X168492634Y-89752634D01*
X168642591Y-89569910D01*
X168754019Y-89361442D01*
X168822637Y-89135241D01*
X168845806Y-88900000D01*
X168974194Y-88900000D01*
X168997363Y-89135241D01*
X169065981Y-89361442D01*
X169177409Y-89569910D01*
X169327366Y-89752634D01*
X169510090Y-89902591D01*
X169718558Y-90014019D01*
X169944759Y-90082637D01*
X170121050Y-90100000D01*
X170238950Y-90100000D01*
X170415241Y-90082637D01*
X170641442Y-90014019D01*
X170849910Y-89902591D01*
X171032634Y-89752634D01*
X171182591Y-89569910D01*
X171294019Y-89361442D01*
X171362637Y-89135241D01*
X171385806Y-88900000D01*
X171362637Y-88664759D01*
X171294019Y-88438558D01*
X171182591Y-88230090D01*
X171032634Y-88047366D01*
X170849910Y-87897409D01*
X170641442Y-87785981D01*
X170415241Y-87717363D01*
X170238950Y-87700000D01*
X170121050Y-87700000D01*
X169944759Y-87717363D01*
X169718558Y-87785981D01*
X169510090Y-87897409D01*
X169327366Y-88047366D01*
X169177409Y-88230090D01*
X169065981Y-88438558D01*
X168997363Y-88664759D01*
X168974194Y-88900000D01*
X168845806Y-88900000D01*
X168822637Y-88664759D01*
X168754019Y-88438558D01*
X168642591Y-88230090D01*
X168492634Y-88047366D01*
X168309910Y-87897409D01*
X168101442Y-87785981D01*
X167875241Y-87717363D01*
X167698950Y-87700000D01*
X167581050Y-87700000D01*
X167404759Y-87717363D01*
X167178558Y-87785981D01*
X166970090Y-87897409D01*
X166787366Y-88047366D01*
X166637409Y-88230090D01*
X166525981Y-88438558D01*
X166457363Y-88664759D01*
X166434194Y-88900000D01*
X166305806Y-88900000D01*
X166282637Y-88664759D01*
X166214019Y-88438558D01*
X166102591Y-88230090D01*
X165952634Y-88047366D01*
X165769910Y-87897409D01*
X165561442Y-87785981D01*
X165335241Y-87717363D01*
X165158950Y-87700000D01*
X165041050Y-87700000D01*
X164864759Y-87717363D01*
X164638558Y-87785981D01*
X164430090Y-87897409D01*
X164247366Y-88047366D01*
X164097409Y-88230090D01*
X163985981Y-88438558D01*
X163917363Y-88664759D01*
X163894194Y-88900000D01*
X163760000Y-88900000D01*
X163760000Y-88874998D01*
X163672242Y-88874998D01*
X163741059Y-88687627D01*
X163676933Y-88461295D01*
X163569884Y-88251822D01*
X163424026Y-88067258D01*
X163244964Y-87914696D01*
X163039579Y-87799998D01*
X162815764Y-87727573D01*
X162772373Y-87718942D01*
X162585000Y-87787781D01*
X162535000Y-87787781D01*
X162347627Y-87718942D01*
X162304236Y-87727573D01*
X162080421Y-87799998D01*
X161875036Y-87914696D01*
X161695974Y-88067258D01*
X161550116Y-88251822D01*
X161443067Y-88461295D01*
X161378941Y-88687627D01*
X161447758Y-88874998D01*
X161360000Y-88874998D01*
X161223344Y-88874998D01*
X161202637Y-88664759D01*
X161134019Y-88438558D01*
X161022591Y-88230090D01*
X160872634Y-88047366D01*
X160689910Y-87897409D01*
X160481442Y-87785981D01*
X160255241Y-87717363D01*
X160078950Y-87700000D01*
X159961050Y-87700000D01*
X159784759Y-87717363D01*
X159558558Y-87785981D01*
X159350090Y-87897409D01*
X159167366Y-88047366D01*
X159017409Y-88230090D01*
X158905981Y-88438558D01*
X158837363Y-88664759D01*
X158814194Y-88900000D01*
X158680000Y-88900000D01*
X158680000Y-88874998D01*
X158592242Y-88874998D01*
X158661059Y-88687627D01*
X158596933Y-88461295D01*
X158489884Y-88251822D01*
X158344026Y-88067258D01*
X158164964Y-87914696D01*
X157959579Y-87799998D01*
X157735764Y-87727573D01*
X157692373Y-87718942D01*
X157505000Y-87787781D01*
X157455000Y-87787781D01*
X157267627Y-87718942D01*
X157224236Y-87727573D01*
X157000421Y-87799998D01*
X156795036Y-87914696D01*
X156615974Y-88067258D01*
X156470116Y-88251822D01*
X156363067Y-88461295D01*
X156298941Y-88687627D01*
X156367758Y-88874998D01*
X156280000Y-88874998D01*
X156143344Y-88874998D01*
X156122637Y-88664759D01*
X156054019Y-88438558D01*
X155942591Y-88230090D01*
X155792634Y-88047366D01*
X155609910Y-87897409D01*
X155401442Y-87785981D01*
X155175241Y-87717363D01*
X154998950Y-87700000D01*
X154881050Y-87700000D01*
X154704759Y-87717363D01*
X154478558Y-87785981D01*
X154270090Y-87897409D01*
X154087366Y-88047366D01*
X153937409Y-88230090D01*
X153825981Y-88438558D01*
X153757363Y-88664759D01*
X153734194Y-88900000D01*
X153605806Y-88900000D01*
X153582637Y-88664759D01*
X153514019Y-88438558D01*
X153402591Y-88230090D01*
X153252634Y-88047366D01*
X153069910Y-87897409D01*
X152861442Y-87785981D01*
X152635241Y-87717363D01*
X152458950Y-87700000D01*
X152341050Y-87700000D01*
X152164759Y-87717363D01*
X151938558Y-87785981D01*
X151730090Y-87897409D01*
X151547366Y-88047366D01*
X151397409Y-88230090D01*
X151285981Y-88438558D01*
X151217363Y-88664759D01*
X151194194Y-88900000D01*
X151065806Y-88900000D01*
X151042637Y-88664759D01*
X150974019Y-88438558D01*
X150862591Y-88230090D01*
X150712634Y-88047366D01*
X150529910Y-87897409D01*
X150321442Y-87785981D01*
X150095241Y-87717363D01*
X149918950Y-87700000D01*
X149801050Y-87700000D01*
X149624759Y-87717363D01*
X149398558Y-87785981D01*
X149190090Y-87897409D01*
X149007366Y-88047366D01*
X148857409Y-88230090D01*
X148745981Y-88438558D01*
X148677363Y-88664759D01*
X148654194Y-88900000D01*
X148525806Y-88900000D01*
X148502637Y-88664759D01*
X148434019Y-88438558D01*
X148322591Y-88230090D01*
X148172634Y-88047366D01*
X147989910Y-87897409D01*
X147781442Y-87785981D01*
X147555241Y-87717363D01*
X147378950Y-87700000D01*
X147261050Y-87700000D01*
X147084759Y-87717363D01*
X146858558Y-87785981D01*
X146650090Y-87897409D01*
X146467366Y-88047366D01*
X146317409Y-88230090D01*
X146205981Y-88438558D01*
X146137363Y-88664759D01*
X146114194Y-88900000D01*
X145980000Y-88900000D01*
X145980000Y-88874998D01*
X145892242Y-88874998D01*
X145961059Y-88687627D01*
X145896933Y-88461295D01*
X145789884Y-88251822D01*
X145644026Y-88067258D01*
X145464964Y-87914696D01*
X145259579Y-87799998D01*
X145035764Y-87727573D01*
X144992373Y-87718942D01*
X144805000Y-87787781D01*
X144755000Y-87787781D01*
X144567627Y-87718942D01*
X144524236Y-87727573D01*
X144300421Y-87799998D01*
X144095036Y-87914696D01*
X143915974Y-88067258D01*
X143770116Y-88251822D01*
X143663067Y-88461295D01*
X143598941Y-88687627D01*
X143667758Y-88874998D01*
X143580000Y-88874998D01*
X143443344Y-88874998D01*
X143422637Y-88664759D01*
X143354019Y-88438558D01*
X143242591Y-88230090D01*
X143092634Y-88047366D01*
X142909910Y-87897409D01*
X142701442Y-87785981D01*
X142475241Y-87717363D01*
X142298950Y-87700000D01*
X142181050Y-87700000D01*
X142004759Y-87717363D01*
X141778558Y-87785981D01*
X141570090Y-87897409D01*
X141387366Y-88047366D01*
X141237409Y-88230090D01*
X141125981Y-88438558D01*
X141057363Y-88664759D01*
X141034194Y-88900000D01*
X140905806Y-88900000D01*
X140882637Y-88664759D01*
X140814019Y-88438558D01*
X140702591Y-88230090D01*
X140552634Y-88047366D01*
X140369910Y-87897409D01*
X140161442Y-87785981D01*
X139935241Y-87717363D01*
X139758950Y-87700000D01*
X139641050Y-87700000D01*
X139464759Y-87717363D01*
X139238558Y-87785981D01*
X139030090Y-87897409D01*
X138847366Y-88047366D01*
X138697409Y-88230090D01*
X138585981Y-88438558D01*
X138517363Y-88664759D01*
X138494194Y-88900000D01*
X138360000Y-88900000D01*
X138360000Y-88874998D01*
X138272242Y-88874998D01*
X138341059Y-88687627D01*
X138276933Y-88461295D01*
X138169884Y-88251822D01*
X138024026Y-88067258D01*
X137844964Y-87914696D01*
X137639579Y-87799998D01*
X137415764Y-87727573D01*
X137372373Y-87718942D01*
X137185000Y-87787781D01*
X137135000Y-87787781D01*
X136947627Y-87718942D01*
X136904236Y-87727573D01*
X136680421Y-87799998D01*
X136475036Y-87914696D01*
X136295974Y-88067258D01*
X136150116Y-88251822D01*
X136043067Y-88461295D01*
X135978941Y-88687627D01*
X136047758Y-88874998D01*
X135960000Y-88874998D01*
X135823344Y-88874998D01*
X135802637Y-88664759D01*
X135734019Y-88438558D01*
X135622591Y-88230090D01*
X135472634Y-88047366D01*
X135289910Y-87897409D01*
X135081442Y-87785981D01*
X134855241Y-87717363D01*
X134678950Y-87700000D01*
X134561050Y-87700000D01*
X134384759Y-87717363D01*
X134158558Y-87785981D01*
X133950090Y-87897409D01*
X133767366Y-88047366D01*
X133617409Y-88230090D01*
X133505981Y-88438558D01*
X133437363Y-88664759D01*
X133414194Y-88900000D01*
X133285806Y-88900000D01*
X133262637Y-88664759D01*
X133194019Y-88438558D01*
X133082591Y-88230090D01*
X132932634Y-88047366D01*
X132749910Y-87897409D01*
X132541442Y-87785981D01*
X132315241Y-87717363D01*
X132138950Y-87700000D01*
X132021050Y-87700000D01*
X131844759Y-87717363D01*
X131618558Y-87785981D01*
X131410090Y-87897409D01*
X131227366Y-88047366D01*
X131077409Y-88230090D01*
X130965981Y-88438558D01*
X130897363Y-88664759D01*
X130874194Y-88900000D01*
X130745806Y-88900000D01*
X130722637Y-88664759D01*
X130654019Y-88438558D01*
X130542591Y-88230090D01*
X130392634Y-88047366D01*
X130209910Y-87897409D01*
X130001442Y-87785981D01*
X129775241Y-87717363D01*
X129598950Y-87700000D01*
X129481050Y-87700000D01*
X129304759Y-87717363D01*
X129078558Y-87785981D01*
X128870090Y-87897409D01*
X128687366Y-88047366D01*
X128537409Y-88230090D01*
X128425981Y-88438558D01*
X128357363Y-88664759D01*
X128334194Y-88900000D01*
X128200000Y-88900000D01*
X128200000Y-88874998D01*
X128112242Y-88874998D01*
X128181059Y-88687627D01*
X128116933Y-88461295D01*
X128009884Y-88251822D01*
X127864026Y-88067258D01*
X127684964Y-87914696D01*
X127479579Y-87799998D01*
X127255764Y-87727573D01*
X127212373Y-87718942D01*
X127025000Y-87787781D01*
X126975000Y-87787781D01*
X126787627Y-87718942D01*
X126744236Y-87727573D01*
X126520421Y-87799998D01*
X126315036Y-87914696D01*
X126135974Y-88067258D01*
X125990116Y-88251822D01*
X125883067Y-88461295D01*
X125818941Y-88687627D01*
X125887758Y-88874998D01*
X125800000Y-88874998D01*
X125663344Y-88874998D01*
X125642637Y-88664759D01*
X125574019Y-88438558D01*
X125462591Y-88230090D01*
X125312634Y-88047366D01*
X125129910Y-87897409D01*
X124921442Y-87785981D01*
X124695241Y-87717363D01*
X124518950Y-87700000D01*
X124401050Y-87700000D01*
X124224759Y-87717363D01*
X123998558Y-87785981D01*
X123790090Y-87897409D01*
X123607366Y-88047366D01*
X123457409Y-88230090D01*
X123345981Y-88438558D01*
X123277363Y-88664759D01*
X123254194Y-88900000D01*
X123125806Y-88900000D01*
X123102637Y-88664759D01*
X123034019Y-88438558D01*
X122922591Y-88230090D01*
X122772634Y-88047366D01*
X122589910Y-87897409D01*
X122381442Y-87785981D01*
X122155241Y-87717363D01*
X121978950Y-87700000D01*
X121861050Y-87700000D01*
X121684759Y-87717363D01*
X121458558Y-87785981D01*
X121250090Y-87897409D01*
X121067366Y-88047366D01*
X120917409Y-88230090D01*
X120805981Y-88438558D01*
X120737363Y-88664759D01*
X120714194Y-88900000D01*
X120258202Y-88900000D01*
X120107350Y-88535812D01*
X119729790Y-87970753D01*
X119249247Y-87490210D01*
X118684188Y-87112650D01*
X118520866Y-87045000D01*
X173579134Y-87045000D01*
X173415812Y-87112650D01*
X173415812Y-87112650D01*
G37*
X173415812Y-87112650D02*
X172850753Y-87490210D01*
X172370210Y-87970753D01*
X171992650Y-88535812D01*
X171732582Y-89163672D01*
X171600000Y-89830205D01*
X171600000Y-90509795D01*
X171732582Y-91176328D01*
X171992650Y-91804188D01*
X172370210Y-92369247D01*
X172850753Y-92849790D01*
X173415812Y-93227350D01*
X174043672Y-93487418D01*
X174710205Y-93620000D01*
X175389795Y-93620000D01*
X176056328Y-93487418D01*
X176684188Y-93227350D01*
X177249247Y-92849790D01*
X177729790Y-92369247D01*
X178107350Y-91804188D01*
X178175001Y-91640864D01*
X178175000Y-137699134D01*
X178107350Y-137535812D01*
X177729790Y-136970753D01*
X177249247Y-136490210D01*
X176684188Y-136112650D01*
X176056328Y-135852582D01*
X175389795Y-135720000D01*
X174710205Y-135720000D01*
X174043672Y-135852582D01*
X173415812Y-136112650D01*
X172850753Y-136490210D01*
X172370210Y-136970753D01*
X171992650Y-137535812D01*
X171732582Y-138163672D01*
X171600000Y-138830205D01*
X171600000Y-139509795D01*
X171732582Y-140176328D01*
X171992650Y-140804188D01*
X172370210Y-141369247D01*
X172850753Y-141849790D01*
X173415812Y-142227350D01*
X174043672Y-142487418D01*
X174710205Y-142620000D01*
X175389795Y-142620000D01*
X176056328Y-142487418D01*
X176684188Y-142227350D01*
X177249247Y-141849790D01*
X177729790Y-141369247D01*
X178107350Y-140804188D01*
X178175000Y-140640866D01*
X178175000Y-144651663D01*
X178123243Y-145179514D01*
X177975270Y-145669626D01*
X177734918Y-146121661D01*
X177411346Y-146518399D01*
X177016877Y-146844733D01*
X176566532Y-147088233D01*
X176077470Y-147239623D01*
X175550640Y-147294995D01*
X175549267Y-147295000D01*
X116568337Y-147295000D01*
X116040486Y-147243243D01*
X115550374Y-147095270D01*
X115098339Y-146854918D01*
X114701601Y-146531346D01*
X114375267Y-146136877D01*
X114131767Y-145686532D01*
X113980377Y-145197470D01*
X113925005Y-144670640D01*
X113925000Y-144669267D01*
X113925000Y-140640866D01*
X113992650Y-140804188D01*
X114370210Y-141369247D01*
X114850753Y-141849790D01*
X115415812Y-142227350D01*
X116043672Y-142487418D01*
X116710205Y-142620000D01*
X117389795Y-142620000D01*
X118056328Y-142487418D01*
X118684188Y-142227350D01*
X119249247Y-141849790D01*
X119729790Y-141369247D01*
X120107350Y-140804188D01*
X120367418Y-140176328D01*
X120500000Y-139509795D01*
X120500000Y-138830205D01*
X120367418Y-138163672D01*
X120245776Y-137870000D01*
X125548307Y-137870000D01*
X125548307Y-141470000D01*
X125555065Y-141538612D01*
X125575078Y-141604587D01*
X125607578Y-141665390D01*
X125651315Y-141718685D01*
X125704610Y-141762422D01*
X125765413Y-141794922D01*
X125831388Y-141814935D01*
X125900000Y-141821693D01*
X127700000Y-141821693D01*
X127768612Y-141814935D01*
X127834587Y-141794922D01*
X127895390Y-141762422D01*
X127948685Y-141718685D01*
X127992422Y-141665390D01*
X128024922Y-141604587D01*
X128044935Y-141538612D01*
X128051693Y-141470000D01*
X128051693Y-139695000D01*
X129050000Y-139695000D01*
X129050000Y-140595000D01*
X129078896Y-140838383D01*
X129154718Y-141071452D01*
X129274553Y-141285250D01*
X129433795Y-141471561D01*
X129626325Y-141623226D01*
X129844744Y-141734416D01*
X130079804Y-141800453D01*
X130275000Y-141732231D01*
X130275000Y-139695000D01*
X130325000Y-139695000D01*
X130325000Y-141732231D01*
X130520196Y-141800453D01*
X130755256Y-141734416D01*
X130973675Y-141623226D01*
X131166205Y-141471561D01*
X131325447Y-141285250D01*
X131445282Y-141071452D01*
X131521104Y-140838383D01*
X131550000Y-140595000D01*
X131550000Y-139695000D01*
X130325000Y-139695000D01*
X130275000Y-139695000D01*
X129050000Y-139695000D01*
X128051693Y-139695000D01*
X128051693Y-138745000D01*
X129050000Y-138745000D01*
X129050000Y-139645000D01*
X130275000Y-139645000D01*
X130275000Y-137607769D01*
X130325000Y-137607769D01*
X130325000Y-139645000D01*
X131550000Y-139645000D01*
X131550000Y-138745000D01*
X131545678Y-138708596D01*
X132550000Y-138708596D01*
X132550000Y-140631405D01*
X132568088Y-140815043D01*
X132639564Y-141050669D01*
X132755635Y-141267823D01*
X132911841Y-141458160D01*
X133102178Y-141614366D01*
X133319332Y-141730437D01*
X133554958Y-141801913D01*
X133800000Y-141826048D01*
X134045043Y-141801913D01*
X134280669Y-141730437D01*
X134497823Y-141614366D01*
X134688160Y-141458160D01*
X134844366Y-141267823D01*
X134960437Y-141050669D01*
X135031913Y-140815043D01*
X135050000Y-140631405D01*
X135050000Y-138708596D01*
X136050000Y-138708596D01*
X136050000Y-140631405D01*
X136068088Y-140815043D01*
X136139564Y-141050669D01*
X136255635Y-141267823D01*
X136411841Y-141458160D01*
X136602178Y-141614366D01*
X136819332Y-141730437D01*
X137054958Y-141801913D01*
X137300000Y-141826048D01*
X137545043Y-141801913D01*
X137780669Y-141730437D01*
X137997823Y-141614366D01*
X138188160Y-141458160D01*
X138344366Y-141267823D01*
X138460437Y-141050669D01*
X138531913Y-140815043D01*
X138550000Y-140631405D01*
X138550000Y-138708596D01*
X139550000Y-138708596D01*
X139550000Y-140631405D01*
X139568088Y-140815043D01*
X139639564Y-141050669D01*
X139755635Y-141267823D01*
X139911841Y-141458160D01*
X140102178Y-141614366D01*
X140319332Y-141730437D01*
X140554958Y-141801913D01*
X140800000Y-141826048D01*
X141045043Y-141801913D01*
X141280669Y-141730437D01*
X141497823Y-141614366D01*
X141688160Y-141458160D01*
X141844366Y-141267823D01*
X141960437Y-141050669D01*
X142031913Y-140815043D01*
X142050000Y-140631405D01*
X142050000Y-139695000D01*
X143050000Y-139695000D01*
X143050000Y-140595000D01*
X143078896Y-140838383D01*
X143154718Y-141071452D01*
X143274553Y-141285250D01*
X143433795Y-141471561D01*
X143626325Y-141623226D01*
X143844744Y-141734416D01*
X144079804Y-141800453D01*
X144275000Y-141732231D01*
X144275000Y-139695000D01*
X144325000Y-139695000D01*
X144325000Y-141732231D01*
X144520196Y-141800453D01*
X144755256Y-141734416D01*
X144973675Y-141623226D01*
X145166205Y-141471561D01*
X145325447Y-141285250D01*
X145445282Y-141071452D01*
X145521104Y-140838383D01*
X145550000Y-140595000D01*
X145550000Y-139695000D01*
X144325000Y-139695000D01*
X144275000Y-139695000D01*
X143050000Y-139695000D01*
X142050000Y-139695000D01*
X142050000Y-138745000D01*
X143050000Y-138745000D01*
X143050000Y-139645000D01*
X144275000Y-139645000D01*
X144275000Y-137607769D01*
X144325000Y-137607769D01*
X144325000Y-139645000D01*
X145550000Y-139645000D01*
X145550000Y-138745000D01*
X145545678Y-138708596D01*
X146550000Y-138708596D01*
X146550000Y-140631405D01*
X146568088Y-140815043D01*
X146639564Y-141050669D01*
X146755635Y-141267823D01*
X146911841Y-141458160D01*
X147102178Y-141614366D01*
X147319332Y-141730437D01*
X147554958Y-141801913D01*
X147800000Y-141826048D01*
X148045043Y-141801913D01*
X148280669Y-141730437D01*
X148497823Y-141614366D01*
X148688160Y-141458160D01*
X148844366Y-141267823D01*
X148960437Y-141050669D01*
X149031913Y-140815043D01*
X149050000Y-140631405D01*
X149050000Y-138708596D01*
X150050000Y-138708596D01*
X150050000Y-140631405D01*
X150068088Y-140815043D01*
X150139564Y-141050669D01*
X150255635Y-141267823D01*
X150411841Y-141458160D01*
X150602178Y-141614366D01*
X150819332Y-141730437D01*
X151054958Y-141801913D01*
X151300000Y-141826048D01*
X151545043Y-141801913D01*
X151780669Y-141730437D01*
X151997823Y-141614366D01*
X152188160Y-141458160D01*
X152344366Y-141267823D01*
X152460437Y-141050669D01*
X152531913Y-140815043D01*
X152550000Y-140631405D01*
X152550000Y-138708596D01*
X153550000Y-138708596D01*
X153550000Y-140631405D01*
X153568088Y-140815043D01*
X153639564Y-141050669D01*
X153755635Y-141267823D01*
X153911841Y-141458160D01*
X154102178Y-141614366D01*
X154319332Y-141730437D01*
X154554958Y-141801913D01*
X154800000Y-141826048D01*
X155045043Y-141801913D01*
X155280669Y-141730437D01*
X155497823Y-141614366D01*
X155688160Y-141458160D01*
X155844366Y-141267823D01*
X155960437Y-141050669D01*
X156031913Y-140815043D01*
X156050000Y-140631405D01*
X156050000Y-138708596D01*
X157050000Y-138708596D01*
X157050000Y-140631405D01*
X157068088Y-140815043D01*
X157139564Y-141050669D01*
X157255635Y-141267823D01*
X157411841Y-141458160D01*
X157602178Y-141614366D01*
X157819332Y-141730437D01*
X158054958Y-141801913D01*
X158300000Y-141826048D01*
X158545043Y-141801913D01*
X158780669Y-141730437D01*
X158997823Y-141614366D01*
X159188160Y-141458160D01*
X159344366Y-141267823D01*
X159460437Y-141050669D01*
X159531913Y-140815043D01*
X159550000Y-140631405D01*
X159550000Y-138708596D01*
X160550000Y-138708596D01*
X160550000Y-140631405D01*
X160568088Y-140815043D01*
X160639564Y-141050669D01*
X160755635Y-141267823D01*
X160911841Y-141458160D01*
X161102178Y-141614366D01*
X161319332Y-141730437D01*
X161554958Y-141801913D01*
X161800000Y-141826048D01*
X162045043Y-141801913D01*
X162280669Y-141730437D01*
X162497823Y-141614366D01*
X162688160Y-141458160D01*
X162844366Y-141267823D01*
X162960437Y-141050669D01*
X163031913Y-140815043D01*
X163050000Y-140631405D01*
X163050000Y-138708596D01*
X164050000Y-138708596D01*
X164050000Y-140631405D01*
X164068088Y-140815043D01*
X164139564Y-141050669D01*
X164255635Y-141267823D01*
X164411841Y-141458160D01*
X164602178Y-141614366D01*
X164819332Y-141730437D01*
X165054958Y-141801913D01*
X165300000Y-141826048D01*
X165545043Y-141801913D01*
X165780669Y-141730437D01*
X165997823Y-141614366D01*
X166188160Y-141458160D01*
X166344366Y-141267823D01*
X166460437Y-141050669D01*
X166531913Y-140815043D01*
X166550000Y-140631405D01*
X166550000Y-138708595D01*
X166531913Y-138524957D01*
X166460437Y-138289331D01*
X166344366Y-138072177D01*
X166188160Y-137881840D01*
X165997822Y-137725634D01*
X165780668Y-137609563D01*
X165545042Y-137538087D01*
X165300000Y-137513952D01*
X165054957Y-137538087D01*
X164819331Y-137609563D01*
X164602177Y-137725634D01*
X164411840Y-137881840D01*
X164255634Y-138072178D01*
X164139563Y-138289332D01*
X164068087Y-138524958D01*
X164050000Y-138708596D01*
X163050000Y-138708596D01*
X163050000Y-138708595D01*
X163031913Y-138524957D01*
X162960437Y-138289331D01*
X162844366Y-138072177D01*
X162688160Y-137881840D01*
X162497822Y-137725634D01*
X162280668Y-137609563D01*
X162045042Y-137538087D01*
X161800000Y-137513952D01*
X161554957Y-137538087D01*
X161319331Y-137609563D01*
X161102177Y-137725634D01*
X160911840Y-137881840D01*
X160755634Y-138072178D01*
X160639563Y-138289332D01*
X160568087Y-138524958D01*
X160550000Y-138708596D01*
X159550000Y-138708596D01*
X159550000Y-138708595D01*
X159531913Y-138524957D01*
X159460437Y-138289331D01*
X159344366Y-138072177D01*
X159188160Y-137881840D01*
X158997822Y-137725634D01*
X158780668Y-137609563D01*
X158545042Y-137538087D01*
X158300000Y-137513952D01*
X158054957Y-137538087D01*
X157819331Y-137609563D01*
X157602177Y-137725634D01*
X157411840Y-137881840D01*
X157255634Y-138072178D01*
X157139563Y-138289332D01*
X157068087Y-138524958D01*
X157050000Y-138708596D01*
X156050000Y-138708596D01*
X156050000Y-138708595D01*
X156031913Y-138524957D01*
X155960437Y-138289331D01*
X155844366Y-138072177D01*
X155688160Y-137881840D01*
X155497822Y-137725634D01*
X155280668Y-137609563D01*
X155045042Y-137538087D01*
X154800000Y-137513952D01*
X154554957Y-137538087D01*
X154319331Y-137609563D01*
X154102177Y-137725634D01*
X153911840Y-137881840D01*
X153755634Y-138072178D01*
X153639563Y-138289332D01*
X153568087Y-138524958D01*
X153550000Y-138708596D01*
X152550000Y-138708596D01*
X152550000Y-138708595D01*
X152531913Y-138524957D01*
X152460437Y-138289331D01*
X152344366Y-138072177D01*
X152188160Y-137881840D01*
X151997822Y-137725634D01*
X151780668Y-137609563D01*
X151545042Y-137538087D01*
X151300000Y-137513952D01*
X151054957Y-137538087D01*
X150819331Y-137609563D01*
X150602177Y-137725634D01*
X150411840Y-137881840D01*
X150255634Y-138072178D01*
X150139563Y-138289332D01*
X150068087Y-138524958D01*
X150050000Y-138708596D01*
X149050000Y-138708596D01*
X149050000Y-138708595D01*
X149031913Y-138524957D01*
X148960437Y-138289331D01*
X148844366Y-138072177D01*
X148688160Y-137881840D01*
X148497822Y-137725634D01*
X148280668Y-137609563D01*
X148045042Y-137538087D01*
X147800000Y-137513952D01*
X147554957Y-137538087D01*
X147319331Y-137609563D01*
X147102177Y-137725634D01*
X146911840Y-137881840D01*
X146755634Y-138072178D01*
X146639563Y-138289332D01*
X146568087Y-138524958D01*
X146550000Y-138708596D01*
X145545678Y-138708596D01*
X145521104Y-138501617D01*
X145445282Y-138268548D01*
X145325447Y-138054750D01*
X145166205Y-137868439D01*
X144973675Y-137716774D01*
X144755256Y-137605584D01*
X144520196Y-137539547D01*
X144325000Y-137607769D01*
X144275000Y-137607769D01*
X144079804Y-137539547D01*
X143844744Y-137605584D01*
X143626325Y-137716774D01*
X143433795Y-137868439D01*
X143274553Y-138054750D01*
X143154718Y-138268548D01*
X143078896Y-138501617D01*
X143050000Y-138745000D01*
X142050000Y-138745000D01*
X142050000Y-138708595D01*
X142031913Y-138524957D01*
X141960437Y-138289331D01*
X141844366Y-138072177D01*
X141688160Y-137881840D01*
X141497822Y-137725634D01*
X141280668Y-137609563D01*
X141045042Y-137538087D01*
X140800000Y-137513952D01*
X140554957Y-137538087D01*
X140319331Y-137609563D01*
X140102177Y-137725634D01*
X139911840Y-137881840D01*
X139755634Y-138072178D01*
X139639563Y-138289332D01*
X139568087Y-138524958D01*
X139550000Y-138708596D01*
X138550000Y-138708596D01*
X138550000Y-138708595D01*
X138531913Y-138524957D01*
X138460437Y-138289331D01*
X138344366Y-138072177D01*
X138188160Y-137881840D01*
X137997822Y-137725634D01*
X137780668Y-137609563D01*
X137545042Y-137538087D01*
X137300000Y-137513952D01*
X137054957Y-137538087D01*
X136819331Y-137609563D01*
X136602177Y-137725634D01*
X136411840Y-137881840D01*
X136255634Y-138072178D01*
X136139563Y-138289332D01*
X136068087Y-138524958D01*
X136050000Y-138708596D01*
X135050000Y-138708596D01*
X135050000Y-138708595D01*
X135031913Y-138524957D01*
X134960437Y-138289331D01*
X134844366Y-138072177D01*
X134688160Y-137881840D01*
X134497822Y-137725634D01*
X134280668Y-137609563D01*
X134045042Y-137538087D01*
X133800000Y-137513952D01*
X133554957Y-137538087D01*
X133319331Y-137609563D01*
X133102177Y-137725634D01*
X132911840Y-137881840D01*
X132755634Y-138072178D01*
X132639563Y-138289332D01*
X132568087Y-138524958D01*
X132550000Y-138708596D01*
X131545678Y-138708596D01*
X131521104Y-138501617D01*
X131445282Y-138268548D01*
X131325447Y-138054750D01*
X131166205Y-137868439D01*
X130973675Y-137716774D01*
X130755256Y-137605584D01*
X130520196Y-137539547D01*
X130325000Y-137607769D01*
X130275000Y-137607769D01*
X130079804Y-137539547D01*
X129844744Y-137605584D01*
X129626325Y-137716774D01*
X129433795Y-137868439D01*
X129274553Y-138054750D01*
X129154718Y-138268548D01*
X129078896Y-138501617D01*
X129050000Y-138745000D01*
X128051693Y-138745000D01*
X128051693Y-137870000D01*
X128044935Y-137801388D01*
X128024922Y-137735413D01*
X127992422Y-137674610D01*
X127948685Y-137621315D01*
X127895390Y-137577578D01*
X127834587Y-137545078D01*
X127768612Y-137525065D01*
X127700000Y-137518307D01*
X125900000Y-137518307D01*
X125831388Y-137525065D01*
X125765413Y-137545078D01*
X125704610Y-137577578D01*
X125651315Y-137621315D01*
X125607578Y-137674610D01*
X125575078Y-137735413D01*
X125555065Y-137801388D01*
X125548307Y-137870000D01*
X120245776Y-137870000D01*
X120107350Y-137535812D01*
X119729790Y-136970753D01*
X119249247Y-136490210D01*
X118684188Y-136112650D01*
X118056328Y-135852582D01*
X117389795Y-135720000D01*
X116710205Y-135720000D01*
X116043672Y-135852582D01*
X115415812Y-136112650D01*
X114850753Y-136490210D01*
X114370210Y-136970753D01*
X113992650Y-137535812D01*
X113925000Y-137699134D01*
X113925000Y-132681605D01*
X113976757Y-132153753D01*
X114124729Y-131663645D01*
X114365080Y-131211608D01*
X114688654Y-130814868D01*
X115092258Y-130480977D01*
X115243217Y-130386648D01*
X118343499Y-128596131D01*
X144800000Y-128596131D01*
X144800000Y-128743869D01*
X144828822Y-128888767D01*
X144885359Y-129025258D01*
X144967437Y-129148097D01*
X145071903Y-129252563D01*
X145194742Y-129334641D01*
X145331233Y-129391178D01*
X145476131Y-129420000D01*
X145623869Y-129420000D01*
X145627522Y-129419273D01*
X146075001Y-129866752D01*
X146075000Y-130473248D01*
X145627522Y-130920727D01*
X145623869Y-130920000D01*
X145476131Y-130920000D01*
X145331233Y-130948822D01*
X145194742Y-131005359D01*
X145071903Y-131087437D01*
X144967437Y-131191903D01*
X144885359Y-131314742D01*
X144828822Y-131451233D01*
X144800000Y-131596131D01*
X144800000Y-131743869D01*
X144828822Y-131888767D01*
X144885359Y-132025258D01*
X144967437Y-132148097D01*
X145071903Y-132252563D01*
X145194742Y-132334641D01*
X145331233Y-132391178D01*
X145476131Y-132420000D01*
X145623869Y-132420000D01*
X145768767Y-132391178D01*
X145905258Y-132334641D01*
X146028097Y-132252563D01*
X146132563Y-132148097D01*
X146214641Y-132025258D01*
X146271178Y-131888767D01*
X146300000Y-131743869D01*
X146300000Y-131596131D01*
X146299273Y-131592478D01*
X146746752Y-131145000D01*
X147965368Y-131145000D01*
X147967437Y-131148097D01*
X148071903Y-131252563D01*
X148194742Y-131334641D01*
X148331233Y-131391178D01*
X148476131Y-131420000D01*
X148623869Y-131420000D01*
X148768767Y-131391178D01*
X148905258Y-131334641D01*
X149028097Y-131252563D01*
X149132563Y-131148097D01*
X149214641Y-131025258D01*
X149271178Y-130888767D01*
X149300000Y-130743869D01*
X149300000Y-130596131D01*
X149271178Y-130451233D01*
X149214641Y-130314742D01*
X149132563Y-130191903D01*
X149028097Y-130087437D01*
X148905258Y-130005359D01*
X148768767Y-129948822D01*
X148623869Y-129920000D01*
X148476131Y-129920000D01*
X148331233Y-129948822D01*
X148194742Y-130005359D01*
X148071903Y-130087437D01*
X147967437Y-130191903D01*
X147965368Y-130195000D01*
X147025000Y-130195000D01*
X147025000Y-129693332D01*
X147027298Y-129670000D01*
X147018127Y-129576884D01*
X146990966Y-129487346D01*
X146946859Y-129404827D01*
X146902374Y-129350622D01*
X146887501Y-129332499D01*
X146869377Y-129317625D01*
X146299273Y-128747522D01*
X146300000Y-128743869D01*
X146300000Y-128596131D01*
X146271178Y-128451233D01*
X146214641Y-128314742D01*
X146132563Y-128191903D01*
X146028097Y-128087437D01*
X145905258Y-128005359D01*
X145768767Y-127948822D01*
X145623869Y-127920000D01*
X145476131Y-127920000D01*
X145331233Y-127948822D01*
X145194742Y-128005359D01*
X145071903Y-128087437D01*
X144967437Y-128191903D01*
X144885359Y-128314742D01*
X144828822Y-128451233D01*
X144800000Y-128596131D01*
X118343499Y-128596131D01*
X131003494Y-121284560D01*
X131008799Y-121280758D01*
X131087510Y-121231573D01*
X131105143Y-121217994D01*
X131123765Y-121205808D01*
X131127823Y-121202499D01*
X131353390Y-121015894D01*
X131377369Y-120991747D01*
X131401622Y-120967996D01*
X131404960Y-120963962D01*
X131589986Y-120737098D01*
X131608815Y-120708758D01*
X131627996Y-120680745D01*
X131630487Y-120676139D01*
X131767924Y-120417658D01*
X131780890Y-120386201D01*
X131794265Y-120354995D01*
X131795814Y-120349993D01*
X131880428Y-120069739D01*
X131887033Y-120036378D01*
X131894096Y-120003153D01*
X131894643Y-119997945D01*
X131922982Y-119708914D01*
X131925001Y-119688418D01*
X131925001Y-118596131D01*
X134800000Y-118596131D01*
X134800000Y-118743869D01*
X134828822Y-118888767D01*
X134885359Y-119025258D01*
X134967437Y-119148097D01*
X135071903Y-119252563D01*
X135194742Y-119334641D01*
X135331233Y-119391178D01*
X135476131Y-119420000D01*
X135623869Y-119420000D01*
X135768767Y-119391178D01*
X135905258Y-119334641D01*
X136028097Y-119252563D01*
X136132563Y-119148097D01*
X136134632Y-119145000D01*
X136163078Y-119145000D01*
X136186410Y-119147298D01*
X136209742Y-119145000D01*
X136279526Y-119138127D01*
X136369064Y-119110966D01*
X136451583Y-119066859D01*
X136523911Y-119007501D01*
X136538794Y-118989366D01*
X136932029Y-118596131D01*
X140300000Y-118596131D01*
X140300000Y-118743869D01*
X140328822Y-118888767D01*
X140385359Y-119025258D01*
X140467437Y-119148097D01*
X140571903Y-119252563D01*
X140694742Y-119334641D01*
X140831233Y-119391178D01*
X140976131Y-119420000D01*
X141123869Y-119420000D01*
X141268767Y-119391178D01*
X141405258Y-119334641D01*
X141528097Y-119252563D01*
X141632563Y-119148097D01*
X141696496Y-119052414D01*
X156990000Y-119052414D01*
X156990000Y-119367586D01*
X157051487Y-119676703D01*
X157172098Y-119967884D01*
X157347199Y-120229941D01*
X157570059Y-120452801D01*
X157832116Y-120627902D01*
X158123297Y-120748513D01*
X158432414Y-120810000D01*
X158747586Y-120810000D01*
X159056703Y-120748513D01*
X159347884Y-120627902D01*
X159609941Y-120452801D01*
X159832801Y-120229941D01*
X160007902Y-119967884D01*
X160128513Y-119676703D01*
X160190000Y-119367586D01*
X160190000Y-119052414D01*
X169490000Y-119052414D01*
X169490000Y-119367586D01*
X169551487Y-119676703D01*
X169672098Y-119967884D01*
X169847199Y-120229941D01*
X170070059Y-120452801D01*
X170332116Y-120627902D01*
X170623297Y-120748513D01*
X170932414Y-120810000D01*
X171247586Y-120810000D01*
X171556703Y-120748513D01*
X171847884Y-120627902D01*
X172109941Y-120452801D01*
X172332801Y-120229941D01*
X172507902Y-119967884D01*
X172628513Y-119676703D01*
X172690000Y-119367586D01*
X172690000Y-119052414D01*
X172628513Y-118743297D01*
X172507902Y-118452116D01*
X172332801Y-118190059D01*
X172109941Y-117967199D01*
X171847884Y-117792098D01*
X171556703Y-117671487D01*
X171247586Y-117610000D01*
X170932414Y-117610000D01*
X170623297Y-117671487D01*
X170332116Y-117792098D01*
X170070059Y-117967199D01*
X169847199Y-118190059D01*
X169672098Y-118452116D01*
X169551487Y-118743297D01*
X169490000Y-119052414D01*
X160190000Y-119052414D01*
X160128513Y-118743297D01*
X160007902Y-118452116D01*
X159832801Y-118190059D01*
X159609941Y-117967199D01*
X159347884Y-117792098D01*
X159056703Y-117671487D01*
X158747586Y-117610000D01*
X158432414Y-117610000D01*
X158123297Y-117671487D01*
X157832116Y-117792098D01*
X157570059Y-117967199D01*
X157347199Y-118190059D01*
X157172098Y-118452116D01*
X157051487Y-118743297D01*
X156990000Y-119052414D01*
X141696496Y-119052414D01*
X141714641Y-119025258D01*
X141771178Y-118888767D01*
X141800000Y-118743869D01*
X141800000Y-118596131D01*
X141799273Y-118592477D01*
X142795619Y-117596131D01*
X148784991Y-117596131D01*
X148784991Y-117743869D01*
X148813813Y-117888767D01*
X148870350Y-118025258D01*
X148952428Y-118148097D01*
X149056894Y-118252563D01*
X149179733Y-118334641D01*
X149316224Y-118391178D01*
X149461122Y-118420000D01*
X149608860Y-118420000D01*
X149753758Y-118391178D01*
X149890249Y-118334641D01*
X150013088Y-118252563D01*
X150117554Y-118148097D01*
X150199632Y-118025258D01*
X150256169Y-117888767D01*
X150281284Y-117762505D01*
X154992850Y-117762505D01*
X155125332Y-117985229D01*
X155399688Y-118140351D01*
X155699035Y-118238968D01*
X156011869Y-118277290D01*
X156326168Y-118253846D01*
X156629855Y-118169535D01*
X156911258Y-118027598D01*
X156974668Y-117985229D01*
X157107150Y-117762505D01*
X156050000Y-116705355D01*
X154992850Y-117762505D01*
X150281284Y-117762505D01*
X150284991Y-117743869D01*
X150284991Y-117596131D01*
X150284264Y-117592478D01*
X150287363Y-117589379D01*
X150287367Y-117589374D01*
X151244872Y-116631869D01*
X154442710Y-116631869D01*
X154466154Y-116946168D01*
X154550465Y-117249855D01*
X154692402Y-117531258D01*
X154734771Y-117594668D01*
X154957495Y-117727150D01*
X156014645Y-116670000D01*
X156085355Y-116670000D01*
X157142505Y-117727150D01*
X157365229Y-117594668D01*
X157520351Y-117320312D01*
X157618968Y-117020965D01*
X157657290Y-116708131D01*
X157642692Y-116512414D01*
X159530000Y-116512414D01*
X159530000Y-116827586D01*
X159591487Y-117136703D01*
X159712098Y-117427884D01*
X159887199Y-117689941D01*
X160110059Y-117912801D01*
X160372116Y-118087902D01*
X160663297Y-118208513D01*
X160972414Y-118270000D01*
X161287586Y-118270000D01*
X161596703Y-118208513D01*
X161887884Y-118087902D01*
X162149941Y-117912801D01*
X162300237Y-117762505D01*
X167492850Y-117762505D01*
X167625332Y-117985229D01*
X167899688Y-118140351D01*
X168199035Y-118238968D01*
X168511869Y-118277290D01*
X168826168Y-118253846D01*
X169129855Y-118169535D01*
X169411258Y-118027598D01*
X169474668Y-117985229D01*
X169607150Y-117762505D01*
X168550000Y-116705355D01*
X167492850Y-117762505D01*
X162300237Y-117762505D01*
X162372801Y-117689941D01*
X162547902Y-117427884D01*
X162668513Y-117136703D01*
X162730000Y-116827586D01*
X162730000Y-116631869D01*
X166942710Y-116631869D01*
X166966154Y-116946168D01*
X167050465Y-117249855D01*
X167192402Y-117531258D01*
X167234771Y-117594668D01*
X167457495Y-117727150D01*
X168514645Y-116670000D01*
X168585355Y-116670000D01*
X169642505Y-117727150D01*
X169865229Y-117594668D01*
X170020351Y-117320312D01*
X170118968Y-117020965D01*
X170157290Y-116708131D01*
X170142692Y-116512414D01*
X172030000Y-116512414D01*
X172030000Y-116827586D01*
X172091487Y-117136703D01*
X172212098Y-117427884D01*
X172387199Y-117689941D01*
X172610059Y-117912801D01*
X172872116Y-118087902D01*
X173163297Y-118208513D01*
X173472414Y-118270000D01*
X173787586Y-118270000D01*
X174096703Y-118208513D01*
X174387884Y-118087902D01*
X174649941Y-117912801D01*
X174872801Y-117689941D01*
X175047902Y-117427884D01*
X175168513Y-117136703D01*
X175230000Y-116827586D01*
X175230000Y-116512414D01*
X175168513Y-116203297D01*
X175047902Y-115912116D01*
X174872801Y-115650059D01*
X174649941Y-115427199D01*
X174387884Y-115252098D01*
X174096703Y-115131487D01*
X173787586Y-115070000D01*
X173472414Y-115070000D01*
X173163297Y-115131487D01*
X172872116Y-115252098D01*
X172610059Y-115427199D01*
X172387199Y-115650059D01*
X172212098Y-115912116D01*
X172091487Y-116203297D01*
X172030000Y-116512414D01*
X170142692Y-116512414D01*
X170133846Y-116393832D01*
X170049535Y-116090145D01*
X169907598Y-115808742D01*
X169865229Y-115745332D01*
X169642505Y-115612850D01*
X168585355Y-116670000D01*
X168514645Y-116670000D01*
X167457495Y-115612850D01*
X167234771Y-115745332D01*
X167079649Y-116019688D01*
X166981032Y-116319035D01*
X166942710Y-116631869D01*
X162730000Y-116631869D01*
X162730000Y-116512414D01*
X162668513Y-116203297D01*
X162547902Y-115912116D01*
X162372801Y-115650059D01*
X162300237Y-115577495D01*
X167492850Y-115577495D01*
X168550000Y-116634645D01*
X169607150Y-115577495D01*
X169474668Y-115354771D01*
X169200312Y-115199649D01*
X168900965Y-115101032D01*
X168588131Y-115062710D01*
X168273832Y-115086154D01*
X167970145Y-115170465D01*
X167688742Y-115312402D01*
X167625332Y-115354771D01*
X167492850Y-115577495D01*
X162300237Y-115577495D01*
X162149941Y-115427199D01*
X161887884Y-115252098D01*
X161596703Y-115131487D01*
X161287586Y-115070000D01*
X160972414Y-115070000D01*
X160663297Y-115131487D01*
X160372116Y-115252098D01*
X160110059Y-115427199D01*
X159887199Y-115650059D01*
X159712098Y-115912116D01*
X159591487Y-116203297D01*
X159530000Y-116512414D01*
X157642692Y-116512414D01*
X157633846Y-116393832D01*
X157549535Y-116090145D01*
X157407598Y-115808742D01*
X157365229Y-115745332D01*
X157142505Y-115612850D01*
X156085355Y-116670000D01*
X156014645Y-116670000D01*
X154957495Y-115612850D01*
X154734771Y-115745332D01*
X154579649Y-116019688D01*
X154481032Y-116319035D01*
X154442710Y-116631869D01*
X151244872Y-116631869D01*
X152299247Y-115577495D01*
X154992850Y-115577495D01*
X156050000Y-116634645D01*
X157107150Y-115577495D01*
X156974668Y-115354771D01*
X156700312Y-115199649D01*
X156400965Y-115101032D01*
X156088131Y-115062710D01*
X155773832Y-115086154D01*
X155470145Y-115170465D01*
X155188742Y-115312402D01*
X155125332Y-115354771D01*
X154992850Y-115577495D01*
X152299247Y-115577495D01*
X152369377Y-115507366D01*
X152387501Y-115492492D01*
X152446859Y-115420164D01*
X152481812Y-115354771D01*
X152490966Y-115337646D01*
X152518127Y-115248107D01*
X152527298Y-115154991D01*
X152525000Y-115131659D01*
X152525000Y-105254632D01*
X152528097Y-105252563D01*
X152632563Y-105148097D01*
X152714641Y-105025258D01*
X152771178Y-104888767D01*
X152800000Y-104743869D01*
X152800000Y-104596131D01*
X152771178Y-104451233D01*
X152714641Y-104314742D01*
X152632563Y-104191903D01*
X152528097Y-104087437D01*
X152405258Y-104005359D01*
X152268767Y-103948822D01*
X152123869Y-103920000D01*
X151976131Y-103920000D01*
X151831233Y-103948822D01*
X151694742Y-104005359D01*
X151571903Y-104087437D01*
X151467437Y-104191903D01*
X151385359Y-104314742D01*
X151328822Y-104451233D01*
X151300000Y-104596131D01*
X151300000Y-104743869D01*
X151328822Y-104888767D01*
X151385359Y-105025258D01*
X151467437Y-105148097D01*
X151571903Y-105252563D01*
X151575000Y-105254632D01*
X151575001Y-114958238D01*
X149615617Y-116917624D01*
X149615612Y-116917628D01*
X149612513Y-116920727D01*
X149608860Y-116920000D01*
X149461122Y-116920000D01*
X149316224Y-116948822D01*
X149179733Y-117005359D01*
X149056894Y-117087437D01*
X148952428Y-117191903D01*
X148870350Y-117314742D01*
X148813813Y-117451233D01*
X148784991Y-117596131D01*
X142795619Y-117596131D01*
X148972478Y-111419273D01*
X148976131Y-111420000D01*
X149123869Y-111420000D01*
X149268767Y-111391178D01*
X149405258Y-111334641D01*
X149528097Y-111252563D01*
X149632563Y-111148097D01*
X149714641Y-111025258D01*
X149771178Y-110888767D01*
X149800000Y-110743869D01*
X149800000Y-110596131D01*
X149771178Y-110451233D01*
X149714641Y-110314742D01*
X149632563Y-110191903D01*
X149528097Y-110087437D01*
X149405258Y-110005359D01*
X149268767Y-109948822D01*
X149123869Y-109920000D01*
X148976131Y-109920000D01*
X148831233Y-109948822D01*
X148694742Y-110005359D01*
X148571903Y-110087437D01*
X148467437Y-110191903D01*
X148385359Y-110314742D01*
X148328822Y-110451233D01*
X148300000Y-110596131D01*
X148300000Y-110743869D01*
X148300727Y-110747522D01*
X141127523Y-117920727D01*
X141123869Y-117920000D01*
X140976131Y-117920000D01*
X140831233Y-117948822D01*
X140694742Y-118005359D01*
X140571903Y-118087437D01*
X140467437Y-118191903D01*
X140385359Y-118314742D01*
X140328822Y-118451233D01*
X140300000Y-118596131D01*
X136932029Y-118596131D01*
X143869377Y-111658785D01*
X143887501Y-111643911D01*
X143946859Y-111571583D01*
X143984662Y-111500858D01*
X143990966Y-111489065D01*
X144018127Y-111399526D01*
X144027298Y-111306410D01*
X144025000Y-111283078D01*
X144025000Y-111254632D01*
X144028097Y-111252563D01*
X144132563Y-111148097D01*
X144214641Y-111025258D01*
X144271178Y-110888767D01*
X144300000Y-110743869D01*
X144300000Y-110596131D01*
X144271178Y-110451233D01*
X144214641Y-110314742D01*
X144132563Y-110191903D01*
X144028097Y-110087437D01*
X143905258Y-110005359D01*
X143768767Y-109948822D01*
X143623869Y-109920000D01*
X143476131Y-109920000D01*
X143331233Y-109948822D01*
X143194742Y-110005359D01*
X143071903Y-110087437D01*
X142967437Y-110191903D01*
X142885359Y-110314742D01*
X142828822Y-110451233D01*
X142800000Y-110596131D01*
X142800000Y-110743869D01*
X142828822Y-110888767D01*
X142885359Y-111025258D01*
X142967437Y-111148097D01*
X143001999Y-111182659D01*
X136062660Y-118122000D01*
X136028097Y-118087437D01*
X135905258Y-118005359D01*
X135768767Y-117948822D01*
X135623869Y-117920000D01*
X135476131Y-117920000D01*
X135331233Y-117948822D01*
X135194742Y-118005359D01*
X135071903Y-118087437D01*
X134967437Y-118191903D01*
X134885359Y-118314742D01*
X134828822Y-118451233D01*
X134800000Y-118596131D01*
X131925001Y-118596131D01*
X131925000Y-111096131D01*
X135800000Y-111096131D01*
X135800000Y-111243869D01*
X135828822Y-111388767D01*
X135885359Y-111525258D01*
X135967437Y-111648097D01*
X136071903Y-111752563D01*
X136194742Y-111834641D01*
X136331233Y-111891178D01*
X136476131Y-111920000D01*
X136623869Y-111920000D01*
X136768767Y-111891178D01*
X136905258Y-111834641D01*
X137028097Y-111752563D01*
X137132563Y-111648097D01*
X137134632Y-111645000D01*
X138465368Y-111645000D01*
X138467437Y-111648097D01*
X138571903Y-111752563D01*
X138694742Y-111834641D01*
X138831233Y-111891178D01*
X138976131Y-111920000D01*
X139123869Y-111920000D01*
X139268767Y-111891178D01*
X139405258Y-111834641D01*
X139528097Y-111752563D01*
X139632563Y-111648097D01*
X139634632Y-111645000D01*
X140965368Y-111645000D01*
X140967437Y-111648097D01*
X141071903Y-111752563D01*
X141194742Y-111834641D01*
X141331233Y-111891178D01*
X141476131Y-111920000D01*
X141623869Y-111920000D01*
X141768767Y-111891178D01*
X141905258Y-111834641D01*
X142028097Y-111752563D01*
X142132563Y-111648097D01*
X142214641Y-111525258D01*
X142271178Y-111388767D01*
X142300000Y-111243869D01*
X142300000Y-111096131D01*
X142271178Y-110951233D01*
X142214641Y-110814742D01*
X142132563Y-110691903D01*
X142028097Y-110587437D01*
X141905258Y-110505359D01*
X141768767Y-110448822D01*
X141623869Y-110420000D01*
X141476131Y-110420000D01*
X141331233Y-110448822D01*
X141194742Y-110505359D01*
X141071903Y-110587437D01*
X140967437Y-110691903D01*
X140965368Y-110695000D01*
X139634632Y-110695000D01*
X139632563Y-110691903D01*
X139528097Y-110587437D01*
X139405258Y-110505359D01*
X139268767Y-110448822D01*
X139123869Y-110420000D01*
X138976131Y-110420000D01*
X138831233Y-110448822D01*
X138694742Y-110505359D01*
X138571903Y-110587437D01*
X138467437Y-110691903D01*
X138465368Y-110695000D01*
X137134632Y-110695000D01*
X137132563Y-110691903D01*
X137028097Y-110587437D01*
X136905258Y-110505359D01*
X136768767Y-110448822D01*
X136623869Y-110420000D01*
X136476131Y-110420000D01*
X136331233Y-110448822D01*
X136194742Y-110505359D01*
X136071903Y-110587437D01*
X135967437Y-110691903D01*
X135885359Y-110814742D01*
X135828822Y-110951233D01*
X135800000Y-111096131D01*
X131925000Y-111096131D01*
X131924999Y-103651581D01*
X131923543Y-103636801D01*
X131904939Y-103403015D01*
X131899548Y-103372903D01*
X131895139Y-103342678D01*
X131893846Y-103337604D01*
X131819560Y-103054437D01*
X131807758Y-103022532D01*
X131796422Y-102990521D01*
X131794168Y-102985795D01*
X131666294Y-102722450D01*
X131648522Y-102693449D01*
X131631183Y-102664248D01*
X131628054Y-102660050D01*
X131628053Y-102660048D01*
X131628050Y-102660045D01*
X131452021Y-102427292D01*
X131440463Y-102411995D01*
X127047956Y-97651582D01*
X136675000Y-97651582D01*
X136675001Y-98688419D01*
X136675899Y-98697534D01*
X136696925Y-99127442D01*
X136698172Y-99136044D01*
X136698172Y-99144739D01*
X136703429Y-99180997D01*
X136867263Y-100019944D01*
X136872195Y-100036593D01*
X136875476Y-100053633D01*
X136887486Y-100088218D01*
X136887494Y-100088244D01*
X136887500Y-100088256D01*
X137207015Y-100881073D01*
X137215002Y-100896481D01*
X137221449Y-100912601D01*
X137239791Y-100944305D01*
X137239796Y-100944315D01*
X137239800Y-100944319D01*
X137703471Y-101662422D01*
X137714233Y-101676050D01*
X137723607Y-101690651D01*
X137747600Y-101718300D01*
X137747619Y-101718324D01*
X137747630Y-101718334D01*
X138338721Y-102335796D01*
X138351866Y-102347142D01*
X138363832Y-102359708D01*
X138392644Y-102382341D01*
X139089841Y-102876897D01*
X139104892Y-102885551D01*
X139119021Y-102895630D01*
X139151593Y-102912406D01*
X139929731Y-103266205D01*
X139946149Y-103271858D01*
X139961927Y-103279082D01*
X139997063Y-103289390D01*
X139997083Y-103289397D01*
X139997093Y-103289398D01*
X140828084Y-103489668D01*
X140845271Y-103492114D01*
X140862134Y-103496225D01*
X140898606Y-103499705D01*
X141752485Y-103539227D01*
X141769826Y-103538379D01*
X141787162Y-103539227D01*
X141823614Y-103535749D01*
X141823633Y-103535748D01*
X141823642Y-103535746D01*
X142669582Y-103413090D01*
X142686448Y-103408979D01*
X142703632Y-103406533D01*
X142738788Y-103396220D01*
X143546280Y-103115811D01*
X143562068Y-103108583D01*
X143578476Y-103102933D01*
X143611039Y-103086162D01*
X143611048Y-103086158D01*
X143611052Y-103086155D01*
X144350947Y-102658116D01*
X144365088Y-102648029D01*
X144380126Y-102639382D01*
X144408928Y-102616759D01*
X144408939Y-102616751D01*
X144408944Y-102616746D01*
X145054548Y-102056518D01*
X145066517Y-102043950D01*
X145079659Y-102032606D01*
X145103661Y-102004946D01*
X145103672Y-102004934D01*
X145103676Y-102004927D01*
X145631698Y-101332727D01*
X145641078Y-101318116D01*
X145651834Y-101304497D01*
X145670181Y-101272784D01*
X146061567Y-100512858D01*
X146068015Y-100496738D01*
X146076002Y-100481329D01*
X146088014Y-100446738D01*
X146088022Y-100446719D01*
X146088024Y-100446709D01*
X146190872Y-100096131D01*
X151800000Y-100096131D01*
X151800000Y-100243869D01*
X151828822Y-100388767D01*
X151885359Y-100525258D01*
X151967437Y-100648097D01*
X152071903Y-100752563D01*
X152194742Y-100834641D01*
X152331233Y-100891178D01*
X152476131Y-100920000D01*
X152623869Y-100920000D01*
X152627523Y-100919273D01*
X153800727Y-102092478D01*
X153800000Y-102096131D01*
X153800000Y-102243869D01*
X153828822Y-102388767D01*
X153885359Y-102525258D01*
X153967437Y-102648097D01*
X154071903Y-102752563D01*
X154194742Y-102834641D01*
X154331233Y-102891178D01*
X154476131Y-102920000D01*
X154623869Y-102920000D01*
X154768767Y-102891178D01*
X154905258Y-102834641D01*
X155028097Y-102752563D01*
X155132563Y-102648097D01*
X155214641Y-102525258D01*
X155271178Y-102388767D01*
X155300000Y-102243869D01*
X155300000Y-102096131D01*
X155271178Y-101951233D01*
X155214641Y-101814742D01*
X155132563Y-101691903D01*
X155028097Y-101587437D01*
X154905258Y-101505359D01*
X154768767Y-101448822D01*
X154623869Y-101420000D01*
X154476131Y-101420000D01*
X154472478Y-101420727D01*
X154147882Y-101096131D01*
X156800000Y-101096131D01*
X156800000Y-101243869D01*
X156828822Y-101388767D01*
X156885359Y-101525258D01*
X156967437Y-101648097D01*
X157071903Y-101752563D01*
X157194742Y-101834641D01*
X157331233Y-101891178D01*
X157476131Y-101920000D01*
X157623869Y-101920000D01*
X157626976Y-101919382D01*
X157684826Y-101966858D01*
X157767345Y-102010965D01*
X157829721Y-102029887D01*
X157856882Y-102038126D01*
X157949998Y-102047297D01*
X157973331Y-102044999D01*
X164199671Y-102044999D01*
X164223003Y-102047297D01*
X164246335Y-102044999D01*
X164288340Y-102040862D01*
X164316119Y-102038126D01*
X164405657Y-102010965D01*
X164488176Y-101966858D01*
X164560504Y-101907500D01*
X164575387Y-101889365D01*
X164819753Y-101645000D01*
X169465368Y-101645000D01*
X169467437Y-101648097D01*
X169571903Y-101752563D01*
X169694742Y-101834641D01*
X169831233Y-101891178D01*
X169976131Y-101920000D01*
X170123869Y-101920000D01*
X170268767Y-101891178D01*
X170405258Y-101834641D01*
X170528097Y-101752563D01*
X170632563Y-101648097D01*
X170714641Y-101525258D01*
X170771178Y-101388767D01*
X170800000Y-101243869D01*
X170800000Y-101096131D01*
X170771178Y-100951233D01*
X170714641Y-100814742D01*
X170632563Y-100691903D01*
X170528097Y-100587437D01*
X170405258Y-100505359D01*
X170268767Y-100448822D01*
X170123869Y-100420000D01*
X169976131Y-100420000D01*
X169831233Y-100448822D01*
X169694742Y-100505359D01*
X169571903Y-100587437D01*
X169467437Y-100691903D01*
X169465368Y-100695000D01*
X164646334Y-100695000D01*
X164623001Y-100692702D01*
X164529885Y-100701873D01*
X164502724Y-100710112D01*
X164440348Y-100729034D01*
X164357829Y-100773141D01*
X164285501Y-100832499D01*
X164270622Y-100850629D01*
X164026253Y-101094999D01*
X158299775Y-101094999D01*
X158271178Y-100951233D01*
X158214641Y-100814742D01*
X158132563Y-100691903D01*
X158028097Y-100587437D01*
X157905258Y-100505359D01*
X157768767Y-100448822D01*
X157623869Y-100420000D01*
X157476131Y-100420000D01*
X157331233Y-100448822D01*
X157194742Y-100505359D01*
X157071903Y-100587437D01*
X156967437Y-100691903D01*
X156885359Y-100814742D01*
X156828822Y-100951233D01*
X156800000Y-101096131D01*
X154147882Y-101096131D01*
X153299273Y-100247523D01*
X153300000Y-100243869D01*
X153300000Y-100096131D01*
X153271178Y-99951233D01*
X153214641Y-99814742D01*
X153132563Y-99691903D01*
X153028097Y-99587437D01*
X152905258Y-99505359D01*
X152768767Y-99448822D01*
X152623869Y-99420000D01*
X152476131Y-99420000D01*
X152331233Y-99448822D01*
X152194742Y-99505359D01*
X152071903Y-99587437D01*
X151967437Y-99691903D01*
X151885359Y-99814742D01*
X151828822Y-99951233D01*
X151800000Y-100096131D01*
X146190872Y-100096131D01*
X146328649Y-99626493D01*
X146331932Y-99609443D01*
X146336861Y-99592804D01*
X146342119Y-99556546D01*
X146423267Y-98706018D01*
X146425000Y-98688419D01*
X146425000Y-97651581D01*
X146424100Y-97642446D01*
X146403075Y-97212558D01*
X146401828Y-97203957D01*
X146401828Y-97195262D01*
X146396571Y-97159003D01*
X146286651Y-96596131D01*
X153800000Y-96596131D01*
X153800000Y-96743869D01*
X153828822Y-96888767D01*
X153885359Y-97025258D01*
X153967437Y-97148097D01*
X154071903Y-97252563D01*
X154194742Y-97334641D01*
X154331233Y-97391178D01*
X154476131Y-97420000D01*
X154623869Y-97420000D01*
X154768767Y-97391178D01*
X154905258Y-97334641D01*
X155028097Y-97252563D01*
X155132563Y-97148097D01*
X155134632Y-97145000D01*
X157853250Y-97145000D01*
X158300727Y-97592478D01*
X158300000Y-97596131D01*
X158300000Y-97743869D01*
X158328822Y-97888767D01*
X158385359Y-98025258D01*
X158467437Y-98148097D01*
X158571903Y-98252563D01*
X158694742Y-98334641D01*
X158831233Y-98391178D01*
X158976131Y-98420000D01*
X159123869Y-98420000D01*
X159268767Y-98391178D01*
X159405258Y-98334641D01*
X159528097Y-98252563D01*
X159632563Y-98148097D01*
X159714641Y-98025258D01*
X159771178Y-97888767D01*
X159800000Y-97743869D01*
X159800000Y-97596131D01*
X159771178Y-97451233D01*
X159714641Y-97314742D01*
X159632563Y-97191903D01*
X159528097Y-97087437D01*
X159405258Y-97005359D01*
X159268767Y-96948822D01*
X159123869Y-96920000D01*
X158976131Y-96920000D01*
X158972478Y-96920727D01*
X158696751Y-96645000D01*
X159965368Y-96645000D01*
X159967437Y-96648097D01*
X160071903Y-96752563D01*
X160194742Y-96834641D01*
X160331233Y-96891178D01*
X160476131Y-96920000D01*
X160623869Y-96920000D01*
X160768767Y-96891178D01*
X160905258Y-96834641D01*
X161028097Y-96752563D01*
X161132563Y-96648097D01*
X161214641Y-96525258D01*
X161271178Y-96388767D01*
X161300000Y-96243869D01*
X161300000Y-96096131D01*
X161271178Y-95951233D01*
X161214641Y-95814742D01*
X161132563Y-95691903D01*
X161028097Y-95587437D01*
X160905258Y-95505359D01*
X160768767Y-95448822D01*
X160623869Y-95420000D01*
X160476131Y-95420000D01*
X160331233Y-95448822D01*
X160194742Y-95505359D01*
X160071903Y-95587437D01*
X159967437Y-95691903D01*
X159965368Y-95695000D01*
X156746752Y-95695000D01*
X156299273Y-95247522D01*
X156300000Y-95243869D01*
X156300000Y-95096131D01*
X156271178Y-94951233D01*
X156214641Y-94814742D01*
X156132563Y-94691903D01*
X156028097Y-94587437D01*
X155905258Y-94505359D01*
X155768767Y-94448822D01*
X155623869Y-94420000D01*
X155476131Y-94420000D01*
X155331233Y-94448822D01*
X155194742Y-94505359D01*
X155071903Y-94587437D01*
X154967437Y-94691903D01*
X154885359Y-94814742D01*
X154828822Y-94951233D01*
X154800000Y-95096131D01*
X154800000Y-95243869D01*
X154828822Y-95388767D01*
X154885359Y-95525258D01*
X154967437Y-95648097D01*
X155071903Y-95752563D01*
X155194742Y-95834641D01*
X155331233Y-95891178D01*
X155476131Y-95920000D01*
X155623869Y-95920000D01*
X155627522Y-95919273D01*
X155903249Y-96195000D01*
X155134632Y-96195000D01*
X155132563Y-96191903D01*
X155028097Y-96087437D01*
X154905258Y-96005359D01*
X154768767Y-95948822D01*
X154623869Y-95920000D01*
X154476131Y-95920000D01*
X154331233Y-95948822D01*
X154194742Y-96005359D01*
X154071903Y-96087437D01*
X153967437Y-96191903D01*
X153885359Y-96314742D01*
X153828822Y-96451233D01*
X153800000Y-96596131D01*
X146286651Y-96596131D01*
X146232737Y-96320057D01*
X146227806Y-96303410D01*
X146224524Y-96286367D01*
X146212512Y-96251777D01*
X146212506Y-96251757D01*
X146212502Y-96251748D01*
X145948280Y-95596131D01*
X146300000Y-95596131D01*
X146300000Y-95743869D01*
X146328822Y-95888767D01*
X146385359Y-96025258D01*
X146467437Y-96148097D01*
X146571903Y-96252563D01*
X146694742Y-96334641D01*
X146831233Y-96391178D01*
X146976131Y-96420000D01*
X147123869Y-96420000D01*
X147268767Y-96391178D01*
X147405258Y-96334641D01*
X147528097Y-96252563D01*
X147632563Y-96148097D01*
X147714641Y-96025258D01*
X147771178Y-95888767D01*
X147800000Y-95743869D01*
X147800000Y-95596131D01*
X147799273Y-95592477D01*
X148612237Y-94779513D01*
X148694742Y-94834641D01*
X148831233Y-94891178D01*
X148976131Y-94920000D01*
X149123869Y-94920000D01*
X149268767Y-94891178D01*
X149405258Y-94834641D01*
X149528097Y-94752563D01*
X149632563Y-94648097D01*
X149634632Y-94645000D01*
X151465368Y-94645000D01*
X151467437Y-94648097D01*
X151571903Y-94752563D01*
X151694742Y-94834641D01*
X151831233Y-94891178D01*
X151976131Y-94920000D01*
X152123869Y-94920000D01*
X152268767Y-94891178D01*
X152405258Y-94834641D01*
X152528097Y-94752563D01*
X152632563Y-94648097D01*
X152714641Y-94525258D01*
X152771178Y-94388767D01*
X152800000Y-94243869D01*
X152800000Y-94096131D01*
X152771178Y-93951233D01*
X152714641Y-93814742D01*
X152632563Y-93691903D01*
X152536791Y-93596131D01*
X158300000Y-93596131D01*
X158300000Y-93743869D01*
X158328822Y-93888767D01*
X158385359Y-94025258D01*
X158467437Y-94148097D01*
X158571903Y-94252563D01*
X158694742Y-94334641D01*
X158831233Y-94391178D01*
X158976131Y-94420000D01*
X159123869Y-94420000D01*
X159268767Y-94391178D01*
X159405258Y-94334641D01*
X159528097Y-94252563D01*
X159632563Y-94148097D01*
X159634632Y-94145000D01*
X160353250Y-94145000D01*
X161300727Y-95092477D01*
X161300000Y-95096131D01*
X161300000Y-95243869D01*
X161328822Y-95388767D01*
X161385359Y-95525258D01*
X161467437Y-95648097D01*
X161571903Y-95752563D01*
X161575000Y-95754633D01*
X161575001Y-96585367D01*
X161571903Y-96587437D01*
X161467437Y-96691903D01*
X161385359Y-96814742D01*
X161328822Y-96951233D01*
X161300000Y-97096131D01*
X161300000Y-97243869D01*
X161328822Y-97388767D01*
X161385359Y-97525258D01*
X161467437Y-97648097D01*
X161571903Y-97752563D01*
X161694742Y-97834641D01*
X161831233Y-97891178D01*
X161976131Y-97920000D01*
X162123869Y-97920000D01*
X162268767Y-97891178D01*
X162405258Y-97834641D01*
X162528097Y-97752563D01*
X162632563Y-97648097D01*
X162714641Y-97525258D01*
X162771178Y-97388767D01*
X162800000Y-97243869D01*
X162800000Y-97096131D01*
X162771178Y-96951233D01*
X162714641Y-96814742D01*
X162632563Y-96691903D01*
X162528097Y-96587437D01*
X162525000Y-96585368D01*
X162525000Y-95754632D01*
X162528097Y-95752563D01*
X162632563Y-95648097D01*
X162714641Y-95525258D01*
X162771178Y-95388767D01*
X162800000Y-95243869D01*
X162800000Y-95096131D01*
X162771178Y-94951233D01*
X162714641Y-94814742D01*
X162632563Y-94691903D01*
X162528097Y-94587437D01*
X162405258Y-94505359D01*
X162268767Y-94448822D01*
X162123869Y-94420000D01*
X161976131Y-94420000D01*
X161972477Y-94420727D01*
X160902384Y-93350634D01*
X160887501Y-93332499D01*
X160815173Y-93273141D01*
X160732654Y-93229034D01*
X160643116Y-93201873D01*
X160573332Y-93195000D01*
X160550000Y-93192702D01*
X160526668Y-93195000D01*
X159634632Y-93195000D01*
X159632563Y-93191903D01*
X159528097Y-93087437D01*
X159405258Y-93005359D01*
X159268767Y-92948822D01*
X159123869Y-92920000D01*
X158976131Y-92920000D01*
X158831233Y-92948822D01*
X158694742Y-93005359D01*
X158571903Y-93087437D01*
X158467437Y-93191903D01*
X158385359Y-93314742D01*
X158328822Y-93451233D01*
X158300000Y-93596131D01*
X152536791Y-93596131D01*
X152528097Y-93587437D01*
X152405258Y-93505359D01*
X152268767Y-93448822D01*
X152123869Y-93420000D01*
X151976131Y-93420000D01*
X151831233Y-93448822D01*
X151694742Y-93505359D01*
X151571903Y-93587437D01*
X151467437Y-93691903D01*
X151465368Y-93695000D01*
X149634632Y-93695000D01*
X149632563Y-93691903D01*
X149528097Y-93587437D01*
X149405258Y-93505359D01*
X149268767Y-93448822D01*
X149123869Y-93420000D01*
X148976131Y-93420000D01*
X148831233Y-93448822D01*
X148694742Y-93505359D01*
X148571903Y-93587437D01*
X148467437Y-93691903D01*
X148461049Y-93701463D01*
X148456883Y-93701873D01*
X148432737Y-93709198D01*
X148367346Y-93729034D01*
X148284827Y-93773141D01*
X148212499Y-93832499D01*
X148197621Y-93850629D01*
X147127523Y-94920727D01*
X147123869Y-94920000D01*
X146976131Y-94920000D01*
X146831233Y-94948822D01*
X146694742Y-95005359D01*
X146571903Y-95087437D01*
X146467437Y-95191903D01*
X146385359Y-95314742D01*
X146328822Y-95451233D01*
X146300000Y-95596131D01*
X145948280Y-95596131D01*
X145892985Y-95458927D01*
X145884998Y-95443519D01*
X145878551Y-95427399D01*
X145860209Y-95395695D01*
X145860204Y-95395685D01*
X145860200Y-95395681D01*
X145396529Y-94677579D01*
X145385771Y-94663956D01*
X145376393Y-94649349D01*
X145352390Y-94621687D01*
X145352381Y-94621676D01*
X145352375Y-94621671D01*
X144761279Y-94004205D01*
X144748141Y-93992864D01*
X144736168Y-93980291D01*
X144707367Y-93957668D01*
X144707357Y-93957659D01*
X144707352Y-93957656D01*
X144010158Y-93463102D01*
X143995106Y-93454446D01*
X143980979Y-93444370D01*
X143948415Y-93427598D01*
X143948407Y-93427593D01*
X143948402Y-93427591D01*
X143170269Y-93073795D01*
X143153851Y-93068141D01*
X143138073Y-93060918D01*
X143102943Y-93050612D01*
X143102918Y-93050603D01*
X143102905Y-93050601D01*
X142271916Y-92850332D01*
X142254727Y-92847885D01*
X142237866Y-92843775D01*
X142201415Y-92840297D01*
X142201394Y-92840294D01*
X142201383Y-92840295D01*
X141347514Y-92800773D01*
X141330174Y-92801621D01*
X141312838Y-92800773D01*
X141276387Y-92804251D01*
X141276366Y-92804252D01*
X141276356Y-92804254D01*
X140430418Y-92926910D01*
X140413552Y-92931021D01*
X140396368Y-92933467D01*
X140361212Y-92943780D01*
X139553720Y-93224189D01*
X139537929Y-93231419D01*
X139521525Y-93237067D01*
X139488961Y-93253838D01*
X139488952Y-93253842D01*
X139488948Y-93253845D01*
X138749054Y-93681884D01*
X138734922Y-93691965D01*
X138719874Y-93700617D01*
X138691062Y-93723249D01*
X138045452Y-94283481D01*
X138033480Y-94296053D01*
X138020341Y-94307394D01*
X137996339Y-94335054D01*
X137996328Y-94335066D01*
X137996324Y-94335073D01*
X137468303Y-95007273D01*
X137458923Y-95021883D01*
X137448166Y-95035504D01*
X137429825Y-95067207D01*
X137429819Y-95067216D01*
X137429819Y-95067217D01*
X137038432Y-95827142D01*
X137031982Y-95843268D01*
X137023998Y-95858671D01*
X137011986Y-95893262D01*
X137011978Y-95893281D01*
X137011976Y-95893291D01*
X136771351Y-96713507D01*
X136768068Y-96730557D01*
X136763139Y-96747196D01*
X136757881Y-96783455D01*
X136676730Y-97634014D01*
X136675000Y-97651582D01*
X127047956Y-97651582D01*
X124017852Y-94367684D01*
X124014789Y-94364958D01*
X123933881Y-94281028D01*
X123918801Y-94268171D01*
X123904946Y-94254023D01*
X123900912Y-94250685D01*
X123447185Y-93880634D01*
X123418872Y-93861823D01*
X123390832Y-93842623D01*
X123386226Y-93840133D01*
X122927326Y-93596131D01*
X132300000Y-93596131D01*
X132300000Y-93743869D01*
X132328822Y-93888767D01*
X132385359Y-94025258D01*
X132467437Y-94148097D01*
X132571903Y-94252563D01*
X132694742Y-94334641D01*
X132831233Y-94391178D01*
X132976131Y-94420000D01*
X133123869Y-94420000D01*
X133268767Y-94391178D01*
X133405258Y-94334641D01*
X133528097Y-94252563D01*
X133632563Y-94148097D01*
X133634632Y-94145000D01*
X135465368Y-94145000D01*
X135467437Y-94148097D01*
X135571903Y-94252563D01*
X135694742Y-94334641D01*
X135831233Y-94391178D01*
X135976131Y-94420000D01*
X136123869Y-94420000D01*
X136268767Y-94391178D01*
X136405258Y-94334641D01*
X136528097Y-94252563D01*
X136632563Y-94148097D01*
X136714641Y-94025258D01*
X136771178Y-93888767D01*
X136800000Y-93743869D01*
X136800000Y-93596131D01*
X136771178Y-93451233D01*
X136714641Y-93314742D01*
X136632563Y-93191903D01*
X136528097Y-93087437D01*
X136405258Y-93005359D01*
X136268767Y-92948822D01*
X136123869Y-92920000D01*
X135976131Y-92920000D01*
X135831233Y-92948822D01*
X135694742Y-93005359D01*
X135571903Y-93087437D01*
X135467437Y-93191903D01*
X135465368Y-93195000D01*
X133634632Y-93195000D01*
X133632563Y-93191903D01*
X133528097Y-93087437D01*
X133405258Y-93005359D01*
X133268767Y-92948822D01*
X133123869Y-92920000D01*
X132976131Y-92920000D01*
X132831233Y-92948822D01*
X132694742Y-93005359D01*
X132571903Y-93087437D01*
X132467437Y-93191903D01*
X132385359Y-93314742D01*
X132328822Y-93451233D01*
X132300000Y-93596131D01*
X122927326Y-93596131D01*
X122869262Y-93565258D01*
X122837810Y-93552295D01*
X122806600Y-93538918D01*
X122801598Y-93537369D01*
X122241090Y-93368141D01*
X122207722Y-93361534D01*
X122174503Y-93354473D01*
X122169298Y-93353926D01*
X122169296Y-93353926D01*
X121587074Y-93296839D01*
X121568420Y-93295002D01*
X118520864Y-93295001D01*
X118684188Y-93227350D01*
X119249247Y-92849790D01*
X119729790Y-92369247D01*
X120107350Y-91804188D01*
X120367418Y-91176328D01*
X120484046Y-90590000D01*
X120718307Y-90590000D01*
X120718307Y-92290000D01*
X120725065Y-92358612D01*
X120745078Y-92424587D01*
X120777578Y-92485390D01*
X120821315Y-92538685D01*
X120874610Y-92582422D01*
X120935413Y-92614922D01*
X121001388Y-92634935D01*
X121070000Y-92641693D01*
X122770000Y-92641693D01*
X122838612Y-92634935D01*
X122904587Y-92614922D01*
X122965390Y-92582422D01*
X123018685Y-92538685D01*
X123062422Y-92485390D01*
X123094922Y-92424587D01*
X123114935Y-92358612D01*
X123121693Y-92290000D01*
X123121693Y-91440000D01*
X123254194Y-91440000D01*
X123277363Y-91675241D01*
X123345981Y-91901442D01*
X123457409Y-92109910D01*
X123607366Y-92292634D01*
X123790090Y-92442591D01*
X123998558Y-92554019D01*
X124224759Y-92622637D01*
X124401050Y-92640000D01*
X124518950Y-92640000D01*
X124695241Y-92622637D01*
X124921442Y-92554019D01*
X125129910Y-92442591D01*
X125312634Y-92292634D01*
X125462591Y-92109910D01*
X125574019Y-91901442D01*
X125642637Y-91675241D01*
X125665806Y-91440000D01*
X125794194Y-91440000D01*
X125817363Y-91675241D01*
X125885981Y-91901442D01*
X125997409Y-92109910D01*
X126147366Y-92292634D01*
X126330090Y-92442591D01*
X126538558Y-92554019D01*
X126764759Y-92622637D01*
X126941050Y-92640000D01*
X127058950Y-92640000D01*
X127235241Y-92622637D01*
X127461442Y-92554019D01*
X127669910Y-92442591D01*
X127852634Y-92292634D01*
X128002591Y-92109910D01*
X128114019Y-91901442D01*
X128182637Y-91675241D01*
X128205806Y-91440000D01*
X128334194Y-91440000D01*
X128357363Y-91675241D01*
X128425981Y-91901442D01*
X128537409Y-92109910D01*
X128687366Y-92292634D01*
X128870090Y-92442591D01*
X129078558Y-92554019D01*
X129304759Y-92622637D01*
X129481050Y-92640000D01*
X129598950Y-92640000D01*
X129775241Y-92622637D01*
X130001442Y-92554019D01*
X130209910Y-92442591D01*
X130392634Y-92292634D01*
X130542591Y-92109910D01*
X130654019Y-91901442D01*
X130722637Y-91675241D01*
X130745806Y-91440000D01*
X130743344Y-91414998D01*
X130880000Y-91414998D01*
X130880000Y-91465002D01*
X130967758Y-91465002D01*
X130898941Y-91652373D01*
X130963067Y-91878705D01*
X131070116Y-92088178D01*
X131215974Y-92272742D01*
X131395036Y-92425304D01*
X131600421Y-92540002D01*
X131824236Y-92612427D01*
X131867627Y-92621058D01*
X132055000Y-92552219D01*
X132055000Y-91465000D01*
X132035000Y-91465000D01*
X132035000Y-91415000D01*
X132055000Y-91415000D01*
X132055000Y-90327781D01*
X132105000Y-90327781D01*
X132105000Y-91415000D01*
X132125000Y-91415000D01*
X132125000Y-91465000D01*
X132105000Y-91465000D01*
X132105000Y-92552219D01*
X132292373Y-92621058D01*
X132335764Y-92612427D01*
X132559579Y-92540002D01*
X132764964Y-92425304D01*
X132944026Y-92272742D01*
X133089884Y-92088178D01*
X133196933Y-91878705D01*
X133261059Y-91652373D01*
X133192242Y-91465002D01*
X133280000Y-91465002D01*
X133280000Y-91440000D01*
X133414194Y-91440000D01*
X133437363Y-91675241D01*
X133505981Y-91901442D01*
X133617409Y-92109910D01*
X133767366Y-92292634D01*
X133950090Y-92442591D01*
X134158558Y-92554019D01*
X134384759Y-92622637D01*
X134561050Y-92640000D01*
X134678950Y-92640000D01*
X134855241Y-92622637D01*
X135081442Y-92554019D01*
X135289910Y-92442591D01*
X135472634Y-92292634D01*
X135622591Y-92109910D01*
X135734019Y-91901442D01*
X135802637Y-91675241D01*
X135825806Y-91440000D01*
X135954194Y-91440000D01*
X135977363Y-91675241D01*
X136045981Y-91901442D01*
X136157409Y-92109910D01*
X136307366Y-92292634D01*
X136490090Y-92442591D01*
X136698558Y-92554019D01*
X136924759Y-92622637D01*
X137101050Y-92640000D01*
X137218950Y-92640000D01*
X137395241Y-92622637D01*
X137621442Y-92554019D01*
X137829910Y-92442591D01*
X138012634Y-92292634D01*
X138162591Y-92109910D01*
X138274019Y-91901442D01*
X138342637Y-91675241D01*
X138365806Y-91440000D01*
X138494194Y-91440000D01*
X138517363Y-91675241D01*
X138585981Y-91901442D01*
X138697409Y-92109910D01*
X138847366Y-92292634D01*
X139030090Y-92442591D01*
X139238558Y-92554019D01*
X139464759Y-92622637D01*
X139641050Y-92640000D01*
X139758950Y-92640000D01*
X139935241Y-92622637D01*
X140161442Y-92554019D01*
X140369910Y-92442591D01*
X140552634Y-92292634D01*
X140702591Y-92109910D01*
X140814019Y-91901442D01*
X140882637Y-91675241D01*
X140905806Y-91440000D01*
X141034194Y-91440000D01*
X141057363Y-91675241D01*
X141125981Y-91901442D01*
X141237409Y-92109910D01*
X141387366Y-92292634D01*
X141570090Y-92442591D01*
X141778558Y-92554019D01*
X142004759Y-92622637D01*
X142181050Y-92640000D01*
X142298950Y-92640000D01*
X142475241Y-92622637D01*
X142701442Y-92554019D01*
X142909910Y-92442591D01*
X143092634Y-92292634D01*
X143242591Y-92109910D01*
X143354019Y-91901442D01*
X143422637Y-91675241D01*
X143445806Y-91440000D01*
X143574194Y-91440000D01*
X143597363Y-91675241D01*
X143665981Y-91901442D01*
X143777409Y-92109910D01*
X143927366Y-92292634D01*
X144110090Y-92442591D01*
X144318558Y-92554019D01*
X144544759Y-92622637D01*
X144721050Y-92640000D01*
X144838950Y-92640000D01*
X145015241Y-92622637D01*
X145241442Y-92554019D01*
X145449910Y-92442591D01*
X145632634Y-92292634D01*
X145782591Y-92109910D01*
X145894019Y-91901442D01*
X145962637Y-91675241D01*
X145985806Y-91440000D01*
X146114194Y-91440000D01*
X146137363Y-91675241D01*
X146205981Y-91901442D01*
X146317409Y-92109910D01*
X146467366Y-92292634D01*
X146650090Y-92442591D01*
X146858558Y-92554019D01*
X147084759Y-92622637D01*
X147261050Y-92640000D01*
X147378950Y-92640000D01*
X147555241Y-92622637D01*
X147781442Y-92554019D01*
X147989910Y-92442591D01*
X148172634Y-92292634D01*
X148322591Y-92109910D01*
X148434019Y-91901442D01*
X148502637Y-91675241D01*
X148525806Y-91440000D01*
X148654194Y-91440000D01*
X148677363Y-91675241D01*
X148745981Y-91901442D01*
X148857409Y-92109910D01*
X149007366Y-92292634D01*
X149190090Y-92442591D01*
X149398558Y-92554019D01*
X149624759Y-92622637D01*
X149801050Y-92640000D01*
X149918950Y-92640000D01*
X150095241Y-92622637D01*
X150321442Y-92554019D01*
X150529910Y-92442591D01*
X150712634Y-92292634D01*
X150862591Y-92109910D01*
X150974019Y-91901442D01*
X151042637Y-91675241D01*
X151065806Y-91440000D01*
X151063344Y-91414998D01*
X151200000Y-91414998D01*
X151200000Y-91465002D01*
X151287758Y-91465002D01*
X151218941Y-91652373D01*
X151283067Y-91878705D01*
X151390116Y-92088178D01*
X151535974Y-92272742D01*
X151715036Y-92425304D01*
X151920421Y-92540002D01*
X152144236Y-92612427D01*
X152187627Y-92621058D01*
X152375000Y-92552219D01*
X152375000Y-91465000D01*
X152355000Y-91465000D01*
X152355000Y-91415000D01*
X152375000Y-91415000D01*
X152375000Y-90327781D01*
X152425000Y-90327781D01*
X152425000Y-91415000D01*
X152445000Y-91415000D01*
X152445000Y-91465000D01*
X152425000Y-91465000D01*
X152425000Y-92552219D01*
X152612373Y-92621058D01*
X152655764Y-92612427D01*
X152879579Y-92540002D01*
X153084964Y-92425304D01*
X153264026Y-92272742D01*
X153409884Y-92088178D01*
X153516933Y-91878705D01*
X153581059Y-91652373D01*
X153512242Y-91465002D01*
X153600000Y-91465002D01*
X153600000Y-91440000D01*
X153734194Y-91440000D01*
X153757363Y-91675241D01*
X153825981Y-91901442D01*
X153937409Y-92109910D01*
X154087366Y-92292634D01*
X154270090Y-92442591D01*
X154478558Y-92554019D01*
X154704759Y-92622637D01*
X154881050Y-92640000D01*
X154998950Y-92640000D01*
X155175241Y-92622637D01*
X155401442Y-92554019D01*
X155609910Y-92442591D01*
X155792634Y-92292634D01*
X155942591Y-92109910D01*
X156054019Y-91901442D01*
X156122637Y-91675241D01*
X156145806Y-91440000D01*
X156274194Y-91440000D01*
X156297363Y-91675241D01*
X156365981Y-91901442D01*
X156477409Y-92109910D01*
X156627366Y-92292634D01*
X156810090Y-92442591D01*
X157018558Y-92554019D01*
X157244759Y-92622637D01*
X157421050Y-92640000D01*
X157538950Y-92640000D01*
X157715241Y-92622637D01*
X157941442Y-92554019D01*
X158149910Y-92442591D01*
X158332634Y-92292634D01*
X158482591Y-92109910D01*
X158594019Y-91901442D01*
X158662637Y-91675241D01*
X158685806Y-91440000D01*
X158814194Y-91440000D01*
X158837363Y-91675241D01*
X158905981Y-91901442D01*
X159017409Y-92109910D01*
X159167366Y-92292634D01*
X159350090Y-92442591D01*
X159558558Y-92554019D01*
X159784759Y-92622637D01*
X159961050Y-92640000D01*
X160078950Y-92640000D01*
X160255241Y-92622637D01*
X160481442Y-92554019D01*
X160689910Y-92442591D01*
X160872634Y-92292634D01*
X161022591Y-92109910D01*
X161134019Y-91901442D01*
X161202637Y-91675241D01*
X161225806Y-91440000D01*
X161354194Y-91440000D01*
X161377363Y-91675241D01*
X161445981Y-91901442D01*
X161557409Y-92109910D01*
X161707366Y-92292634D01*
X161890090Y-92442591D01*
X162098558Y-92554019D01*
X162324759Y-92622637D01*
X162501050Y-92640000D01*
X162618950Y-92640000D01*
X162795241Y-92622637D01*
X163021442Y-92554019D01*
X163229910Y-92442591D01*
X163412634Y-92292634D01*
X163562591Y-92109910D01*
X163674019Y-91901442D01*
X163742637Y-91675241D01*
X163765806Y-91440000D01*
X163894194Y-91440000D01*
X163917363Y-91675241D01*
X163985981Y-91901442D01*
X164097409Y-92109910D01*
X164247366Y-92292634D01*
X164430090Y-92442591D01*
X164638558Y-92554019D01*
X164864759Y-92622637D01*
X165041050Y-92640000D01*
X165158950Y-92640000D01*
X165335241Y-92622637D01*
X165561442Y-92554019D01*
X165769910Y-92442591D01*
X165952634Y-92292634D01*
X166102591Y-92109910D01*
X166214019Y-91901442D01*
X166282637Y-91675241D01*
X166305806Y-91440000D01*
X166434194Y-91440000D01*
X166457363Y-91675241D01*
X166525981Y-91901442D01*
X166637409Y-92109910D01*
X166787366Y-92292634D01*
X166970090Y-92442591D01*
X167178558Y-92554019D01*
X167404759Y-92622637D01*
X167581050Y-92640000D01*
X167698950Y-92640000D01*
X167875241Y-92622637D01*
X168101442Y-92554019D01*
X168309910Y-92442591D01*
X168492634Y-92292634D01*
X168642591Y-92109910D01*
X168754019Y-91901442D01*
X168822637Y-91675241D01*
X168824889Y-91652373D01*
X168998941Y-91652373D01*
X169063067Y-91878705D01*
X169170116Y-92088178D01*
X169315974Y-92272742D01*
X169495036Y-92425304D01*
X169700421Y-92540002D01*
X169924236Y-92612427D01*
X169967627Y-92621058D01*
X170155000Y-92552219D01*
X170155000Y-91465000D01*
X170205000Y-91465000D01*
X170205000Y-92552219D01*
X170392373Y-92621058D01*
X170435764Y-92612427D01*
X170659579Y-92540002D01*
X170864964Y-92425304D01*
X171044026Y-92272742D01*
X171189884Y-92088178D01*
X171296933Y-91878705D01*
X171361059Y-91652373D01*
X171292241Y-91465000D01*
X170205000Y-91465000D01*
X170155000Y-91465000D01*
X169067759Y-91465000D01*
X168998941Y-91652373D01*
X168824889Y-91652373D01*
X168845806Y-91440000D01*
X168824890Y-91227627D01*
X168998941Y-91227627D01*
X169067759Y-91415000D01*
X170155000Y-91415000D01*
X170155000Y-90327781D01*
X170205000Y-90327781D01*
X170205000Y-91415000D01*
X171292241Y-91415000D01*
X171361059Y-91227627D01*
X171296933Y-91001295D01*
X171189884Y-90791822D01*
X171044026Y-90607258D01*
X170864964Y-90454696D01*
X170659579Y-90339998D01*
X170435764Y-90267573D01*
X170392373Y-90258942D01*
X170205000Y-90327781D01*
X170155000Y-90327781D01*
X169967627Y-90258942D01*
X169924236Y-90267573D01*
X169700421Y-90339998D01*
X169495036Y-90454696D01*
X169315974Y-90607258D01*
X169170116Y-90791822D01*
X169063067Y-91001295D01*
X168998941Y-91227627D01*
X168824890Y-91227627D01*
X168822637Y-91204759D01*
X168754019Y-90978558D01*
X168642591Y-90770090D01*
X168492634Y-90587366D01*
X168309910Y-90437409D01*
X168101442Y-90325981D01*
X167875241Y-90257363D01*
X167698950Y-90240000D01*
X167581050Y-90240000D01*
X167404759Y-90257363D01*
X167178558Y-90325981D01*
X166970090Y-90437409D01*
X166787366Y-90587366D01*
X166637409Y-90770090D01*
X166525981Y-90978558D01*
X166457363Y-91204759D01*
X166434194Y-91440000D01*
X166305806Y-91440000D01*
X166282637Y-91204759D01*
X166214019Y-90978558D01*
X166102591Y-90770090D01*
X165952634Y-90587366D01*
X165769910Y-90437409D01*
X165561442Y-90325981D01*
X165335241Y-90257363D01*
X165158950Y-90240000D01*
X165041050Y-90240000D01*
X164864759Y-90257363D01*
X164638558Y-90325981D01*
X164430090Y-90437409D01*
X164247366Y-90587366D01*
X164097409Y-90770090D01*
X163985981Y-90978558D01*
X163917363Y-91204759D01*
X163894194Y-91440000D01*
X163765806Y-91440000D01*
X163742637Y-91204759D01*
X163674019Y-90978558D01*
X163562591Y-90770090D01*
X163412634Y-90587366D01*
X163229910Y-90437409D01*
X163021442Y-90325981D01*
X162795241Y-90257363D01*
X162618950Y-90240000D01*
X162501050Y-90240000D01*
X162324759Y-90257363D01*
X162098558Y-90325981D01*
X161890090Y-90437409D01*
X161707366Y-90587366D01*
X161557409Y-90770090D01*
X161445981Y-90978558D01*
X161377363Y-91204759D01*
X161354194Y-91440000D01*
X161225806Y-91440000D01*
X161202637Y-91204759D01*
X161134019Y-90978558D01*
X161022591Y-90770090D01*
X160872634Y-90587366D01*
X160689910Y-90437409D01*
X160481442Y-90325981D01*
X160255241Y-90257363D01*
X160078950Y-90240000D01*
X159961050Y-90240000D01*
X159784759Y-90257363D01*
X159558558Y-90325981D01*
X159350090Y-90437409D01*
X159167366Y-90587366D01*
X159017409Y-90770090D01*
X158905981Y-90978558D01*
X158837363Y-91204759D01*
X158814194Y-91440000D01*
X158685806Y-91440000D01*
X158662637Y-91204759D01*
X158594019Y-90978558D01*
X158482591Y-90770090D01*
X158332634Y-90587366D01*
X158149910Y-90437409D01*
X157941442Y-90325981D01*
X157715241Y-90257363D01*
X157538950Y-90240000D01*
X157421050Y-90240000D01*
X157244759Y-90257363D01*
X157018558Y-90325981D01*
X156810090Y-90437409D01*
X156627366Y-90587366D01*
X156477409Y-90770090D01*
X156365981Y-90978558D01*
X156297363Y-91204759D01*
X156274194Y-91440000D01*
X156145806Y-91440000D01*
X156122637Y-91204759D01*
X156054019Y-90978558D01*
X155942591Y-90770090D01*
X155792634Y-90587366D01*
X155609910Y-90437409D01*
X155401442Y-90325981D01*
X155175241Y-90257363D01*
X154998950Y-90240000D01*
X154881050Y-90240000D01*
X154704759Y-90257363D01*
X154478558Y-90325981D01*
X154270090Y-90437409D01*
X154087366Y-90587366D01*
X153937409Y-90770090D01*
X153825981Y-90978558D01*
X153757363Y-91204759D01*
X153734194Y-91440000D01*
X153600000Y-91440000D01*
X153600000Y-91414998D01*
X153512242Y-91414998D01*
X153581059Y-91227627D01*
X153516933Y-91001295D01*
X153409884Y-90791822D01*
X153264026Y-90607258D01*
X153084964Y-90454696D01*
X152879579Y-90339998D01*
X152655764Y-90267573D01*
X152612373Y-90258942D01*
X152425000Y-90327781D01*
X152375000Y-90327781D01*
X152187627Y-90258942D01*
X152144236Y-90267573D01*
X151920421Y-90339998D01*
X151715036Y-90454696D01*
X151535974Y-90607258D01*
X151390116Y-90791822D01*
X151283067Y-91001295D01*
X151218941Y-91227627D01*
X151287758Y-91414998D01*
X151200000Y-91414998D01*
X151063344Y-91414998D01*
X151042637Y-91204759D01*
X150974019Y-90978558D01*
X150862591Y-90770090D01*
X150712634Y-90587366D01*
X150529910Y-90437409D01*
X150321442Y-90325981D01*
X150095241Y-90257363D01*
X149918950Y-90240000D01*
X149801050Y-90240000D01*
X149624759Y-90257363D01*
X149398558Y-90325981D01*
X149190090Y-90437409D01*
X149007366Y-90587366D01*
X148857409Y-90770090D01*
X148745981Y-90978558D01*
X148677363Y-91204759D01*
X148654194Y-91440000D01*
X148525806Y-91440000D01*
X148502637Y-91204759D01*
X148434019Y-90978558D01*
X148322591Y-90770090D01*
X148172634Y-90587366D01*
X147989910Y-90437409D01*
X147781442Y-90325981D01*
X147555241Y-90257363D01*
X147378950Y-90240000D01*
X147261050Y-90240000D01*
X147084759Y-90257363D01*
X146858558Y-90325981D01*
X146650090Y-90437409D01*
X146467366Y-90587366D01*
X146317409Y-90770090D01*
X146205981Y-90978558D01*
X146137363Y-91204759D01*
X146114194Y-91440000D01*
X145985806Y-91440000D01*
X145962637Y-91204759D01*
X145894019Y-90978558D01*
X145782591Y-90770090D01*
X145632634Y-90587366D01*
X145449910Y-90437409D01*
X145241442Y-90325981D01*
X145015241Y-90257363D01*
X144838950Y-90240000D01*
X144721050Y-90240000D01*
X144544759Y-90257363D01*
X144318558Y-90325981D01*
X144110090Y-90437409D01*
X143927366Y-90587366D01*
X143777409Y-90770090D01*
X143665981Y-90978558D01*
X143597363Y-91204759D01*
X143574194Y-91440000D01*
X143445806Y-91440000D01*
X143422637Y-91204759D01*
X143354019Y-90978558D01*
X143242591Y-90770090D01*
X143092634Y-90587366D01*
X142909910Y-90437409D01*
X142701442Y-90325981D01*
X142475241Y-90257363D01*
X142298950Y-90240000D01*
X142181050Y-90240000D01*
X142004759Y-90257363D01*
X141778558Y-90325981D01*
X141570090Y-90437409D01*
X141387366Y-90587366D01*
X141237409Y-90770090D01*
X141125981Y-90978558D01*
X141057363Y-91204759D01*
X141034194Y-91440000D01*
X140905806Y-91440000D01*
X140882637Y-91204759D01*
X140814019Y-90978558D01*
X140702591Y-90770090D01*
X140552634Y-90587366D01*
X140369910Y-90437409D01*
X140161442Y-90325981D01*
X139935241Y-90257363D01*
X139758950Y-90240000D01*
X139641050Y-90240000D01*
X139464759Y-90257363D01*
X139238558Y-90325981D01*
X139030090Y-90437409D01*
X138847366Y-90587366D01*
X138697409Y-90770090D01*
X138585981Y-90978558D01*
X138517363Y-91204759D01*
X138494194Y-91440000D01*
X138365806Y-91440000D01*
X138342637Y-91204759D01*
X138274019Y-90978558D01*
X138162591Y-90770090D01*
X138012634Y-90587366D01*
X137829910Y-90437409D01*
X137621442Y-90325981D01*
X137395241Y-90257363D01*
X137218950Y-90240000D01*
X137101050Y-90240000D01*
X136924759Y-90257363D01*
X136698558Y-90325981D01*
X136490090Y-90437409D01*
X136307366Y-90587366D01*
X136157409Y-90770090D01*
X136045981Y-90978558D01*
X135977363Y-91204759D01*
X135954194Y-91440000D01*
X135825806Y-91440000D01*
X135802637Y-91204759D01*
X135734019Y-90978558D01*
X135622591Y-90770090D01*
X135472634Y-90587366D01*
X135289910Y-90437409D01*
X135081442Y-90325981D01*
X134855241Y-90257363D01*
X134678950Y-90240000D01*
X134561050Y-90240000D01*
X134384759Y-90257363D01*
X134158558Y-90325981D01*
X133950090Y-90437409D01*
X133767366Y-90587366D01*
X133617409Y-90770090D01*
X133505981Y-90978558D01*
X133437363Y-91204759D01*
X133414194Y-91440000D01*
X133280000Y-91440000D01*
X133280000Y-91414998D01*
X133192242Y-91414998D01*
X133261059Y-91227627D01*
X133196933Y-91001295D01*
X133089884Y-90791822D01*
X132944026Y-90607258D01*
X132764964Y-90454696D01*
X132559579Y-90339998D01*
X132335764Y-90267573D01*
X132292373Y-90258942D01*
X132105000Y-90327781D01*
X132055000Y-90327781D01*
X131867627Y-90258942D01*
X131824236Y-90267573D01*
X131600421Y-90339998D01*
X131395036Y-90454696D01*
X131215974Y-90607258D01*
X131070116Y-90791822D01*
X130963067Y-91001295D01*
X130898941Y-91227627D01*
X130967758Y-91414998D01*
X130880000Y-91414998D01*
X130743344Y-91414998D01*
X130722637Y-91204759D01*
X130654019Y-90978558D01*
X130542591Y-90770090D01*
X130392634Y-90587366D01*
X130209910Y-90437409D01*
X130001442Y-90325981D01*
X129775241Y-90257363D01*
X129598950Y-90240000D01*
X129481050Y-90240000D01*
X129304759Y-90257363D01*
X129078558Y-90325981D01*
X128870090Y-90437409D01*
X128687366Y-90587366D01*
X128537409Y-90770090D01*
X128425981Y-90978558D01*
X128357363Y-91204759D01*
X128334194Y-91440000D01*
X128205806Y-91440000D01*
X128182637Y-91204759D01*
X128114019Y-90978558D01*
X128002591Y-90770090D01*
X127852634Y-90587366D01*
X127669910Y-90437409D01*
X127461442Y-90325981D01*
X127235241Y-90257363D01*
X127058950Y-90240000D01*
X126941050Y-90240000D01*
X126764759Y-90257363D01*
X126538558Y-90325981D01*
X126330090Y-90437409D01*
X126147366Y-90587366D01*
X125997409Y-90770090D01*
X125885981Y-90978558D01*
X125817363Y-91204759D01*
X125794194Y-91440000D01*
X125665806Y-91440000D01*
X125642637Y-91204759D01*
X125574019Y-90978558D01*
X125462591Y-90770090D01*
X125312634Y-90587366D01*
X125129910Y-90437409D01*
X124921442Y-90325981D01*
X124695241Y-90257363D01*
X124518950Y-90240000D01*
X124401050Y-90240000D01*
X124224759Y-90257363D01*
X123998558Y-90325981D01*
X123790090Y-90437409D01*
X123607366Y-90587366D01*
X123457409Y-90770090D01*
X123345981Y-90978558D01*
X123277363Y-91204759D01*
X123254194Y-91440000D01*
X123121693Y-91440000D01*
X123121693Y-90590000D01*
X123114935Y-90521388D01*
X123094922Y-90455413D01*
X123062422Y-90394610D01*
X123018685Y-90341315D01*
X122965390Y-90297578D01*
X122904587Y-90265078D01*
X122838612Y-90245065D01*
X122770000Y-90238307D01*
X121070000Y-90238307D01*
X121001388Y-90245065D01*
X120935413Y-90265078D01*
X120874610Y-90297578D01*
X120821315Y-90341315D01*
X120777578Y-90394610D01*
X120745078Y-90455413D01*
X120725065Y-90521388D01*
X120718307Y-90590000D01*
X120484046Y-90590000D01*
X120500000Y-90509795D01*
X120500000Y-89830205D01*
X120367418Y-89163672D01*
X120258202Y-88900000D01*
X120714194Y-88900000D01*
X120737363Y-89135241D01*
X120805981Y-89361442D01*
X120917409Y-89569910D01*
X121067366Y-89752634D01*
X121250090Y-89902591D01*
X121458558Y-90014019D01*
X121684759Y-90082637D01*
X121861050Y-90100000D01*
X121978950Y-90100000D01*
X122155241Y-90082637D01*
X122381442Y-90014019D01*
X122589910Y-89902591D01*
X122772634Y-89752634D01*
X122922591Y-89569910D01*
X123034019Y-89361442D01*
X123102637Y-89135241D01*
X123125806Y-88900000D01*
X123254194Y-88900000D01*
X123277363Y-89135241D01*
X123345981Y-89361442D01*
X123457409Y-89569910D01*
X123607366Y-89752634D01*
X123790090Y-89902591D01*
X123998558Y-90014019D01*
X124224759Y-90082637D01*
X124401050Y-90100000D01*
X124518950Y-90100000D01*
X124695241Y-90082637D01*
X124921442Y-90014019D01*
X125129910Y-89902591D01*
X125312634Y-89752634D01*
X125462591Y-89569910D01*
X125574019Y-89361442D01*
X125642637Y-89135241D01*
X125665806Y-88900000D01*
X125663344Y-88874998D01*
X125800000Y-88874998D01*
X125800000Y-88925002D01*
X125887758Y-88925002D01*
X125818941Y-89112373D01*
X125883067Y-89338705D01*
X125990116Y-89548178D01*
X126135974Y-89732742D01*
X126315036Y-89885304D01*
X126520421Y-90000002D01*
X126744236Y-90072427D01*
X126787627Y-90081058D01*
X126975000Y-90012219D01*
X126975000Y-88925000D01*
X126955000Y-88925000D01*
X126955000Y-88875000D01*
X126975000Y-88875000D01*
X126975000Y-87787781D01*
X127025000Y-87787781D01*
X127025000Y-88875000D01*
X127045000Y-88875000D01*
X127045000Y-88925000D01*
X127025000Y-88925000D01*
X127025000Y-90012219D01*
X127212373Y-90081058D01*
X127255764Y-90072427D01*
X127479579Y-90000002D01*
X127684964Y-89885304D01*
X127864026Y-89732742D01*
X128009884Y-89548178D01*
X128116933Y-89338705D01*
X128181059Y-89112373D01*
X128112242Y-88925002D01*
X128200000Y-88925002D01*
X128200000Y-88900000D01*
X128334194Y-88900000D01*
X128357363Y-89135241D01*
X128425981Y-89361442D01*
X128537409Y-89569910D01*
X128687366Y-89752634D01*
X128870090Y-89902591D01*
X129078558Y-90014019D01*
X129304759Y-90082637D01*
X129481050Y-90100000D01*
X129598950Y-90100000D01*
X129775241Y-90082637D01*
X130001442Y-90014019D01*
X130209910Y-89902591D01*
X130392634Y-89752634D01*
X130542591Y-89569910D01*
X130654019Y-89361442D01*
X130722637Y-89135241D01*
X130745806Y-88900000D01*
X130874194Y-88900000D01*
X130897363Y-89135241D01*
X130965981Y-89361442D01*
X131077409Y-89569910D01*
X131227366Y-89752634D01*
X131410090Y-89902591D01*
X131618558Y-90014019D01*
X131844759Y-90082637D01*
X132021050Y-90100000D01*
X132138950Y-90100000D01*
X132315241Y-90082637D01*
X132541442Y-90014019D01*
X132749910Y-89902591D01*
X132932634Y-89752634D01*
X133082591Y-89569910D01*
X133194019Y-89361442D01*
X133262637Y-89135241D01*
X133285806Y-88900000D01*
X133414194Y-88900000D01*
X133437363Y-89135241D01*
X133505981Y-89361442D01*
X133617409Y-89569910D01*
X133767366Y-89752634D01*
X133950090Y-89902591D01*
X134158558Y-90014019D01*
X134384759Y-90082637D01*
X134561050Y-90100000D01*
X134678950Y-90100000D01*
X134855241Y-90082637D01*
X135081442Y-90014019D01*
X135289910Y-89902591D01*
X135472634Y-89752634D01*
X135622591Y-89569910D01*
X135734019Y-89361442D01*
X135802637Y-89135241D01*
X135825806Y-88900000D01*
X135823344Y-88874998D01*
X135960000Y-88874998D01*
X135960000Y-88925002D01*
X136047758Y-88925002D01*
X135978941Y-89112373D01*
X136043067Y-89338705D01*
X136150116Y-89548178D01*
X136295974Y-89732742D01*
X136475036Y-89885304D01*
X136680421Y-90000002D01*
X136904236Y-90072427D01*
X136947627Y-90081058D01*
X137135000Y-90012219D01*
X137135000Y-88925000D01*
X137115000Y-88925000D01*
X137115000Y-88875000D01*
X137135000Y-88875000D01*
X137135000Y-87787781D01*
X137185000Y-87787781D01*
X137185000Y-88875000D01*
X137205000Y-88875000D01*
X137205000Y-88925000D01*
X137185000Y-88925000D01*
X137185000Y-90012219D01*
X137372373Y-90081058D01*
X137415764Y-90072427D01*
X137639579Y-90000002D01*
X137844964Y-89885304D01*
X138024026Y-89732742D01*
X138169884Y-89548178D01*
X138276933Y-89338705D01*
X138341059Y-89112373D01*
X138272242Y-88925002D01*
X138360000Y-88925002D01*
X138360000Y-88900000D01*
X138494194Y-88900000D01*
X138517363Y-89135241D01*
X138585981Y-89361442D01*
X138697409Y-89569910D01*
X138847366Y-89752634D01*
X139030090Y-89902591D01*
X139238558Y-90014019D01*
X139464759Y-90082637D01*
X139641050Y-90100000D01*
X139758950Y-90100000D01*
X139935241Y-90082637D01*
X140161442Y-90014019D01*
X140369910Y-89902591D01*
X140552634Y-89752634D01*
X140702591Y-89569910D01*
X140814019Y-89361442D01*
X140882637Y-89135241D01*
X140905806Y-88900000D01*
X141034194Y-88900000D01*
X141057363Y-89135241D01*
X141125981Y-89361442D01*
X141237409Y-89569910D01*
X141387366Y-89752634D01*
X141570090Y-89902591D01*
X141778558Y-90014019D01*
X142004759Y-90082637D01*
X142181050Y-90100000D01*
X142298950Y-90100000D01*
X142475241Y-90082637D01*
X142701442Y-90014019D01*
X142909910Y-89902591D01*
X143092634Y-89752634D01*
X143242591Y-89569910D01*
X143354019Y-89361442D01*
X143422637Y-89135241D01*
X143445806Y-88900000D01*
X143443344Y-88874998D01*
X143580000Y-88874998D01*
X143580000Y-88925002D01*
X143667758Y-88925002D01*
X143598941Y-89112373D01*
X143663067Y-89338705D01*
X143770116Y-89548178D01*
X143915974Y-89732742D01*
X144095036Y-89885304D01*
X144300421Y-90000002D01*
X144524236Y-90072427D01*
X144567627Y-90081058D01*
X144755000Y-90012219D01*
X144755000Y-88925000D01*
X144735000Y-88925000D01*
X144735000Y-88875000D01*
X144755000Y-88875000D01*
X144755000Y-87787781D01*
X144805000Y-87787781D01*
X144805000Y-88875000D01*
X144825000Y-88875000D01*
X144825000Y-88925000D01*
X144805000Y-88925000D01*
X144805000Y-90012219D01*
X144992373Y-90081058D01*
X145035764Y-90072427D01*
X145259579Y-90000002D01*
X145464964Y-89885304D01*
X145644026Y-89732742D01*
X145789884Y-89548178D01*
X145896933Y-89338705D01*
X145961059Y-89112373D01*
X145892242Y-88925002D01*
X145980000Y-88925002D01*
X145980000Y-88900000D01*
X146114194Y-88900000D01*
X146137363Y-89135241D01*
X146205981Y-89361442D01*
X146317409Y-89569910D01*
X146467366Y-89752634D01*
X146650090Y-89902591D01*
X146858558Y-90014019D01*
X147084759Y-90082637D01*
X147261050Y-90100000D01*
X147378950Y-90100000D01*
X147555241Y-90082637D01*
X147781442Y-90014019D01*
X147989910Y-89902591D01*
X148172634Y-89752634D01*
X148322591Y-89569910D01*
X148434019Y-89361442D01*
X148502637Y-89135241D01*
X148525806Y-88900000D01*
X148654194Y-88900000D01*
X148677363Y-89135241D01*
X148745981Y-89361442D01*
X148857409Y-89569910D01*
X149007366Y-89752634D01*
X149190090Y-89902591D01*
X149398558Y-90014019D01*
X149624759Y-90082637D01*
X149801050Y-90100000D01*
X149918950Y-90100000D01*
X150095241Y-90082637D01*
X150321442Y-90014019D01*
X150529910Y-89902591D01*
X150712634Y-89752634D01*
X150862591Y-89569910D01*
X150974019Y-89361442D01*
X151042637Y-89135241D01*
X151065806Y-88900000D01*
X151194194Y-88900000D01*
X151217363Y-89135241D01*
X151285981Y-89361442D01*
X151397409Y-89569910D01*
X151547366Y-89752634D01*
X151730090Y-89902591D01*
X151938558Y-90014019D01*
X152164759Y-90082637D01*
X152341050Y-90100000D01*
X152458950Y-90100000D01*
X152635241Y-90082637D01*
X152861442Y-90014019D01*
X153069910Y-89902591D01*
X153252634Y-89752634D01*
X153402591Y-89569910D01*
X153514019Y-89361442D01*
X153582637Y-89135241D01*
X153605806Y-88900000D01*
X153734194Y-88900000D01*
X153757363Y-89135241D01*
X153825981Y-89361442D01*
X153937409Y-89569910D01*
X154087366Y-89752634D01*
X154270090Y-89902591D01*
X154478558Y-90014019D01*
X154704759Y-90082637D01*
X154881050Y-90100000D01*
X154998950Y-90100000D01*
X155175241Y-90082637D01*
X155401442Y-90014019D01*
X155609910Y-89902591D01*
X155792634Y-89752634D01*
X155942591Y-89569910D01*
X156054019Y-89361442D01*
X156122637Y-89135241D01*
X156145806Y-88900000D01*
X156143344Y-88874998D01*
X156280000Y-88874998D01*
X156280000Y-88925002D01*
X156367758Y-88925002D01*
X156298941Y-89112373D01*
X156363067Y-89338705D01*
X156470116Y-89548178D01*
X156615974Y-89732742D01*
X156795036Y-89885304D01*
X157000421Y-90000002D01*
X157224236Y-90072427D01*
X157267627Y-90081058D01*
X157455000Y-90012219D01*
X157455000Y-88925000D01*
X157435000Y-88925000D01*
X157435000Y-88875000D01*
X157455000Y-88875000D01*
X157455000Y-87787781D01*
X157505000Y-87787781D01*
X157505000Y-88875000D01*
X157525000Y-88875000D01*
X157525000Y-88925000D01*
X157505000Y-88925000D01*
X157505000Y-90012219D01*
X157692373Y-90081058D01*
X157735764Y-90072427D01*
X157959579Y-90000002D01*
X158164964Y-89885304D01*
X158344026Y-89732742D01*
X158489884Y-89548178D01*
X158596933Y-89338705D01*
X158661059Y-89112373D01*
X158592242Y-88925002D01*
X158680000Y-88925002D01*
X158680000Y-88900000D01*
X158814194Y-88900000D01*
X158837363Y-89135241D01*
X158905981Y-89361442D01*
X159017409Y-89569910D01*
X159167366Y-89752634D01*
X159350090Y-89902591D01*
X159558558Y-90014019D01*
X159784759Y-90082637D01*
X159961050Y-90100000D01*
X160078950Y-90100000D01*
X160255241Y-90082637D01*
X160481442Y-90014019D01*
X160689910Y-89902591D01*
X160872634Y-89752634D01*
X161022591Y-89569910D01*
X161134019Y-89361442D01*
X161202637Y-89135241D01*
X161225806Y-88900000D01*
X161223344Y-88874998D01*
X161360000Y-88874998D01*
X161360000Y-88925002D01*
X161447758Y-88925002D01*
X161378941Y-89112373D01*
X161443067Y-89338705D01*
X161550116Y-89548178D01*
X161695974Y-89732742D01*
X161875036Y-89885304D01*
X162080421Y-90000002D01*
X162304236Y-90072427D01*
X162347627Y-90081058D01*
X162535000Y-90012219D01*
X162535000Y-88925000D01*
X162515000Y-88925000D01*
X162515000Y-88875000D01*
X162535000Y-88875000D01*
X162535000Y-87787781D01*
X162585000Y-87787781D01*
X162585000Y-88875000D01*
X162605000Y-88875000D01*
X162605000Y-88925000D01*
X162585000Y-88925000D01*
X162585000Y-90012219D01*
X162772373Y-90081058D01*
X162815764Y-90072427D01*
X163039579Y-90000002D01*
X163244964Y-89885304D01*
X163424026Y-89732742D01*
X163569884Y-89548178D01*
X163676933Y-89338705D01*
X163741059Y-89112373D01*
X163672242Y-88925002D01*
X163760000Y-88925002D01*
X163760000Y-88900000D01*
X163894194Y-88900000D01*
X163917363Y-89135241D01*
X163985981Y-89361442D01*
X164097409Y-89569910D01*
X164247366Y-89752634D01*
X164430090Y-89902591D01*
X164638558Y-90014019D01*
X164864759Y-90082637D01*
X165041050Y-90100000D01*
X165158950Y-90100000D01*
X165335241Y-90082637D01*
X165561442Y-90014019D01*
X165769910Y-89902591D01*
X165952634Y-89752634D01*
X166102591Y-89569910D01*
X166214019Y-89361442D01*
X166282637Y-89135241D01*
X166305806Y-88900000D01*
X166434194Y-88900000D01*
X166457363Y-89135241D01*
X166525981Y-89361442D01*
X166637409Y-89569910D01*
X166787366Y-89752634D01*
X166970090Y-89902591D01*
X167178558Y-90014019D01*
X167404759Y-90082637D01*
X167581050Y-90100000D01*
X167698950Y-90100000D01*
X167875241Y-90082637D01*
X168101442Y-90014019D01*
X168309910Y-89902591D01*
X168492634Y-89752634D01*
X168642591Y-89569910D01*
X168754019Y-89361442D01*
X168822637Y-89135241D01*
X168845806Y-88900000D01*
X168974194Y-88900000D01*
X168997363Y-89135241D01*
X169065981Y-89361442D01*
X169177409Y-89569910D01*
X169327366Y-89752634D01*
X169510090Y-89902591D01*
X169718558Y-90014019D01*
X169944759Y-90082637D01*
X170121050Y-90100000D01*
X170238950Y-90100000D01*
X170415241Y-90082637D01*
X170641442Y-90014019D01*
X170849910Y-89902591D01*
X171032634Y-89752634D01*
X171182591Y-89569910D01*
X171294019Y-89361442D01*
X171362637Y-89135241D01*
X171385806Y-88900000D01*
X171362637Y-88664759D01*
X171294019Y-88438558D01*
X171182591Y-88230090D01*
X171032634Y-88047366D01*
X170849910Y-87897409D01*
X170641442Y-87785981D01*
X170415241Y-87717363D01*
X170238950Y-87700000D01*
X170121050Y-87700000D01*
X169944759Y-87717363D01*
X169718558Y-87785981D01*
X169510090Y-87897409D01*
X169327366Y-88047366D01*
X169177409Y-88230090D01*
X169065981Y-88438558D01*
X168997363Y-88664759D01*
X168974194Y-88900000D01*
X168845806Y-88900000D01*
X168822637Y-88664759D01*
X168754019Y-88438558D01*
X168642591Y-88230090D01*
X168492634Y-88047366D01*
X168309910Y-87897409D01*
X168101442Y-87785981D01*
X167875241Y-87717363D01*
X167698950Y-87700000D01*
X167581050Y-87700000D01*
X167404759Y-87717363D01*
X167178558Y-87785981D01*
X166970090Y-87897409D01*
X166787366Y-88047366D01*
X166637409Y-88230090D01*
X166525981Y-88438558D01*
X166457363Y-88664759D01*
X166434194Y-88900000D01*
X166305806Y-88900000D01*
X166282637Y-88664759D01*
X166214019Y-88438558D01*
X166102591Y-88230090D01*
X165952634Y-88047366D01*
X165769910Y-87897409D01*
X165561442Y-87785981D01*
X165335241Y-87717363D01*
X165158950Y-87700000D01*
X165041050Y-87700000D01*
X164864759Y-87717363D01*
X164638558Y-87785981D01*
X164430090Y-87897409D01*
X164247366Y-88047366D01*
X164097409Y-88230090D01*
X163985981Y-88438558D01*
X163917363Y-88664759D01*
X163894194Y-88900000D01*
X163760000Y-88900000D01*
X163760000Y-88874998D01*
X163672242Y-88874998D01*
X163741059Y-88687627D01*
X163676933Y-88461295D01*
X163569884Y-88251822D01*
X163424026Y-88067258D01*
X163244964Y-87914696D01*
X163039579Y-87799998D01*
X162815764Y-87727573D01*
X162772373Y-87718942D01*
X162585000Y-87787781D01*
X162535000Y-87787781D01*
X162347627Y-87718942D01*
X162304236Y-87727573D01*
X162080421Y-87799998D01*
X161875036Y-87914696D01*
X161695974Y-88067258D01*
X161550116Y-88251822D01*
X161443067Y-88461295D01*
X161378941Y-88687627D01*
X161447758Y-88874998D01*
X161360000Y-88874998D01*
X161223344Y-88874998D01*
X161202637Y-88664759D01*
X161134019Y-88438558D01*
X161022591Y-88230090D01*
X160872634Y-88047366D01*
X160689910Y-87897409D01*
X160481442Y-87785981D01*
X160255241Y-87717363D01*
X160078950Y-87700000D01*
X159961050Y-87700000D01*
X159784759Y-87717363D01*
X159558558Y-87785981D01*
X159350090Y-87897409D01*
X159167366Y-88047366D01*
X159017409Y-88230090D01*
X158905981Y-88438558D01*
X158837363Y-88664759D01*
X158814194Y-88900000D01*
X158680000Y-88900000D01*
X158680000Y-88874998D01*
X158592242Y-88874998D01*
X158661059Y-88687627D01*
X158596933Y-88461295D01*
X158489884Y-88251822D01*
X158344026Y-88067258D01*
X158164964Y-87914696D01*
X157959579Y-87799998D01*
X157735764Y-87727573D01*
X157692373Y-87718942D01*
X157505000Y-87787781D01*
X157455000Y-87787781D01*
X157267627Y-87718942D01*
X157224236Y-87727573D01*
X157000421Y-87799998D01*
X156795036Y-87914696D01*
X156615974Y-88067258D01*
X156470116Y-88251822D01*
X156363067Y-88461295D01*
X156298941Y-88687627D01*
X156367758Y-88874998D01*
X156280000Y-88874998D01*
X156143344Y-88874998D01*
X156122637Y-88664759D01*
X156054019Y-88438558D01*
X155942591Y-88230090D01*
X155792634Y-88047366D01*
X155609910Y-87897409D01*
X155401442Y-87785981D01*
X155175241Y-87717363D01*
X154998950Y-87700000D01*
X154881050Y-87700000D01*
X154704759Y-87717363D01*
X154478558Y-87785981D01*
X154270090Y-87897409D01*
X154087366Y-88047366D01*
X153937409Y-88230090D01*
X153825981Y-88438558D01*
X153757363Y-88664759D01*
X153734194Y-88900000D01*
X153605806Y-88900000D01*
X153582637Y-88664759D01*
X153514019Y-88438558D01*
X153402591Y-88230090D01*
X153252634Y-88047366D01*
X153069910Y-87897409D01*
X152861442Y-87785981D01*
X152635241Y-87717363D01*
X152458950Y-87700000D01*
X152341050Y-87700000D01*
X152164759Y-87717363D01*
X151938558Y-87785981D01*
X151730090Y-87897409D01*
X151547366Y-88047366D01*
X151397409Y-88230090D01*
X151285981Y-88438558D01*
X151217363Y-88664759D01*
X151194194Y-88900000D01*
X151065806Y-88900000D01*
X151042637Y-88664759D01*
X150974019Y-88438558D01*
X150862591Y-88230090D01*
X150712634Y-88047366D01*
X150529910Y-87897409D01*
X150321442Y-87785981D01*
X150095241Y-87717363D01*
X149918950Y-87700000D01*
X149801050Y-87700000D01*
X149624759Y-87717363D01*
X149398558Y-87785981D01*
X149190090Y-87897409D01*
X149007366Y-88047366D01*
X148857409Y-88230090D01*
X148745981Y-88438558D01*
X148677363Y-88664759D01*
X148654194Y-88900000D01*
X148525806Y-88900000D01*
X148502637Y-88664759D01*
X148434019Y-88438558D01*
X148322591Y-88230090D01*
X148172634Y-88047366D01*
X147989910Y-87897409D01*
X147781442Y-87785981D01*
X147555241Y-87717363D01*
X147378950Y-87700000D01*
X147261050Y-87700000D01*
X147084759Y-87717363D01*
X146858558Y-87785981D01*
X146650090Y-87897409D01*
X146467366Y-88047366D01*
X146317409Y-88230090D01*
X146205981Y-88438558D01*
X146137363Y-88664759D01*
X146114194Y-88900000D01*
X145980000Y-88900000D01*
X145980000Y-88874998D01*
X145892242Y-88874998D01*
X145961059Y-88687627D01*
X145896933Y-88461295D01*
X145789884Y-88251822D01*
X145644026Y-88067258D01*
X145464964Y-87914696D01*
X145259579Y-87799998D01*
X145035764Y-87727573D01*
X144992373Y-87718942D01*
X144805000Y-87787781D01*
X144755000Y-87787781D01*
X144567627Y-87718942D01*
X144524236Y-87727573D01*
X144300421Y-87799998D01*
X144095036Y-87914696D01*
X143915974Y-88067258D01*
X143770116Y-88251822D01*
X143663067Y-88461295D01*
X143598941Y-88687627D01*
X143667758Y-88874998D01*
X143580000Y-88874998D01*
X143443344Y-88874998D01*
X143422637Y-88664759D01*
X143354019Y-88438558D01*
X143242591Y-88230090D01*
X143092634Y-88047366D01*
X142909910Y-87897409D01*
X142701442Y-87785981D01*
X142475241Y-87717363D01*
X142298950Y-87700000D01*
X142181050Y-87700000D01*
X142004759Y-87717363D01*
X141778558Y-87785981D01*
X141570090Y-87897409D01*
X141387366Y-88047366D01*
X141237409Y-88230090D01*
X141125981Y-88438558D01*
X141057363Y-88664759D01*
X141034194Y-88900000D01*
X140905806Y-88900000D01*
X140882637Y-88664759D01*
X140814019Y-88438558D01*
X140702591Y-88230090D01*
X140552634Y-88047366D01*
X140369910Y-87897409D01*
X140161442Y-87785981D01*
X139935241Y-87717363D01*
X139758950Y-87700000D01*
X139641050Y-87700000D01*
X139464759Y-87717363D01*
X139238558Y-87785981D01*
X139030090Y-87897409D01*
X138847366Y-88047366D01*
X138697409Y-88230090D01*
X138585981Y-88438558D01*
X138517363Y-88664759D01*
X138494194Y-88900000D01*
X138360000Y-88900000D01*
X138360000Y-88874998D01*
X138272242Y-88874998D01*
X138341059Y-88687627D01*
X138276933Y-88461295D01*
X138169884Y-88251822D01*
X138024026Y-88067258D01*
X137844964Y-87914696D01*
X137639579Y-87799998D01*
X137415764Y-87727573D01*
X137372373Y-87718942D01*
X137185000Y-87787781D01*
X137135000Y-87787781D01*
X136947627Y-87718942D01*
X136904236Y-87727573D01*
X136680421Y-87799998D01*
X136475036Y-87914696D01*
X136295974Y-88067258D01*
X136150116Y-88251822D01*
X136043067Y-88461295D01*
X135978941Y-88687627D01*
X136047758Y-88874998D01*
X135960000Y-88874998D01*
X135823344Y-88874998D01*
X135802637Y-88664759D01*
X135734019Y-88438558D01*
X135622591Y-88230090D01*
X135472634Y-88047366D01*
X135289910Y-87897409D01*
X135081442Y-87785981D01*
X134855241Y-87717363D01*
X134678950Y-87700000D01*
X134561050Y-87700000D01*
X134384759Y-87717363D01*
X134158558Y-87785981D01*
X133950090Y-87897409D01*
X133767366Y-88047366D01*
X133617409Y-88230090D01*
X133505981Y-88438558D01*
X133437363Y-88664759D01*
X133414194Y-88900000D01*
X133285806Y-88900000D01*
X133262637Y-88664759D01*
X133194019Y-88438558D01*
X133082591Y-88230090D01*
X132932634Y-88047366D01*
X132749910Y-87897409D01*
X132541442Y-87785981D01*
X132315241Y-87717363D01*
X132138950Y-87700000D01*
X132021050Y-87700000D01*
X131844759Y-87717363D01*
X131618558Y-87785981D01*
X131410090Y-87897409D01*
X131227366Y-88047366D01*
X131077409Y-88230090D01*
X130965981Y-88438558D01*
X130897363Y-88664759D01*
X130874194Y-88900000D01*
X130745806Y-88900000D01*
X130722637Y-88664759D01*
X130654019Y-88438558D01*
X130542591Y-88230090D01*
X130392634Y-88047366D01*
X130209910Y-87897409D01*
X130001442Y-87785981D01*
X129775241Y-87717363D01*
X129598950Y-87700000D01*
X129481050Y-87700000D01*
X129304759Y-87717363D01*
X129078558Y-87785981D01*
X128870090Y-87897409D01*
X128687366Y-88047366D01*
X128537409Y-88230090D01*
X128425981Y-88438558D01*
X128357363Y-88664759D01*
X128334194Y-88900000D01*
X128200000Y-88900000D01*
X128200000Y-88874998D01*
X128112242Y-88874998D01*
X128181059Y-88687627D01*
X128116933Y-88461295D01*
X128009884Y-88251822D01*
X127864026Y-88067258D01*
X127684964Y-87914696D01*
X127479579Y-87799998D01*
X127255764Y-87727573D01*
X127212373Y-87718942D01*
X127025000Y-87787781D01*
X126975000Y-87787781D01*
X126787627Y-87718942D01*
X126744236Y-87727573D01*
X126520421Y-87799998D01*
X126315036Y-87914696D01*
X126135974Y-88067258D01*
X125990116Y-88251822D01*
X125883067Y-88461295D01*
X125818941Y-88687627D01*
X125887758Y-88874998D01*
X125800000Y-88874998D01*
X125663344Y-88874998D01*
X125642637Y-88664759D01*
X125574019Y-88438558D01*
X125462591Y-88230090D01*
X125312634Y-88047366D01*
X125129910Y-87897409D01*
X124921442Y-87785981D01*
X124695241Y-87717363D01*
X124518950Y-87700000D01*
X124401050Y-87700000D01*
X124224759Y-87717363D01*
X123998558Y-87785981D01*
X123790090Y-87897409D01*
X123607366Y-88047366D01*
X123457409Y-88230090D01*
X123345981Y-88438558D01*
X123277363Y-88664759D01*
X123254194Y-88900000D01*
X123125806Y-88900000D01*
X123102637Y-88664759D01*
X123034019Y-88438558D01*
X122922591Y-88230090D01*
X122772634Y-88047366D01*
X122589910Y-87897409D01*
X122381442Y-87785981D01*
X122155241Y-87717363D01*
X121978950Y-87700000D01*
X121861050Y-87700000D01*
X121684759Y-87717363D01*
X121458558Y-87785981D01*
X121250090Y-87897409D01*
X121067366Y-88047366D01*
X120917409Y-88230090D01*
X120805981Y-88438558D01*
X120737363Y-88664759D01*
X120714194Y-88900000D01*
X120258202Y-88900000D01*
X120107350Y-88535812D01*
X119729790Y-87970753D01*
X119249247Y-87490210D01*
X118684188Y-87112650D01*
X118520866Y-87045000D01*
X173579134Y-87045000D01*
X173415812Y-87112650D01*
M02*
