G04 #@! TF.GenerationSoftware,KiCad,Pcbnew,(5.1.0-rc2-10-g13249b723)*
G04 #@! TF.CreationDate,2019-03-10T20:32:50+01:00*
G04 #@! TF.ProjectId,authbox-relay-driver,61757468-626f-4782-9d72-656c61792d64,rev?*
G04 #@! TF.SameCoordinates,Original*
G04 #@! TF.FileFunction,Legend,Top*
G04 #@! TF.FilePolarity,Positive*
%FSLAX46Y46*%
G04 Gerber Fmt 4.6, Leading zero omitted, Abs format (unit mm)*
G04 Created by KiCad (PCBNEW (5.1.0-rc2-10-g13249b723)) date 2019-03-10 20:32:50*
%MOMM*%
%LPD*%
G04 APERTURE LIST*
%ADD10C,0.120000*%
%ADD11C,0.150000*%
%ADD12R,1.102000X1.802000*%
%ADD13C,2.602000*%
%ADD14R,1.802000X1.802000*%
%ADD15O,1.802000X1.802000*%
%ADD16R,1.097000X1.102000*%
%ADD17O,1.902000X3.702000*%
%ADD18R,1.902000X3.702000*%
%ADD19R,1.162000X0.752000*%
%ADD20R,2.002000X0.902000*%
%ADD21R,0.902000X2.002000*%
%ADD22R,0.922000X1.102000*%
%ADD23R,1.302000X1.002000*%
%ADD24R,1.102000X1.097000*%
G04 APERTURE END LIST*
D10*
X175550000Y-142670000D02*
X168550000Y-142670000D01*
X116550000Y-142670000D02*
X123550000Y-142670000D01*
X178148076Y-141170000D02*
G75*
G02X175550000Y-142670000I-2598076J1500000D01*
G01*
X116550000Y-142670000D02*
G75*
G02X113951924Y-141170000I0J3000000D01*
G01*
X125050000Y-132170000D02*
X125050000Y-137670000D01*
X167050000Y-132170000D02*
X167050000Y-137670000D01*
X149550000Y-132170000D02*
X149550000Y-137670000D01*
D11*
X152002380Y-136174761D02*
X151526190Y-136508095D01*
X152002380Y-136746190D02*
X151002380Y-136746190D01*
X151002380Y-136365238D01*
X151050000Y-136270000D01*
X151097619Y-136222380D01*
X151192857Y-136174761D01*
X151335714Y-136174761D01*
X151430952Y-136222380D01*
X151478571Y-136270000D01*
X151526190Y-136365238D01*
X151526190Y-136746190D01*
X151478571Y-135746190D02*
X151478571Y-135412857D01*
X152002380Y-135270000D02*
X152002380Y-135746190D01*
X151002380Y-135746190D01*
X151002380Y-135270000D01*
X152002380Y-134365238D02*
X152002380Y-134841428D01*
X151002380Y-134841428D01*
X151716666Y-134079523D02*
X151716666Y-133603333D01*
X152002380Y-134174761D02*
X151002380Y-133841428D01*
X152002380Y-133508095D01*
X151526190Y-132984285D02*
X152002380Y-132984285D01*
X151002380Y-133317619D02*
X151526190Y-132984285D01*
X151002380Y-132650952D01*
X147978571Y-137031904D02*
X148026190Y-136889047D01*
X148073809Y-136841428D01*
X148169047Y-136793809D01*
X148311904Y-136793809D01*
X148407142Y-136841428D01*
X148454761Y-136889047D01*
X148502380Y-136984285D01*
X148502380Y-137365238D01*
X147502380Y-137365238D01*
X147502380Y-137031904D01*
X147550000Y-136936666D01*
X147597619Y-136889047D01*
X147692857Y-136841428D01*
X147788095Y-136841428D01*
X147883333Y-136889047D01*
X147930952Y-136936666D01*
X147978571Y-137031904D01*
X147978571Y-137365238D01*
X147502380Y-136365238D02*
X148311904Y-136365238D01*
X148407142Y-136317619D01*
X148454761Y-136270000D01*
X148502380Y-136174761D01*
X148502380Y-135984285D01*
X148454761Y-135889047D01*
X148407142Y-135841428D01*
X148311904Y-135793809D01*
X147502380Y-135793809D01*
X147502380Y-135460476D02*
X147502380Y-134889047D01*
X148502380Y-135174761D02*
X147502380Y-135174761D01*
X147502380Y-134698571D02*
X147502380Y-134127142D01*
X148502380Y-134412857D02*
X147502380Y-134412857D01*
X147502380Y-133603333D02*
X147502380Y-133412857D01*
X147550000Y-133317619D01*
X147645238Y-133222380D01*
X147835714Y-133174761D01*
X148169047Y-133174761D01*
X148359523Y-133222380D01*
X148454761Y-133317619D01*
X148502380Y-133412857D01*
X148502380Y-133603333D01*
X148454761Y-133698571D01*
X148359523Y-133793809D01*
X148169047Y-133841428D01*
X147835714Y-133841428D01*
X147645238Y-133793809D01*
X147550000Y-133698571D01*
X147502380Y-133603333D01*
X148502380Y-132746190D02*
X147502380Y-132746190D01*
X148502380Y-132174761D01*
X147502380Y-132174761D01*
D10*
X153050000Y-132170000D02*
X153050000Y-137670000D01*
X160050000Y-132170000D02*
X160050000Y-137670000D01*
X146050000Y-132170000D02*
X146050000Y-137670000D01*
X142550000Y-132170000D02*
X142550000Y-137670000D01*
X135550000Y-132170000D02*
X135550000Y-137670000D01*
X139050000Y-132170000D02*
X139050000Y-137670000D01*
X132050000Y-132170000D02*
X132050000Y-137670000D01*
X128550000Y-132170000D02*
X128550000Y-137670000D01*
D11*
X138002380Y-136817619D02*
X138002380Y-137293809D01*
X137002380Y-137293809D01*
X137716666Y-136531904D02*
X137716666Y-136055714D01*
X138002380Y-136627142D02*
X137002380Y-136293809D01*
X138002380Y-135960476D01*
X138002380Y-135627142D02*
X137002380Y-135627142D01*
X137716666Y-135293809D01*
X137002380Y-134960476D01*
X138002380Y-134960476D01*
X138002380Y-134484285D02*
X137002380Y-134484285D01*
X137002380Y-134103333D01*
X137050000Y-134008095D01*
X137097619Y-133960476D01*
X137192857Y-133912857D01*
X137335714Y-133912857D01*
X137430952Y-133960476D01*
X137478571Y-134008095D01*
X137526190Y-134103333D01*
X137526190Y-134484285D01*
X138097619Y-133722380D02*
X138097619Y-132960476D01*
X137097619Y-132770000D02*
X137050000Y-132722380D01*
X137002380Y-132627142D01*
X137002380Y-132389047D01*
X137050000Y-132293809D01*
X137097619Y-132246190D01*
X137192857Y-132198571D01*
X137288095Y-132198571D01*
X137430952Y-132246190D01*
X138002380Y-132817619D01*
X138002380Y-132198571D01*
X134502380Y-136817619D02*
X134502380Y-137293809D01*
X133502380Y-137293809D01*
X134216666Y-136531904D02*
X134216666Y-136055714D01*
X134502380Y-136627142D02*
X133502380Y-136293809D01*
X134502380Y-135960476D01*
X134502380Y-135627142D02*
X133502380Y-135627142D01*
X134216666Y-135293809D01*
X133502380Y-134960476D01*
X134502380Y-134960476D01*
X134502380Y-134484285D02*
X133502380Y-134484285D01*
X133502380Y-134103333D01*
X133550000Y-134008095D01*
X133597619Y-133960476D01*
X133692857Y-133912857D01*
X133835714Y-133912857D01*
X133930952Y-133960476D01*
X133978571Y-134008095D01*
X134026190Y-134103333D01*
X134026190Y-134484285D01*
X134597619Y-133722380D02*
X134597619Y-132960476D01*
X134502380Y-132198571D02*
X134502380Y-132770000D01*
X134502380Y-132484285D02*
X133502380Y-132484285D01*
X133645238Y-132579523D01*
X133740476Y-132674761D01*
X133788095Y-132770000D01*
X144050000Y-135531904D02*
X144002380Y-135627142D01*
X144002380Y-135770000D01*
X144050000Y-135912857D01*
X144145238Y-136008095D01*
X144240476Y-136055714D01*
X144430952Y-136103333D01*
X144573809Y-136103333D01*
X144764285Y-136055714D01*
X144859523Y-136008095D01*
X144954761Y-135912857D01*
X145002380Y-135770000D01*
X145002380Y-135674761D01*
X144954761Y-135531904D01*
X144907142Y-135484285D01*
X144573809Y-135484285D01*
X144573809Y-135674761D01*
X145002380Y-135055714D02*
X144002380Y-135055714D01*
X145002380Y-134484285D01*
X144002380Y-134484285D01*
X145002380Y-134008095D02*
X144002380Y-134008095D01*
X144002380Y-133770000D01*
X144050000Y-133627142D01*
X144145238Y-133531904D01*
X144240476Y-133484285D01*
X144430952Y-133436666D01*
X144573809Y-133436666D01*
X144764285Y-133484285D01*
X144859523Y-133531904D01*
X144954761Y-133627142D01*
X145002380Y-133770000D01*
X145002380Y-134008095D01*
X130050000Y-135531904D02*
X130002380Y-135627142D01*
X130002380Y-135770000D01*
X130050000Y-135912857D01*
X130145238Y-136008095D01*
X130240476Y-136055714D01*
X130430952Y-136103333D01*
X130573809Y-136103333D01*
X130764285Y-136055714D01*
X130859523Y-136008095D01*
X130954761Y-135912857D01*
X131002380Y-135770000D01*
X131002380Y-135674761D01*
X130954761Y-135531904D01*
X130907142Y-135484285D01*
X130573809Y-135484285D01*
X130573809Y-135674761D01*
X131002380Y-135055714D02*
X130002380Y-135055714D01*
X131002380Y-134484285D01*
X130002380Y-134484285D01*
X131002380Y-134008095D02*
X130002380Y-134008095D01*
X130002380Y-133770000D01*
X130050000Y-133627142D01*
X130145238Y-133531904D01*
X130240476Y-133484285D01*
X130430952Y-133436666D01*
X130573809Y-133436666D01*
X130764285Y-133484285D01*
X130859523Y-133531904D01*
X130954761Y-133627142D01*
X131002380Y-133770000D01*
X131002380Y-134008095D01*
X141121428Y-136055714D02*
X141121428Y-135293809D01*
X141502380Y-135674761D02*
X140740476Y-135674761D01*
X140502380Y-134341428D02*
X140502380Y-134817619D01*
X140978571Y-134865238D01*
X140930952Y-134817619D01*
X140883333Y-134722380D01*
X140883333Y-134484285D01*
X140930952Y-134389047D01*
X140978571Y-134341428D01*
X141073809Y-134293809D01*
X141311904Y-134293809D01*
X141407142Y-134341428D01*
X141454761Y-134389047D01*
X141502380Y-134484285D01*
X141502380Y-134722380D01*
X141454761Y-134817619D01*
X141407142Y-134865238D01*
X140502380Y-134008095D02*
X141502380Y-133674761D01*
X140502380Y-133341428D01*
X127121428Y-136055714D02*
X127121428Y-135293809D01*
X127502380Y-135674761D02*
X126740476Y-135674761D01*
X126502380Y-134341428D02*
X126502380Y-134817619D01*
X126978571Y-134865238D01*
X126930952Y-134817619D01*
X126883333Y-134722380D01*
X126883333Y-134484285D01*
X126930952Y-134389047D01*
X126978571Y-134341428D01*
X127073809Y-134293809D01*
X127311904Y-134293809D01*
X127407142Y-134341428D01*
X127454761Y-134389047D01*
X127502380Y-134484285D01*
X127502380Y-134722380D01*
X127454761Y-134817619D01*
X127407142Y-134865238D01*
X126502380Y-134008095D02*
X127502380Y-133674761D01*
X126502380Y-133341428D01*
X155335714Y-133477142D02*
X155288095Y-133524761D01*
X155145238Y-133572380D01*
X155050000Y-133572380D01*
X154907142Y-133524761D01*
X154811904Y-133429523D01*
X154764285Y-133334285D01*
X154716666Y-133143809D01*
X154716666Y-133000952D01*
X154764285Y-132810476D01*
X154811904Y-132715238D01*
X154907142Y-132620000D01*
X155050000Y-132572380D01*
X155145238Y-132572380D01*
X155288095Y-132620000D01*
X155335714Y-132667619D01*
X155764285Y-132572380D02*
X155764285Y-133381904D01*
X155811904Y-133477142D01*
X155859523Y-133524761D01*
X155954761Y-133572380D01*
X156145238Y-133572380D01*
X156240476Y-133524761D01*
X156288095Y-133477142D01*
X156335714Y-133381904D01*
X156335714Y-132572380D01*
X157383333Y-133572380D02*
X157050000Y-133096190D01*
X156811904Y-133572380D02*
X156811904Y-132572380D01*
X157192857Y-132572380D01*
X157288095Y-132620000D01*
X157335714Y-132667619D01*
X157383333Y-132762857D01*
X157383333Y-132905714D01*
X157335714Y-133000952D01*
X157288095Y-133048571D01*
X157192857Y-133096190D01*
X156811904Y-133096190D01*
X158383333Y-133572380D02*
X158050000Y-133096190D01*
X157811904Y-133572380D02*
X157811904Y-132572380D01*
X158192857Y-132572380D01*
X158288095Y-132620000D01*
X158335714Y-132667619D01*
X158383333Y-132762857D01*
X158383333Y-132905714D01*
X158335714Y-133000952D01*
X158288095Y-133048571D01*
X158192857Y-133096190D01*
X157811904Y-133096190D01*
X154716666Y-134222380D02*
X155383333Y-135222380D01*
X155383333Y-134222380D02*
X154716666Y-135222380D01*
X156097619Y-134698571D02*
X155764285Y-134698571D01*
X155764285Y-135222380D02*
X155764285Y-134222380D01*
X156240476Y-134222380D01*
X156621428Y-135222380D02*
X156621428Y-134222380D01*
X156954761Y-134936666D01*
X157288095Y-134222380D01*
X157288095Y-135222380D01*
X158335714Y-135222380D02*
X158002380Y-134746190D01*
X157764285Y-135222380D02*
X157764285Y-134222380D01*
X158145238Y-134222380D01*
X158240476Y-134270000D01*
X158288095Y-134317619D01*
X158335714Y-134412857D01*
X158335714Y-134555714D01*
X158288095Y-134650952D01*
X158240476Y-134698571D01*
X158145238Y-134746190D01*
X157764285Y-134746190D01*
X155764285Y-136205714D02*
X156478571Y-136205714D01*
X156050000Y-135777142D02*
X155764285Y-137062857D01*
X156383333Y-136634285D02*
X155669047Y-136634285D01*
X156097619Y-137062857D02*
X156383333Y-135777142D01*
X157335714Y-136872380D02*
X156764285Y-136872380D01*
X157050000Y-136872380D02*
X157050000Y-135872380D01*
X156954761Y-136015238D01*
X156859523Y-136110476D01*
X156764285Y-136158095D01*
X162335714Y-133477142D02*
X162288095Y-133524761D01*
X162145238Y-133572380D01*
X162050000Y-133572380D01*
X161907142Y-133524761D01*
X161811904Y-133429523D01*
X161764285Y-133334285D01*
X161716666Y-133143809D01*
X161716666Y-133000952D01*
X161764285Y-132810476D01*
X161811904Y-132715238D01*
X161907142Y-132620000D01*
X162050000Y-132572380D01*
X162145238Y-132572380D01*
X162288095Y-132620000D01*
X162335714Y-132667619D01*
X162764285Y-132572380D02*
X162764285Y-133381904D01*
X162811904Y-133477142D01*
X162859523Y-133524761D01*
X162954761Y-133572380D01*
X163145238Y-133572380D01*
X163240476Y-133524761D01*
X163288095Y-133477142D01*
X163335714Y-133381904D01*
X163335714Y-132572380D01*
X164383333Y-133572380D02*
X164050000Y-133096190D01*
X163811904Y-133572380D02*
X163811904Y-132572380D01*
X164192857Y-132572380D01*
X164288095Y-132620000D01*
X164335714Y-132667619D01*
X164383333Y-132762857D01*
X164383333Y-132905714D01*
X164335714Y-133000952D01*
X164288095Y-133048571D01*
X164192857Y-133096190D01*
X163811904Y-133096190D01*
X165383333Y-133572380D02*
X165050000Y-133096190D01*
X164811904Y-133572380D02*
X164811904Y-132572380D01*
X165192857Y-132572380D01*
X165288095Y-132620000D01*
X165335714Y-132667619D01*
X165383333Y-132762857D01*
X165383333Y-132905714D01*
X165335714Y-133000952D01*
X165288095Y-133048571D01*
X165192857Y-133096190D01*
X164811904Y-133096190D01*
X161716666Y-134222380D02*
X162383333Y-135222380D01*
X162383333Y-134222380D02*
X161716666Y-135222380D01*
X163097619Y-134698571D02*
X162764285Y-134698571D01*
X162764285Y-135222380D02*
X162764285Y-134222380D01*
X163240476Y-134222380D01*
X163621428Y-135222380D02*
X163621428Y-134222380D01*
X163954761Y-134936666D01*
X164288095Y-134222380D01*
X164288095Y-135222380D01*
X165335714Y-135222380D02*
X165002380Y-134746190D01*
X164764285Y-135222380D02*
X164764285Y-134222380D01*
X165145238Y-134222380D01*
X165240476Y-134270000D01*
X165288095Y-134317619D01*
X165335714Y-134412857D01*
X165335714Y-134555714D01*
X165288095Y-134650952D01*
X165240476Y-134698571D01*
X165145238Y-134746190D01*
X164764285Y-134746190D01*
X162764285Y-136205714D02*
X163478571Y-136205714D01*
X163050000Y-135777142D02*
X162764285Y-137062857D01*
X163383333Y-136634285D02*
X162669047Y-136634285D01*
X163097619Y-137062857D02*
X163383333Y-135777142D01*
X163764285Y-135967619D02*
X163811904Y-135920000D01*
X163907142Y-135872380D01*
X164145238Y-135872380D01*
X164240476Y-135920000D01*
X164288095Y-135967619D01*
X164335714Y-136062857D01*
X164335714Y-136158095D01*
X164288095Y-136300952D01*
X163716666Y-136872380D01*
X164335714Y-136872380D01*
D10*
X169950000Y-128470000D02*
X167150000Y-128470000D01*
X167150000Y-123870000D02*
X169950000Y-123870000D01*
X171150000Y-128470000D02*
X171150000Y-122670000D01*
X165950000Y-128470000D02*
X165950000Y-123870000D01*
X154650000Y-123870000D02*
X157450000Y-123870000D01*
X157450000Y-128470000D02*
X154650000Y-128470000D01*
X153450000Y-128470000D02*
X153450000Y-123870000D01*
X158650000Y-128470000D02*
X158650000Y-122670000D01*
X175975000Y-121540000D02*
X166205000Y-121540000D01*
X175975000Y-111770000D02*
X166205000Y-111770000D01*
X166205000Y-111770000D02*
X166205000Y-121540000D01*
X175975000Y-111770000D02*
X175975000Y-121540000D01*
X163475000Y-121540000D02*
X153705000Y-121540000D01*
X163475000Y-111770000D02*
X153705000Y-111770000D01*
X153705000Y-111770000D02*
X153705000Y-121540000D01*
X163475000Y-111770000D02*
X163475000Y-121540000D01*
X126500000Y-137070000D02*
X127100000Y-137070000D01*
X126800000Y-137670000D02*
X126500000Y-137070000D01*
X127100000Y-137070000D02*
X126800000Y-137670000D01*
X124270000Y-144470000D02*
X167830000Y-144470000D01*
X162850000Y-138390000D02*
X164250000Y-138390000D01*
X159350000Y-138390000D02*
X160750000Y-138390000D01*
X155850000Y-138390000D02*
X157250000Y-138390000D01*
X152350000Y-138390000D02*
X153750000Y-138390000D01*
X148850000Y-138390000D02*
X150250000Y-138390000D01*
X145350000Y-138390000D02*
X146750000Y-138390000D01*
X141850000Y-138390000D02*
X143250000Y-138390000D01*
X138350000Y-138390000D02*
X139750000Y-138390000D01*
X134850000Y-138390000D02*
X136250000Y-138390000D01*
X131350000Y-138390000D02*
X132750000Y-138390000D01*
X127850000Y-138390000D02*
X129250000Y-138390000D01*
X167830000Y-138390000D02*
X166350000Y-138390000D01*
X124270000Y-138390000D02*
X125750000Y-138390000D01*
X167830000Y-147750000D02*
X167830000Y-138390000D01*
X124270000Y-147750000D02*
X167830000Y-147750000D01*
X124270000Y-138390000D02*
X124270000Y-147750000D01*
X147650000Y-126780000D02*
X150100000Y-126780000D01*
X149450000Y-123560000D02*
X147650000Y-123560000D01*
X172790000Y-107090000D02*
X174250000Y-107090000D01*
X172790000Y-110250000D02*
X175950000Y-110250000D01*
X172790000Y-110250000D02*
X172790000Y-109320000D01*
X172790000Y-107090000D02*
X172790000Y-108020000D01*
X134970000Y-125930000D02*
X134970000Y-124470000D01*
X138130000Y-125930000D02*
X138130000Y-122770000D01*
X138130000Y-125930000D02*
X137200000Y-125930000D01*
X134970000Y-125930000D02*
X135900000Y-125930000D01*
X140470000Y-125930000D02*
X140470000Y-124470000D01*
X143630000Y-125930000D02*
X143630000Y-122770000D01*
X143630000Y-125930000D02*
X142700000Y-125930000D01*
X140470000Y-125930000D02*
X141400000Y-125930000D01*
X160290000Y-107090000D02*
X161750000Y-107090000D01*
X160290000Y-110250000D02*
X163450000Y-110250000D01*
X160290000Y-110250000D02*
X160290000Y-109320000D01*
X160290000Y-107090000D02*
X160290000Y-108020000D01*
X166080000Y-107430000D02*
X168350000Y-107430000D01*
X166080000Y-105910000D02*
X166080000Y-107430000D01*
X168350000Y-105910000D02*
X166080000Y-105910000D01*
X172550000Y-128420000D02*
X172550000Y-124520000D01*
X174550000Y-128420000D02*
X174550000Y-124520000D01*
X172550000Y-128420000D02*
X174550000Y-128420000D01*
X153580000Y-107430000D02*
X155850000Y-107430000D01*
X153580000Y-105910000D02*
X153580000Y-107430000D01*
X155850000Y-105910000D02*
X153580000Y-105910000D01*
X160050000Y-128420000D02*
X160050000Y-124520000D01*
X162050000Y-128420000D02*
X162050000Y-124520000D01*
X160050000Y-128420000D02*
X162050000Y-128420000D01*
D11*
X167811904Y-123372380D02*
X167811904Y-122372380D01*
X168050000Y-122372380D01*
X168192857Y-122420000D01*
X168288095Y-122515238D01*
X168335714Y-122610476D01*
X168383333Y-122800952D01*
X168383333Y-122943809D01*
X168335714Y-123134285D01*
X168288095Y-123229523D01*
X168192857Y-123324761D01*
X168050000Y-123372380D01*
X167811904Y-123372380D01*
X169240476Y-122705714D02*
X169240476Y-123372380D01*
X169002380Y-122324761D02*
X168764285Y-123039047D01*
X169383333Y-123039047D01*
X155311904Y-123372380D02*
X155311904Y-122372380D01*
X155550000Y-122372380D01*
X155692857Y-122420000D01*
X155788095Y-122515238D01*
X155835714Y-122610476D01*
X155883333Y-122800952D01*
X155883333Y-122943809D01*
X155835714Y-123134285D01*
X155788095Y-123229523D01*
X155692857Y-123324761D01*
X155550000Y-123372380D01*
X155311904Y-123372380D01*
X156835714Y-123372380D02*
X156264285Y-123372380D01*
X156550000Y-123372380D02*
X156550000Y-122372380D01*
X156454761Y-122515238D01*
X156359523Y-122610476D01*
X156264285Y-122658095D01*
X177557380Y-117250238D02*
X177081190Y-117583571D01*
X177557380Y-117821666D02*
X176557380Y-117821666D01*
X176557380Y-117440714D01*
X176605000Y-117345476D01*
X176652619Y-117297857D01*
X176747857Y-117250238D01*
X176890714Y-117250238D01*
X176985952Y-117297857D01*
X177033571Y-117345476D01*
X177081190Y-117440714D01*
X177081190Y-117821666D01*
X176557380Y-116964523D02*
X177557380Y-116631190D01*
X176557380Y-116297857D01*
X176652619Y-116012142D02*
X176605000Y-115964523D01*
X176557380Y-115869285D01*
X176557380Y-115631190D01*
X176605000Y-115535952D01*
X176652619Y-115488333D01*
X176747857Y-115440714D01*
X176843095Y-115440714D01*
X176985952Y-115488333D01*
X177557380Y-116059761D01*
X177557380Y-115440714D01*
X165057380Y-117250238D02*
X164581190Y-117583571D01*
X165057380Y-117821666D02*
X164057380Y-117821666D01*
X164057380Y-117440714D01*
X164105000Y-117345476D01*
X164152619Y-117297857D01*
X164247857Y-117250238D01*
X164390714Y-117250238D01*
X164485952Y-117297857D01*
X164533571Y-117345476D01*
X164581190Y-117440714D01*
X164581190Y-117821666D01*
X164057380Y-116964523D02*
X165057380Y-116631190D01*
X164057380Y-116297857D01*
X165057380Y-115440714D02*
X165057380Y-116012142D01*
X165057380Y-115726428D02*
X164057380Y-115726428D01*
X164200238Y-115821666D01*
X164295476Y-115916904D01*
X164343095Y-116012142D01*
X170383333Y-99172380D02*
X170050000Y-98696190D01*
X169811904Y-99172380D02*
X169811904Y-98172380D01*
X170192857Y-98172380D01*
X170288095Y-98220000D01*
X170335714Y-98267619D01*
X170383333Y-98362857D01*
X170383333Y-98505714D01*
X170335714Y-98600952D01*
X170288095Y-98648571D01*
X170192857Y-98696190D01*
X169811904Y-98696190D01*
X170859523Y-99172380D02*
X171050000Y-99172380D01*
X171145238Y-99124761D01*
X171192857Y-99077142D01*
X171288095Y-98934285D01*
X171335714Y-98743809D01*
X171335714Y-98362857D01*
X171288095Y-98267619D01*
X171240476Y-98220000D01*
X171145238Y-98172380D01*
X170954761Y-98172380D01*
X170859523Y-98220000D01*
X170811904Y-98267619D01*
X170764285Y-98362857D01*
X170764285Y-98600952D01*
X170811904Y-98696190D01*
X170859523Y-98743809D01*
X170954761Y-98791428D01*
X171145238Y-98791428D01*
X171240476Y-98743809D01*
X171288095Y-98696190D01*
X171335714Y-98600952D01*
X122502380Y-139503333D02*
X123216666Y-139503333D01*
X123359523Y-139550952D01*
X123454761Y-139646190D01*
X123502380Y-139789047D01*
X123502380Y-139884285D01*
X122597619Y-139074761D02*
X122550000Y-139027142D01*
X122502380Y-138931904D01*
X122502380Y-138693809D01*
X122550000Y-138598571D01*
X122597619Y-138550952D01*
X122692857Y-138503333D01*
X122788095Y-138503333D01*
X122930952Y-138550952D01*
X123502380Y-139122380D01*
X123502380Y-138503333D01*
X145002380Y-125931904D02*
X145811904Y-125931904D01*
X145907142Y-125884285D01*
X145954761Y-125836666D01*
X146002380Y-125741428D01*
X146002380Y-125550952D01*
X145954761Y-125455714D01*
X145907142Y-125408095D01*
X145811904Y-125360476D01*
X145002380Y-125360476D01*
X145097619Y-124931904D02*
X145050000Y-124884285D01*
X145002380Y-124789047D01*
X145002380Y-124550952D01*
X145050000Y-124455714D01*
X145097619Y-124408095D01*
X145192857Y-124360476D01*
X145288095Y-124360476D01*
X145430952Y-124408095D01*
X146002380Y-124979523D01*
X146002380Y-124360476D01*
X138002380Y-118312857D02*
X137526190Y-118646190D01*
X138002380Y-118884285D02*
X137002380Y-118884285D01*
X137002380Y-118503333D01*
X137050000Y-118408095D01*
X137097619Y-118360476D01*
X137192857Y-118312857D01*
X137335714Y-118312857D01*
X137430952Y-118360476D01*
X137478571Y-118408095D01*
X137526190Y-118503333D01*
X137526190Y-118884285D01*
X138002380Y-117360476D02*
X138002380Y-117931904D01*
X138002380Y-117646190D02*
X137002380Y-117646190D01*
X137145238Y-117741428D01*
X137240476Y-117836666D01*
X137288095Y-117931904D01*
X137097619Y-116979523D02*
X137050000Y-116931904D01*
X137002380Y-116836666D01*
X137002380Y-116598571D01*
X137050000Y-116503333D01*
X137097619Y-116455714D01*
X137192857Y-116408095D01*
X137288095Y-116408095D01*
X137430952Y-116455714D01*
X138002380Y-117027142D01*
X138002380Y-116408095D01*
X140002380Y-120812857D02*
X139526190Y-121146190D01*
X140002380Y-121384285D02*
X139002380Y-121384285D01*
X139002380Y-121003333D01*
X139050000Y-120908095D01*
X139097619Y-120860476D01*
X139192857Y-120812857D01*
X139335714Y-120812857D01*
X139430952Y-120860476D01*
X139478571Y-120908095D01*
X139526190Y-121003333D01*
X139526190Y-121384285D01*
X140002380Y-119860476D02*
X140002380Y-120431904D01*
X140002380Y-120146190D02*
X139002380Y-120146190D01*
X139145238Y-120241428D01*
X139240476Y-120336666D01*
X139288095Y-120431904D01*
X140002380Y-118908095D02*
X140002380Y-119479523D01*
X140002380Y-119193809D02*
X139002380Y-119193809D01*
X139145238Y-119289047D01*
X139240476Y-119384285D01*
X139288095Y-119479523D01*
X177502380Y-102812857D02*
X177026190Y-103146190D01*
X177502380Y-103384285D02*
X176502380Y-103384285D01*
X176502380Y-103003333D01*
X176550000Y-102908095D01*
X176597619Y-102860476D01*
X176692857Y-102812857D01*
X176835714Y-102812857D01*
X176930952Y-102860476D01*
X176978571Y-102908095D01*
X177026190Y-103003333D01*
X177026190Y-103384285D01*
X177502380Y-101860476D02*
X177502380Y-102431904D01*
X177502380Y-102146190D02*
X176502380Y-102146190D01*
X176645238Y-102241428D01*
X176740476Y-102336666D01*
X176788095Y-102431904D01*
X176502380Y-101241428D02*
X176502380Y-101146190D01*
X176550000Y-101050952D01*
X176597619Y-101003333D01*
X176692857Y-100955714D01*
X176883333Y-100908095D01*
X177121428Y-100908095D01*
X177311904Y-100955714D01*
X177407142Y-101003333D01*
X177454761Y-101050952D01*
X177502380Y-101146190D01*
X177502380Y-101241428D01*
X177454761Y-101336666D01*
X177407142Y-101384285D01*
X177311904Y-101431904D01*
X177121428Y-101479523D01*
X176883333Y-101479523D01*
X176692857Y-101431904D01*
X176597619Y-101384285D01*
X176550000Y-101336666D01*
X176502380Y-101241428D01*
X167383333Y-103122380D02*
X167050000Y-102646190D01*
X166811904Y-103122380D02*
X166811904Y-102122380D01*
X167192857Y-102122380D01*
X167288095Y-102170000D01*
X167335714Y-102217619D01*
X167383333Y-102312857D01*
X167383333Y-102455714D01*
X167335714Y-102550952D01*
X167288095Y-102598571D01*
X167192857Y-102646190D01*
X166811904Y-102646190D01*
X167954761Y-102550952D02*
X167859523Y-102503333D01*
X167811904Y-102455714D01*
X167764285Y-102360476D01*
X167764285Y-102312857D01*
X167811904Y-102217619D01*
X167859523Y-102170000D01*
X167954761Y-102122380D01*
X168145238Y-102122380D01*
X168240476Y-102170000D01*
X168288095Y-102217619D01*
X168335714Y-102312857D01*
X168335714Y-102360476D01*
X168288095Y-102455714D01*
X168240476Y-102503333D01*
X168145238Y-102550952D01*
X167954761Y-102550952D01*
X167859523Y-102598571D01*
X167811904Y-102646190D01*
X167764285Y-102741428D01*
X167764285Y-102931904D01*
X167811904Y-103027142D01*
X167859523Y-103074761D01*
X167954761Y-103122380D01*
X168145238Y-103122380D01*
X168240476Y-103074761D01*
X168288095Y-103027142D01*
X168335714Y-102931904D01*
X168335714Y-102741428D01*
X168288095Y-102646190D01*
X168240476Y-102598571D01*
X168145238Y-102550952D01*
X167383333Y-108672380D02*
X167050000Y-108196190D01*
X166811904Y-108672380D02*
X166811904Y-107672380D01*
X167192857Y-107672380D01*
X167288095Y-107720000D01*
X167335714Y-107767619D01*
X167383333Y-107862857D01*
X167383333Y-108005714D01*
X167335714Y-108100952D01*
X167288095Y-108148571D01*
X167192857Y-108196190D01*
X166811904Y-108196190D01*
X167716666Y-107672380D02*
X168383333Y-107672380D01*
X167954761Y-108672380D01*
X165002380Y-102836666D02*
X164526190Y-103170000D01*
X165002380Y-103408095D02*
X164002380Y-103408095D01*
X164002380Y-103027142D01*
X164050000Y-102931904D01*
X164097619Y-102884285D01*
X164192857Y-102836666D01*
X164335714Y-102836666D01*
X164430952Y-102884285D01*
X164478571Y-102931904D01*
X164526190Y-103027142D01*
X164526190Y-103408095D01*
X164002380Y-101979523D02*
X164002380Y-102170000D01*
X164050000Y-102265238D01*
X164097619Y-102312857D01*
X164240476Y-102408095D01*
X164430952Y-102455714D01*
X164811904Y-102455714D01*
X164907142Y-102408095D01*
X164954761Y-102360476D01*
X165002380Y-102265238D01*
X165002380Y-102074761D01*
X164954761Y-101979523D01*
X164907142Y-101931904D01*
X164811904Y-101884285D01*
X164573809Y-101884285D01*
X164478571Y-101931904D01*
X164430952Y-101979523D01*
X164383333Y-102074761D01*
X164383333Y-102265238D01*
X164430952Y-102360476D01*
X164478571Y-102408095D01*
X164573809Y-102455714D01*
X157883333Y-99172380D02*
X157550000Y-98696190D01*
X157311904Y-99172380D02*
X157311904Y-98172380D01*
X157692857Y-98172380D01*
X157788095Y-98220000D01*
X157835714Y-98267619D01*
X157883333Y-98362857D01*
X157883333Y-98505714D01*
X157835714Y-98600952D01*
X157788095Y-98648571D01*
X157692857Y-98696190D01*
X157311904Y-98696190D01*
X158788095Y-98172380D02*
X158311904Y-98172380D01*
X158264285Y-98648571D01*
X158311904Y-98600952D01*
X158407142Y-98553333D01*
X158645238Y-98553333D01*
X158740476Y-98600952D01*
X158788095Y-98648571D01*
X158835714Y-98743809D01*
X158835714Y-98981904D01*
X158788095Y-99077142D01*
X158740476Y-99124761D01*
X158645238Y-99172380D01*
X158407142Y-99172380D01*
X158311904Y-99124761D01*
X158264285Y-99077142D01*
X154883333Y-103122380D02*
X154550000Y-102646190D01*
X154311904Y-103122380D02*
X154311904Y-102122380D01*
X154692857Y-102122380D01*
X154788095Y-102170000D01*
X154835714Y-102217619D01*
X154883333Y-102312857D01*
X154883333Y-102455714D01*
X154835714Y-102550952D01*
X154788095Y-102598571D01*
X154692857Y-102646190D01*
X154311904Y-102646190D01*
X155740476Y-102455714D02*
X155740476Y-103122380D01*
X155502380Y-102074761D02*
X155264285Y-102789047D01*
X155883333Y-102789047D01*
X151883333Y-110122380D02*
X151550000Y-109646190D01*
X151311904Y-110122380D02*
X151311904Y-109122380D01*
X151692857Y-109122380D01*
X151788095Y-109170000D01*
X151835714Y-109217619D01*
X151883333Y-109312857D01*
X151883333Y-109455714D01*
X151835714Y-109550952D01*
X151788095Y-109598571D01*
X151692857Y-109646190D01*
X151311904Y-109646190D01*
X152216666Y-109122380D02*
X152835714Y-109122380D01*
X152502380Y-109503333D01*
X152645238Y-109503333D01*
X152740476Y-109550952D01*
X152788095Y-109598571D01*
X152835714Y-109693809D01*
X152835714Y-109931904D01*
X152788095Y-110027142D01*
X152740476Y-110074761D01*
X152645238Y-110122380D01*
X152359523Y-110122380D01*
X152264285Y-110074761D01*
X152216666Y-110027142D01*
X147383333Y-118122380D02*
X147050000Y-117646190D01*
X146811904Y-118122380D02*
X146811904Y-117122380D01*
X147192857Y-117122380D01*
X147288095Y-117170000D01*
X147335714Y-117217619D01*
X147383333Y-117312857D01*
X147383333Y-117455714D01*
X147335714Y-117550952D01*
X147288095Y-117598571D01*
X147192857Y-117646190D01*
X146811904Y-117646190D01*
X147764285Y-117217619D02*
X147811904Y-117170000D01*
X147907142Y-117122380D01*
X148145238Y-117122380D01*
X148240476Y-117170000D01*
X148288095Y-117217619D01*
X148335714Y-117312857D01*
X148335714Y-117408095D01*
X148288095Y-117550952D01*
X147716666Y-118122380D01*
X148335714Y-118122380D01*
X135883333Y-113622380D02*
X135550000Y-113146190D01*
X135311904Y-113622380D02*
X135311904Y-112622380D01*
X135692857Y-112622380D01*
X135788095Y-112670000D01*
X135835714Y-112717619D01*
X135883333Y-112812857D01*
X135883333Y-112955714D01*
X135835714Y-113050952D01*
X135788095Y-113098571D01*
X135692857Y-113146190D01*
X135311904Y-113146190D01*
X136835714Y-113622380D02*
X136264285Y-113622380D01*
X136550000Y-113622380D02*
X136550000Y-112622380D01*
X136454761Y-112765238D01*
X136359523Y-112860476D01*
X136264285Y-112908095D01*
X177597619Y-108765238D02*
X177550000Y-108860476D01*
X177454761Y-108955714D01*
X177311904Y-109098571D01*
X177264285Y-109193809D01*
X177264285Y-109289047D01*
X177502380Y-109241428D02*
X177454761Y-109336666D01*
X177359523Y-109431904D01*
X177169047Y-109479523D01*
X176835714Y-109479523D01*
X176645238Y-109431904D01*
X176550000Y-109336666D01*
X176502380Y-109241428D01*
X176502380Y-109050952D01*
X176550000Y-108955714D01*
X176645238Y-108860476D01*
X176835714Y-108812857D01*
X177169047Y-108812857D01*
X177359523Y-108860476D01*
X177454761Y-108955714D01*
X177502380Y-109050952D01*
X177502380Y-109241428D01*
X176835714Y-107955714D02*
X177502380Y-107955714D01*
X176454761Y-108193809D02*
X177169047Y-108431904D01*
X177169047Y-107812857D01*
X134597619Y-125765238D02*
X134550000Y-125860476D01*
X134454761Y-125955714D01*
X134311904Y-126098571D01*
X134264285Y-126193809D01*
X134264285Y-126289047D01*
X134502380Y-126241428D02*
X134454761Y-126336666D01*
X134359523Y-126431904D01*
X134169047Y-126479523D01*
X133835714Y-126479523D01*
X133645238Y-126431904D01*
X133550000Y-126336666D01*
X133502380Y-126241428D01*
X133502380Y-126050952D01*
X133550000Y-125955714D01*
X133645238Y-125860476D01*
X133835714Y-125812857D01*
X134169047Y-125812857D01*
X134359523Y-125860476D01*
X134454761Y-125955714D01*
X134502380Y-126050952D01*
X134502380Y-126241428D01*
X133502380Y-125479523D02*
X133502380Y-124860476D01*
X133883333Y-125193809D01*
X133883333Y-125050952D01*
X133930952Y-124955714D01*
X133978571Y-124908095D01*
X134073809Y-124860476D01*
X134311904Y-124860476D01*
X134407142Y-124908095D01*
X134454761Y-124955714D01*
X134502380Y-125050952D01*
X134502380Y-125336666D01*
X134454761Y-125431904D01*
X134407142Y-125479523D01*
X140097619Y-125765238D02*
X140050000Y-125860476D01*
X139954761Y-125955714D01*
X139811904Y-126098571D01*
X139764285Y-126193809D01*
X139764285Y-126289047D01*
X140002380Y-126241428D02*
X139954761Y-126336666D01*
X139859523Y-126431904D01*
X139669047Y-126479523D01*
X139335714Y-126479523D01*
X139145238Y-126431904D01*
X139050000Y-126336666D01*
X139002380Y-126241428D01*
X139002380Y-126050952D01*
X139050000Y-125955714D01*
X139145238Y-125860476D01*
X139335714Y-125812857D01*
X139669047Y-125812857D01*
X139859523Y-125860476D01*
X139954761Y-125955714D01*
X140002380Y-126050952D01*
X140002380Y-126241428D01*
X139097619Y-125431904D02*
X139050000Y-125384285D01*
X139002380Y-125289047D01*
X139002380Y-125050952D01*
X139050000Y-124955714D01*
X139097619Y-124908095D01*
X139192857Y-124860476D01*
X139288095Y-124860476D01*
X139430952Y-124908095D01*
X140002380Y-125479523D01*
X140002380Y-124860476D01*
X165097619Y-108765238D02*
X165050000Y-108860476D01*
X164954761Y-108955714D01*
X164811904Y-109098571D01*
X164764285Y-109193809D01*
X164764285Y-109289047D01*
X165002380Y-109241428D02*
X164954761Y-109336666D01*
X164859523Y-109431904D01*
X164669047Y-109479523D01*
X164335714Y-109479523D01*
X164145238Y-109431904D01*
X164050000Y-109336666D01*
X164002380Y-109241428D01*
X164002380Y-109050952D01*
X164050000Y-108955714D01*
X164145238Y-108860476D01*
X164335714Y-108812857D01*
X164669047Y-108812857D01*
X164859523Y-108860476D01*
X164954761Y-108955714D01*
X165002380Y-109050952D01*
X165002380Y-109241428D01*
X165002380Y-107860476D02*
X165002380Y-108431904D01*
X165002380Y-108146190D02*
X164002380Y-108146190D01*
X164145238Y-108241428D01*
X164240476Y-108336666D01*
X164288095Y-108431904D01*
X166811904Y-105672380D02*
X166811904Y-104672380D01*
X167050000Y-104672380D01*
X167192857Y-104720000D01*
X167288095Y-104815238D01*
X167335714Y-104910476D01*
X167383333Y-105100952D01*
X167383333Y-105243809D01*
X167335714Y-105434285D01*
X167288095Y-105529523D01*
X167192857Y-105624761D01*
X167050000Y-105672380D01*
X166811904Y-105672380D01*
X168240476Y-104672380D02*
X168050000Y-104672380D01*
X167954761Y-104720000D01*
X167907142Y-104767619D01*
X167811904Y-104910476D01*
X167764285Y-105100952D01*
X167764285Y-105481904D01*
X167811904Y-105577142D01*
X167859523Y-105624761D01*
X167954761Y-105672380D01*
X168145238Y-105672380D01*
X168240476Y-105624761D01*
X168288095Y-105577142D01*
X168335714Y-105481904D01*
X168335714Y-105243809D01*
X168288095Y-105148571D01*
X168240476Y-105100952D01*
X168145238Y-105053333D01*
X167954761Y-105053333D01*
X167859523Y-105100952D01*
X167811904Y-105148571D01*
X167764285Y-105243809D01*
X174002380Y-130408095D02*
X173002380Y-130408095D01*
X173002380Y-130170000D01*
X173050000Y-130027142D01*
X173145238Y-129931904D01*
X173240476Y-129884285D01*
X173430952Y-129836666D01*
X173573809Y-129836666D01*
X173764285Y-129884285D01*
X173859523Y-129931904D01*
X173954761Y-130027142D01*
X174002380Y-130170000D01*
X174002380Y-130408095D01*
X173002380Y-128931904D02*
X173002380Y-129408095D01*
X173478571Y-129455714D01*
X173430952Y-129408095D01*
X173383333Y-129312857D01*
X173383333Y-129074761D01*
X173430952Y-128979523D01*
X173478571Y-128931904D01*
X173573809Y-128884285D01*
X173811904Y-128884285D01*
X173907142Y-128931904D01*
X173954761Y-128979523D01*
X174002380Y-129074761D01*
X174002380Y-129312857D01*
X173954761Y-129408095D01*
X173907142Y-129455714D01*
X151311904Y-107122380D02*
X151311904Y-106122380D01*
X151550000Y-106122380D01*
X151692857Y-106170000D01*
X151788095Y-106265238D01*
X151835714Y-106360476D01*
X151883333Y-106550952D01*
X151883333Y-106693809D01*
X151835714Y-106884285D01*
X151788095Y-106979523D01*
X151692857Y-107074761D01*
X151550000Y-107122380D01*
X151311904Y-107122380D01*
X152216666Y-106122380D02*
X152835714Y-106122380D01*
X152502380Y-106503333D01*
X152645238Y-106503333D01*
X152740476Y-106550952D01*
X152788095Y-106598571D01*
X152835714Y-106693809D01*
X152835714Y-106931904D01*
X152788095Y-107027142D01*
X152740476Y-107074761D01*
X152645238Y-107122380D01*
X152359523Y-107122380D01*
X152264285Y-107074761D01*
X152216666Y-107027142D01*
X161502380Y-130408095D02*
X160502380Y-130408095D01*
X160502380Y-130170000D01*
X160550000Y-130027142D01*
X160645238Y-129931904D01*
X160740476Y-129884285D01*
X160930952Y-129836666D01*
X161073809Y-129836666D01*
X161264285Y-129884285D01*
X161359523Y-129931904D01*
X161454761Y-130027142D01*
X161502380Y-130170000D01*
X161502380Y-130408095D01*
X160597619Y-129455714D02*
X160550000Y-129408095D01*
X160502380Y-129312857D01*
X160502380Y-129074761D01*
X160550000Y-128979523D01*
X160597619Y-128931904D01*
X160692857Y-128884285D01*
X160788095Y-128884285D01*
X160930952Y-128931904D01*
X161502380Y-129503333D01*
X161502380Y-128884285D01*
X177407142Y-105336666D02*
X177454761Y-105384285D01*
X177502380Y-105527142D01*
X177502380Y-105622380D01*
X177454761Y-105765238D01*
X177359523Y-105860476D01*
X177264285Y-105908095D01*
X177073809Y-105955714D01*
X176930952Y-105955714D01*
X176740476Y-105908095D01*
X176645238Y-105860476D01*
X176550000Y-105765238D01*
X176502380Y-105622380D01*
X176502380Y-105527142D01*
X176550000Y-105384285D01*
X176597619Y-105336666D01*
X176502380Y-104479523D02*
X176502380Y-104670000D01*
X176550000Y-104765238D01*
X176597619Y-104812857D01*
X176740476Y-104908095D01*
X176930952Y-104955714D01*
X177311904Y-104955714D01*
X177407142Y-104908095D01*
X177454761Y-104860476D01*
X177502380Y-104765238D01*
X177502380Y-104574761D01*
X177454761Y-104479523D01*
X177407142Y-104431904D01*
X177311904Y-104384285D01*
X177073809Y-104384285D01*
X176978571Y-104431904D01*
X176930952Y-104479523D01*
X176883333Y-104574761D01*
X176883333Y-104765238D01*
X176930952Y-104860476D01*
X176978571Y-104908095D01*
X177073809Y-104955714D01*
X149883333Y-131027142D02*
X149835714Y-131074761D01*
X149692857Y-131122380D01*
X149597619Y-131122380D01*
X149454761Y-131074761D01*
X149359523Y-130979523D01*
X149311904Y-130884285D01*
X149264285Y-130693809D01*
X149264285Y-130550952D01*
X149311904Y-130360476D01*
X149359523Y-130265238D01*
X149454761Y-130170000D01*
X149597619Y-130122380D01*
X149692857Y-130122380D01*
X149835714Y-130170000D01*
X149883333Y-130217619D01*
X150788095Y-130122380D02*
X150311904Y-130122380D01*
X150264285Y-130598571D01*
X150311904Y-130550952D01*
X150407142Y-130503333D01*
X150645238Y-130503333D01*
X150740476Y-130550952D01*
X150788095Y-130598571D01*
X150835714Y-130693809D01*
X150835714Y-130931904D01*
X150788095Y-131027142D01*
X150740476Y-131074761D01*
X150645238Y-131122380D01*
X150407142Y-131122380D01*
X150311904Y-131074761D01*
X150264285Y-131027142D01*
X146407142Y-121836666D02*
X146454761Y-121884285D01*
X146502380Y-122027142D01*
X146502380Y-122122380D01*
X146454761Y-122265238D01*
X146359523Y-122360476D01*
X146264285Y-122408095D01*
X146073809Y-122455714D01*
X145930952Y-122455714D01*
X145740476Y-122408095D01*
X145645238Y-122360476D01*
X145550000Y-122265238D01*
X145502380Y-122122380D01*
X145502380Y-122027142D01*
X145550000Y-121884285D01*
X145597619Y-121836666D01*
X145835714Y-120979523D02*
X146502380Y-120979523D01*
X145454761Y-121217619D02*
X146169047Y-121455714D01*
X146169047Y-120836666D01*
X176907142Y-129336666D02*
X176954761Y-129384285D01*
X177002380Y-129527142D01*
X177002380Y-129622380D01*
X176954761Y-129765238D01*
X176859523Y-129860476D01*
X176764285Y-129908095D01*
X176573809Y-129955714D01*
X176430952Y-129955714D01*
X176240476Y-129908095D01*
X176145238Y-129860476D01*
X176050000Y-129765238D01*
X176002380Y-129622380D01*
X176002380Y-129527142D01*
X176050000Y-129384285D01*
X176097619Y-129336666D01*
X176002380Y-129003333D02*
X176002380Y-128384285D01*
X176383333Y-128717619D01*
X176383333Y-128574761D01*
X176430952Y-128479523D01*
X176478571Y-128431904D01*
X176573809Y-128384285D01*
X176811904Y-128384285D01*
X176907142Y-128431904D01*
X176954761Y-128479523D01*
X177002380Y-128574761D01*
X177002380Y-128860476D01*
X176954761Y-128955714D01*
X176907142Y-129003333D01*
X164907142Y-105336666D02*
X164954761Y-105384285D01*
X165002380Y-105527142D01*
X165002380Y-105622380D01*
X164954761Y-105765238D01*
X164859523Y-105860476D01*
X164764285Y-105908095D01*
X164573809Y-105955714D01*
X164430952Y-105955714D01*
X164240476Y-105908095D01*
X164145238Y-105860476D01*
X164050000Y-105765238D01*
X164002380Y-105622380D01*
X164002380Y-105527142D01*
X164050000Y-105384285D01*
X164097619Y-105336666D01*
X164097619Y-104955714D02*
X164050000Y-104908095D01*
X164002380Y-104812857D01*
X164002380Y-104574761D01*
X164050000Y-104479523D01*
X164097619Y-104431904D01*
X164192857Y-104384285D01*
X164288095Y-104384285D01*
X164430952Y-104431904D01*
X165002380Y-105003333D01*
X165002380Y-104384285D01*
X164407142Y-129336666D02*
X164454761Y-129384285D01*
X164502380Y-129527142D01*
X164502380Y-129622380D01*
X164454761Y-129765238D01*
X164359523Y-129860476D01*
X164264285Y-129908095D01*
X164073809Y-129955714D01*
X163930952Y-129955714D01*
X163740476Y-129908095D01*
X163645238Y-129860476D01*
X163550000Y-129765238D01*
X163502380Y-129622380D01*
X163502380Y-129527142D01*
X163550000Y-129384285D01*
X163597619Y-129336666D01*
X164502380Y-128384285D02*
X164502380Y-128955714D01*
X164502380Y-128670000D02*
X163502380Y-128670000D01*
X163645238Y-128765238D01*
X163740476Y-128860476D01*
X163788095Y-128955714D01*
%LPC*%
D12*
X166550000Y-129145000D03*
X170550000Y-129145000D03*
X170550000Y-123195000D03*
X166550000Y-123195000D03*
X158050000Y-129145000D03*
X154050000Y-129145000D03*
X154050000Y-123195000D03*
X158050000Y-123195000D03*
D13*
X168550000Y-116670000D03*
X171090000Y-119210000D03*
X173630000Y-116670000D03*
X156050000Y-116670000D03*
X158590000Y-119210000D03*
X161130000Y-116670000D03*
D14*
X121920000Y-91440000D03*
D15*
X121920000Y-88900000D03*
X124460000Y-91440000D03*
X124460000Y-88900000D03*
X127000000Y-91440000D03*
X127000000Y-88900000D03*
X129540000Y-91440000D03*
X129540000Y-88900000D03*
X132080000Y-91440000D03*
X132080000Y-88900000D03*
X134620000Y-91440000D03*
X134620000Y-88900000D03*
X137160000Y-91440000D03*
X137160000Y-88900000D03*
X139700000Y-91440000D03*
X139700000Y-88900000D03*
X142240000Y-91440000D03*
X142240000Y-88900000D03*
X144780000Y-91440000D03*
X144780000Y-88900000D03*
X147320000Y-91440000D03*
X147320000Y-88900000D03*
X149860000Y-91440000D03*
X149860000Y-88900000D03*
X152400000Y-91440000D03*
X152400000Y-88900000D03*
X154940000Y-91440000D03*
X154940000Y-88900000D03*
X157480000Y-91440000D03*
X157480000Y-88900000D03*
X160020000Y-91440000D03*
X160020000Y-88900000D03*
X162560000Y-91440000D03*
X162560000Y-88900000D03*
X165100000Y-91440000D03*
X165100000Y-88900000D03*
X167640000Y-91440000D03*
X167640000Y-88900000D03*
X170180000Y-91440000D03*
X170180000Y-88900000D03*
D16*
X171437500Y-100170000D03*
X169662500Y-100170000D03*
D17*
X165300000Y-139670000D03*
X161800000Y-139670000D03*
X158300000Y-139670000D03*
X154800000Y-139670000D03*
X151300000Y-139670000D03*
X147800000Y-139670000D03*
X144300000Y-139670000D03*
X140800000Y-139670000D03*
X137300000Y-139670000D03*
X133800000Y-139670000D03*
X130300000Y-139670000D03*
D18*
X126800000Y-139670000D03*
D19*
X147450000Y-126120000D03*
X147450000Y-124220000D03*
X149650000Y-124220000D03*
X149650000Y-125170000D03*
X149650000Y-126120000D03*
D16*
X137437500Y-120170000D03*
X135662500Y-120170000D03*
X142937500Y-120170000D03*
X141162500Y-120170000D03*
X175437500Y-102670000D03*
X173662500Y-102670000D03*
X169662500Y-102670000D03*
X171437500Y-102670000D03*
X168437500Y-109670000D03*
X166662500Y-109670000D03*
X162937500Y-102670000D03*
X161162500Y-102670000D03*
X158937500Y-100170000D03*
X157162500Y-100170000D03*
X157162500Y-102670000D03*
X158937500Y-102670000D03*
X155937500Y-109670000D03*
X154162500Y-109670000D03*
X149437500Y-119170000D03*
X147662500Y-119170000D03*
X137662500Y-113170000D03*
X139437500Y-113170000D03*
D20*
X172050000Y-108670000D03*
X175050000Y-107720000D03*
X175050000Y-109620000D03*
D21*
X136550000Y-126670000D03*
X135600000Y-123670000D03*
X137500000Y-123670000D03*
X142050000Y-126670000D03*
X141100000Y-123670000D03*
X143000000Y-123670000D03*
D20*
X159550000Y-108670000D03*
X162550000Y-107720000D03*
X162550000Y-109620000D03*
D22*
X168350000Y-106670000D03*
X166750000Y-106670000D03*
D23*
X173550000Y-124520000D03*
X173550000Y-127820000D03*
D22*
X155850000Y-106670000D03*
X154250000Y-106670000D03*
D23*
X161050000Y-124520000D03*
X161050000Y-127820000D03*
D16*
X175437500Y-105170000D03*
X173662500Y-105170000D03*
X147662500Y-129170000D03*
X149437500Y-129170000D03*
X147662500Y-121670000D03*
X149437500Y-121670000D03*
D24*
X176550000Y-125282500D03*
X176550000Y-127057500D03*
D16*
X162937500Y-105170000D03*
X161162500Y-105170000D03*
D24*
X164050000Y-125282500D03*
X164050000Y-127057500D03*
M02*
