M48
; DRILL file {KiCad (6.0.0-rc1-dev-1307-g4363cc0be)} date Sat 19 Jan 2019 06:55:16 PM CET
; FORMAT={-:-/ absolute / metric / decimal}
; #@! TF.CreationDate,2019-01-19T18:55:16+01:00
; #@! TF.GenerationSoftware,Kicad,Pcbnew,(6.0.0-rc1-dev-1307-g4363cc0be)
; #@! TF.FileFunction,Plated,1,2,PTH
FMAT,2
METRIC
T1C0.400
T2C0.800
T3C1.000
T4C1.200
T5C2.750
%
G90
G05
T1
X133.05Y-93.67
X134.55Y-123.67
X135.55Y-118.67
X136.05Y-93.67
X136.55Y-111.17
X139.05Y-111.17
X140.05Y-123.67
X141.05Y-118.67
X141.55Y-111.17
X143.55Y-110.67
X145.55Y-128.67
X145.55Y-131.67
X147.05Y-95.67
X147.55Y-120.67
X147.55Y-127.67
X148.55Y-130.67
X149.05Y-94.17
X149.05Y-110.67
X149.535Y-117.67
X152.05Y-94.17
X152.05Y-104.67
X152.55Y-100.17
X153.55Y-118.17
X153.55Y-141.67
X154.55Y-96.67
X154.55Y-102.17
X154.55Y-127.17
X155.55Y-95.17
X156.05Y-128.67
X157.55Y-101.17
X159.05Y-93.67
X159.05Y-97.67
X159.55Y-122.17
X160.55Y-96.17
X160.55Y-111.17
X161.55Y-114.67
X162.05Y-95.17
X162.05Y-97.17
X163.05Y-100.67
X164.55Y-108.17
X167.05Y-127.17
X168.55Y-128.67
X170.05Y-101.17
X170.05Y-108.67
X171.05Y-141.67
X172.05Y-122.17
X173.05Y-111.17
X174.05Y-114.67
X175.55Y-100.67
X177.05Y-108.17
X177.55Y-135.17
T2
X168.55Y-116.67
X171.09Y-119.21
X173.63Y-116.67
X156.05Y-116.67
X158.59Y-119.21
X161.13Y-116.67
T3
X121.92Y-88.9
X121.92Y-91.44
X124.46Y-88.9
X124.46Y-91.44
X127.0Y-88.9
X127.0Y-91.44
X129.54Y-88.9
X129.54Y-91.44
X132.08Y-88.9
X132.08Y-91.44
X134.62Y-88.9
X134.62Y-91.44
X137.16Y-88.9
X137.16Y-91.44
X139.7Y-88.9
X139.7Y-91.44
X142.24Y-88.9
X142.24Y-91.44
X144.78Y-88.9
X144.78Y-91.44
X147.32Y-88.9
X147.32Y-91.44
X149.86Y-88.9
X149.86Y-91.44
X152.4Y-88.9
X152.4Y-91.44
X154.94Y-88.9
X154.94Y-91.44
X157.48Y-88.9
X157.48Y-91.44
X160.02Y-88.9
X160.02Y-91.44
X162.56Y-88.9
X162.56Y-91.44
X165.1Y-88.9
X165.1Y-91.44
X167.64Y-88.9
X167.64Y-91.44
X170.18Y-88.9
X170.18Y-91.44
T4
X126.8Y-134.67
X130.3Y-134.67
X133.8Y-134.67
X137.3Y-134.67
X140.8Y-134.67
X144.3Y-134.67
X147.8Y-134.67
X151.3Y-134.67
X154.8Y-134.67
X158.3Y-134.67
X161.8Y-134.67
X165.3Y-134.67
T5
X117.05Y-90.17
X117.05Y-139.17
X175.05Y-90.17
X175.05Y-139.17
T0
M30
