G04 #@! TF.GenerationSoftware,KiCad,Pcbnew,(6.0.0-rc1-dev-1307-g4363cc0be)*
G04 #@! TF.CreationDate,2019-01-19T18:55:04+01:00
G04 #@! TF.ProjectId,authbox-relay-driver,61757468-626f-4782-9d72-656c61792d64,rev?*
G04 #@! TF.SameCoordinates,Original*
G04 #@! TF.FileFunction,Legend,Bot*
G04 #@! TF.FilePolarity,Positive*
%FSLAX46Y46*%
G04 Gerber Fmt 4.6, Leading zero omitted, Abs format (unit mm)*
G04 Created by KiCad (PCBNEW (6.0.0-rc1-dev-1307-g4363cc0be)) date Sat 19 Jan 2019 06:55:04 PM CET*
%MOMM*%
%LPD*%
G04 APERTURE LIST*
%ADD10C,0.120000*%
%ADD11C,0.150000*%
%ADD12C,2.602000*%
%ADD13R,1.802000X1.802000*%
%ADD14O,1.802000X1.802000*%
%ADD15O,1.902000X3.702000*%
%ADD16R,1.902000X3.702000*%
G04 APERTURE END LIST*
D10*
G04 #@! TO.C,J1*
X120590000Y-87570000D02*
X120590000Y-90170000D01*
X120590000Y-87570000D02*
X171510000Y-87570000D01*
X171510000Y-87570000D02*
X171510000Y-92770000D01*
X123190000Y-92770000D02*
X171510000Y-92770000D01*
X123190000Y-90170000D02*
X123190000Y-92770000D01*
X120590000Y-90170000D02*
X123190000Y-90170000D01*
X120590000Y-92770000D02*
X121920000Y-92770000D01*
X120590000Y-91440000D02*
X120590000Y-92770000D01*
G04 #@! TO.C,J2*
X165600000Y-132070000D02*
X165000000Y-132070000D01*
X165300000Y-132670000D02*
X165600000Y-132070000D01*
X165000000Y-132070000D02*
X165300000Y-132670000D01*
X167830000Y-139470000D02*
X124270000Y-139470000D01*
X129250000Y-133390000D02*
X127850000Y-133390000D01*
X132750000Y-133390000D02*
X131350000Y-133390000D01*
X136250000Y-133390000D02*
X134850000Y-133390000D01*
X139750000Y-133390000D02*
X138350000Y-133390000D01*
X143250000Y-133390000D02*
X141850000Y-133390000D01*
X146750000Y-133390000D02*
X145350000Y-133390000D01*
X150250000Y-133390000D02*
X148850000Y-133390000D01*
X153750000Y-133390000D02*
X152350000Y-133390000D01*
X157250000Y-133390000D02*
X155850000Y-133390000D01*
X160750000Y-133390000D02*
X159350000Y-133390000D01*
X164250000Y-133390000D02*
X162850000Y-133390000D01*
X124270000Y-133390000D02*
X125750000Y-133390000D01*
X167830000Y-133390000D02*
X166350000Y-133390000D01*
X124270000Y-142750000D02*
X124270000Y-133390000D01*
X167830000Y-142750000D02*
X124270000Y-142750000D01*
X167830000Y-133390000D02*
X167830000Y-142750000D01*
G04 #@! TO.C,J1*
D11*
X122253333Y-93432380D02*
X122253333Y-94146666D01*
X122300952Y-94289523D01*
X122396190Y-94384761D01*
X122539047Y-94432380D01*
X122634285Y-94432380D01*
X121253333Y-94432380D02*
X121824761Y-94432380D01*
X121539047Y-94432380D02*
X121539047Y-93432380D01*
X121634285Y-93575238D01*
X121729523Y-93670476D01*
X121824761Y-93718095D01*
G04 #@! TO.C,J2*
X146383333Y-131322380D02*
X146383333Y-132036666D01*
X146430952Y-132179523D01*
X146526190Y-132274761D01*
X146669047Y-132322380D01*
X146764285Y-132322380D01*
X145954761Y-131417619D02*
X145907142Y-131370000D01*
X145811904Y-131322380D01*
X145573809Y-131322380D01*
X145478571Y-131370000D01*
X145430952Y-131417619D01*
X145383333Y-131512857D01*
X145383333Y-131608095D01*
X145430952Y-131750952D01*
X146002380Y-132322380D01*
X145383333Y-132322380D01*
G04 #@! TD*
%LPC*%
D12*
G04 #@! TO.C,RV2*
X168550000Y-116670000D03*
X171090000Y-119210000D03*
X173630000Y-116670000D03*
G04 #@! TD*
G04 #@! TO.C,RV1*
X156050000Y-116670000D03*
X158590000Y-119210000D03*
X161130000Y-116670000D03*
G04 #@! TD*
D13*
G04 #@! TO.C,J1*
X121920000Y-91440000D03*
D14*
X121920000Y-88900000D03*
X124460000Y-91440000D03*
X124460000Y-88900000D03*
X127000000Y-91440000D03*
X127000000Y-88900000D03*
X129540000Y-91440000D03*
X129540000Y-88900000D03*
X132080000Y-91440000D03*
X132080000Y-88900000D03*
X134620000Y-91440000D03*
X134620000Y-88900000D03*
X137160000Y-91440000D03*
X137160000Y-88900000D03*
X139700000Y-91440000D03*
X139700000Y-88900000D03*
X142240000Y-91440000D03*
X142240000Y-88900000D03*
X144780000Y-91440000D03*
X144780000Y-88900000D03*
X147320000Y-91440000D03*
X147320000Y-88900000D03*
X149860000Y-91440000D03*
X149860000Y-88900000D03*
X152400000Y-91440000D03*
X152400000Y-88900000D03*
X154940000Y-91440000D03*
X154940000Y-88900000D03*
X157480000Y-91440000D03*
X157480000Y-88900000D03*
X160020000Y-91440000D03*
X160020000Y-88900000D03*
X162560000Y-91440000D03*
X162560000Y-88900000D03*
X165100000Y-91440000D03*
X165100000Y-88900000D03*
X167640000Y-91440000D03*
X167640000Y-88900000D03*
X170180000Y-91440000D03*
X170180000Y-88900000D03*
G04 #@! TD*
D15*
G04 #@! TO.C,J2*
X126800000Y-134670000D03*
X130300000Y-134670000D03*
X133800000Y-134670000D03*
X137300000Y-134670000D03*
X140800000Y-134670000D03*
X144300000Y-134670000D03*
X147800000Y-134670000D03*
X151300000Y-134670000D03*
X154800000Y-134670000D03*
X158300000Y-134670000D03*
X161800000Y-134670000D03*
D16*
X165300000Y-134670000D03*
G04 #@! TD*
M02*
