G04 #@! TF.GenerationSoftware,KiCad,Pcbnew,(5.1.0-rc2-10-g13249b723)*
G04 #@! TF.CreationDate,2019-03-10T20:32:50+01:00*
G04 #@! TF.ProjectId,authbox-relay-driver,61757468-626f-4782-9d72-656c61792d64,rev?*
G04 #@! TF.SameCoordinates,Original*
G04 #@! TF.FileFunction,Soldermask,Bot*
G04 #@! TF.FilePolarity,Negative*
%FSLAX46Y46*%
G04 Gerber Fmt 4.6, Leading zero omitted, Abs format (unit mm)*
G04 Created by KiCad (PCBNEW (5.1.0-rc2-10-g13249b723)) date 2019-03-10 20:32:50*
%MOMM*%
%LPD*%
G04 APERTURE LIST*
%ADD10C,0.100000*%
G04 APERTURE END LIST*
D10*
G36*
X165486424Y-137832760D02*
G01*
X165486427Y-137832761D01*
X165486428Y-137832761D01*
X165665692Y-137887140D01*
X165665695Y-137887142D01*
X165665696Y-137887142D01*
X165830903Y-137975446D01*
X165975712Y-138094288D01*
X166094554Y-138239097D01*
X166182858Y-138404303D01*
X166182860Y-138404307D01*
X166182860Y-138404308D01*
X166237240Y-138583575D01*
X166251000Y-138723282D01*
X166251000Y-140616718D01*
X166237240Y-140756425D01*
X166237239Y-140756428D01*
X166237239Y-140756429D01*
X166182860Y-140935693D01*
X166182858Y-140935696D01*
X166182858Y-140935697D01*
X166094554Y-141100903D01*
X165975712Y-141245712D01*
X165830903Y-141364554D01*
X165665697Y-141452858D01*
X165665693Y-141452860D01*
X165486429Y-141507239D01*
X165486428Y-141507239D01*
X165486425Y-141507240D01*
X165300000Y-141525601D01*
X165113576Y-141507240D01*
X165113573Y-141507239D01*
X165113572Y-141507239D01*
X164934308Y-141452860D01*
X164934304Y-141452858D01*
X164769098Y-141364554D01*
X164624289Y-141245712D01*
X164505447Y-141100903D01*
X164417143Y-140935697D01*
X164417143Y-140935696D01*
X164417141Y-140935693D01*
X164362762Y-140756429D01*
X164362762Y-140756428D01*
X164362761Y-140756425D01*
X164349000Y-140616717D01*
X164349000Y-138723283D01*
X164362760Y-138583576D01*
X164362761Y-138583572D01*
X164417140Y-138404308D01*
X164417143Y-138404303D01*
X164505446Y-138239097D01*
X164624288Y-138094288D01*
X164769097Y-137975446D01*
X164934303Y-137887142D01*
X164934304Y-137887142D01*
X164934307Y-137887140D01*
X165113571Y-137832761D01*
X165113572Y-137832761D01*
X165113575Y-137832760D01*
X165300000Y-137814399D01*
X165486424Y-137832760D01*
X165486424Y-137832760D01*
G37*
G36*
X161986424Y-137832760D02*
G01*
X161986427Y-137832761D01*
X161986428Y-137832761D01*
X162165692Y-137887140D01*
X162165695Y-137887142D01*
X162165696Y-137887142D01*
X162330903Y-137975446D01*
X162475712Y-138094288D01*
X162594554Y-138239097D01*
X162682858Y-138404303D01*
X162682860Y-138404307D01*
X162682860Y-138404308D01*
X162737240Y-138583575D01*
X162751000Y-138723282D01*
X162751000Y-140616718D01*
X162737240Y-140756425D01*
X162737239Y-140756428D01*
X162737239Y-140756429D01*
X162682860Y-140935693D01*
X162682858Y-140935696D01*
X162682858Y-140935697D01*
X162594554Y-141100903D01*
X162475712Y-141245712D01*
X162330903Y-141364554D01*
X162165697Y-141452858D01*
X162165693Y-141452860D01*
X161986429Y-141507239D01*
X161986428Y-141507239D01*
X161986425Y-141507240D01*
X161800000Y-141525601D01*
X161613576Y-141507240D01*
X161613573Y-141507239D01*
X161613572Y-141507239D01*
X161434308Y-141452860D01*
X161434304Y-141452858D01*
X161269098Y-141364554D01*
X161124289Y-141245712D01*
X161005447Y-141100903D01*
X160917143Y-140935697D01*
X160917143Y-140935696D01*
X160917141Y-140935693D01*
X160862762Y-140756429D01*
X160862762Y-140756428D01*
X160862761Y-140756425D01*
X160849000Y-140616717D01*
X160849000Y-138723283D01*
X160862760Y-138583576D01*
X160862761Y-138583572D01*
X160917140Y-138404308D01*
X160917143Y-138404303D01*
X161005446Y-138239097D01*
X161124288Y-138094288D01*
X161269097Y-137975446D01*
X161434303Y-137887142D01*
X161434304Y-137887142D01*
X161434307Y-137887140D01*
X161613571Y-137832761D01*
X161613572Y-137832761D01*
X161613575Y-137832760D01*
X161800000Y-137814399D01*
X161986424Y-137832760D01*
X161986424Y-137832760D01*
G37*
G36*
X158486424Y-137832760D02*
G01*
X158486427Y-137832761D01*
X158486428Y-137832761D01*
X158665692Y-137887140D01*
X158665695Y-137887142D01*
X158665696Y-137887142D01*
X158830903Y-137975446D01*
X158975712Y-138094288D01*
X159094554Y-138239097D01*
X159182858Y-138404303D01*
X159182860Y-138404307D01*
X159182860Y-138404308D01*
X159237240Y-138583575D01*
X159251000Y-138723282D01*
X159251000Y-140616718D01*
X159237240Y-140756425D01*
X159237239Y-140756428D01*
X159237239Y-140756429D01*
X159182860Y-140935693D01*
X159182858Y-140935696D01*
X159182858Y-140935697D01*
X159094554Y-141100903D01*
X158975712Y-141245712D01*
X158830903Y-141364554D01*
X158665697Y-141452858D01*
X158665693Y-141452860D01*
X158486429Y-141507239D01*
X158486428Y-141507239D01*
X158486425Y-141507240D01*
X158300000Y-141525601D01*
X158113576Y-141507240D01*
X158113573Y-141507239D01*
X158113572Y-141507239D01*
X157934308Y-141452860D01*
X157934304Y-141452858D01*
X157769098Y-141364554D01*
X157624289Y-141245712D01*
X157505447Y-141100903D01*
X157417143Y-140935697D01*
X157417143Y-140935696D01*
X157417141Y-140935693D01*
X157362762Y-140756429D01*
X157362762Y-140756428D01*
X157362761Y-140756425D01*
X157349000Y-140616717D01*
X157349000Y-138723283D01*
X157362760Y-138583576D01*
X157362761Y-138583572D01*
X157417140Y-138404308D01*
X157417143Y-138404303D01*
X157505446Y-138239097D01*
X157624288Y-138094288D01*
X157769097Y-137975446D01*
X157934303Y-137887142D01*
X157934304Y-137887142D01*
X157934307Y-137887140D01*
X158113571Y-137832761D01*
X158113572Y-137832761D01*
X158113575Y-137832760D01*
X158300000Y-137814399D01*
X158486424Y-137832760D01*
X158486424Y-137832760D01*
G37*
G36*
X154986424Y-137832760D02*
G01*
X154986427Y-137832761D01*
X154986428Y-137832761D01*
X155165692Y-137887140D01*
X155165695Y-137887142D01*
X155165696Y-137887142D01*
X155330903Y-137975446D01*
X155475712Y-138094288D01*
X155594554Y-138239097D01*
X155682858Y-138404303D01*
X155682860Y-138404307D01*
X155682860Y-138404308D01*
X155737240Y-138583575D01*
X155751000Y-138723282D01*
X155751000Y-140616718D01*
X155737240Y-140756425D01*
X155737239Y-140756428D01*
X155737239Y-140756429D01*
X155682860Y-140935693D01*
X155682858Y-140935696D01*
X155682858Y-140935697D01*
X155594554Y-141100903D01*
X155475712Y-141245712D01*
X155330903Y-141364554D01*
X155165697Y-141452858D01*
X155165693Y-141452860D01*
X154986429Y-141507239D01*
X154986428Y-141507239D01*
X154986425Y-141507240D01*
X154800000Y-141525601D01*
X154613576Y-141507240D01*
X154613573Y-141507239D01*
X154613572Y-141507239D01*
X154434308Y-141452860D01*
X154434304Y-141452858D01*
X154269098Y-141364554D01*
X154124289Y-141245712D01*
X154005447Y-141100903D01*
X153917143Y-140935697D01*
X153917143Y-140935696D01*
X153917141Y-140935693D01*
X153862762Y-140756429D01*
X153862762Y-140756428D01*
X153862761Y-140756425D01*
X153849000Y-140616717D01*
X153849000Y-138723283D01*
X153862760Y-138583576D01*
X153862761Y-138583572D01*
X153917140Y-138404308D01*
X153917143Y-138404303D01*
X154005446Y-138239097D01*
X154124288Y-138094288D01*
X154269097Y-137975446D01*
X154434303Y-137887142D01*
X154434304Y-137887142D01*
X154434307Y-137887140D01*
X154613571Y-137832761D01*
X154613572Y-137832761D01*
X154613575Y-137832760D01*
X154800000Y-137814399D01*
X154986424Y-137832760D01*
X154986424Y-137832760D01*
G37*
G36*
X151486424Y-137832760D02*
G01*
X151486427Y-137832761D01*
X151486428Y-137832761D01*
X151665692Y-137887140D01*
X151665695Y-137887142D01*
X151665696Y-137887142D01*
X151830903Y-137975446D01*
X151975712Y-138094288D01*
X152094554Y-138239097D01*
X152182858Y-138404303D01*
X152182860Y-138404307D01*
X152182860Y-138404308D01*
X152237240Y-138583575D01*
X152251000Y-138723282D01*
X152251000Y-140616718D01*
X152237240Y-140756425D01*
X152237239Y-140756428D01*
X152237239Y-140756429D01*
X152182860Y-140935693D01*
X152182858Y-140935696D01*
X152182858Y-140935697D01*
X152094554Y-141100903D01*
X151975712Y-141245712D01*
X151830903Y-141364554D01*
X151665697Y-141452858D01*
X151665693Y-141452860D01*
X151486429Y-141507239D01*
X151486428Y-141507239D01*
X151486425Y-141507240D01*
X151300000Y-141525601D01*
X151113576Y-141507240D01*
X151113573Y-141507239D01*
X151113572Y-141507239D01*
X150934308Y-141452860D01*
X150934304Y-141452858D01*
X150769098Y-141364554D01*
X150624289Y-141245712D01*
X150505447Y-141100903D01*
X150417143Y-140935697D01*
X150417143Y-140935696D01*
X150417141Y-140935693D01*
X150362762Y-140756429D01*
X150362762Y-140756428D01*
X150362761Y-140756425D01*
X150349000Y-140616717D01*
X150349000Y-138723283D01*
X150362760Y-138583576D01*
X150362761Y-138583572D01*
X150417140Y-138404308D01*
X150417143Y-138404303D01*
X150505446Y-138239097D01*
X150624288Y-138094288D01*
X150769097Y-137975446D01*
X150934303Y-137887142D01*
X150934304Y-137887142D01*
X150934307Y-137887140D01*
X151113571Y-137832761D01*
X151113572Y-137832761D01*
X151113575Y-137832760D01*
X151300000Y-137814399D01*
X151486424Y-137832760D01*
X151486424Y-137832760D01*
G37*
G36*
X147986424Y-137832760D02*
G01*
X147986427Y-137832761D01*
X147986428Y-137832761D01*
X148165692Y-137887140D01*
X148165695Y-137887142D01*
X148165696Y-137887142D01*
X148330903Y-137975446D01*
X148475712Y-138094288D01*
X148594554Y-138239097D01*
X148682858Y-138404303D01*
X148682860Y-138404307D01*
X148682860Y-138404308D01*
X148737240Y-138583575D01*
X148751000Y-138723282D01*
X148751000Y-140616718D01*
X148737240Y-140756425D01*
X148737239Y-140756428D01*
X148737239Y-140756429D01*
X148682860Y-140935693D01*
X148682858Y-140935696D01*
X148682858Y-140935697D01*
X148594554Y-141100903D01*
X148475712Y-141245712D01*
X148330903Y-141364554D01*
X148165697Y-141452858D01*
X148165693Y-141452860D01*
X147986429Y-141507239D01*
X147986428Y-141507239D01*
X147986425Y-141507240D01*
X147800000Y-141525601D01*
X147613576Y-141507240D01*
X147613573Y-141507239D01*
X147613572Y-141507239D01*
X147434308Y-141452860D01*
X147434304Y-141452858D01*
X147269098Y-141364554D01*
X147124289Y-141245712D01*
X147005447Y-141100903D01*
X146917143Y-140935697D01*
X146917143Y-140935696D01*
X146917141Y-140935693D01*
X146862762Y-140756429D01*
X146862762Y-140756428D01*
X146862761Y-140756425D01*
X146849000Y-140616717D01*
X146849000Y-138723283D01*
X146862760Y-138583576D01*
X146862761Y-138583572D01*
X146917140Y-138404308D01*
X146917143Y-138404303D01*
X147005446Y-138239097D01*
X147124288Y-138094288D01*
X147269097Y-137975446D01*
X147434303Y-137887142D01*
X147434304Y-137887142D01*
X147434307Y-137887140D01*
X147613571Y-137832761D01*
X147613572Y-137832761D01*
X147613575Y-137832760D01*
X147800000Y-137814399D01*
X147986424Y-137832760D01*
X147986424Y-137832760D01*
G37*
G36*
X144486424Y-137832760D02*
G01*
X144486427Y-137832761D01*
X144486428Y-137832761D01*
X144665692Y-137887140D01*
X144665695Y-137887142D01*
X144665696Y-137887142D01*
X144830903Y-137975446D01*
X144975712Y-138094288D01*
X145094554Y-138239097D01*
X145182858Y-138404303D01*
X145182860Y-138404307D01*
X145182860Y-138404308D01*
X145237240Y-138583575D01*
X145251000Y-138723282D01*
X145251000Y-140616718D01*
X145237240Y-140756425D01*
X145237239Y-140756428D01*
X145237239Y-140756429D01*
X145182860Y-140935693D01*
X145182858Y-140935696D01*
X145182858Y-140935697D01*
X145094554Y-141100903D01*
X144975712Y-141245712D01*
X144830903Y-141364554D01*
X144665697Y-141452858D01*
X144665693Y-141452860D01*
X144486429Y-141507239D01*
X144486428Y-141507239D01*
X144486425Y-141507240D01*
X144300000Y-141525601D01*
X144113576Y-141507240D01*
X144113573Y-141507239D01*
X144113572Y-141507239D01*
X143934308Y-141452860D01*
X143934304Y-141452858D01*
X143769098Y-141364554D01*
X143624289Y-141245712D01*
X143505447Y-141100903D01*
X143417143Y-140935697D01*
X143417143Y-140935696D01*
X143417141Y-140935693D01*
X143362762Y-140756429D01*
X143362762Y-140756428D01*
X143362761Y-140756425D01*
X143349000Y-140616717D01*
X143349000Y-138723283D01*
X143362760Y-138583576D01*
X143362761Y-138583572D01*
X143417140Y-138404308D01*
X143417143Y-138404303D01*
X143505446Y-138239097D01*
X143624288Y-138094288D01*
X143769097Y-137975446D01*
X143934303Y-137887142D01*
X143934304Y-137887142D01*
X143934307Y-137887140D01*
X144113571Y-137832761D01*
X144113572Y-137832761D01*
X144113575Y-137832760D01*
X144300000Y-137814399D01*
X144486424Y-137832760D01*
X144486424Y-137832760D01*
G37*
G36*
X140986424Y-137832760D02*
G01*
X140986427Y-137832761D01*
X140986428Y-137832761D01*
X141165692Y-137887140D01*
X141165695Y-137887142D01*
X141165696Y-137887142D01*
X141330903Y-137975446D01*
X141475712Y-138094288D01*
X141594554Y-138239097D01*
X141682858Y-138404303D01*
X141682860Y-138404307D01*
X141682860Y-138404308D01*
X141737240Y-138583575D01*
X141751000Y-138723282D01*
X141751000Y-140616718D01*
X141737240Y-140756425D01*
X141737239Y-140756428D01*
X141737239Y-140756429D01*
X141682860Y-140935693D01*
X141682858Y-140935696D01*
X141682858Y-140935697D01*
X141594554Y-141100903D01*
X141475712Y-141245712D01*
X141330903Y-141364554D01*
X141165697Y-141452858D01*
X141165693Y-141452860D01*
X140986429Y-141507239D01*
X140986428Y-141507239D01*
X140986425Y-141507240D01*
X140800000Y-141525601D01*
X140613576Y-141507240D01*
X140613573Y-141507239D01*
X140613572Y-141507239D01*
X140434308Y-141452860D01*
X140434304Y-141452858D01*
X140269098Y-141364554D01*
X140124289Y-141245712D01*
X140005447Y-141100903D01*
X139917143Y-140935697D01*
X139917143Y-140935696D01*
X139917141Y-140935693D01*
X139862762Y-140756429D01*
X139862762Y-140756428D01*
X139862761Y-140756425D01*
X139849000Y-140616717D01*
X139849000Y-138723283D01*
X139862760Y-138583576D01*
X139862761Y-138583572D01*
X139917140Y-138404308D01*
X139917143Y-138404303D01*
X140005446Y-138239097D01*
X140124288Y-138094288D01*
X140269097Y-137975446D01*
X140434303Y-137887142D01*
X140434304Y-137887142D01*
X140434307Y-137887140D01*
X140613571Y-137832761D01*
X140613572Y-137832761D01*
X140613575Y-137832760D01*
X140800000Y-137814399D01*
X140986424Y-137832760D01*
X140986424Y-137832760D01*
G37*
G36*
X137486424Y-137832760D02*
G01*
X137486427Y-137832761D01*
X137486428Y-137832761D01*
X137665692Y-137887140D01*
X137665695Y-137887142D01*
X137665696Y-137887142D01*
X137830903Y-137975446D01*
X137975712Y-138094288D01*
X138094554Y-138239097D01*
X138182858Y-138404303D01*
X138182860Y-138404307D01*
X138182860Y-138404308D01*
X138237240Y-138583575D01*
X138251000Y-138723282D01*
X138251000Y-140616718D01*
X138237240Y-140756425D01*
X138237239Y-140756428D01*
X138237239Y-140756429D01*
X138182860Y-140935693D01*
X138182858Y-140935696D01*
X138182858Y-140935697D01*
X138094554Y-141100903D01*
X137975712Y-141245712D01*
X137830903Y-141364554D01*
X137665697Y-141452858D01*
X137665693Y-141452860D01*
X137486429Y-141507239D01*
X137486428Y-141507239D01*
X137486425Y-141507240D01*
X137300000Y-141525601D01*
X137113576Y-141507240D01*
X137113573Y-141507239D01*
X137113572Y-141507239D01*
X136934308Y-141452860D01*
X136934304Y-141452858D01*
X136769098Y-141364554D01*
X136624289Y-141245712D01*
X136505447Y-141100903D01*
X136417143Y-140935697D01*
X136417143Y-140935696D01*
X136417141Y-140935693D01*
X136362762Y-140756429D01*
X136362762Y-140756428D01*
X136362761Y-140756425D01*
X136349000Y-140616717D01*
X136349000Y-138723283D01*
X136362760Y-138583576D01*
X136362761Y-138583572D01*
X136417140Y-138404308D01*
X136417143Y-138404303D01*
X136505446Y-138239097D01*
X136624288Y-138094288D01*
X136769097Y-137975446D01*
X136934303Y-137887142D01*
X136934304Y-137887142D01*
X136934307Y-137887140D01*
X137113571Y-137832761D01*
X137113572Y-137832761D01*
X137113575Y-137832760D01*
X137300000Y-137814399D01*
X137486424Y-137832760D01*
X137486424Y-137832760D01*
G37*
G36*
X133986424Y-137832760D02*
G01*
X133986427Y-137832761D01*
X133986428Y-137832761D01*
X134165692Y-137887140D01*
X134165695Y-137887142D01*
X134165696Y-137887142D01*
X134330903Y-137975446D01*
X134475712Y-138094288D01*
X134594554Y-138239097D01*
X134682858Y-138404303D01*
X134682860Y-138404307D01*
X134682860Y-138404308D01*
X134737240Y-138583575D01*
X134751000Y-138723282D01*
X134751000Y-140616718D01*
X134737240Y-140756425D01*
X134737239Y-140756428D01*
X134737239Y-140756429D01*
X134682860Y-140935693D01*
X134682858Y-140935696D01*
X134682858Y-140935697D01*
X134594554Y-141100903D01*
X134475712Y-141245712D01*
X134330903Y-141364554D01*
X134165697Y-141452858D01*
X134165693Y-141452860D01*
X133986429Y-141507239D01*
X133986428Y-141507239D01*
X133986425Y-141507240D01*
X133800000Y-141525601D01*
X133613576Y-141507240D01*
X133613573Y-141507239D01*
X133613572Y-141507239D01*
X133434308Y-141452860D01*
X133434304Y-141452858D01*
X133269098Y-141364554D01*
X133124289Y-141245712D01*
X133005447Y-141100903D01*
X132917143Y-140935697D01*
X132917143Y-140935696D01*
X132917141Y-140935693D01*
X132862762Y-140756429D01*
X132862762Y-140756428D01*
X132862761Y-140756425D01*
X132849000Y-140616717D01*
X132849000Y-138723283D01*
X132862760Y-138583576D01*
X132862761Y-138583572D01*
X132917140Y-138404308D01*
X132917143Y-138404303D01*
X133005446Y-138239097D01*
X133124288Y-138094288D01*
X133269097Y-137975446D01*
X133434303Y-137887142D01*
X133434304Y-137887142D01*
X133434307Y-137887140D01*
X133613571Y-137832761D01*
X133613572Y-137832761D01*
X133613575Y-137832760D01*
X133800000Y-137814399D01*
X133986424Y-137832760D01*
X133986424Y-137832760D01*
G37*
G36*
X130486424Y-137832760D02*
G01*
X130486427Y-137832761D01*
X130486428Y-137832761D01*
X130665692Y-137887140D01*
X130665695Y-137887142D01*
X130665696Y-137887142D01*
X130830903Y-137975446D01*
X130975712Y-138094288D01*
X131094554Y-138239097D01*
X131182858Y-138404303D01*
X131182860Y-138404307D01*
X131182860Y-138404308D01*
X131237240Y-138583575D01*
X131251000Y-138723282D01*
X131251000Y-140616718D01*
X131237240Y-140756425D01*
X131237239Y-140756428D01*
X131237239Y-140756429D01*
X131182860Y-140935693D01*
X131182858Y-140935696D01*
X131182858Y-140935697D01*
X131094554Y-141100903D01*
X130975712Y-141245712D01*
X130830903Y-141364554D01*
X130665697Y-141452858D01*
X130665693Y-141452860D01*
X130486429Y-141507239D01*
X130486428Y-141507239D01*
X130486425Y-141507240D01*
X130300000Y-141525601D01*
X130113576Y-141507240D01*
X130113573Y-141507239D01*
X130113572Y-141507239D01*
X129934308Y-141452860D01*
X129934304Y-141452858D01*
X129769098Y-141364554D01*
X129624289Y-141245712D01*
X129505447Y-141100903D01*
X129417143Y-140935697D01*
X129417143Y-140935696D01*
X129417141Y-140935693D01*
X129362762Y-140756429D01*
X129362762Y-140756428D01*
X129362761Y-140756425D01*
X129349000Y-140616717D01*
X129349000Y-138723283D01*
X129362760Y-138583576D01*
X129362761Y-138583572D01*
X129417140Y-138404308D01*
X129417143Y-138404303D01*
X129505446Y-138239097D01*
X129624288Y-138094288D01*
X129769097Y-137975446D01*
X129934303Y-137887142D01*
X129934304Y-137887142D01*
X129934307Y-137887140D01*
X130113571Y-137832761D01*
X130113572Y-137832761D01*
X130113575Y-137832760D01*
X130300000Y-137814399D01*
X130486424Y-137832760D01*
X130486424Y-137832760D01*
G37*
G36*
X127751000Y-141521000D02*
G01*
X125849000Y-141521000D01*
X125849000Y-137819000D01*
X127751000Y-137819000D01*
X127751000Y-141521000D01*
X127751000Y-141521000D01*
G37*
G36*
X171469487Y-117958996D02*
G01*
X171706253Y-118057068D01*
X171706255Y-118057069D01*
X171919339Y-118199447D01*
X172100553Y-118380661D01*
X172242932Y-118593747D01*
X172341004Y-118830513D01*
X172391000Y-119081861D01*
X172391000Y-119338139D01*
X172341004Y-119589487D01*
X172242932Y-119826253D01*
X172242931Y-119826255D01*
X172100553Y-120039339D01*
X171919339Y-120220553D01*
X171706255Y-120362931D01*
X171706254Y-120362932D01*
X171706253Y-120362932D01*
X171469487Y-120461004D01*
X171218139Y-120511000D01*
X170961861Y-120511000D01*
X170710513Y-120461004D01*
X170473747Y-120362932D01*
X170473746Y-120362932D01*
X170473745Y-120362931D01*
X170260661Y-120220553D01*
X170079447Y-120039339D01*
X169937069Y-119826255D01*
X169937068Y-119826253D01*
X169838996Y-119589487D01*
X169789000Y-119338139D01*
X169789000Y-119081861D01*
X169838996Y-118830513D01*
X169937068Y-118593747D01*
X170079447Y-118380661D01*
X170260661Y-118199447D01*
X170473745Y-118057069D01*
X170473747Y-118057068D01*
X170710513Y-117958996D01*
X170961861Y-117909000D01*
X171218139Y-117909000D01*
X171469487Y-117958996D01*
X171469487Y-117958996D01*
G37*
G36*
X158969487Y-117958996D02*
G01*
X159206253Y-118057068D01*
X159206255Y-118057069D01*
X159419339Y-118199447D01*
X159600553Y-118380661D01*
X159742932Y-118593747D01*
X159841004Y-118830513D01*
X159891000Y-119081861D01*
X159891000Y-119338139D01*
X159841004Y-119589487D01*
X159742932Y-119826253D01*
X159742931Y-119826255D01*
X159600553Y-120039339D01*
X159419339Y-120220553D01*
X159206255Y-120362931D01*
X159206254Y-120362932D01*
X159206253Y-120362932D01*
X158969487Y-120461004D01*
X158718139Y-120511000D01*
X158461861Y-120511000D01*
X158210513Y-120461004D01*
X157973747Y-120362932D01*
X157973746Y-120362932D01*
X157973745Y-120362931D01*
X157760661Y-120220553D01*
X157579447Y-120039339D01*
X157437069Y-119826255D01*
X157437068Y-119826253D01*
X157338996Y-119589487D01*
X157289000Y-119338139D01*
X157289000Y-119081861D01*
X157338996Y-118830513D01*
X157437068Y-118593747D01*
X157579447Y-118380661D01*
X157760661Y-118199447D01*
X157973745Y-118057069D01*
X157973747Y-118057068D01*
X158210513Y-117958996D01*
X158461861Y-117909000D01*
X158718139Y-117909000D01*
X158969487Y-117958996D01*
X158969487Y-117958996D01*
G37*
G36*
X156429487Y-115418996D02*
G01*
X156666253Y-115517068D01*
X156666255Y-115517069D01*
X156879339Y-115659447D01*
X157060553Y-115840661D01*
X157202932Y-116053747D01*
X157301004Y-116290513D01*
X157351000Y-116541861D01*
X157351000Y-116798139D01*
X157301004Y-117049487D01*
X157202932Y-117286253D01*
X157202931Y-117286255D01*
X157060553Y-117499339D01*
X156879339Y-117680553D01*
X156666255Y-117822931D01*
X156666254Y-117822932D01*
X156666253Y-117822932D01*
X156429487Y-117921004D01*
X156178139Y-117971000D01*
X155921861Y-117971000D01*
X155670513Y-117921004D01*
X155433747Y-117822932D01*
X155433746Y-117822932D01*
X155433745Y-117822931D01*
X155220661Y-117680553D01*
X155039447Y-117499339D01*
X154897069Y-117286255D01*
X154897068Y-117286253D01*
X154798996Y-117049487D01*
X154749000Y-116798139D01*
X154749000Y-116541861D01*
X154798996Y-116290513D01*
X154897068Y-116053747D01*
X155039447Y-115840661D01*
X155220661Y-115659447D01*
X155433745Y-115517069D01*
X155433747Y-115517068D01*
X155670513Y-115418996D01*
X155921861Y-115369000D01*
X156178139Y-115369000D01*
X156429487Y-115418996D01*
X156429487Y-115418996D01*
G37*
G36*
X161509487Y-115418996D02*
G01*
X161746253Y-115517068D01*
X161746255Y-115517069D01*
X161959339Y-115659447D01*
X162140553Y-115840661D01*
X162282932Y-116053747D01*
X162381004Y-116290513D01*
X162431000Y-116541861D01*
X162431000Y-116798139D01*
X162381004Y-117049487D01*
X162282932Y-117286253D01*
X162282931Y-117286255D01*
X162140553Y-117499339D01*
X161959339Y-117680553D01*
X161746255Y-117822931D01*
X161746254Y-117822932D01*
X161746253Y-117822932D01*
X161509487Y-117921004D01*
X161258139Y-117971000D01*
X161001861Y-117971000D01*
X160750513Y-117921004D01*
X160513747Y-117822932D01*
X160513746Y-117822932D01*
X160513745Y-117822931D01*
X160300661Y-117680553D01*
X160119447Y-117499339D01*
X159977069Y-117286255D01*
X159977068Y-117286253D01*
X159878996Y-117049487D01*
X159829000Y-116798139D01*
X159829000Y-116541861D01*
X159878996Y-116290513D01*
X159977068Y-116053747D01*
X160119447Y-115840661D01*
X160300661Y-115659447D01*
X160513745Y-115517069D01*
X160513747Y-115517068D01*
X160750513Y-115418996D01*
X161001861Y-115369000D01*
X161258139Y-115369000D01*
X161509487Y-115418996D01*
X161509487Y-115418996D01*
G37*
G36*
X168929487Y-115418996D02*
G01*
X169166253Y-115517068D01*
X169166255Y-115517069D01*
X169379339Y-115659447D01*
X169560553Y-115840661D01*
X169702932Y-116053747D01*
X169801004Y-116290513D01*
X169851000Y-116541861D01*
X169851000Y-116798139D01*
X169801004Y-117049487D01*
X169702932Y-117286253D01*
X169702931Y-117286255D01*
X169560553Y-117499339D01*
X169379339Y-117680553D01*
X169166255Y-117822931D01*
X169166254Y-117822932D01*
X169166253Y-117822932D01*
X168929487Y-117921004D01*
X168678139Y-117971000D01*
X168421861Y-117971000D01*
X168170513Y-117921004D01*
X167933747Y-117822932D01*
X167933746Y-117822932D01*
X167933745Y-117822931D01*
X167720661Y-117680553D01*
X167539447Y-117499339D01*
X167397069Y-117286255D01*
X167397068Y-117286253D01*
X167298996Y-117049487D01*
X167249000Y-116798139D01*
X167249000Y-116541861D01*
X167298996Y-116290513D01*
X167397068Y-116053747D01*
X167539447Y-115840661D01*
X167720661Y-115659447D01*
X167933745Y-115517069D01*
X167933747Y-115517068D01*
X168170513Y-115418996D01*
X168421861Y-115369000D01*
X168678139Y-115369000D01*
X168929487Y-115418996D01*
X168929487Y-115418996D01*
G37*
G36*
X174009487Y-115418996D02*
G01*
X174246253Y-115517068D01*
X174246255Y-115517069D01*
X174459339Y-115659447D01*
X174640553Y-115840661D01*
X174782932Y-116053747D01*
X174881004Y-116290513D01*
X174931000Y-116541861D01*
X174931000Y-116798139D01*
X174881004Y-117049487D01*
X174782932Y-117286253D01*
X174782931Y-117286255D01*
X174640553Y-117499339D01*
X174459339Y-117680553D01*
X174246255Y-117822931D01*
X174246254Y-117822932D01*
X174246253Y-117822932D01*
X174009487Y-117921004D01*
X173758139Y-117971000D01*
X173501861Y-117971000D01*
X173250513Y-117921004D01*
X173013747Y-117822932D01*
X173013746Y-117822932D01*
X173013745Y-117822931D01*
X172800661Y-117680553D01*
X172619447Y-117499339D01*
X172477069Y-117286255D01*
X172477068Y-117286253D01*
X172378996Y-117049487D01*
X172329000Y-116798139D01*
X172329000Y-116541861D01*
X172378996Y-116290513D01*
X172477068Y-116053747D01*
X172619447Y-115840661D01*
X172800661Y-115659447D01*
X173013745Y-115517069D01*
X173013747Y-115517068D01*
X173250513Y-115418996D01*
X173501861Y-115369000D01*
X173758139Y-115369000D01*
X174009487Y-115418996D01*
X174009487Y-115418996D01*
G37*
G36*
X165210443Y-90545519D02*
G01*
X165276627Y-90552037D01*
X165446466Y-90603557D01*
X165602991Y-90687222D01*
X165638729Y-90716552D01*
X165740186Y-90799814D01*
X165823448Y-90901271D01*
X165852778Y-90937009D01*
X165936443Y-91093534D01*
X165987963Y-91263373D01*
X166005359Y-91440000D01*
X165987963Y-91616627D01*
X165936443Y-91786466D01*
X165852778Y-91942991D01*
X165823448Y-91978729D01*
X165740186Y-92080186D01*
X165638729Y-92163448D01*
X165602991Y-92192778D01*
X165446466Y-92276443D01*
X165276627Y-92327963D01*
X165210443Y-92334481D01*
X165144260Y-92341000D01*
X165055740Y-92341000D01*
X164989557Y-92334481D01*
X164923373Y-92327963D01*
X164753534Y-92276443D01*
X164597009Y-92192778D01*
X164561271Y-92163448D01*
X164459814Y-92080186D01*
X164376552Y-91978729D01*
X164347222Y-91942991D01*
X164263557Y-91786466D01*
X164212037Y-91616627D01*
X164194641Y-91440000D01*
X164212037Y-91263373D01*
X164263557Y-91093534D01*
X164347222Y-90937009D01*
X164376552Y-90901271D01*
X164459814Y-90799814D01*
X164561271Y-90716552D01*
X164597009Y-90687222D01*
X164753534Y-90603557D01*
X164923373Y-90552037D01*
X164989558Y-90545518D01*
X165055740Y-90539000D01*
X165144260Y-90539000D01*
X165210443Y-90545519D01*
X165210443Y-90545519D01*
G37*
G36*
X162670443Y-90545519D02*
G01*
X162736627Y-90552037D01*
X162906466Y-90603557D01*
X163062991Y-90687222D01*
X163098729Y-90716552D01*
X163200186Y-90799814D01*
X163283448Y-90901271D01*
X163312778Y-90937009D01*
X163396443Y-91093534D01*
X163447963Y-91263373D01*
X163465359Y-91440000D01*
X163447963Y-91616627D01*
X163396443Y-91786466D01*
X163312778Y-91942991D01*
X163283448Y-91978729D01*
X163200186Y-92080186D01*
X163098729Y-92163448D01*
X163062991Y-92192778D01*
X162906466Y-92276443D01*
X162736627Y-92327963D01*
X162670443Y-92334481D01*
X162604260Y-92341000D01*
X162515740Y-92341000D01*
X162449557Y-92334481D01*
X162383373Y-92327963D01*
X162213534Y-92276443D01*
X162057009Y-92192778D01*
X162021271Y-92163448D01*
X161919814Y-92080186D01*
X161836552Y-91978729D01*
X161807222Y-91942991D01*
X161723557Y-91786466D01*
X161672037Y-91616627D01*
X161654641Y-91440000D01*
X161672037Y-91263373D01*
X161723557Y-91093534D01*
X161807222Y-90937009D01*
X161836552Y-90901271D01*
X161919814Y-90799814D01*
X162021271Y-90716552D01*
X162057009Y-90687222D01*
X162213534Y-90603557D01*
X162383373Y-90552037D01*
X162449558Y-90545518D01*
X162515740Y-90539000D01*
X162604260Y-90539000D01*
X162670443Y-90545519D01*
X162670443Y-90545519D01*
G37*
G36*
X160130443Y-90545519D02*
G01*
X160196627Y-90552037D01*
X160366466Y-90603557D01*
X160522991Y-90687222D01*
X160558729Y-90716552D01*
X160660186Y-90799814D01*
X160743448Y-90901271D01*
X160772778Y-90937009D01*
X160856443Y-91093534D01*
X160907963Y-91263373D01*
X160925359Y-91440000D01*
X160907963Y-91616627D01*
X160856443Y-91786466D01*
X160772778Y-91942991D01*
X160743448Y-91978729D01*
X160660186Y-92080186D01*
X160558729Y-92163448D01*
X160522991Y-92192778D01*
X160366466Y-92276443D01*
X160196627Y-92327963D01*
X160130443Y-92334481D01*
X160064260Y-92341000D01*
X159975740Y-92341000D01*
X159909557Y-92334481D01*
X159843373Y-92327963D01*
X159673534Y-92276443D01*
X159517009Y-92192778D01*
X159481271Y-92163448D01*
X159379814Y-92080186D01*
X159296552Y-91978729D01*
X159267222Y-91942991D01*
X159183557Y-91786466D01*
X159132037Y-91616627D01*
X159114641Y-91440000D01*
X159132037Y-91263373D01*
X159183557Y-91093534D01*
X159267222Y-90937009D01*
X159296552Y-90901271D01*
X159379814Y-90799814D01*
X159481271Y-90716552D01*
X159517009Y-90687222D01*
X159673534Y-90603557D01*
X159843373Y-90552037D01*
X159909558Y-90545518D01*
X159975740Y-90539000D01*
X160064260Y-90539000D01*
X160130443Y-90545519D01*
X160130443Y-90545519D01*
G37*
G36*
X157590443Y-90545519D02*
G01*
X157656627Y-90552037D01*
X157826466Y-90603557D01*
X157982991Y-90687222D01*
X158018729Y-90716552D01*
X158120186Y-90799814D01*
X158203448Y-90901271D01*
X158232778Y-90937009D01*
X158316443Y-91093534D01*
X158367963Y-91263373D01*
X158385359Y-91440000D01*
X158367963Y-91616627D01*
X158316443Y-91786466D01*
X158232778Y-91942991D01*
X158203448Y-91978729D01*
X158120186Y-92080186D01*
X158018729Y-92163448D01*
X157982991Y-92192778D01*
X157826466Y-92276443D01*
X157656627Y-92327963D01*
X157590443Y-92334481D01*
X157524260Y-92341000D01*
X157435740Y-92341000D01*
X157369557Y-92334481D01*
X157303373Y-92327963D01*
X157133534Y-92276443D01*
X156977009Y-92192778D01*
X156941271Y-92163448D01*
X156839814Y-92080186D01*
X156756552Y-91978729D01*
X156727222Y-91942991D01*
X156643557Y-91786466D01*
X156592037Y-91616627D01*
X156574641Y-91440000D01*
X156592037Y-91263373D01*
X156643557Y-91093534D01*
X156727222Y-90937009D01*
X156756552Y-90901271D01*
X156839814Y-90799814D01*
X156941271Y-90716552D01*
X156977009Y-90687222D01*
X157133534Y-90603557D01*
X157303373Y-90552037D01*
X157369558Y-90545518D01*
X157435740Y-90539000D01*
X157524260Y-90539000D01*
X157590443Y-90545519D01*
X157590443Y-90545519D01*
G37*
G36*
X152510443Y-90545519D02*
G01*
X152576627Y-90552037D01*
X152746466Y-90603557D01*
X152902991Y-90687222D01*
X152938729Y-90716552D01*
X153040186Y-90799814D01*
X153123448Y-90901271D01*
X153152778Y-90937009D01*
X153236443Y-91093534D01*
X153287963Y-91263373D01*
X153305359Y-91440000D01*
X153287963Y-91616627D01*
X153236443Y-91786466D01*
X153152778Y-91942991D01*
X153123448Y-91978729D01*
X153040186Y-92080186D01*
X152938729Y-92163448D01*
X152902991Y-92192778D01*
X152746466Y-92276443D01*
X152576627Y-92327963D01*
X152510443Y-92334481D01*
X152444260Y-92341000D01*
X152355740Y-92341000D01*
X152289557Y-92334481D01*
X152223373Y-92327963D01*
X152053534Y-92276443D01*
X151897009Y-92192778D01*
X151861271Y-92163448D01*
X151759814Y-92080186D01*
X151676552Y-91978729D01*
X151647222Y-91942991D01*
X151563557Y-91786466D01*
X151512037Y-91616627D01*
X151494641Y-91440000D01*
X151512037Y-91263373D01*
X151563557Y-91093534D01*
X151647222Y-90937009D01*
X151676552Y-90901271D01*
X151759814Y-90799814D01*
X151861271Y-90716552D01*
X151897009Y-90687222D01*
X152053534Y-90603557D01*
X152223373Y-90552037D01*
X152289557Y-90545519D01*
X152355740Y-90539000D01*
X152444260Y-90539000D01*
X152510443Y-90545519D01*
X152510443Y-90545519D01*
G37*
G36*
X149970443Y-90545519D02*
G01*
X150036627Y-90552037D01*
X150206466Y-90603557D01*
X150362991Y-90687222D01*
X150398729Y-90716552D01*
X150500186Y-90799814D01*
X150583448Y-90901271D01*
X150612778Y-90937009D01*
X150696443Y-91093534D01*
X150747963Y-91263373D01*
X150765359Y-91440000D01*
X150747963Y-91616627D01*
X150696443Y-91786466D01*
X150612778Y-91942991D01*
X150583448Y-91978729D01*
X150500186Y-92080186D01*
X150398729Y-92163448D01*
X150362991Y-92192778D01*
X150206466Y-92276443D01*
X150036627Y-92327963D01*
X149970443Y-92334481D01*
X149904260Y-92341000D01*
X149815740Y-92341000D01*
X149749557Y-92334481D01*
X149683373Y-92327963D01*
X149513534Y-92276443D01*
X149357009Y-92192778D01*
X149321271Y-92163448D01*
X149219814Y-92080186D01*
X149136552Y-91978729D01*
X149107222Y-91942991D01*
X149023557Y-91786466D01*
X148972037Y-91616627D01*
X148954641Y-91440000D01*
X148972037Y-91263373D01*
X149023557Y-91093534D01*
X149107222Y-90937009D01*
X149136552Y-90901271D01*
X149219814Y-90799814D01*
X149321271Y-90716552D01*
X149357009Y-90687222D01*
X149513534Y-90603557D01*
X149683373Y-90552037D01*
X149749557Y-90545519D01*
X149815740Y-90539000D01*
X149904260Y-90539000D01*
X149970443Y-90545519D01*
X149970443Y-90545519D01*
G37*
G36*
X147430443Y-90545519D02*
G01*
X147496627Y-90552037D01*
X147666466Y-90603557D01*
X147822991Y-90687222D01*
X147858729Y-90716552D01*
X147960186Y-90799814D01*
X148043448Y-90901271D01*
X148072778Y-90937009D01*
X148156443Y-91093534D01*
X148207963Y-91263373D01*
X148225359Y-91440000D01*
X148207963Y-91616627D01*
X148156443Y-91786466D01*
X148072778Y-91942991D01*
X148043448Y-91978729D01*
X147960186Y-92080186D01*
X147858729Y-92163448D01*
X147822991Y-92192778D01*
X147666466Y-92276443D01*
X147496627Y-92327963D01*
X147430443Y-92334481D01*
X147364260Y-92341000D01*
X147275740Y-92341000D01*
X147209557Y-92334481D01*
X147143373Y-92327963D01*
X146973534Y-92276443D01*
X146817009Y-92192778D01*
X146781271Y-92163448D01*
X146679814Y-92080186D01*
X146596552Y-91978729D01*
X146567222Y-91942991D01*
X146483557Y-91786466D01*
X146432037Y-91616627D01*
X146414641Y-91440000D01*
X146432037Y-91263373D01*
X146483557Y-91093534D01*
X146567222Y-90937009D01*
X146596552Y-90901271D01*
X146679814Y-90799814D01*
X146781271Y-90716552D01*
X146817009Y-90687222D01*
X146973534Y-90603557D01*
X147143373Y-90552037D01*
X147209557Y-90545519D01*
X147275740Y-90539000D01*
X147364260Y-90539000D01*
X147430443Y-90545519D01*
X147430443Y-90545519D01*
G37*
G36*
X144890443Y-90545519D02*
G01*
X144956627Y-90552037D01*
X145126466Y-90603557D01*
X145282991Y-90687222D01*
X145318729Y-90716552D01*
X145420186Y-90799814D01*
X145503448Y-90901271D01*
X145532778Y-90937009D01*
X145616443Y-91093534D01*
X145667963Y-91263373D01*
X145685359Y-91440000D01*
X145667963Y-91616627D01*
X145616443Y-91786466D01*
X145532778Y-91942991D01*
X145503448Y-91978729D01*
X145420186Y-92080186D01*
X145318729Y-92163448D01*
X145282991Y-92192778D01*
X145126466Y-92276443D01*
X144956627Y-92327963D01*
X144890443Y-92334481D01*
X144824260Y-92341000D01*
X144735740Y-92341000D01*
X144669557Y-92334481D01*
X144603373Y-92327963D01*
X144433534Y-92276443D01*
X144277009Y-92192778D01*
X144241271Y-92163448D01*
X144139814Y-92080186D01*
X144056552Y-91978729D01*
X144027222Y-91942991D01*
X143943557Y-91786466D01*
X143892037Y-91616627D01*
X143874641Y-91440000D01*
X143892037Y-91263373D01*
X143943557Y-91093534D01*
X144027222Y-90937009D01*
X144056552Y-90901271D01*
X144139814Y-90799814D01*
X144241271Y-90716552D01*
X144277009Y-90687222D01*
X144433534Y-90603557D01*
X144603373Y-90552037D01*
X144669557Y-90545519D01*
X144735740Y-90539000D01*
X144824260Y-90539000D01*
X144890443Y-90545519D01*
X144890443Y-90545519D01*
G37*
G36*
X167750443Y-90545519D02*
G01*
X167816627Y-90552037D01*
X167986466Y-90603557D01*
X168142991Y-90687222D01*
X168178729Y-90716552D01*
X168280186Y-90799814D01*
X168363448Y-90901271D01*
X168392778Y-90937009D01*
X168476443Y-91093534D01*
X168527963Y-91263373D01*
X168545359Y-91440000D01*
X168527963Y-91616627D01*
X168476443Y-91786466D01*
X168392778Y-91942991D01*
X168363448Y-91978729D01*
X168280186Y-92080186D01*
X168178729Y-92163448D01*
X168142991Y-92192778D01*
X167986466Y-92276443D01*
X167816627Y-92327963D01*
X167750443Y-92334481D01*
X167684260Y-92341000D01*
X167595740Y-92341000D01*
X167529557Y-92334481D01*
X167463373Y-92327963D01*
X167293534Y-92276443D01*
X167137009Y-92192778D01*
X167101271Y-92163448D01*
X166999814Y-92080186D01*
X166916552Y-91978729D01*
X166887222Y-91942991D01*
X166803557Y-91786466D01*
X166752037Y-91616627D01*
X166734641Y-91440000D01*
X166752037Y-91263373D01*
X166803557Y-91093534D01*
X166887222Y-90937009D01*
X166916552Y-90901271D01*
X166999814Y-90799814D01*
X167101271Y-90716552D01*
X167137009Y-90687222D01*
X167293534Y-90603557D01*
X167463373Y-90552037D01*
X167529558Y-90545518D01*
X167595740Y-90539000D01*
X167684260Y-90539000D01*
X167750443Y-90545519D01*
X167750443Y-90545519D01*
G37*
G36*
X139810443Y-90545519D02*
G01*
X139876627Y-90552037D01*
X140046466Y-90603557D01*
X140202991Y-90687222D01*
X140238729Y-90716552D01*
X140340186Y-90799814D01*
X140423448Y-90901271D01*
X140452778Y-90937009D01*
X140536443Y-91093534D01*
X140587963Y-91263373D01*
X140605359Y-91440000D01*
X140587963Y-91616627D01*
X140536443Y-91786466D01*
X140452778Y-91942991D01*
X140423448Y-91978729D01*
X140340186Y-92080186D01*
X140238729Y-92163448D01*
X140202991Y-92192778D01*
X140046466Y-92276443D01*
X139876627Y-92327963D01*
X139810443Y-92334481D01*
X139744260Y-92341000D01*
X139655740Y-92341000D01*
X139589557Y-92334481D01*
X139523373Y-92327963D01*
X139353534Y-92276443D01*
X139197009Y-92192778D01*
X139161271Y-92163448D01*
X139059814Y-92080186D01*
X138976552Y-91978729D01*
X138947222Y-91942991D01*
X138863557Y-91786466D01*
X138812037Y-91616627D01*
X138794641Y-91440000D01*
X138812037Y-91263373D01*
X138863557Y-91093534D01*
X138947222Y-90937009D01*
X138976552Y-90901271D01*
X139059814Y-90799814D01*
X139161271Y-90716552D01*
X139197009Y-90687222D01*
X139353534Y-90603557D01*
X139523373Y-90552037D01*
X139589557Y-90545519D01*
X139655740Y-90539000D01*
X139744260Y-90539000D01*
X139810443Y-90545519D01*
X139810443Y-90545519D01*
G37*
G36*
X134730443Y-90545519D02*
G01*
X134796627Y-90552037D01*
X134966466Y-90603557D01*
X135122991Y-90687222D01*
X135158729Y-90716552D01*
X135260186Y-90799814D01*
X135343448Y-90901271D01*
X135372778Y-90937009D01*
X135456443Y-91093534D01*
X135507963Y-91263373D01*
X135525359Y-91440000D01*
X135507963Y-91616627D01*
X135456443Y-91786466D01*
X135372778Y-91942991D01*
X135343448Y-91978729D01*
X135260186Y-92080186D01*
X135158729Y-92163448D01*
X135122991Y-92192778D01*
X134966466Y-92276443D01*
X134796627Y-92327963D01*
X134730443Y-92334481D01*
X134664260Y-92341000D01*
X134575740Y-92341000D01*
X134509557Y-92334481D01*
X134443373Y-92327963D01*
X134273534Y-92276443D01*
X134117009Y-92192778D01*
X134081271Y-92163448D01*
X133979814Y-92080186D01*
X133896552Y-91978729D01*
X133867222Y-91942991D01*
X133783557Y-91786466D01*
X133732037Y-91616627D01*
X133714641Y-91440000D01*
X133732037Y-91263373D01*
X133783557Y-91093534D01*
X133867222Y-90937009D01*
X133896552Y-90901271D01*
X133979814Y-90799814D01*
X134081271Y-90716552D01*
X134117009Y-90687222D01*
X134273534Y-90603557D01*
X134443373Y-90552037D01*
X134509557Y-90545519D01*
X134575740Y-90539000D01*
X134664260Y-90539000D01*
X134730443Y-90545519D01*
X134730443Y-90545519D01*
G37*
G36*
X137270443Y-90545519D02*
G01*
X137336627Y-90552037D01*
X137506466Y-90603557D01*
X137662991Y-90687222D01*
X137698729Y-90716552D01*
X137800186Y-90799814D01*
X137883448Y-90901271D01*
X137912778Y-90937009D01*
X137996443Y-91093534D01*
X138047963Y-91263373D01*
X138065359Y-91440000D01*
X138047963Y-91616627D01*
X137996443Y-91786466D01*
X137912778Y-91942991D01*
X137883448Y-91978729D01*
X137800186Y-92080186D01*
X137698729Y-92163448D01*
X137662991Y-92192778D01*
X137506466Y-92276443D01*
X137336627Y-92327963D01*
X137270443Y-92334481D01*
X137204260Y-92341000D01*
X137115740Y-92341000D01*
X137049557Y-92334481D01*
X136983373Y-92327963D01*
X136813534Y-92276443D01*
X136657009Y-92192778D01*
X136621271Y-92163448D01*
X136519814Y-92080186D01*
X136436552Y-91978729D01*
X136407222Y-91942991D01*
X136323557Y-91786466D01*
X136272037Y-91616627D01*
X136254641Y-91440000D01*
X136272037Y-91263373D01*
X136323557Y-91093534D01*
X136407222Y-90937009D01*
X136436552Y-90901271D01*
X136519814Y-90799814D01*
X136621271Y-90716552D01*
X136657009Y-90687222D01*
X136813534Y-90603557D01*
X136983373Y-90552037D01*
X137049557Y-90545519D01*
X137115740Y-90539000D01*
X137204260Y-90539000D01*
X137270443Y-90545519D01*
X137270443Y-90545519D01*
G37*
G36*
X142350443Y-90545519D02*
G01*
X142416627Y-90552037D01*
X142586466Y-90603557D01*
X142742991Y-90687222D01*
X142778729Y-90716552D01*
X142880186Y-90799814D01*
X142963448Y-90901271D01*
X142992778Y-90937009D01*
X143076443Y-91093534D01*
X143127963Y-91263373D01*
X143145359Y-91440000D01*
X143127963Y-91616627D01*
X143076443Y-91786466D01*
X142992778Y-91942991D01*
X142963448Y-91978729D01*
X142880186Y-92080186D01*
X142778729Y-92163448D01*
X142742991Y-92192778D01*
X142586466Y-92276443D01*
X142416627Y-92327963D01*
X142350443Y-92334481D01*
X142284260Y-92341000D01*
X142195740Y-92341000D01*
X142129557Y-92334481D01*
X142063373Y-92327963D01*
X141893534Y-92276443D01*
X141737009Y-92192778D01*
X141701271Y-92163448D01*
X141599814Y-92080186D01*
X141516552Y-91978729D01*
X141487222Y-91942991D01*
X141403557Y-91786466D01*
X141352037Y-91616627D01*
X141334641Y-91440000D01*
X141352037Y-91263373D01*
X141403557Y-91093534D01*
X141487222Y-90937009D01*
X141516552Y-90901271D01*
X141599814Y-90799814D01*
X141701271Y-90716552D01*
X141737009Y-90687222D01*
X141893534Y-90603557D01*
X142063373Y-90552037D01*
X142129557Y-90545519D01*
X142195740Y-90539000D01*
X142284260Y-90539000D01*
X142350443Y-90545519D01*
X142350443Y-90545519D01*
G37*
G36*
X155050443Y-90545519D02*
G01*
X155116627Y-90552037D01*
X155286466Y-90603557D01*
X155442991Y-90687222D01*
X155478729Y-90716552D01*
X155580186Y-90799814D01*
X155663448Y-90901271D01*
X155692778Y-90937009D01*
X155776443Y-91093534D01*
X155827963Y-91263373D01*
X155845359Y-91440000D01*
X155827963Y-91616627D01*
X155776443Y-91786466D01*
X155692778Y-91942991D01*
X155663448Y-91978729D01*
X155580186Y-92080186D01*
X155478729Y-92163448D01*
X155442991Y-92192778D01*
X155286466Y-92276443D01*
X155116627Y-92327963D01*
X155050443Y-92334481D01*
X154984260Y-92341000D01*
X154895740Y-92341000D01*
X154829557Y-92334481D01*
X154763373Y-92327963D01*
X154593534Y-92276443D01*
X154437009Y-92192778D01*
X154401271Y-92163448D01*
X154299814Y-92080186D01*
X154216552Y-91978729D01*
X154187222Y-91942991D01*
X154103557Y-91786466D01*
X154052037Y-91616627D01*
X154034641Y-91440000D01*
X154052037Y-91263373D01*
X154103557Y-91093534D01*
X154187222Y-90937009D01*
X154216552Y-90901271D01*
X154299814Y-90799814D01*
X154401271Y-90716552D01*
X154437009Y-90687222D01*
X154593534Y-90603557D01*
X154763373Y-90552037D01*
X154829558Y-90545518D01*
X154895740Y-90539000D01*
X154984260Y-90539000D01*
X155050443Y-90545519D01*
X155050443Y-90545519D01*
G37*
G36*
X170290443Y-90545519D02*
G01*
X170356627Y-90552037D01*
X170526466Y-90603557D01*
X170682991Y-90687222D01*
X170718729Y-90716552D01*
X170820186Y-90799814D01*
X170903448Y-90901271D01*
X170932778Y-90937009D01*
X171016443Y-91093534D01*
X171067963Y-91263373D01*
X171085359Y-91440000D01*
X171067963Y-91616627D01*
X171016443Y-91786466D01*
X170932778Y-91942991D01*
X170903448Y-91978729D01*
X170820186Y-92080186D01*
X170718729Y-92163448D01*
X170682991Y-92192778D01*
X170526466Y-92276443D01*
X170356627Y-92327963D01*
X170290443Y-92334481D01*
X170224260Y-92341000D01*
X170135740Y-92341000D01*
X170069557Y-92334481D01*
X170003373Y-92327963D01*
X169833534Y-92276443D01*
X169677009Y-92192778D01*
X169641271Y-92163448D01*
X169539814Y-92080186D01*
X169456552Y-91978729D01*
X169427222Y-91942991D01*
X169343557Y-91786466D01*
X169292037Y-91616627D01*
X169274641Y-91440000D01*
X169292037Y-91263373D01*
X169343557Y-91093534D01*
X169427222Y-90937009D01*
X169456552Y-90901271D01*
X169539814Y-90799814D01*
X169641271Y-90716552D01*
X169677009Y-90687222D01*
X169833534Y-90603557D01*
X170003373Y-90552037D01*
X170069558Y-90545518D01*
X170135740Y-90539000D01*
X170224260Y-90539000D01*
X170290443Y-90545519D01*
X170290443Y-90545519D01*
G37*
G36*
X122821000Y-92341000D02*
G01*
X121019000Y-92341000D01*
X121019000Y-90539000D01*
X122821000Y-90539000D01*
X122821000Y-92341000D01*
X122821000Y-92341000D01*
G37*
G36*
X124570443Y-90545519D02*
G01*
X124636627Y-90552037D01*
X124806466Y-90603557D01*
X124962991Y-90687222D01*
X124998729Y-90716552D01*
X125100186Y-90799814D01*
X125183448Y-90901271D01*
X125212778Y-90937009D01*
X125296443Y-91093534D01*
X125347963Y-91263373D01*
X125365359Y-91440000D01*
X125347963Y-91616627D01*
X125296443Y-91786466D01*
X125212778Y-91942991D01*
X125183448Y-91978729D01*
X125100186Y-92080186D01*
X124998729Y-92163448D01*
X124962991Y-92192778D01*
X124806466Y-92276443D01*
X124636627Y-92327963D01*
X124570443Y-92334481D01*
X124504260Y-92341000D01*
X124415740Y-92341000D01*
X124349557Y-92334481D01*
X124283373Y-92327963D01*
X124113534Y-92276443D01*
X123957009Y-92192778D01*
X123921271Y-92163448D01*
X123819814Y-92080186D01*
X123736552Y-91978729D01*
X123707222Y-91942991D01*
X123623557Y-91786466D01*
X123572037Y-91616627D01*
X123554641Y-91440000D01*
X123572037Y-91263373D01*
X123623557Y-91093534D01*
X123707222Y-90937009D01*
X123736552Y-90901271D01*
X123819814Y-90799814D01*
X123921271Y-90716552D01*
X123957009Y-90687222D01*
X124113534Y-90603557D01*
X124283373Y-90552037D01*
X124349557Y-90545519D01*
X124415740Y-90539000D01*
X124504260Y-90539000D01*
X124570443Y-90545519D01*
X124570443Y-90545519D01*
G37*
G36*
X127110443Y-90545519D02*
G01*
X127176627Y-90552037D01*
X127346466Y-90603557D01*
X127502991Y-90687222D01*
X127538729Y-90716552D01*
X127640186Y-90799814D01*
X127723448Y-90901271D01*
X127752778Y-90937009D01*
X127836443Y-91093534D01*
X127887963Y-91263373D01*
X127905359Y-91440000D01*
X127887963Y-91616627D01*
X127836443Y-91786466D01*
X127752778Y-91942991D01*
X127723448Y-91978729D01*
X127640186Y-92080186D01*
X127538729Y-92163448D01*
X127502991Y-92192778D01*
X127346466Y-92276443D01*
X127176627Y-92327963D01*
X127110443Y-92334481D01*
X127044260Y-92341000D01*
X126955740Y-92341000D01*
X126889557Y-92334481D01*
X126823373Y-92327963D01*
X126653534Y-92276443D01*
X126497009Y-92192778D01*
X126461271Y-92163448D01*
X126359814Y-92080186D01*
X126276552Y-91978729D01*
X126247222Y-91942991D01*
X126163557Y-91786466D01*
X126112037Y-91616627D01*
X126094641Y-91440000D01*
X126112037Y-91263373D01*
X126163557Y-91093534D01*
X126247222Y-90937009D01*
X126276552Y-90901271D01*
X126359814Y-90799814D01*
X126461271Y-90716552D01*
X126497009Y-90687222D01*
X126653534Y-90603557D01*
X126823373Y-90552037D01*
X126889557Y-90545519D01*
X126955740Y-90539000D01*
X127044260Y-90539000D01*
X127110443Y-90545519D01*
X127110443Y-90545519D01*
G37*
G36*
X129650443Y-90545519D02*
G01*
X129716627Y-90552037D01*
X129886466Y-90603557D01*
X130042991Y-90687222D01*
X130078729Y-90716552D01*
X130180186Y-90799814D01*
X130263448Y-90901271D01*
X130292778Y-90937009D01*
X130376443Y-91093534D01*
X130427963Y-91263373D01*
X130445359Y-91440000D01*
X130427963Y-91616627D01*
X130376443Y-91786466D01*
X130292778Y-91942991D01*
X130263448Y-91978729D01*
X130180186Y-92080186D01*
X130078729Y-92163448D01*
X130042991Y-92192778D01*
X129886466Y-92276443D01*
X129716627Y-92327963D01*
X129650443Y-92334481D01*
X129584260Y-92341000D01*
X129495740Y-92341000D01*
X129429557Y-92334481D01*
X129363373Y-92327963D01*
X129193534Y-92276443D01*
X129037009Y-92192778D01*
X129001271Y-92163448D01*
X128899814Y-92080186D01*
X128816552Y-91978729D01*
X128787222Y-91942991D01*
X128703557Y-91786466D01*
X128652037Y-91616627D01*
X128634641Y-91440000D01*
X128652037Y-91263373D01*
X128703557Y-91093534D01*
X128787222Y-90937009D01*
X128816552Y-90901271D01*
X128899814Y-90799814D01*
X129001271Y-90716552D01*
X129037009Y-90687222D01*
X129193534Y-90603557D01*
X129363373Y-90552037D01*
X129429557Y-90545519D01*
X129495740Y-90539000D01*
X129584260Y-90539000D01*
X129650443Y-90545519D01*
X129650443Y-90545519D01*
G37*
G36*
X132190443Y-90545519D02*
G01*
X132256627Y-90552037D01*
X132426466Y-90603557D01*
X132582991Y-90687222D01*
X132618729Y-90716552D01*
X132720186Y-90799814D01*
X132803448Y-90901271D01*
X132832778Y-90937009D01*
X132916443Y-91093534D01*
X132967963Y-91263373D01*
X132985359Y-91440000D01*
X132967963Y-91616627D01*
X132916443Y-91786466D01*
X132832778Y-91942991D01*
X132803448Y-91978729D01*
X132720186Y-92080186D01*
X132618729Y-92163448D01*
X132582991Y-92192778D01*
X132426466Y-92276443D01*
X132256627Y-92327963D01*
X132190443Y-92334481D01*
X132124260Y-92341000D01*
X132035740Y-92341000D01*
X131969557Y-92334481D01*
X131903373Y-92327963D01*
X131733534Y-92276443D01*
X131577009Y-92192778D01*
X131541271Y-92163448D01*
X131439814Y-92080186D01*
X131356552Y-91978729D01*
X131327222Y-91942991D01*
X131243557Y-91786466D01*
X131192037Y-91616627D01*
X131174641Y-91440000D01*
X131192037Y-91263373D01*
X131243557Y-91093534D01*
X131327222Y-90937009D01*
X131356552Y-90901271D01*
X131439814Y-90799814D01*
X131541271Y-90716552D01*
X131577009Y-90687222D01*
X131733534Y-90603557D01*
X131903373Y-90552037D01*
X131969557Y-90545519D01*
X132035740Y-90539000D01*
X132124260Y-90539000D01*
X132190443Y-90545519D01*
X132190443Y-90545519D01*
G37*
G36*
X149970443Y-88005519D02*
G01*
X150036627Y-88012037D01*
X150206466Y-88063557D01*
X150362991Y-88147222D01*
X150398729Y-88176552D01*
X150500186Y-88259814D01*
X150583448Y-88361271D01*
X150612778Y-88397009D01*
X150696443Y-88553534D01*
X150747963Y-88723373D01*
X150765359Y-88900000D01*
X150747963Y-89076627D01*
X150696443Y-89246466D01*
X150612778Y-89402991D01*
X150583448Y-89438729D01*
X150500186Y-89540186D01*
X150398729Y-89623448D01*
X150362991Y-89652778D01*
X150206466Y-89736443D01*
X150036627Y-89787963D01*
X149970443Y-89794481D01*
X149904260Y-89801000D01*
X149815740Y-89801000D01*
X149749557Y-89794481D01*
X149683373Y-89787963D01*
X149513534Y-89736443D01*
X149357009Y-89652778D01*
X149321271Y-89623448D01*
X149219814Y-89540186D01*
X149136552Y-89438729D01*
X149107222Y-89402991D01*
X149023557Y-89246466D01*
X148972037Y-89076627D01*
X148954641Y-88900000D01*
X148972037Y-88723373D01*
X149023557Y-88553534D01*
X149107222Y-88397009D01*
X149136552Y-88361271D01*
X149219814Y-88259814D01*
X149321271Y-88176552D01*
X149357009Y-88147222D01*
X149513534Y-88063557D01*
X149683373Y-88012037D01*
X149749557Y-88005519D01*
X149815740Y-87999000D01*
X149904260Y-87999000D01*
X149970443Y-88005519D01*
X149970443Y-88005519D01*
G37*
G36*
X147430443Y-88005519D02*
G01*
X147496627Y-88012037D01*
X147666466Y-88063557D01*
X147822991Y-88147222D01*
X147858729Y-88176552D01*
X147960186Y-88259814D01*
X148043448Y-88361271D01*
X148072778Y-88397009D01*
X148156443Y-88553534D01*
X148207963Y-88723373D01*
X148225359Y-88900000D01*
X148207963Y-89076627D01*
X148156443Y-89246466D01*
X148072778Y-89402991D01*
X148043448Y-89438729D01*
X147960186Y-89540186D01*
X147858729Y-89623448D01*
X147822991Y-89652778D01*
X147666466Y-89736443D01*
X147496627Y-89787963D01*
X147430443Y-89794481D01*
X147364260Y-89801000D01*
X147275740Y-89801000D01*
X147209557Y-89794481D01*
X147143373Y-89787963D01*
X146973534Y-89736443D01*
X146817009Y-89652778D01*
X146781271Y-89623448D01*
X146679814Y-89540186D01*
X146596552Y-89438729D01*
X146567222Y-89402991D01*
X146483557Y-89246466D01*
X146432037Y-89076627D01*
X146414641Y-88900000D01*
X146432037Y-88723373D01*
X146483557Y-88553534D01*
X146567222Y-88397009D01*
X146596552Y-88361271D01*
X146679814Y-88259814D01*
X146781271Y-88176552D01*
X146817009Y-88147222D01*
X146973534Y-88063557D01*
X147143373Y-88012037D01*
X147209557Y-88005519D01*
X147275740Y-87999000D01*
X147364260Y-87999000D01*
X147430443Y-88005519D01*
X147430443Y-88005519D01*
G37*
G36*
X144890443Y-88005519D02*
G01*
X144956627Y-88012037D01*
X145126466Y-88063557D01*
X145282991Y-88147222D01*
X145318729Y-88176552D01*
X145420186Y-88259814D01*
X145503448Y-88361271D01*
X145532778Y-88397009D01*
X145616443Y-88553534D01*
X145667963Y-88723373D01*
X145685359Y-88900000D01*
X145667963Y-89076627D01*
X145616443Y-89246466D01*
X145532778Y-89402991D01*
X145503448Y-89438729D01*
X145420186Y-89540186D01*
X145318729Y-89623448D01*
X145282991Y-89652778D01*
X145126466Y-89736443D01*
X144956627Y-89787963D01*
X144890443Y-89794481D01*
X144824260Y-89801000D01*
X144735740Y-89801000D01*
X144669557Y-89794481D01*
X144603373Y-89787963D01*
X144433534Y-89736443D01*
X144277009Y-89652778D01*
X144241271Y-89623448D01*
X144139814Y-89540186D01*
X144056552Y-89438729D01*
X144027222Y-89402991D01*
X143943557Y-89246466D01*
X143892037Y-89076627D01*
X143874641Y-88900000D01*
X143892037Y-88723373D01*
X143943557Y-88553534D01*
X144027222Y-88397009D01*
X144056552Y-88361271D01*
X144139814Y-88259814D01*
X144241271Y-88176552D01*
X144277009Y-88147222D01*
X144433534Y-88063557D01*
X144603373Y-88012037D01*
X144669557Y-88005519D01*
X144735740Y-87999000D01*
X144824260Y-87999000D01*
X144890443Y-88005519D01*
X144890443Y-88005519D01*
G37*
G36*
X139810443Y-88005519D02*
G01*
X139876627Y-88012037D01*
X140046466Y-88063557D01*
X140202991Y-88147222D01*
X140238729Y-88176552D01*
X140340186Y-88259814D01*
X140423448Y-88361271D01*
X140452778Y-88397009D01*
X140536443Y-88553534D01*
X140587963Y-88723373D01*
X140605359Y-88900000D01*
X140587963Y-89076627D01*
X140536443Y-89246466D01*
X140452778Y-89402991D01*
X140423448Y-89438729D01*
X140340186Y-89540186D01*
X140238729Y-89623448D01*
X140202991Y-89652778D01*
X140046466Y-89736443D01*
X139876627Y-89787963D01*
X139810443Y-89794481D01*
X139744260Y-89801000D01*
X139655740Y-89801000D01*
X139589557Y-89794481D01*
X139523373Y-89787963D01*
X139353534Y-89736443D01*
X139197009Y-89652778D01*
X139161271Y-89623448D01*
X139059814Y-89540186D01*
X138976552Y-89438729D01*
X138947222Y-89402991D01*
X138863557Y-89246466D01*
X138812037Y-89076627D01*
X138794641Y-88900000D01*
X138812037Y-88723373D01*
X138863557Y-88553534D01*
X138947222Y-88397009D01*
X138976552Y-88361271D01*
X139059814Y-88259814D01*
X139161271Y-88176552D01*
X139197009Y-88147222D01*
X139353534Y-88063557D01*
X139523373Y-88012037D01*
X139589557Y-88005519D01*
X139655740Y-87999000D01*
X139744260Y-87999000D01*
X139810443Y-88005519D01*
X139810443Y-88005519D01*
G37*
G36*
X137270443Y-88005519D02*
G01*
X137336627Y-88012037D01*
X137506466Y-88063557D01*
X137662991Y-88147222D01*
X137698729Y-88176552D01*
X137800186Y-88259814D01*
X137883448Y-88361271D01*
X137912778Y-88397009D01*
X137996443Y-88553534D01*
X138047963Y-88723373D01*
X138065359Y-88900000D01*
X138047963Y-89076627D01*
X137996443Y-89246466D01*
X137912778Y-89402991D01*
X137883448Y-89438729D01*
X137800186Y-89540186D01*
X137698729Y-89623448D01*
X137662991Y-89652778D01*
X137506466Y-89736443D01*
X137336627Y-89787963D01*
X137270443Y-89794481D01*
X137204260Y-89801000D01*
X137115740Y-89801000D01*
X137049557Y-89794481D01*
X136983373Y-89787963D01*
X136813534Y-89736443D01*
X136657009Y-89652778D01*
X136621271Y-89623448D01*
X136519814Y-89540186D01*
X136436552Y-89438729D01*
X136407222Y-89402991D01*
X136323557Y-89246466D01*
X136272037Y-89076627D01*
X136254641Y-88900000D01*
X136272037Y-88723373D01*
X136323557Y-88553534D01*
X136407222Y-88397009D01*
X136436552Y-88361271D01*
X136519814Y-88259814D01*
X136621271Y-88176552D01*
X136657009Y-88147222D01*
X136813534Y-88063557D01*
X136983373Y-88012037D01*
X137049557Y-88005519D01*
X137115740Y-87999000D01*
X137204260Y-87999000D01*
X137270443Y-88005519D01*
X137270443Y-88005519D01*
G37*
G36*
X134730443Y-88005519D02*
G01*
X134796627Y-88012037D01*
X134966466Y-88063557D01*
X135122991Y-88147222D01*
X135158729Y-88176552D01*
X135260186Y-88259814D01*
X135343448Y-88361271D01*
X135372778Y-88397009D01*
X135456443Y-88553534D01*
X135507963Y-88723373D01*
X135525359Y-88900000D01*
X135507963Y-89076627D01*
X135456443Y-89246466D01*
X135372778Y-89402991D01*
X135343448Y-89438729D01*
X135260186Y-89540186D01*
X135158729Y-89623448D01*
X135122991Y-89652778D01*
X134966466Y-89736443D01*
X134796627Y-89787963D01*
X134730443Y-89794481D01*
X134664260Y-89801000D01*
X134575740Y-89801000D01*
X134509557Y-89794481D01*
X134443373Y-89787963D01*
X134273534Y-89736443D01*
X134117009Y-89652778D01*
X134081271Y-89623448D01*
X133979814Y-89540186D01*
X133896552Y-89438729D01*
X133867222Y-89402991D01*
X133783557Y-89246466D01*
X133732037Y-89076627D01*
X133714641Y-88900000D01*
X133732037Y-88723373D01*
X133783557Y-88553534D01*
X133867222Y-88397009D01*
X133896552Y-88361271D01*
X133979814Y-88259814D01*
X134081271Y-88176552D01*
X134117009Y-88147222D01*
X134273534Y-88063557D01*
X134443373Y-88012037D01*
X134509557Y-88005519D01*
X134575740Y-87999000D01*
X134664260Y-87999000D01*
X134730443Y-88005519D01*
X134730443Y-88005519D01*
G37*
G36*
X132190443Y-88005519D02*
G01*
X132256627Y-88012037D01*
X132426466Y-88063557D01*
X132582991Y-88147222D01*
X132618729Y-88176552D01*
X132720186Y-88259814D01*
X132803448Y-88361271D01*
X132832778Y-88397009D01*
X132916443Y-88553534D01*
X132967963Y-88723373D01*
X132985359Y-88900000D01*
X132967963Y-89076627D01*
X132916443Y-89246466D01*
X132832778Y-89402991D01*
X132803448Y-89438729D01*
X132720186Y-89540186D01*
X132618729Y-89623448D01*
X132582991Y-89652778D01*
X132426466Y-89736443D01*
X132256627Y-89787963D01*
X132190443Y-89794481D01*
X132124260Y-89801000D01*
X132035740Y-89801000D01*
X131969557Y-89794481D01*
X131903373Y-89787963D01*
X131733534Y-89736443D01*
X131577009Y-89652778D01*
X131541271Y-89623448D01*
X131439814Y-89540186D01*
X131356552Y-89438729D01*
X131327222Y-89402991D01*
X131243557Y-89246466D01*
X131192037Y-89076627D01*
X131174641Y-88900000D01*
X131192037Y-88723373D01*
X131243557Y-88553534D01*
X131327222Y-88397009D01*
X131356552Y-88361271D01*
X131439814Y-88259814D01*
X131541271Y-88176552D01*
X131577009Y-88147222D01*
X131733534Y-88063557D01*
X131903373Y-88012037D01*
X131969557Y-88005519D01*
X132035740Y-87999000D01*
X132124260Y-87999000D01*
X132190443Y-88005519D01*
X132190443Y-88005519D01*
G37*
G36*
X129650443Y-88005519D02*
G01*
X129716627Y-88012037D01*
X129886466Y-88063557D01*
X130042991Y-88147222D01*
X130078729Y-88176552D01*
X130180186Y-88259814D01*
X130263448Y-88361271D01*
X130292778Y-88397009D01*
X130376443Y-88553534D01*
X130427963Y-88723373D01*
X130445359Y-88900000D01*
X130427963Y-89076627D01*
X130376443Y-89246466D01*
X130292778Y-89402991D01*
X130263448Y-89438729D01*
X130180186Y-89540186D01*
X130078729Y-89623448D01*
X130042991Y-89652778D01*
X129886466Y-89736443D01*
X129716627Y-89787963D01*
X129650443Y-89794481D01*
X129584260Y-89801000D01*
X129495740Y-89801000D01*
X129429557Y-89794481D01*
X129363373Y-89787963D01*
X129193534Y-89736443D01*
X129037009Y-89652778D01*
X129001271Y-89623448D01*
X128899814Y-89540186D01*
X128816552Y-89438729D01*
X128787222Y-89402991D01*
X128703557Y-89246466D01*
X128652037Y-89076627D01*
X128634641Y-88900000D01*
X128652037Y-88723373D01*
X128703557Y-88553534D01*
X128787222Y-88397009D01*
X128816552Y-88361271D01*
X128899814Y-88259814D01*
X129001271Y-88176552D01*
X129037009Y-88147222D01*
X129193534Y-88063557D01*
X129363373Y-88012037D01*
X129429557Y-88005519D01*
X129495740Y-87999000D01*
X129584260Y-87999000D01*
X129650443Y-88005519D01*
X129650443Y-88005519D01*
G37*
G36*
X122030443Y-88005519D02*
G01*
X122096627Y-88012037D01*
X122266466Y-88063557D01*
X122422991Y-88147222D01*
X122458729Y-88176552D01*
X122560186Y-88259814D01*
X122643448Y-88361271D01*
X122672778Y-88397009D01*
X122756443Y-88553534D01*
X122807963Y-88723373D01*
X122825359Y-88900000D01*
X122807963Y-89076627D01*
X122756443Y-89246466D01*
X122672778Y-89402991D01*
X122643448Y-89438729D01*
X122560186Y-89540186D01*
X122458729Y-89623448D01*
X122422991Y-89652778D01*
X122266466Y-89736443D01*
X122096627Y-89787963D01*
X122030443Y-89794481D01*
X121964260Y-89801000D01*
X121875740Y-89801000D01*
X121809557Y-89794481D01*
X121743373Y-89787963D01*
X121573534Y-89736443D01*
X121417009Y-89652778D01*
X121381271Y-89623448D01*
X121279814Y-89540186D01*
X121196552Y-89438729D01*
X121167222Y-89402991D01*
X121083557Y-89246466D01*
X121032037Y-89076627D01*
X121014641Y-88900000D01*
X121032037Y-88723373D01*
X121083557Y-88553534D01*
X121167222Y-88397009D01*
X121196552Y-88361271D01*
X121279814Y-88259814D01*
X121381271Y-88176552D01*
X121417009Y-88147222D01*
X121573534Y-88063557D01*
X121743373Y-88012037D01*
X121809557Y-88005519D01*
X121875740Y-87999000D01*
X121964260Y-87999000D01*
X122030443Y-88005519D01*
X122030443Y-88005519D01*
G37*
G36*
X127110443Y-88005519D02*
G01*
X127176627Y-88012037D01*
X127346466Y-88063557D01*
X127502991Y-88147222D01*
X127538729Y-88176552D01*
X127640186Y-88259814D01*
X127723448Y-88361271D01*
X127752778Y-88397009D01*
X127836443Y-88553534D01*
X127887963Y-88723373D01*
X127905359Y-88900000D01*
X127887963Y-89076627D01*
X127836443Y-89246466D01*
X127752778Y-89402991D01*
X127723448Y-89438729D01*
X127640186Y-89540186D01*
X127538729Y-89623448D01*
X127502991Y-89652778D01*
X127346466Y-89736443D01*
X127176627Y-89787963D01*
X127110443Y-89794481D01*
X127044260Y-89801000D01*
X126955740Y-89801000D01*
X126889557Y-89794481D01*
X126823373Y-89787963D01*
X126653534Y-89736443D01*
X126497009Y-89652778D01*
X126461271Y-89623448D01*
X126359814Y-89540186D01*
X126276552Y-89438729D01*
X126247222Y-89402991D01*
X126163557Y-89246466D01*
X126112037Y-89076627D01*
X126094641Y-88900000D01*
X126112037Y-88723373D01*
X126163557Y-88553534D01*
X126247222Y-88397009D01*
X126276552Y-88361271D01*
X126359814Y-88259814D01*
X126461271Y-88176552D01*
X126497009Y-88147222D01*
X126653534Y-88063557D01*
X126823373Y-88012037D01*
X126889557Y-88005519D01*
X126955740Y-87999000D01*
X127044260Y-87999000D01*
X127110443Y-88005519D01*
X127110443Y-88005519D01*
G37*
G36*
X124570443Y-88005519D02*
G01*
X124636627Y-88012037D01*
X124806466Y-88063557D01*
X124962991Y-88147222D01*
X124998729Y-88176552D01*
X125100186Y-88259814D01*
X125183448Y-88361271D01*
X125212778Y-88397009D01*
X125296443Y-88553534D01*
X125347963Y-88723373D01*
X125365359Y-88900000D01*
X125347963Y-89076627D01*
X125296443Y-89246466D01*
X125212778Y-89402991D01*
X125183448Y-89438729D01*
X125100186Y-89540186D01*
X124998729Y-89623448D01*
X124962991Y-89652778D01*
X124806466Y-89736443D01*
X124636627Y-89787963D01*
X124570443Y-89794481D01*
X124504260Y-89801000D01*
X124415740Y-89801000D01*
X124349557Y-89794481D01*
X124283373Y-89787963D01*
X124113534Y-89736443D01*
X123957009Y-89652778D01*
X123921271Y-89623448D01*
X123819814Y-89540186D01*
X123736552Y-89438729D01*
X123707222Y-89402991D01*
X123623557Y-89246466D01*
X123572037Y-89076627D01*
X123554641Y-88900000D01*
X123572037Y-88723373D01*
X123623557Y-88553534D01*
X123707222Y-88397009D01*
X123736552Y-88361271D01*
X123819814Y-88259814D01*
X123921271Y-88176552D01*
X123957009Y-88147222D01*
X124113534Y-88063557D01*
X124283373Y-88012037D01*
X124349557Y-88005519D01*
X124415740Y-87999000D01*
X124504260Y-87999000D01*
X124570443Y-88005519D01*
X124570443Y-88005519D01*
G37*
G36*
X142350443Y-88005519D02*
G01*
X142416627Y-88012037D01*
X142586466Y-88063557D01*
X142742991Y-88147222D01*
X142778729Y-88176552D01*
X142880186Y-88259814D01*
X142963448Y-88361271D01*
X142992778Y-88397009D01*
X143076443Y-88553534D01*
X143127963Y-88723373D01*
X143145359Y-88900000D01*
X143127963Y-89076627D01*
X143076443Y-89246466D01*
X142992778Y-89402991D01*
X142963448Y-89438729D01*
X142880186Y-89540186D01*
X142778729Y-89623448D01*
X142742991Y-89652778D01*
X142586466Y-89736443D01*
X142416627Y-89787963D01*
X142350443Y-89794481D01*
X142284260Y-89801000D01*
X142195740Y-89801000D01*
X142129557Y-89794481D01*
X142063373Y-89787963D01*
X141893534Y-89736443D01*
X141737009Y-89652778D01*
X141701271Y-89623448D01*
X141599814Y-89540186D01*
X141516552Y-89438729D01*
X141487222Y-89402991D01*
X141403557Y-89246466D01*
X141352037Y-89076627D01*
X141334641Y-88900000D01*
X141352037Y-88723373D01*
X141403557Y-88553534D01*
X141487222Y-88397009D01*
X141516552Y-88361271D01*
X141599814Y-88259814D01*
X141701271Y-88176552D01*
X141737009Y-88147222D01*
X141893534Y-88063557D01*
X142063373Y-88012037D01*
X142129557Y-88005519D01*
X142195740Y-87999000D01*
X142284260Y-87999000D01*
X142350443Y-88005519D01*
X142350443Y-88005519D01*
G37*
G36*
X170290443Y-88005519D02*
G01*
X170356627Y-88012037D01*
X170526466Y-88063557D01*
X170682991Y-88147222D01*
X170718729Y-88176552D01*
X170820186Y-88259814D01*
X170903448Y-88361271D01*
X170932778Y-88397009D01*
X171016443Y-88553534D01*
X171067963Y-88723373D01*
X171085359Y-88900000D01*
X171067963Y-89076627D01*
X171016443Y-89246466D01*
X170932778Y-89402991D01*
X170903448Y-89438729D01*
X170820186Y-89540186D01*
X170718729Y-89623448D01*
X170682991Y-89652778D01*
X170526466Y-89736443D01*
X170356627Y-89787963D01*
X170290443Y-89794481D01*
X170224260Y-89801000D01*
X170135740Y-89801000D01*
X170069557Y-89794481D01*
X170003373Y-89787963D01*
X169833534Y-89736443D01*
X169677009Y-89652778D01*
X169641271Y-89623448D01*
X169539814Y-89540186D01*
X169456552Y-89438729D01*
X169427222Y-89402991D01*
X169343557Y-89246466D01*
X169292037Y-89076627D01*
X169274641Y-88900000D01*
X169292037Y-88723373D01*
X169343557Y-88553534D01*
X169427222Y-88397009D01*
X169456552Y-88361271D01*
X169539814Y-88259814D01*
X169641271Y-88176552D01*
X169677009Y-88147222D01*
X169833534Y-88063557D01*
X170003373Y-88012037D01*
X170069557Y-88005519D01*
X170135740Y-87999000D01*
X170224260Y-87999000D01*
X170290443Y-88005519D01*
X170290443Y-88005519D01*
G37*
G36*
X167750443Y-88005519D02*
G01*
X167816627Y-88012037D01*
X167986466Y-88063557D01*
X168142991Y-88147222D01*
X168178729Y-88176552D01*
X168280186Y-88259814D01*
X168363448Y-88361271D01*
X168392778Y-88397009D01*
X168476443Y-88553534D01*
X168527963Y-88723373D01*
X168545359Y-88900000D01*
X168527963Y-89076627D01*
X168476443Y-89246466D01*
X168392778Y-89402991D01*
X168363448Y-89438729D01*
X168280186Y-89540186D01*
X168178729Y-89623448D01*
X168142991Y-89652778D01*
X167986466Y-89736443D01*
X167816627Y-89787963D01*
X167750443Y-89794481D01*
X167684260Y-89801000D01*
X167595740Y-89801000D01*
X167529557Y-89794481D01*
X167463373Y-89787963D01*
X167293534Y-89736443D01*
X167137009Y-89652778D01*
X167101271Y-89623448D01*
X166999814Y-89540186D01*
X166916552Y-89438729D01*
X166887222Y-89402991D01*
X166803557Y-89246466D01*
X166752037Y-89076627D01*
X166734641Y-88900000D01*
X166752037Y-88723373D01*
X166803557Y-88553534D01*
X166887222Y-88397009D01*
X166916552Y-88361271D01*
X166999814Y-88259814D01*
X167101271Y-88176552D01*
X167137009Y-88147222D01*
X167293534Y-88063557D01*
X167463373Y-88012037D01*
X167529557Y-88005519D01*
X167595740Y-87999000D01*
X167684260Y-87999000D01*
X167750443Y-88005519D01*
X167750443Y-88005519D01*
G37*
G36*
X165210443Y-88005519D02*
G01*
X165276627Y-88012037D01*
X165446466Y-88063557D01*
X165602991Y-88147222D01*
X165638729Y-88176552D01*
X165740186Y-88259814D01*
X165823448Y-88361271D01*
X165852778Y-88397009D01*
X165936443Y-88553534D01*
X165987963Y-88723373D01*
X166005359Y-88900000D01*
X165987963Y-89076627D01*
X165936443Y-89246466D01*
X165852778Y-89402991D01*
X165823448Y-89438729D01*
X165740186Y-89540186D01*
X165638729Y-89623448D01*
X165602991Y-89652778D01*
X165446466Y-89736443D01*
X165276627Y-89787963D01*
X165210443Y-89794481D01*
X165144260Y-89801000D01*
X165055740Y-89801000D01*
X164989557Y-89794481D01*
X164923373Y-89787963D01*
X164753534Y-89736443D01*
X164597009Y-89652778D01*
X164561271Y-89623448D01*
X164459814Y-89540186D01*
X164376552Y-89438729D01*
X164347222Y-89402991D01*
X164263557Y-89246466D01*
X164212037Y-89076627D01*
X164194641Y-88900000D01*
X164212037Y-88723373D01*
X164263557Y-88553534D01*
X164347222Y-88397009D01*
X164376552Y-88361271D01*
X164459814Y-88259814D01*
X164561271Y-88176552D01*
X164597009Y-88147222D01*
X164753534Y-88063557D01*
X164923373Y-88012037D01*
X164989557Y-88005519D01*
X165055740Y-87999000D01*
X165144260Y-87999000D01*
X165210443Y-88005519D01*
X165210443Y-88005519D01*
G37*
G36*
X157590443Y-88005519D02*
G01*
X157656627Y-88012037D01*
X157826466Y-88063557D01*
X157982991Y-88147222D01*
X158018729Y-88176552D01*
X158120186Y-88259814D01*
X158203448Y-88361271D01*
X158232778Y-88397009D01*
X158316443Y-88553534D01*
X158367963Y-88723373D01*
X158385359Y-88900000D01*
X158367963Y-89076627D01*
X158316443Y-89246466D01*
X158232778Y-89402991D01*
X158203448Y-89438729D01*
X158120186Y-89540186D01*
X158018729Y-89623448D01*
X157982991Y-89652778D01*
X157826466Y-89736443D01*
X157656627Y-89787963D01*
X157590443Y-89794481D01*
X157524260Y-89801000D01*
X157435740Y-89801000D01*
X157369557Y-89794481D01*
X157303373Y-89787963D01*
X157133534Y-89736443D01*
X156977009Y-89652778D01*
X156941271Y-89623448D01*
X156839814Y-89540186D01*
X156756552Y-89438729D01*
X156727222Y-89402991D01*
X156643557Y-89246466D01*
X156592037Y-89076627D01*
X156574641Y-88900000D01*
X156592037Y-88723373D01*
X156643557Y-88553534D01*
X156727222Y-88397009D01*
X156756552Y-88361271D01*
X156839814Y-88259814D01*
X156941271Y-88176552D01*
X156977009Y-88147222D01*
X157133534Y-88063557D01*
X157303373Y-88012037D01*
X157369557Y-88005519D01*
X157435740Y-87999000D01*
X157524260Y-87999000D01*
X157590443Y-88005519D01*
X157590443Y-88005519D01*
G37*
G36*
X162670443Y-88005519D02*
G01*
X162736627Y-88012037D01*
X162906466Y-88063557D01*
X163062991Y-88147222D01*
X163098729Y-88176552D01*
X163200186Y-88259814D01*
X163283448Y-88361271D01*
X163312778Y-88397009D01*
X163396443Y-88553534D01*
X163447963Y-88723373D01*
X163465359Y-88900000D01*
X163447963Y-89076627D01*
X163396443Y-89246466D01*
X163312778Y-89402991D01*
X163283448Y-89438729D01*
X163200186Y-89540186D01*
X163098729Y-89623448D01*
X163062991Y-89652778D01*
X162906466Y-89736443D01*
X162736627Y-89787963D01*
X162670443Y-89794481D01*
X162604260Y-89801000D01*
X162515740Y-89801000D01*
X162449557Y-89794481D01*
X162383373Y-89787963D01*
X162213534Y-89736443D01*
X162057009Y-89652778D01*
X162021271Y-89623448D01*
X161919814Y-89540186D01*
X161836552Y-89438729D01*
X161807222Y-89402991D01*
X161723557Y-89246466D01*
X161672037Y-89076627D01*
X161654641Y-88900000D01*
X161672037Y-88723373D01*
X161723557Y-88553534D01*
X161807222Y-88397009D01*
X161836552Y-88361271D01*
X161919814Y-88259814D01*
X162021271Y-88176552D01*
X162057009Y-88147222D01*
X162213534Y-88063557D01*
X162383373Y-88012037D01*
X162449557Y-88005519D01*
X162515740Y-87999000D01*
X162604260Y-87999000D01*
X162670443Y-88005519D01*
X162670443Y-88005519D01*
G37*
G36*
X160130443Y-88005519D02*
G01*
X160196627Y-88012037D01*
X160366466Y-88063557D01*
X160522991Y-88147222D01*
X160558729Y-88176552D01*
X160660186Y-88259814D01*
X160743448Y-88361271D01*
X160772778Y-88397009D01*
X160856443Y-88553534D01*
X160907963Y-88723373D01*
X160925359Y-88900000D01*
X160907963Y-89076627D01*
X160856443Y-89246466D01*
X160772778Y-89402991D01*
X160743448Y-89438729D01*
X160660186Y-89540186D01*
X160558729Y-89623448D01*
X160522991Y-89652778D01*
X160366466Y-89736443D01*
X160196627Y-89787963D01*
X160130443Y-89794481D01*
X160064260Y-89801000D01*
X159975740Y-89801000D01*
X159909557Y-89794481D01*
X159843373Y-89787963D01*
X159673534Y-89736443D01*
X159517009Y-89652778D01*
X159481271Y-89623448D01*
X159379814Y-89540186D01*
X159296552Y-89438729D01*
X159267222Y-89402991D01*
X159183557Y-89246466D01*
X159132037Y-89076627D01*
X159114641Y-88900000D01*
X159132037Y-88723373D01*
X159183557Y-88553534D01*
X159267222Y-88397009D01*
X159296552Y-88361271D01*
X159379814Y-88259814D01*
X159481271Y-88176552D01*
X159517009Y-88147222D01*
X159673534Y-88063557D01*
X159843373Y-88012037D01*
X159909557Y-88005519D01*
X159975740Y-87999000D01*
X160064260Y-87999000D01*
X160130443Y-88005519D01*
X160130443Y-88005519D01*
G37*
G36*
X155050443Y-88005519D02*
G01*
X155116627Y-88012037D01*
X155286466Y-88063557D01*
X155442991Y-88147222D01*
X155478729Y-88176552D01*
X155580186Y-88259814D01*
X155663448Y-88361271D01*
X155692778Y-88397009D01*
X155776443Y-88553534D01*
X155827963Y-88723373D01*
X155845359Y-88900000D01*
X155827963Y-89076627D01*
X155776443Y-89246466D01*
X155692778Y-89402991D01*
X155663448Y-89438729D01*
X155580186Y-89540186D01*
X155478729Y-89623448D01*
X155442991Y-89652778D01*
X155286466Y-89736443D01*
X155116627Y-89787963D01*
X155050443Y-89794481D01*
X154984260Y-89801000D01*
X154895740Y-89801000D01*
X154829557Y-89794481D01*
X154763373Y-89787963D01*
X154593534Y-89736443D01*
X154437009Y-89652778D01*
X154401271Y-89623448D01*
X154299814Y-89540186D01*
X154216552Y-89438729D01*
X154187222Y-89402991D01*
X154103557Y-89246466D01*
X154052037Y-89076627D01*
X154034641Y-88900000D01*
X154052037Y-88723373D01*
X154103557Y-88553534D01*
X154187222Y-88397009D01*
X154216552Y-88361271D01*
X154299814Y-88259814D01*
X154401271Y-88176552D01*
X154437009Y-88147222D01*
X154593534Y-88063557D01*
X154763373Y-88012037D01*
X154829557Y-88005519D01*
X154895740Y-87999000D01*
X154984260Y-87999000D01*
X155050443Y-88005519D01*
X155050443Y-88005519D01*
G37*
G36*
X152510443Y-88005519D02*
G01*
X152576627Y-88012037D01*
X152746466Y-88063557D01*
X152902991Y-88147222D01*
X152938729Y-88176552D01*
X153040186Y-88259814D01*
X153123448Y-88361271D01*
X153152778Y-88397009D01*
X153236443Y-88553534D01*
X153287963Y-88723373D01*
X153305359Y-88900000D01*
X153287963Y-89076627D01*
X153236443Y-89246466D01*
X153152778Y-89402991D01*
X153123448Y-89438729D01*
X153040186Y-89540186D01*
X152938729Y-89623448D01*
X152902991Y-89652778D01*
X152746466Y-89736443D01*
X152576627Y-89787963D01*
X152510443Y-89794481D01*
X152444260Y-89801000D01*
X152355740Y-89801000D01*
X152289557Y-89794481D01*
X152223373Y-89787963D01*
X152053534Y-89736443D01*
X151897009Y-89652778D01*
X151861271Y-89623448D01*
X151759814Y-89540186D01*
X151676552Y-89438729D01*
X151647222Y-89402991D01*
X151563557Y-89246466D01*
X151512037Y-89076627D01*
X151494641Y-88900000D01*
X151512037Y-88723373D01*
X151563557Y-88553534D01*
X151647222Y-88397009D01*
X151676552Y-88361271D01*
X151759814Y-88259814D01*
X151861271Y-88176552D01*
X151897009Y-88147222D01*
X152053534Y-88063557D01*
X152223373Y-88012037D01*
X152289557Y-88005519D01*
X152355740Y-87999000D01*
X152444260Y-87999000D01*
X152510443Y-88005519D01*
X152510443Y-88005519D01*
G37*
M02*
