G04 #@! TF.GenerationSoftware,KiCad,Pcbnew,(6.0.0-rc1-dev-1307-g4363cc0be)*
G04 #@! TF.CreationDate,2019-01-13T15:25:34+01:00
G04 #@! TF.ProjectId,authbox-relay-driver,61757468-626f-4782-9d72-656c61792d64,rev?*
G04 #@! TF.SameCoordinates,Original*
G04 #@! TF.FileFunction,Legend,Top*
G04 #@! TF.FilePolarity,Positive*
%FSLAX46Y46*%
G04 Gerber Fmt 4.6, Leading zero omitted, Abs format (unit mm)*
G04 Created by KiCad (PCBNEW (6.0.0-rc1-dev-1307-g4363cc0be)) date Sun 13 Jan 2019 03:25:34 PM CET*
%MOMM*%
%LPD*%
G04 APERTURE LIST*
%ADD10C,0.120000*%
%ADD11C,0.150000*%
G04 APERTURE END LIST*
D10*
X125050000Y-136670000D02*
X125050000Y-142170000D01*
X167050000Y-136670000D02*
X167050000Y-142170000D01*
X149550000Y-136670000D02*
X149550000Y-142170000D01*
D11*
X152002380Y-141074761D02*
X151526190Y-141408095D01*
X152002380Y-141646190D02*
X151002380Y-141646190D01*
X151002380Y-141265238D01*
X151050000Y-141170000D01*
X151097619Y-141122380D01*
X151192857Y-141074761D01*
X151335714Y-141074761D01*
X151430952Y-141122380D01*
X151478571Y-141170000D01*
X151526190Y-141265238D01*
X151526190Y-141646190D01*
X151478571Y-140646190D02*
X151478571Y-140312857D01*
X152002380Y-140170000D02*
X152002380Y-140646190D01*
X151002380Y-140646190D01*
X151002380Y-140170000D01*
X152002380Y-139265238D02*
X152002380Y-139741428D01*
X151002380Y-139741428D01*
X151716666Y-138979523D02*
X151716666Y-138503333D01*
X152002380Y-139074761D02*
X151002380Y-138741428D01*
X152002380Y-138408095D01*
X151526190Y-137884285D02*
X152002380Y-137884285D01*
X151002380Y-138217619D02*
X151526190Y-137884285D01*
X151002380Y-137550952D01*
X147978571Y-141931904D02*
X148026190Y-141789047D01*
X148073809Y-141741428D01*
X148169047Y-141693809D01*
X148311904Y-141693809D01*
X148407142Y-141741428D01*
X148454761Y-141789047D01*
X148502380Y-141884285D01*
X148502380Y-142265238D01*
X147502380Y-142265238D01*
X147502380Y-141931904D01*
X147550000Y-141836666D01*
X147597619Y-141789047D01*
X147692857Y-141741428D01*
X147788095Y-141741428D01*
X147883333Y-141789047D01*
X147930952Y-141836666D01*
X147978571Y-141931904D01*
X147978571Y-142265238D01*
X147502380Y-141265238D02*
X148311904Y-141265238D01*
X148407142Y-141217619D01*
X148454761Y-141170000D01*
X148502380Y-141074761D01*
X148502380Y-140884285D01*
X148454761Y-140789047D01*
X148407142Y-140741428D01*
X148311904Y-140693809D01*
X147502380Y-140693809D01*
X147502380Y-140360476D02*
X147502380Y-139789047D01*
X148502380Y-140074761D02*
X147502380Y-140074761D01*
X147502380Y-139598571D02*
X147502380Y-139027142D01*
X148502380Y-139312857D02*
X147502380Y-139312857D01*
X147502380Y-138503333D02*
X147502380Y-138312857D01*
X147550000Y-138217619D01*
X147645238Y-138122380D01*
X147835714Y-138074761D01*
X148169047Y-138074761D01*
X148359523Y-138122380D01*
X148454761Y-138217619D01*
X148502380Y-138312857D01*
X148502380Y-138503333D01*
X148454761Y-138598571D01*
X148359523Y-138693809D01*
X148169047Y-138741428D01*
X147835714Y-138741428D01*
X147645238Y-138693809D01*
X147550000Y-138598571D01*
X147502380Y-138503333D01*
X148502380Y-137646190D02*
X147502380Y-137646190D01*
X148502380Y-137074761D01*
X147502380Y-137074761D01*
D10*
X153050000Y-136670000D02*
X153050000Y-142170000D01*
X160050000Y-136670000D02*
X160050000Y-142170000D01*
X146050000Y-136670000D02*
X146050000Y-142170000D01*
X142550000Y-136670000D02*
X142550000Y-142170000D01*
X135550000Y-136670000D02*
X135550000Y-142170000D01*
X139050000Y-136670000D02*
X139050000Y-142170000D01*
X132050000Y-136670000D02*
X132050000Y-142170000D01*
X128550000Y-136670000D02*
X128550000Y-142170000D01*
D11*
X138002380Y-141717619D02*
X138002380Y-142193809D01*
X137002380Y-142193809D01*
X137716666Y-141431904D02*
X137716666Y-140955714D01*
X138002380Y-141527142D02*
X137002380Y-141193809D01*
X138002380Y-140860476D01*
X138002380Y-140527142D02*
X137002380Y-140527142D01*
X137716666Y-140193809D01*
X137002380Y-139860476D01*
X138002380Y-139860476D01*
X138002380Y-139384285D02*
X137002380Y-139384285D01*
X137002380Y-139003333D01*
X137050000Y-138908095D01*
X137097619Y-138860476D01*
X137192857Y-138812857D01*
X137335714Y-138812857D01*
X137430952Y-138860476D01*
X137478571Y-138908095D01*
X137526190Y-139003333D01*
X137526190Y-139384285D01*
X138097619Y-138622380D02*
X138097619Y-137860476D01*
X137097619Y-137670000D02*
X137050000Y-137622380D01*
X137002380Y-137527142D01*
X137002380Y-137289047D01*
X137050000Y-137193809D01*
X137097619Y-137146190D01*
X137192857Y-137098571D01*
X137288095Y-137098571D01*
X137430952Y-137146190D01*
X138002380Y-137717619D01*
X138002380Y-137098571D01*
X134502380Y-141717619D02*
X134502380Y-142193809D01*
X133502380Y-142193809D01*
X134216666Y-141431904D02*
X134216666Y-140955714D01*
X134502380Y-141527142D02*
X133502380Y-141193809D01*
X134502380Y-140860476D01*
X134502380Y-140527142D02*
X133502380Y-140527142D01*
X134216666Y-140193809D01*
X133502380Y-139860476D01*
X134502380Y-139860476D01*
X134502380Y-139384285D02*
X133502380Y-139384285D01*
X133502380Y-139003333D01*
X133550000Y-138908095D01*
X133597619Y-138860476D01*
X133692857Y-138812857D01*
X133835714Y-138812857D01*
X133930952Y-138860476D01*
X133978571Y-138908095D01*
X134026190Y-139003333D01*
X134026190Y-139384285D01*
X134597619Y-138622380D02*
X134597619Y-137860476D01*
X134502380Y-137098571D02*
X134502380Y-137670000D01*
X134502380Y-137384285D02*
X133502380Y-137384285D01*
X133645238Y-137479523D01*
X133740476Y-137574761D01*
X133788095Y-137670000D01*
X144050000Y-140431904D02*
X144002380Y-140527142D01*
X144002380Y-140670000D01*
X144050000Y-140812857D01*
X144145238Y-140908095D01*
X144240476Y-140955714D01*
X144430952Y-141003333D01*
X144573809Y-141003333D01*
X144764285Y-140955714D01*
X144859523Y-140908095D01*
X144954761Y-140812857D01*
X145002380Y-140670000D01*
X145002380Y-140574761D01*
X144954761Y-140431904D01*
X144907142Y-140384285D01*
X144573809Y-140384285D01*
X144573809Y-140574761D01*
X145002380Y-139955714D02*
X144002380Y-139955714D01*
X145002380Y-139384285D01*
X144002380Y-139384285D01*
X145002380Y-138908095D02*
X144002380Y-138908095D01*
X144002380Y-138670000D01*
X144050000Y-138527142D01*
X144145238Y-138431904D01*
X144240476Y-138384285D01*
X144430952Y-138336666D01*
X144573809Y-138336666D01*
X144764285Y-138384285D01*
X144859523Y-138431904D01*
X144954761Y-138527142D01*
X145002380Y-138670000D01*
X145002380Y-138908095D01*
X130050000Y-140431904D02*
X130002380Y-140527142D01*
X130002380Y-140670000D01*
X130050000Y-140812857D01*
X130145238Y-140908095D01*
X130240476Y-140955714D01*
X130430952Y-141003333D01*
X130573809Y-141003333D01*
X130764285Y-140955714D01*
X130859523Y-140908095D01*
X130954761Y-140812857D01*
X131002380Y-140670000D01*
X131002380Y-140574761D01*
X130954761Y-140431904D01*
X130907142Y-140384285D01*
X130573809Y-140384285D01*
X130573809Y-140574761D01*
X131002380Y-139955714D02*
X130002380Y-139955714D01*
X131002380Y-139384285D01*
X130002380Y-139384285D01*
X131002380Y-138908095D02*
X130002380Y-138908095D01*
X130002380Y-138670000D01*
X130050000Y-138527142D01*
X130145238Y-138431904D01*
X130240476Y-138384285D01*
X130430952Y-138336666D01*
X130573809Y-138336666D01*
X130764285Y-138384285D01*
X130859523Y-138431904D01*
X130954761Y-138527142D01*
X131002380Y-138670000D01*
X131002380Y-138908095D01*
X141121428Y-140955714D02*
X141121428Y-140193809D01*
X141502380Y-140574761D02*
X140740476Y-140574761D01*
X140502380Y-139241428D02*
X140502380Y-139717619D01*
X140978571Y-139765238D01*
X140930952Y-139717619D01*
X140883333Y-139622380D01*
X140883333Y-139384285D01*
X140930952Y-139289047D01*
X140978571Y-139241428D01*
X141073809Y-139193809D01*
X141311904Y-139193809D01*
X141407142Y-139241428D01*
X141454761Y-139289047D01*
X141502380Y-139384285D01*
X141502380Y-139622380D01*
X141454761Y-139717619D01*
X141407142Y-139765238D01*
X140502380Y-138908095D02*
X141502380Y-138574761D01*
X140502380Y-138241428D01*
X127121428Y-140955714D02*
X127121428Y-140193809D01*
X127502380Y-140574761D02*
X126740476Y-140574761D01*
X126502380Y-139241428D02*
X126502380Y-139717619D01*
X126978571Y-139765238D01*
X126930952Y-139717619D01*
X126883333Y-139622380D01*
X126883333Y-139384285D01*
X126930952Y-139289047D01*
X126978571Y-139241428D01*
X127073809Y-139193809D01*
X127311904Y-139193809D01*
X127407142Y-139241428D01*
X127454761Y-139289047D01*
X127502380Y-139384285D01*
X127502380Y-139622380D01*
X127454761Y-139717619D01*
X127407142Y-139765238D01*
X126502380Y-138908095D02*
X127502380Y-138574761D01*
X126502380Y-138241428D01*
X155335714Y-138377142D02*
X155288095Y-138424761D01*
X155145238Y-138472380D01*
X155050000Y-138472380D01*
X154907142Y-138424761D01*
X154811904Y-138329523D01*
X154764285Y-138234285D01*
X154716666Y-138043809D01*
X154716666Y-137900952D01*
X154764285Y-137710476D01*
X154811904Y-137615238D01*
X154907142Y-137520000D01*
X155050000Y-137472380D01*
X155145238Y-137472380D01*
X155288095Y-137520000D01*
X155335714Y-137567619D01*
X155764285Y-137472380D02*
X155764285Y-138281904D01*
X155811904Y-138377142D01*
X155859523Y-138424761D01*
X155954761Y-138472380D01*
X156145238Y-138472380D01*
X156240476Y-138424761D01*
X156288095Y-138377142D01*
X156335714Y-138281904D01*
X156335714Y-137472380D01*
X157383333Y-138472380D02*
X157050000Y-137996190D01*
X156811904Y-138472380D02*
X156811904Y-137472380D01*
X157192857Y-137472380D01*
X157288095Y-137520000D01*
X157335714Y-137567619D01*
X157383333Y-137662857D01*
X157383333Y-137805714D01*
X157335714Y-137900952D01*
X157288095Y-137948571D01*
X157192857Y-137996190D01*
X156811904Y-137996190D01*
X158383333Y-138472380D02*
X158050000Y-137996190D01*
X157811904Y-138472380D02*
X157811904Y-137472380D01*
X158192857Y-137472380D01*
X158288095Y-137520000D01*
X158335714Y-137567619D01*
X158383333Y-137662857D01*
X158383333Y-137805714D01*
X158335714Y-137900952D01*
X158288095Y-137948571D01*
X158192857Y-137996190D01*
X157811904Y-137996190D01*
X154716666Y-139122380D02*
X155383333Y-140122380D01*
X155383333Y-139122380D02*
X154716666Y-140122380D01*
X156097619Y-139598571D02*
X155764285Y-139598571D01*
X155764285Y-140122380D02*
X155764285Y-139122380D01*
X156240476Y-139122380D01*
X156621428Y-140122380D02*
X156621428Y-139122380D01*
X156954761Y-139836666D01*
X157288095Y-139122380D01*
X157288095Y-140122380D01*
X158335714Y-140122380D02*
X158002380Y-139646190D01*
X157764285Y-140122380D02*
X157764285Y-139122380D01*
X158145238Y-139122380D01*
X158240476Y-139170000D01*
X158288095Y-139217619D01*
X158335714Y-139312857D01*
X158335714Y-139455714D01*
X158288095Y-139550952D01*
X158240476Y-139598571D01*
X158145238Y-139646190D01*
X157764285Y-139646190D01*
X155764285Y-141105714D02*
X156478571Y-141105714D01*
X156050000Y-140677142D02*
X155764285Y-141962857D01*
X156383333Y-141534285D02*
X155669047Y-141534285D01*
X156097619Y-141962857D02*
X156383333Y-140677142D01*
X157335714Y-141772380D02*
X156764285Y-141772380D01*
X157050000Y-141772380D02*
X157050000Y-140772380D01*
X156954761Y-140915238D01*
X156859523Y-141010476D01*
X156764285Y-141058095D01*
X162335714Y-138377142D02*
X162288095Y-138424761D01*
X162145238Y-138472380D01*
X162050000Y-138472380D01*
X161907142Y-138424761D01*
X161811904Y-138329523D01*
X161764285Y-138234285D01*
X161716666Y-138043809D01*
X161716666Y-137900952D01*
X161764285Y-137710476D01*
X161811904Y-137615238D01*
X161907142Y-137520000D01*
X162050000Y-137472380D01*
X162145238Y-137472380D01*
X162288095Y-137520000D01*
X162335714Y-137567619D01*
X162764285Y-137472380D02*
X162764285Y-138281904D01*
X162811904Y-138377142D01*
X162859523Y-138424761D01*
X162954761Y-138472380D01*
X163145238Y-138472380D01*
X163240476Y-138424761D01*
X163288095Y-138377142D01*
X163335714Y-138281904D01*
X163335714Y-137472380D01*
X164383333Y-138472380D02*
X164050000Y-137996190D01*
X163811904Y-138472380D02*
X163811904Y-137472380D01*
X164192857Y-137472380D01*
X164288095Y-137520000D01*
X164335714Y-137567619D01*
X164383333Y-137662857D01*
X164383333Y-137805714D01*
X164335714Y-137900952D01*
X164288095Y-137948571D01*
X164192857Y-137996190D01*
X163811904Y-137996190D01*
X165383333Y-138472380D02*
X165050000Y-137996190D01*
X164811904Y-138472380D02*
X164811904Y-137472380D01*
X165192857Y-137472380D01*
X165288095Y-137520000D01*
X165335714Y-137567619D01*
X165383333Y-137662857D01*
X165383333Y-137805714D01*
X165335714Y-137900952D01*
X165288095Y-137948571D01*
X165192857Y-137996190D01*
X164811904Y-137996190D01*
X161716666Y-139122380D02*
X162383333Y-140122380D01*
X162383333Y-139122380D02*
X161716666Y-140122380D01*
X163097619Y-139598571D02*
X162764285Y-139598571D01*
X162764285Y-140122380D02*
X162764285Y-139122380D01*
X163240476Y-139122380D01*
X163621428Y-140122380D02*
X163621428Y-139122380D01*
X163954761Y-139836666D01*
X164288095Y-139122380D01*
X164288095Y-140122380D01*
X165335714Y-140122380D02*
X165002380Y-139646190D01*
X164764285Y-140122380D02*
X164764285Y-139122380D01*
X165145238Y-139122380D01*
X165240476Y-139170000D01*
X165288095Y-139217619D01*
X165335714Y-139312857D01*
X165335714Y-139455714D01*
X165288095Y-139550952D01*
X165240476Y-139598571D01*
X165145238Y-139646190D01*
X164764285Y-139646190D01*
X162764285Y-141105714D02*
X163478571Y-141105714D01*
X163050000Y-140677142D02*
X162764285Y-141962857D01*
X163383333Y-141534285D02*
X162669047Y-141534285D01*
X163097619Y-141962857D02*
X163383333Y-140677142D01*
X163764285Y-140867619D02*
X163811904Y-140820000D01*
X163907142Y-140772380D01*
X164145238Y-140772380D01*
X164240476Y-140820000D01*
X164288095Y-140867619D01*
X164335714Y-140962857D01*
X164335714Y-141058095D01*
X164288095Y-141200952D01*
X163716666Y-141772380D01*
X164335714Y-141772380D01*
D10*
G04 #@! TO.C,U2*
X147650000Y-126780000D02*
X150100000Y-126780000D01*
X149450000Y-123560000D02*
X147650000Y-123560000D01*
G04 #@! TO.C,RV2*
X175975000Y-121540000D02*
X166205000Y-121540000D01*
X175975000Y-111770000D02*
X166205000Y-111770000D01*
X166205000Y-111770000D02*
X166205000Y-121540000D01*
X175975000Y-111770000D02*
X175975000Y-121540000D01*
G04 #@! TO.C,RV1*
X163475000Y-121540000D02*
X153705000Y-121540000D01*
X163475000Y-111770000D02*
X153705000Y-111770000D01*
X153705000Y-111770000D02*
X153705000Y-121540000D01*
X163475000Y-111770000D02*
X163475000Y-121540000D01*
G04 #@! TO.C,Q4*
X172790000Y-107090000D02*
X174250000Y-107090000D01*
X172790000Y-110250000D02*
X175950000Y-110250000D01*
X172790000Y-110250000D02*
X172790000Y-109320000D01*
X172790000Y-107090000D02*
X172790000Y-108020000D01*
G04 #@! TO.C,Q3*
X134970000Y-125930000D02*
X134970000Y-124470000D01*
X138130000Y-125930000D02*
X138130000Y-122770000D01*
X138130000Y-125930000D02*
X137200000Y-125930000D01*
X134970000Y-125930000D02*
X135900000Y-125930000D01*
G04 #@! TO.C,Q2*
X140470000Y-125930000D02*
X140470000Y-124470000D01*
X143630000Y-125930000D02*
X143630000Y-122770000D01*
X143630000Y-125930000D02*
X142700000Y-125930000D01*
X140470000Y-125930000D02*
X141400000Y-125930000D01*
G04 #@! TO.C,Q1*
X160290000Y-107090000D02*
X161750000Y-107090000D01*
X160290000Y-110250000D02*
X163450000Y-110250000D01*
X160290000Y-110250000D02*
X160290000Y-109320000D01*
X160290000Y-107090000D02*
X160290000Y-108020000D01*
G04 #@! TO.C,D6*
X166080000Y-107430000D02*
X168350000Y-107430000D01*
X166080000Y-105910000D02*
X166080000Y-107430000D01*
X168350000Y-105910000D02*
X166080000Y-105910000D01*
G04 #@! TO.C,D5*
X172550000Y-128420000D02*
X172550000Y-124520000D01*
X174550000Y-128420000D02*
X174550000Y-124520000D01*
X172550000Y-128420000D02*
X174550000Y-128420000D01*
G04 #@! TO.C,D4*
X170050000Y-128470000D02*
X167050000Y-128470000D01*
X167050000Y-123870000D02*
X170050000Y-123870000D01*
X171150000Y-128470000D02*
X170950000Y-128470000D01*
X171150000Y-123870000D02*
X171150000Y-128470000D01*
X170950000Y-123870000D02*
X171150000Y-123870000D01*
X165950000Y-123870000D02*
X165950000Y-129670000D01*
X166150000Y-123870000D02*
X165950000Y-123870000D01*
G04 #@! TO.C,D3*
X153580000Y-107430000D02*
X155850000Y-107430000D01*
X153580000Y-105910000D02*
X153580000Y-107430000D01*
X155850000Y-105910000D02*
X153580000Y-105910000D01*
G04 #@! TO.C,D2*
X160050000Y-128420000D02*
X160050000Y-124520000D01*
X162050000Y-128420000D02*
X162050000Y-124520000D01*
X160050000Y-128420000D02*
X162050000Y-128420000D01*
G04 #@! TO.C,D1*
X157550000Y-128470000D02*
X154550000Y-128470000D01*
X154550000Y-123870000D02*
X157550000Y-123870000D01*
X158650000Y-128470000D02*
X158450000Y-128470000D01*
X158650000Y-123870000D02*
X158650000Y-128470000D01*
X158450000Y-123870000D02*
X158650000Y-123870000D01*
X153450000Y-123870000D02*
X153450000Y-129670000D01*
X153650000Y-123870000D02*
X153450000Y-123870000D01*
G04 #@! TO.C,R9*
D11*
X170383333Y-99172380D02*
X170050000Y-98696190D01*
X169811904Y-99172380D02*
X169811904Y-98172380D01*
X170192857Y-98172380D01*
X170288095Y-98220000D01*
X170335714Y-98267619D01*
X170383333Y-98362857D01*
X170383333Y-98505714D01*
X170335714Y-98600952D01*
X170288095Y-98648571D01*
X170192857Y-98696190D01*
X169811904Y-98696190D01*
X170859523Y-99172380D02*
X171050000Y-99172380D01*
X171145238Y-99124761D01*
X171192857Y-99077142D01*
X171288095Y-98934285D01*
X171335714Y-98743809D01*
X171335714Y-98362857D01*
X171288095Y-98267619D01*
X171240476Y-98220000D01*
X171145238Y-98172380D01*
X170954761Y-98172380D01*
X170859523Y-98220000D01*
X170811904Y-98267619D01*
X170764285Y-98362857D01*
X170764285Y-98600952D01*
X170811904Y-98696190D01*
X170859523Y-98743809D01*
X170954761Y-98791428D01*
X171145238Y-98791428D01*
X171240476Y-98743809D01*
X171288095Y-98696190D01*
X171335714Y-98600952D01*
G04 #@! TO.C,U2*
X151002380Y-125431904D02*
X151811904Y-125431904D01*
X151907142Y-125384285D01*
X151954761Y-125336666D01*
X152002380Y-125241428D01*
X152002380Y-125050952D01*
X151954761Y-124955714D01*
X151907142Y-124908095D01*
X151811904Y-124860476D01*
X151002380Y-124860476D01*
X151097619Y-124431904D02*
X151050000Y-124384285D01*
X151002380Y-124289047D01*
X151002380Y-124050952D01*
X151050000Y-123955714D01*
X151097619Y-123908095D01*
X151192857Y-123860476D01*
X151288095Y-123860476D01*
X151430952Y-123908095D01*
X152002380Y-124479523D01*
X152002380Y-123860476D01*
G04 #@! TO.C,RV2*
X177557380Y-117250238D02*
X177081190Y-117583571D01*
X177557380Y-117821666D02*
X176557380Y-117821666D01*
X176557380Y-117440714D01*
X176605000Y-117345476D01*
X176652619Y-117297857D01*
X176747857Y-117250238D01*
X176890714Y-117250238D01*
X176985952Y-117297857D01*
X177033571Y-117345476D01*
X177081190Y-117440714D01*
X177081190Y-117821666D01*
X176557380Y-116964523D02*
X177557380Y-116631190D01*
X176557380Y-116297857D01*
X176652619Y-116012142D02*
X176605000Y-115964523D01*
X176557380Y-115869285D01*
X176557380Y-115631190D01*
X176605000Y-115535952D01*
X176652619Y-115488333D01*
X176747857Y-115440714D01*
X176843095Y-115440714D01*
X176985952Y-115488333D01*
X177557380Y-116059761D01*
X177557380Y-115440714D01*
G04 #@! TO.C,RV1*
X165057380Y-117250238D02*
X164581190Y-117583571D01*
X165057380Y-117821666D02*
X164057380Y-117821666D01*
X164057380Y-117440714D01*
X164105000Y-117345476D01*
X164152619Y-117297857D01*
X164247857Y-117250238D01*
X164390714Y-117250238D01*
X164485952Y-117297857D01*
X164533571Y-117345476D01*
X164581190Y-117440714D01*
X164581190Y-117821666D01*
X164057380Y-116964523D02*
X165057380Y-116631190D01*
X164057380Y-116297857D01*
X165057380Y-115440714D02*
X165057380Y-116012142D01*
X165057380Y-115726428D02*
X164057380Y-115726428D01*
X164200238Y-115821666D01*
X164295476Y-115916904D01*
X164343095Y-116012142D01*
G04 #@! TO.C,R12*
X135907142Y-119172380D02*
X135573809Y-118696190D01*
X135335714Y-119172380D02*
X135335714Y-118172380D01*
X135716666Y-118172380D01*
X135811904Y-118220000D01*
X135859523Y-118267619D01*
X135907142Y-118362857D01*
X135907142Y-118505714D01*
X135859523Y-118600952D01*
X135811904Y-118648571D01*
X135716666Y-118696190D01*
X135335714Y-118696190D01*
X136859523Y-119172380D02*
X136288095Y-119172380D01*
X136573809Y-119172380D02*
X136573809Y-118172380D01*
X136478571Y-118315238D01*
X136383333Y-118410476D01*
X136288095Y-118458095D01*
X137240476Y-118267619D02*
X137288095Y-118220000D01*
X137383333Y-118172380D01*
X137621428Y-118172380D01*
X137716666Y-118220000D01*
X137764285Y-118267619D01*
X137811904Y-118362857D01*
X137811904Y-118458095D01*
X137764285Y-118600952D01*
X137192857Y-119172380D01*
X137811904Y-119172380D01*
G04 #@! TO.C,R11*
X141407142Y-119172380D02*
X141073809Y-118696190D01*
X140835714Y-119172380D02*
X140835714Y-118172380D01*
X141216666Y-118172380D01*
X141311904Y-118220000D01*
X141359523Y-118267619D01*
X141407142Y-118362857D01*
X141407142Y-118505714D01*
X141359523Y-118600952D01*
X141311904Y-118648571D01*
X141216666Y-118696190D01*
X140835714Y-118696190D01*
X142359523Y-119172380D02*
X141788095Y-119172380D01*
X142073809Y-119172380D02*
X142073809Y-118172380D01*
X141978571Y-118315238D01*
X141883333Y-118410476D01*
X141788095Y-118458095D01*
X143311904Y-119172380D02*
X142740476Y-119172380D01*
X143026190Y-119172380D02*
X143026190Y-118172380D01*
X142930952Y-118315238D01*
X142835714Y-118410476D01*
X142740476Y-118458095D01*
G04 #@! TO.C,R10*
X177502380Y-102812857D02*
X177026190Y-103146190D01*
X177502380Y-103384285D02*
X176502380Y-103384285D01*
X176502380Y-103003333D01*
X176550000Y-102908095D01*
X176597619Y-102860476D01*
X176692857Y-102812857D01*
X176835714Y-102812857D01*
X176930952Y-102860476D01*
X176978571Y-102908095D01*
X177026190Y-103003333D01*
X177026190Y-103384285D01*
X177502380Y-101860476D02*
X177502380Y-102431904D01*
X177502380Y-102146190D02*
X176502380Y-102146190D01*
X176645238Y-102241428D01*
X176740476Y-102336666D01*
X176788095Y-102431904D01*
X176502380Y-101241428D02*
X176502380Y-101146190D01*
X176550000Y-101050952D01*
X176597619Y-101003333D01*
X176692857Y-100955714D01*
X176883333Y-100908095D01*
X177121428Y-100908095D01*
X177311904Y-100955714D01*
X177407142Y-101003333D01*
X177454761Y-101050952D01*
X177502380Y-101146190D01*
X177502380Y-101241428D01*
X177454761Y-101336666D01*
X177407142Y-101384285D01*
X177311904Y-101431904D01*
X177121428Y-101479523D01*
X176883333Y-101479523D01*
X176692857Y-101431904D01*
X176597619Y-101384285D01*
X176550000Y-101336666D01*
X176502380Y-101241428D01*
G04 #@! TO.C,R8*
X167383333Y-103122380D02*
X167050000Y-102646190D01*
X166811904Y-103122380D02*
X166811904Y-102122380D01*
X167192857Y-102122380D01*
X167288095Y-102170000D01*
X167335714Y-102217619D01*
X167383333Y-102312857D01*
X167383333Y-102455714D01*
X167335714Y-102550952D01*
X167288095Y-102598571D01*
X167192857Y-102646190D01*
X166811904Y-102646190D01*
X167954761Y-102550952D02*
X167859523Y-102503333D01*
X167811904Y-102455714D01*
X167764285Y-102360476D01*
X167764285Y-102312857D01*
X167811904Y-102217619D01*
X167859523Y-102170000D01*
X167954761Y-102122380D01*
X168145238Y-102122380D01*
X168240476Y-102170000D01*
X168288095Y-102217619D01*
X168335714Y-102312857D01*
X168335714Y-102360476D01*
X168288095Y-102455714D01*
X168240476Y-102503333D01*
X168145238Y-102550952D01*
X167954761Y-102550952D01*
X167859523Y-102598571D01*
X167811904Y-102646190D01*
X167764285Y-102741428D01*
X167764285Y-102931904D01*
X167811904Y-103027142D01*
X167859523Y-103074761D01*
X167954761Y-103122380D01*
X168145238Y-103122380D01*
X168240476Y-103074761D01*
X168288095Y-103027142D01*
X168335714Y-102931904D01*
X168335714Y-102741428D01*
X168288095Y-102646190D01*
X168240476Y-102598571D01*
X168145238Y-102550952D01*
G04 #@! TO.C,R7*
X167383333Y-108672380D02*
X167050000Y-108196190D01*
X166811904Y-108672380D02*
X166811904Y-107672380D01*
X167192857Y-107672380D01*
X167288095Y-107720000D01*
X167335714Y-107767619D01*
X167383333Y-107862857D01*
X167383333Y-108005714D01*
X167335714Y-108100952D01*
X167288095Y-108148571D01*
X167192857Y-108196190D01*
X166811904Y-108196190D01*
X167716666Y-107672380D02*
X168383333Y-107672380D01*
X167954761Y-108672380D01*
G04 #@! TO.C,R6*
X165002380Y-102836666D02*
X164526190Y-103170000D01*
X165002380Y-103408095D02*
X164002380Y-103408095D01*
X164002380Y-103027142D01*
X164050000Y-102931904D01*
X164097619Y-102884285D01*
X164192857Y-102836666D01*
X164335714Y-102836666D01*
X164430952Y-102884285D01*
X164478571Y-102931904D01*
X164526190Y-103027142D01*
X164526190Y-103408095D01*
X164002380Y-101979523D02*
X164002380Y-102170000D01*
X164050000Y-102265238D01*
X164097619Y-102312857D01*
X164240476Y-102408095D01*
X164430952Y-102455714D01*
X164811904Y-102455714D01*
X164907142Y-102408095D01*
X164954761Y-102360476D01*
X165002380Y-102265238D01*
X165002380Y-102074761D01*
X164954761Y-101979523D01*
X164907142Y-101931904D01*
X164811904Y-101884285D01*
X164573809Y-101884285D01*
X164478571Y-101931904D01*
X164430952Y-101979523D01*
X164383333Y-102074761D01*
X164383333Y-102265238D01*
X164430952Y-102360476D01*
X164478571Y-102408095D01*
X164573809Y-102455714D01*
G04 #@! TO.C,R5*
X157883333Y-99172380D02*
X157550000Y-98696190D01*
X157311904Y-99172380D02*
X157311904Y-98172380D01*
X157692857Y-98172380D01*
X157788095Y-98220000D01*
X157835714Y-98267619D01*
X157883333Y-98362857D01*
X157883333Y-98505714D01*
X157835714Y-98600952D01*
X157788095Y-98648571D01*
X157692857Y-98696190D01*
X157311904Y-98696190D01*
X158788095Y-98172380D02*
X158311904Y-98172380D01*
X158264285Y-98648571D01*
X158311904Y-98600952D01*
X158407142Y-98553333D01*
X158645238Y-98553333D01*
X158740476Y-98600952D01*
X158788095Y-98648571D01*
X158835714Y-98743809D01*
X158835714Y-98981904D01*
X158788095Y-99077142D01*
X158740476Y-99124761D01*
X158645238Y-99172380D01*
X158407142Y-99172380D01*
X158311904Y-99124761D01*
X158264285Y-99077142D01*
G04 #@! TO.C,R4*
X154883333Y-103122380D02*
X154550000Y-102646190D01*
X154311904Y-103122380D02*
X154311904Y-102122380D01*
X154692857Y-102122380D01*
X154788095Y-102170000D01*
X154835714Y-102217619D01*
X154883333Y-102312857D01*
X154883333Y-102455714D01*
X154835714Y-102550952D01*
X154788095Y-102598571D01*
X154692857Y-102646190D01*
X154311904Y-102646190D01*
X155740476Y-102455714D02*
X155740476Y-103122380D01*
X155502380Y-102074761D02*
X155264285Y-102789047D01*
X155883333Y-102789047D01*
G04 #@! TO.C,R3*
X154883333Y-108672380D02*
X154550000Y-108196190D01*
X154311904Y-108672380D02*
X154311904Y-107672380D01*
X154692857Y-107672380D01*
X154788095Y-107720000D01*
X154835714Y-107767619D01*
X154883333Y-107862857D01*
X154883333Y-108005714D01*
X154835714Y-108100952D01*
X154788095Y-108148571D01*
X154692857Y-108196190D01*
X154311904Y-108196190D01*
X155216666Y-107672380D02*
X155835714Y-107672380D01*
X155502380Y-108053333D01*
X155645238Y-108053333D01*
X155740476Y-108100952D01*
X155788095Y-108148571D01*
X155835714Y-108243809D01*
X155835714Y-108481904D01*
X155788095Y-108577142D01*
X155740476Y-108624761D01*
X155645238Y-108672380D01*
X155359523Y-108672380D01*
X155264285Y-108624761D01*
X155216666Y-108577142D01*
G04 #@! TO.C,R2*
X148383333Y-118172380D02*
X148050000Y-117696190D01*
X147811904Y-118172380D02*
X147811904Y-117172380D01*
X148192857Y-117172380D01*
X148288095Y-117220000D01*
X148335714Y-117267619D01*
X148383333Y-117362857D01*
X148383333Y-117505714D01*
X148335714Y-117600952D01*
X148288095Y-117648571D01*
X148192857Y-117696190D01*
X147811904Y-117696190D01*
X148764285Y-117267619D02*
X148811904Y-117220000D01*
X148907142Y-117172380D01*
X149145238Y-117172380D01*
X149240476Y-117220000D01*
X149288095Y-117267619D01*
X149335714Y-117362857D01*
X149335714Y-117458095D01*
X149288095Y-117600952D01*
X148716666Y-118172380D01*
X149335714Y-118172380D01*
G04 #@! TO.C,R1*
X138383333Y-115072380D02*
X138050000Y-114596190D01*
X137811904Y-115072380D02*
X137811904Y-114072380D01*
X138192857Y-114072380D01*
X138288095Y-114120000D01*
X138335714Y-114167619D01*
X138383333Y-114262857D01*
X138383333Y-114405714D01*
X138335714Y-114500952D01*
X138288095Y-114548571D01*
X138192857Y-114596190D01*
X137811904Y-114596190D01*
X139335714Y-115072380D02*
X138764285Y-115072380D01*
X139050000Y-115072380D02*
X139050000Y-114072380D01*
X138954761Y-114215238D01*
X138859523Y-114310476D01*
X138764285Y-114358095D01*
G04 #@! TO.C,Q4*
X177597619Y-108765238D02*
X177550000Y-108860476D01*
X177454761Y-108955714D01*
X177311904Y-109098571D01*
X177264285Y-109193809D01*
X177264285Y-109289047D01*
X177502380Y-109241428D02*
X177454761Y-109336666D01*
X177359523Y-109431904D01*
X177169047Y-109479523D01*
X176835714Y-109479523D01*
X176645238Y-109431904D01*
X176550000Y-109336666D01*
X176502380Y-109241428D01*
X176502380Y-109050952D01*
X176550000Y-108955714D01*
X176645238Y-108860476D01*
X176835714Y-108812857D01*
X177169047Y-108812857D01*
X177359523Y-108860476D01*
X177454761Y-108955714D01*
X177502380Y-109050952D01*
X177502380Y-109241428D01*
X176835714Y-107955714D02*
X177502380Y-107955714D01*
X176454761Y-108193809D02*
X177169047Y-108431904D01*
X177169047Y-107812857D01*
G04 #@! TO.C,Q3*
X139597619Y-125265238D02*
X139550000Y-125360476D01*
X139454761Y-125455714D01*
X139311904Y-125598571D01*
X139264285Y-125693809D01*
X139264285Y-125789047D01*
X139502380Y-125741428D02*
X139454761Y-125836666D01*
X139359523Y-125931904D01*
X139169047Y-125979523D01*
X138835714Y-125979523D01*
X138645238Y-125931904D01*
X138550000Y-125836666D01*
X138502380Y-125741428D01*
X138502380Y-125550952D01*
X138550000Y-125455714D01*
X138645238Y-125360476D01*
X138835714Y-125312857D01*
X139169047Y-125312857D01*
X139359523Y-125360476D01*
X139454761Y-125455714D01*
X139502380Y-125550952D01*
X139502380Y-125741428D01*
X138502380Y-124979523D02*
X138502380Y-124360476D01*
X138883333Y-124693809D01*
X138883333Y-124550952D01*
X138930952Y-124455714D01*
X138978571Y-124408095D01*
X139073809Y-124360476D01*
X139311904Y-124360476D01*
X139407142Y-124408095D01*
X139454761Y-124455714D01*
X139502380Y-124550952D01*
X139502380Y-124836666D01*
X139454761Y-124931904D01*
X139407142Y-124979523D01*
G04 #@! TO.C,Q2*
X145097619Y-125265238D02*
X145050000Y-125360476D01*
X144954761Y-125455714D01*
X144811904Y-125598571D01*
X144764285Y-125693809D01*
X144764285Y-125789047D01*
X145002380Y-125741428D02*
X144954761Y-125836666D01*
X144859523Y-125931904D01*
X144669047Y-125979523D01*
X144335714Y-125979523D01*
X144145238Y-125931904D01*
X144050000Y-125836666D01*
X144002380Y-125741428D01*
X144002380Y-125550952D01*
X144050000Y-125455714D01*
X144145238Y-125360476D01*
X144335714Y-125312857D01*
X144669047Y-125312857D01*
X144859523Y-125360476D01*
X144954761Y-125455714D01*
X145002380Y-125550952D01*
X145002380Y-125741428D01*
X144097619Y-124931904D02*
X144050000Y-124884285D01*
X144002380Y-124789047D01*
X144002380Y-124550952D01*
X144050000Y-124455714D01*
X144097619Y-124408095D01*
X144192857Y-124360476D01*
X144288095Y-124360476D01*
X144430952Y-124408095D01*
X145002380Y-124979523D01*
X145002380Y-124360476D01*
G04 #@! TO.C,Q1*
X165097619Y-108765238D02*
X165050000Y-108860476D01*
X164954761Y-108955714D01*
X164811904Y-109098571D01*
X164764285Y-109193809D01*
X164764285Y-109289047D01*
X165002380Y-109241428D02*
X164954761Y-109336666D01*
X164859523Y-109431904D01*
X164669047Y-109479523D01*
X164335714Y-109479523D01*
X164145238Y-109431904D01*
X164050000Y-109336666D01*
X164002380Y-109241428D01*
X164002380Y-109050952D01*
X164050000Y-108955714D01*
X164145238Y-108860476D01*
X164335714Y-108812857D01*
X164669047Y-108812857D01*
X164859523Y-108860476D01*
X164954761Y-108955714D01*
X165002380Y-109050952D01*
X165002380Y-109241428D01*
X165002380Y-107860476D02*
X165002380Y-108431904D01*
X165002380Y-108146190D02*
X164002380Y-108146190D01*
X164145238Y-108241428D01*
X164240476Y-108336666D01*
X164288095Y-108431904D01*
G04 #@! TO.C,D6*
X166811904Y-105672380D02*
X166811904Y-104672380D01*
X167050000Y-104672380D01*
X167192857Y-104720000D01*
X167288095Y-104815238D01*
X167335714Y-104910476D01*
X167383333Y-105100952D01*
X167383333Y-105243809D01*
X167335714Y-105434285D01*
X167288095Y-105529523D01*
X167192857Y-105624761D01*
X167050000Y-105672380D01*
X166811904Y-105672380D01*
X168240476Y-104672380D02*
X168050000Y-104672380D01*
X167954761Y-104720000D01*
X167907142Y-104767619D01*
X167811904Y-104910476D01*
X167764285Y-105100952D01*
X167764285Y-105481904D01*
X167811904Y-105577142D01*
X167859523Y-105624761D01*
X167954761Y-105672380D01*
X168145238Y-105672380D01*
X168240476Y-105624761D01*
X168288095Y-105577142D01*
X168335714Y-105481904D01*
X168335714Y-105243809D01*
X168288095Y-105148571D01*
X168240476Y-105100952D01*
X168145238Y-105053333D01*
X167954761Y-105053333D01*
X167859523Y-105100952D01*
X167811904Y-105148571D01*
X167764285Y-105243809D01*
G04 #@! TO.C,D5*
X174002380Y-130408095D02*
X173002380Y-130408095D01*
X173002380Y-130170000D01*
X173050000Y-130027142D01*
X173145238Y-129931904D01*
X173240476Y-129884285D01*
X173430952Y-129836666D01*
X173573809Y-129836666D01*
X173764285Y-129884285D01*
X173859523Y-129931904D01*
X173954761Y-130027142D01*
X174002380Y-130170000D01*
X174002380Y-130408095D01*
X173002380Y-128931904D02*
X173002380Y-129408095D01*
X173478571Y-129455714D01*
X173430952Y-129408095D01*
X173383333Y-129312857D01*
X173383333Y-129074761D01*
X173430952Y-128979523D01*
X173478571Y-128931904D01*
X173573809Y-128884285D01*
X173811904Y-128884285D01*
X173907142Y-128931904D01*
X173954761Y-128979523D01*
X174002380Y-129074761D01*
X174002380Y-129312857D01*
X173954761Y-129408095D01*
X173907142Y-129455714D01*
G04 #@! TO.C,D4*
X169811904Y-131622380D02*
X169811904Y-130622380D01*
X170050000Y-130622380D01*
X170192857Y-130670000D01*
X170288095Y-130765238D01*
X170335714Y-130860476D01*
X170383333Y-131050952D01*
X170383333Y-131193809D01*
X170335714Y-131384285D01*
X170288095Y-131479523D01*
X170192857Y-131574761D01*
X170050000Y-131622380D01*
X169811904Y-131622380D01*
X171240476Y-130955714D02*
X171240476Y-131622380D01*
X171002380Y-130574761D02*
X170764285Y-131289047D01*
X171383333Y-131289047D01*
G04 #@! TO.C,D3*
X154311904Y-105672380D02*
X154311904Y-104672380D01*
X154550000Y-104672380D01*
X154692857Y-104720000D01*
X154788095Y-104815238D01*
X154835714Y-104910476D01*
X154883333Y-105100952D01*
X154883333Y-105243809D01*
X154835714Y-105434285D01*
X154788095Y-105529523D01*
X154692857Y-105624761D01*
X154550000Y-105672380D01*
X154311904Y-105672380D01*
X155216666Y-104672380D02*
X155835714Y-104672380D01*
X155502380Y-105053333D01*
X155645238Y-105053333D01*
X155740476Y-105100952D01*
X155788095Y-105148571D01*
X155835714Y-105243809D01*
X155835714Y-105481904D01*
X155788095Y-105577142D01*
X155740476Y-105624761D01*
X155645238Y-105672380D01*
X155359523Y-105672380D01*
X155264285Y-105624761D01*
X155216666Y-105577142D01*
G04 #@! TO.C,D2*
X161502380Y-130408095D02*
X160502380Y-130408095D01*
X160502380Y-130170000D01*
X160550000Y-130027142D01*
X160645238Y-129931904D01*
X160740476Y-129884285D01*
X160930952Y-129836666D01*
X161073809Y-129836666D01*
X161264285Y-129884285D01*
X161359523Y-129931904D01*
X161454761Y-130027142D01*
X161502380Y-130170000D01*
X161502380Y-130408095D01*
X160597619Y-129455714D02*
X160550000Y-129408095D01*
X160502380Y-129312857D01*
X160502380Y-129074761D01*
X160550000Y-128979523D01*
X160597619Y-128931904D01*
X160692857Y-128884285D01*
X160788095Y-128884285D01*
X160930952Y-128931904D01*
X161502380Y-129503333D01*
X161502380Y-128884285D01*
G04 #@! TO.C,D1*
X152802380Y-128908095D02*
X151802380Y-128908095D01*
X151802380Y-128670000D01*
X151850000Y-128527142D01*
X151945238Y-128431904D01*
X152040476Y-128384285D01*
X152230952Y-128336666D01*
X152373809Y-128336666D01*
X152564285Y-128384285D01*
X152659523Y-128431904D01*
X152754761Y-128527142D01*
X152802380Y-128670000D01*
X152802380Y-128908095D01*
X152802380Y-127384285D02*
X152802380Y-127955714D01*
X152802380Y-127670000D02*
X151802380Y-127670000D01*
X151945238Y-127765238D01*
X152040476Y-127860476D01*
X152088095Y-127955714D01*
G04 #@! TO.C,C6*
X177407142Y-105336666D02*
X177454761Y-105384285D01*
X177502380Y-105527142D01*
X177502380Y-105622380D01*
X177454761Y-105765238D01*
X177359523Y-105860476D01*
X177264285Y-105908095D01*
X177073809Y-105955714D01*
X176930952Y-105955714D01*
X176740476Y-105908095D01*
X176645238Y-105860476D01*
X176550000Y-105765238D01*
X176502380Y-105622380D01*
X176502380Y-105527142D01*
X176550000Y-105384285D01*
X176597619Y-105336666D01*
X176502380Y-104479523D02*
X176502380Y-104670000D01*
X176550000Y-104765238D01*
X176597619Y-104812857D01*
X176740476Y-104908095D01*
X176930952Y-104955714D01*
X177311904Y-104955714D01*
X177407142Y-104908095D01*
X177454761Y-104860476D01*
X177502380Y-104765238D01*
X177502380Y-104574761D01*
X177454761Y-104479523D01*
X177407142Y-104431904D01*
X177311904Y-104384285D01*
X177073809Y-104384285D01*
X176978571Y-104431904D01*
X176930952Y-104479523D01*
X176883333Y-104574761D01*
X176883333Y-104765238D01*
X176930952Y-104860476D01*
X176978571Y-104908095D01*
X177073809Y-104955714D01*
G04 #@! TO.C,C5*
X148383333Y-130977142D02*
X148335714Y-131024761D01*
X148192857Y-131072380D01*
X148097619Y-131072380D01*
X147954761Y-131024761D01*
X147859523Y-130929523D01*
X147811904Y-130834285D01*
X147764285Y-130643809D01*
X147764285Y-130500952D01*
X147811904Y-130310476D01*
X147859523Y-130215238D01*
X147954761Y-130120000D01*
X148097619Y-130072380D01*
X148192857Y-130072380D01*
X148335714Y-130120000D01*
X148383333Y-130167619D01*
X149288095Y-130072380D02*
X148811904Y-130072380D01*
X148764285Y-130548571D01*
X148811904Y-130500952D01*
X148907142Y-130453333D01*
X149145238Y-130453333D01*
X149240476Y-130500952D01*
X149288095Y-130548571D01*
X149335714Y-130643809D01*
X149335714Y-130881904D01*
X149288095Y-130977142D01*
X149240476Y-131024761D01*
X149145238Y-131072380D01*
X148907142Y-131072380D01*
X148811904Y-131024761D01*
X148764285Y-130977142D01*
G04 #@! TO.C,C4*
X151383333Y-122027142D02*
X151335714Y-122074761D01*
X151192857Y-122122380D01*
X151097619Y-122122380D01*
X150954761Y-122074761D01*
X150859523Y-121979523D01*
X150811904Y-121884285D01*
X150764285Y-121693809D01*
X150764285Y-121550952D01*
X150811904Y-121360476D01*
X150859523Y-121265238D01*
X150954761Y-121170000D01*
X151097619Y-121122380D01*
X151192857Y-121122380D01*
X151335714Y-121170000D01*
X151383333Y-121217619D01*
X152240476Y-121455714D02*
X152240476Y-122122380D01*
X152002380Y-121074761D02*
X151764285Y-121789047D01*
X152383333Y-121789047D01*
G04 #@! TO.C,C3*
X176907142Y-129336666D02*
X176954761Y-129384285D01*
X177002380Y-129527142D01*
X177002380Y-129622380D01*
X176954761Y-129765238D01*
X176859523Y-129860476D01*
X176764285Y-129908095D01*
X176573809Y-129955714D01*
X176430952Y-129955714D01*
X176240476Y-129908095D01*
X176145238Y-129860476D01*
X176050000Y-129765238D01*
X176002380Y-129622380D01*
X176002380Y-129527142D01*
X176050000Y-129384285D01*
X176097619Y-129336666D01*
X176002380Y-129003333D02*
X176002380Y-128384285D01*
X176383333Y-128717619D01*
X176383333Y-128574761D01*
X176430952Y-128479523D01*
X176478571Y-128431904D01*
X176573809Y-128384285D01*
X176811904Y-128384285D01*
X176907142Y-128431904D01*
X176954761Y-128479523D01*
X177002380Y-128574761D01*
X177002380Y-128860476D01*
X176954761Y-128955714D01*
X176907142Y-129003333D01*
G04 #@! TO.C,C2*
X164907142Y-105336666D02*
X164954761Y-105384285D01*
X165002380Y-105527142D01*
X165002380Y-105622380D01*
X164954761Y-105765238D01*
X164859523Y-105860476D01*
X164764285Y-105908095D01*
X164573809Y-105955714D01*
X164430952Y-105955714D01*
X164240476Y-105908095D01*
X164145238Y-105860476D01*
X164050000Y-105765238D01*
X164002380Y-105622380D01*
X164002380Y-105527142D01*
X164050000Y-105384285D01*
X164097619Y-105336666D01*
X164097619Y-104955714D02*
X164050000Y-104908095D01*
X164002380Y-104812857D01*
X164002380Y-104574761D01*
X164050000Y-104479523D01*
X164097619Y-104431904D01*
X164192857Y-104384285D01*
X164288095Y-104384285D01*
X164430952Y-104431904D01*
X165002380Y-105003333D01*
X165002380Y-104384285D01*
G04 #@! TO.C,C1*
X164407142Y-129336666D02*
X164454761Y-129384285D01*
X164502380Y-129527142D01*
X164502380Y-129622380D01*
X164454761Y-129765238D01*
X164359523Y-129860476D01*
X164264285Y-129908095D01*
X164073809Y-129955714D01*
X163930952Y-129955714D01*
X163740476Y-129908095D01*
X163645238Y-129860476D01*
X163550000Y-129765238D01*
X163502380Y-129622380D01*
X163502380Y-129527142D01*
X163550000Y-129384285D01*
X163597619Y-129336666D01*
X164502380Y-128384285D02*
X164502380Y-128955714D01*
X164502380Y-128670000D02*
X163502380Y-128670000D01*
X163645238Y-128765238D01*
X163740476Y-128860476D01*
X163788095Y-128955714D01*
G04 #@! TD*
M02*
